<svg width="512" height="336" viewBox="0 0 512 336" xmlns="http://www.w3.org/2000/svg">
  <g fill="none">
    <path d="M503.172 335.724H8.828A8.829 8.829 0 0 1 0 326.896V9.104A8.829 8.829 0 0 1 8.828.276h494.345a8.829 8.829 0 0 1 8.828 8.828v317.792a8.83 8.83 0 0 1-8.829 8.828z" fill="#41479B"/>
    <path d="M247.172.276h-15.333l-81.77 53.573V.276h-44.138v53.573L24.161.276H8.828A8.829 8.829 0 0 0 0 9.104v7.002l70.155 45.963H0v44.138h70.155L0 152.171v7.001A8.829 8.829 0 0 0 8.828 168h15.333l81.77-53.573V168h44.138v-53.573L231.838 168h15.333a8.829 8.829 0 0 0 8.828-8.828v-7.002l-70.154-45.963h70.154V62.069h-70.155l70.155-45.963V9.104a8.827 8.827 0 0 0-8.827-8.828z" fill="#F5F5F5"/>
    <g fill="#FF4B55">
      <path d="M255.999 70.897H141.241V.276h-26.483v70.621H0v26.482h114.758V168h26.483V97.379h114.758z"/>
      <path d="M97.103 62.069L4.207 1.768C1.735 3.333 0 5.961 0 9.104v.458l80.889 52.507h16.214zm69.18 0l88.374-57.366c-1.536-2.599-4.246-4.427-7.485-4.427h-1.909l-95.194 61.793h16.214zm-76.809 44.138L1.269 163.463C2.79 166.125 5.542 168 8.828 168h1.665l95.195-61.793H89.474zm166.385 53.66l-82.666-53.659H156.98l93.873 60.934c2.813-1.305 4.741-4.04 5.006-7.275z"/>
    </g>
    <path d="M377.128 62.113l3.237 9.708 10.233.079c.792.007 1.121 1.017.483 1.489l-8.232 6.079 3.086 9.757c.239.756-.621 1.382-1.267.92l-8.326-5.951-8.326 5.951c-.646.461-1.505-.164-1.267-.92l3.086-9.757-8.232-6.079c-.638-.471-.309-1.483.483-1.489l10.233-.079 3.237-9.708c.258-.752 1.322-.752 1.572 0zm-43.512 11.941l6.906 7.552 9.38-4.089c.727-.317 1.439.473 1.047 1.163l-5.048 8.901 6.788 7.658c.526.594-.006 1.515-.782 1.356l-10.026-2.05-5.185 8.822c-.402.683-1.442.462-1.532-.326l-1.149-10.168-9.993-2.205c-.775-.171-.885-1.229-.163-1.557l9.316-4.235-.991-10.185c-.075-.79.897-1.223 1.432-.637zm-34.894 28.605l9.38 4.089 6.906-7.552c.535-.585 1.507-.152 1.43.637l-.991 10.185 9.316 4.235c.722.328.61 1.386-.163 1.557l-9.993 2.205-1.149 10.168c-.089.788-1.13 1.009-1.532.326l-5.185-8.822-10.026 2.05c-.777.159-1.309-.762-.782-1.356l6.788-7.658-5.048-8.901c-.39-.689.321-1.479 1.049-1.163zm-20.243 40.326l10.233-.079 3.238-9.708c.25-.753 1.314-.753 1.566 0l3.237 9.708 10.233.079c.792.007 1.121 1.017.483 1.489l-8.232 6.079 3.086 9.757c.239.756-.621 1.382-1.267.92l-8.326-5.951-8.326 5.951c-.646.461-1.505-.164-1.267-.92l3.086-9.757-8.232-6.079c-.633-.472-.304-1.484.488-1.489zm-2.09 45.072l9.316-4.235-.991-10.185c-.077-.789.895-1.221 1.43-.637l6.906 7.552 9.38-4.089c.727-.317 1.439.473 1.047 1.163l-5.048 8.902 6.788 7.658c.526.594-.006 1.515-.782 1.356l-10.026-2.05-5.185 8.822c-.402.683-1.442.462-1.532-.326l-1.149-10.168-9.993-2.205c-.772-.172-.883-1.23-.161-1.558zm16.422 42.026l6.788-7.658-5.048-8.901c-.391-.69.321-1.48 1.047-1.163l9.38 4.089 6.906-7.552c.535-.585 1.507-.152 1.43.637l-.991 10.185 9.316 4.235c.722.328.61 1.386-.163 1.557l-9.993 2.205-1.149 10.168c-.089.788-1.13 1.009-1.532.326l-5.185-8.822-10.026 2.05c-.774.158-1.306-.762-.78-1.356zm32.096 31.713l3.086-9.757-8.232-6.079c-.638-.471-.309-1.483.483-1.489l10.233-.079 3.238-9.708c.25-.753 1.314-.753 1.566 0l3.237 9.708 10.233.079c.792.007 1.121 1.017.483 1.489l-8.232 6.079 3.086 9.757c.239.756-.621 1.382-1.267.92l-8.326-5.951-8.326 5.951c-.639.461-1.5-.164-1.262-.92zm42.222 15.916l-1.149-10.168-9.993-2.205c-.775-.171-.885-1.229-.163-1.557l9.316-4.235-.991-10.185c-.077-.789.895-1.222 1.43-.637l6.906 7.552 9.38-4.089c.727-.317 1.439.473 1.047 1.163l-5.048 8.901 6.788 7.658c.526.594-.006 1.515-.782 1.356l-10.026-2.05-5.185 8.822c-.402.683-1.442.462-1.53-.326zm45.043-2.631l-5.185-8.822-10.026 2.05c-.777.159-1.309-.762-.782-1.356l6.788-7.658-5.048-8.901c-.391-.69.321-1.48 1.047-1.163l9.38 4.089 6.906-7.552c.535-.585 1.507-.152 1.43.637l-.991 10.185 9.316 4.235c.722.328.61 1.386-.163 1.557l-9.993 2.205-1.149 10.168c-.087.788-1.128 1.009-1.53.326zm40.08-20.726l-8.326-5.951-8.326 5.951c-.646.461-1.505-.164-1.267-.92l3.086-9.757-8.232-6.079c-.638-.471-.309-1.483.483-1.489l10.233-.079 3.238-9.708c.25-.753 1.314-.753 1.566 0l3.237 9.708 10.233.079c.792.007 1.121 1.017.483 1.489l-8.232 6.079 3.086 9.757c.243.755-.618 1.381-1.262.92zm28.184-35.237l-10.026-2.05-5.185 8.822c-.402.683-1.442.462-1.532-.326l-1.149-10.168-9.993-2.205c-.775-.171-.885-1.229-.163-1.557l9.316-4.235-.991-10.185c-.077-.789.895-1.221 1.43-.637l6.906 7.552 9.38-4.089c.727-.317 1.439.473 1.047 1.163l-5.048 8.901 6.788 7.658c.529.594-.003 1.515-.78 1.356zm11.416-43.652l-9.993 2.205-1.149 10.168c-.089.788-1.13 1.009-1.532.326l-5.185-8.822-10.026 2.05c-.777.159-1.309-.762-.782-1.356l6.788-7.658-5.048-8.902c-.391-.69.321-1.48 1.047-1.163l9.38 4.089 6.906-7.552c.535-.585 1.507-.152 1.43.637l-.991 10.185 9.316 4.235c.724.329.613 1.387-.161 1.558zm-7.327-44.522l-8.232 6.079 3.086 9.757c.239.756-.621 1.382-1.267.92l-8.326-5.951-8.326 5.951c-.646.461-1.505-.164-1.267-.92l3.086-9.757-8.232-6.079c-.638-.471-.309-1.483.483-1.489l10.233-.079 3.238-9.708c.25-.753 1.314-.753 1.566 0l3.237 9.708 10.233.079c.797.006 1.126 1.018.488 1.489zM459.724 93.25l-5.048 8.902 6.788 7.658c.526.594-.006 1.515-.782 1.356l-10.026-2.05-5.185 8.822c-.402.683-1.442.462-1.532-.326l-1.149-10.168-9.993-2.205c-.775-.171-.885-1.229-.163-1.557l9.316-4.235-.991-10.185c-.077-.789.895-1.222 1.43-.637l6.906 7.552 9.38-4.089c.728-.317 1.44.473 1.049 1.162zm-37.989-24.346l-.991 10.185 9.316 4.235c.722.328.61 1.386-.163 1.557l-9.993 2.205-1.149 10.168c-.089.788-1.13 1.009-1.532.326l-5.185-8.822-10.026 2.05c-.777.159-1.309-.762-.782-1.356l6.788-7.658-5.048-8.902c-.391-.69.321-1.48 1.047-1.163l9.38 4.089 6.906-7.552c.537-.584 1.509-.151 1.432.638z" fill="#F5F5F5"/>
    <path d="M377.128 62.113l3.237 9.708 10.233.079c.792.007 1.121 1.017.483 1.489l-8.232 6.079 3.086 9.757c.239.756-.621 1.382-1.267.92l-8.326-5.951-8.326 5.951c-.646.461-1.505-.164-1.267-.92l3.086-9.757-8.232-6.079c-.638-.471-.309-1.483.483-1.489l10.233-.079 3.237-9.708c.258-.752 1.322-.752 1.572 0z" fill="#F5F5F5"/>
  </g>
</svg>
