<?xml version="1.0" encoding="iso-8859-1"?>
<!-- Generator: Adobe Illustrator 19.0.0, SVG Export Plug-In . SVG Version: 6.00 Build 0)  -->
<svg version="1.1" id="Layer_1" xmlns="http://www.w3.org/2000/svg" xmlns:xlink="http://www.w3.org/1999/xlink" x="0px" y="0px"
	 viewBox="0 0 512 512" style="enable-background:new 0 0 512 512;" xml:space="preserve">
<path style="fill:#F5F5F5;" d="M503.172,423.724H8.828c-4.875,0-8.828-3.953-8.828-8.828V97.103c0-4.875,3.953-8.828,8.828-8.828
	h494.345c4.875,0,8.828,3.953,8.828,8.828v317.793C512,419.772,508.047,423.724,503.172,423.724z"/>
<g>
	<path style="fill:#73AF00;" d="M244.426,360.546c4.884-3.648,9.128-4.841,15.694-6.034c6.569-1.193,13.506-3.228,17.144-4.21
		c3.67-1.016-12.328,4.841-16.403,5.999C256.854,357.528,244.426,360.546,244.426,360.546L244.426,360.546z"/>
	<path style="fill:#73AF00;" d="M270.865,350.274c-1.314-8.252,1.952-16.941,9.429-20.41
		C282.046,335.86,276.69,346.03,270.865,350.274L270.865,350.274z"/>
	<path style="fill:#73AF00;" d="M283.629,345.997c-4.008-6.904,2.728-15.763,7.746-20.074
		C293.699,330.066,289.623,342.426,283.629,345.997L283.629,345.997z"/>
	<path style="fill:#73AF00;" d="M295.383,340.675c-4.244-5.895,0.809-16.201,6.198-20.276
		C303.669,326.227,301.58,336.666,295.383,340.675L295.383,340.675z"/>
	<path style="fill:#73AF00;" d="M307.171,333.266c-3.906-5.558-1.177-14.18,4.446-19.805
		C315.626,318.11,312.189,328.147,307.171,333.266L307.171,333.266z"/>
	<path style="fill:#73AF00;" d="M316.637,325.856c-3.267-5.255,0.739-17.816,5.994-21.287
		C324.887,309.217,323.203,322.354,316.637,325.856L316.637,325.856z"/>
	<path style="fill:#73AF00;" d="M324.146,323.87c-0.943-7.511,12.192-15.83,17.548-15.594
		C341.121,314.404,335.497,321.14,324.146,323.87L324.146,323.87z"/>
	<path style="fill:#73AF00;" d="M316.803,332.355c6.198-6.33,18.155-6.33,22.397-5.018
		C338.09,331.043,323.945,339.093,316.803,332.355L316.803,332.355z"/>
	<path style="fill:#73AF00;" d="M308.316,338.722c8.69-2.325,14.314-4.211,19.501,1.177
		C324.146,344.548,310.068,343.168,308.316,338.722L308.316,338.722z"/>
	<path style="fill:#73AF00;" d="M295.923,344.348c8.319-4.447,18.389,2.121,19.905,5.927
		C306.566,354.147,295.754,345.323,295.923,344.348L295.923,344.348z"/>
	<path style="fill:#73AF00;" d="M284.538,350.712c7.578-2.897,16.268,0.943,19.703,5.187
		C300.199,357.853,289.623,359.974,284.538,350.712L284.538,350.712z"/>
	<path style="fill:#73AF00;" d="M274.166,353.978c8.69-0.977,17.007,5.625,18.827,9.364
		C281.944,364.419,277.668,361.086,274.166,353.978L274.166,353.978z"/>
	<path style="fill:#73AF00;" d="M271.37,360.546c-4.817-3.648-9.06-4.841-15.628-6.034c-6.569-1.193-13.506-3.228-17.209-4.21
		c-3.604-1.016,12.394,4.841,16.468,5.999C259.042,357.528,271.37,360.546,271.37,360.546L271.37,360.546z"/>
	<path style="fill:#73AF00;" d="M244.931,350.274c1.379-8.252-1.887-16.941-9.431-20.41
		C233.816,335.86,239.172,346.03,244.931,350.274L244.931,350.274z"/>
	<path style="fill:#73AF00;" d="M232.233,345.997c4.076-6.904-2.728-15.763-7.746-20.074
		C222.163,330.066,226.239,342.426,232.233,345.997L232.233,345.997z"/>
	<path style="fill:#73AF00;" d="M220.412,340.675c4.311-5.895-0.742-16.201-6.131-20.276
		C212.161,326.227,214.282,336.666,220.412,340.675L220.412,340.675z"/>
	<path style="fill:#73AF00;" d="M208.657,333.266c3.873-5.558,1.18-14.18-4.412-19.805
		C200.238,318.11,203.673,328.147,208.657,333.266L208.657,333.266z"/>
	<path style="fill:#73AF00;" d="M199.228,325.856c3.334-5.255-0.742-17.816-5.996-21.287
		C190.908,309.217,192.659,322.354,199.228,325.856L199.228,325.856z"/>
	<path style="fill:#73AF00;" d="M191.649,323.87c1.011-7.511-12.125-15.83-17.481-15.594
		C174.741,314.404,180.266,321.14,191.649,323.87L191.649,323.87z"/>
	<path style="fill:#73AF00;" d="M199.059,332.355c-6.198-6.33-18.153-6.33-22.397-5.018
		C177.839,331.043,191.917,339.093,199.059,332.355L199.059,332.355z"/>
	<path style="fill:#73AF00;" d="M207.546,338.722c-8.69-2.325-14.314-4.211-19.501,1.177
		C191.649,344.548,205.794,343.168,207.546,338.722L207.546,338.722z"/>
	<path style="fill:#73AF00;" d="M219.872,344.348c-8.284-4.447-18.322,2.121-19.838,5.927
		C209.297,354.147,220.041,345.323,219.872,344.348L219.872,344.348z"/>
	<path style="fill:#73AF00;" d="M231.222,350.712c-7.544-2.897-16.2,0.943-19.635,5.187
		C215.663,357.853,226.239,359.974,231.222,350.712L231.222,350.712z"/>
	<path style="fill:#73AF00;" d="M241.731,353.978c-8.757-0.977-17.075,5.625-18.86,9.364
		C233.985,364.419,238.229,361.086,241.731,353.978L241.731,353.978z"/>
</g>
<path style="fill:#FFC850;" d="M147.966,229.194c0,0-2.412,3.146,1.685,11.114c4.097,7.968,1.154,17.164,5.568,20.106
	s0.185,8.778,5.242,12.664c5.056,3.887,18.345,12.831,27.517,13.877c9.172,1.045,18.082-8.222,23.374-1.382
	s4.136,11.661,9.128,12.193s4.992-1.675,4.625-4.985c-0.367-3.31,3.309-12.505,11.769-12.505c8.46,0,17.422-1.007,31.7-6.389
	c14.278-5.382,21.266-7.956,23.105-16.416c1.839-8.46,7.068-18.462,17.143-13.828c10.076,4.633,9.398,2.46,12.495,0.236
	c3.097-2.223,13.483,4.209,15.83,0.809c2.348-3.401-18.377-20.224-17.209-29.1c1.166-8.875,3.961-16.247,12.495-16.975
	c8.533-0.728,6.326-10.291,15.154-15.073c8.828-4.781,12.894-5.329,19.872-12.412c6.978-7.083,25.329-21.421,25.329-21.421
	s-35.701,17.097-42.841,18.66c-7.14,1.564-10.084,11.863-29.947,17.38s-20.966,7.724-36.046,11.034
	c-13.581,2.982-44.26,1.981-62.408-3.843c-2.503-0.803-4.99,1.174-4.768,3.793c0.747,8.821,0.537,24.681-10.176,27.142
	c0,0-14.603-10.906-23.798-6.125c-9.195,4.781-15.735,21.834-22.58,19.192C153.379,234.297,152.483,223.353,147.966,229.194z"/>
<g>
</g>
<g>
</g>
<g>
</g>
<g>
</g>
<g>
</g>
<g>
</g>
<g>
</g>
<g>
</g>
<g>
</g>
<g>
</g>
<g>
</g>
<g>
</g>
<g>
</g>
<g>
</g>
<g>
</g>
</svg>
