<svg width="512" height="336" viewBox="0 0 512 336" xmlns="http://www.w3.org/2000/svg">
  <g fill="none">
    <path d="M503.172 335.724H8.828A8.829 8.829 0 0 1 0 326.896V9.104A8.829 8.829 0 0 1 8.828.276h494.345a8.829 8.829 0 0 1 8.828 8.828v317.792a8.83 8.83 0 0 1-8.829 8.828z" fill="#73AF00"/>
    <path fill="#FFE15A" d="M0 132.69h511.999v23.54H0z"/>
    <path fill="#464655" d="M0 156.226h511.999v23.54H0z"/>
    <path fill="#F5F5F5" d="M0 179.774h511.999v23.54H0z"/>
    <path fill="#FFE15A" d="M220.689.276h23.54v335.448h-23.54z"/>
    <path fill="#464655" d="M244.226.276h23.54v335.448h-23.54z"/>
    <path fill="#F5F5F5" d="M267.773.276h23.54v335.448h-23.54z"/>
    <circle fill="#FF4B55" cx="255.999" cy="168" r="88.276"/>
    <path d="M248.421 183.185s-1.031 7.217 5.98 17.938h13.608l-3.093-12.989-16.495-4.949z" fill="#73AF00"/>
    <path d="M247.459 134.871s-22.266 36.425 10.446 58.142l3.436-20.618 2.199-26.666-3.436-11.409-12.645.551z" fill="#A561CD"/>
    <path d="M247.459 134.87s-2.545 4.237-4.653 10.612c2.866 2.996 10.701 6.708 20.335 5.08l.399-4.834-3.437-11.409-12.644.551z" fill="#73AF00"/>
    <path d="M243.197 129.648s.274-7.285 7.423-7.285c8.935 0 16.22 2.061 27.765 25.978 0 0-10.269 10.08-16.769-3.849-1.924-4.124-2.612-9.071-2.612-9.071s-7.972 2.749-13.47-.413l-2.337-5.36z" fill="#A561CD"/>
    <path d="M246.771 133.084l-1.65-4.398s-9.209-1.512-5.361 9.622c0 0 .275-2.199 2.612-1.924 2.338.274 4.811-1.513 4.399-3.3z" fill="#FFE15A"/>
    <g fill="#73AF00">
      <path d="M262.165 174.869s-9.689 7.593-4.26 25.428c2.887 9.484 14.432 19.896 14.432 19.896s8.556-22.37 5.773-31.029c-1.638-5.097-15.945-14.295-15.945-14.295z"/>
      <path d="M280.584 203.596s-25.016-23.848-26.666-42.61c-1.65-18.762 9.169-15.784 11.134-14.57 4.673 2.887 16.494 14.983 15.532 57.18z"/>
    </g>
    <path d="M277.48 209.06h-41.418a1.557 1.557 0 0 1-1.558-1.558v-3.07c0-.861.697-1.558 1.558-1.558h41.418c.861 0 1.558.697 1.558 1.558v3.07a1.56 1.56 0 0 1-1.558 1.558z" fill="#B34900"/>
    <path d="M267.389 203.183c-1.442.599-4.33 1.341-3.608 3.917.553 1.974 4.33 1.752 3.608 4.021-.488 1.533-8.159 1.674-11.134 1.237-1.822-.268-5.773-1.341-5.223-5.876.55-4.536 2.199-5.234 4.262-6.048 2.045-.808 10.99-.629 12.302.481.669.568.885 1.815-.207 2.268z" fill="#FFE15A"/>
    <path d="M256.812 89.137l2.009 6.025 6.35.05c.822.007 1.163 1.056.502 1.544l-5.109 3.773 1.916 6.055c.248.783-.644 1.432-1.313.954L256 103.845l-5.166 3.693c-.669.478-1.561-.17-1.313-.954l1.916-6.055-5.109-3.773c-.661-.489-.32-1.538.502-1.544l6.35-.05 2.009-6.025c.259-.78 1.362-.78 1.623 0zm0 140.852l2.009 6.025 6.35.05c.822.007 1.163 1.056.502 1.544l-5.109 3.773 1.916 6.055c.248.783-.644 1.432-1.313.954L256 244.697l-5.166 3.693c-.669.478-1.561-.17-1.313-.954l1.916-6.055-5.109-3.773c-.661-.489-.32-1.538.502-1.544l6.35-.05 2.009-6.025c.259-.78 1.362-.78 1.623 0z" fill="#73AF00"/>
    <path d="M256.812 89.137l2.009 6.025 6.35.05c.822.007 1.163 1.056.502 1.544l-5.109 3.773 1.916 6.055c.248.783-.644 1.432-1.313.954L256 103.845l-5.166 3.693c-.669.478-1.561-.17-1.313-.954l1.916-6.055-5.109-3.773c-.661-.489-.32-1.538.502-1.544l6.35-.05 2.009-6.025c.259-.78 1.362-.78 1.623 0zm0 140.852l2.009 6.025 6.35.05c.822.007 1.163 1.056.502 1.544l-5.109 3.773 1.916 6.055c.248.783-.644 1.432-1.313.954L256 244.697l-5.166 3.693c-.669.478-1.561-.17-1.313-.954l1.916-6.055-5.109-3.773c-.661-.489-.32-1.538.502-1.544l6.35-.05 2.009-6.025c.259-.78 1.362-.78 1.623 0zm-49.078-126.397l1.76 6.102-5.204 3.64c-.674.471-.36 1.529.462 1.556l6.347.212 1.855 6.074c.241.787 1.343.814 1.623.042l2.163-5.971 6.35.114c.822.014 1.19-1.025.541-1.53l-5.011-3.902 2.069-6.006c.268-.777-.608-1.449-1.289-.988l-5.259 3.56-5.07-3.823c-.657-.496-1.566.13-1.337.92zm79.848 116.032l1.76 6.102-5.204 3.64c-.674.471-.36 1.529.462 1.556l6.347.212 1.855 6.074c.241.787 1.343.814 1.623.042l2.163-5.971 6.35.114c.822.014 1.19-1.025.541-1.53l-5.011-3.902 2.07-6.004c.268-.777-.608-1.449-1.289-.988l-5.259 3.56-5.07-3.823c-.656-.498-1.565.128-1.338.918zm-109.697-75.596l5.07 3.823-1.976 6.036c-.256.781.63 1.439 1.304.968l5.204-3.641 5.13 3.744c.664.484 1.564-.154 1.323-.941l-1.855-6.073 5.146-3.721c.666-.482.335-1.535-.487-1.549l-6.35-.113-1.949-6.045c-.253-.782-1.355-.793-1.623-.017l-2.069 6.004-6.35-.014c-.823-.003-1.174 1.043-.518 1.539zm133.516 44.861l5.07 3.823-1.976 6.036c-.256.781.63 1.439 1.304.968l5.204-3.641 5.13 3.744c.664.484 1.564-.155 1.323-.941l-1.855-6.073 5.146-3.721c.666-.482.335-1.535-.487-1.549l-6.35-.113-1.949-6.045c-.253-.782-1.355-.793-1.623-.017l-2.069 6.004-6.35-.014c-.822-.001-1.174 1.045-.518 1.539zm-10.489-85.297l-1.76 6.102 5.204 3.64c.674.471.36 1.529-.462 1.556l-6.347.212-1.855 6.074c-.241.787-1.343.814-1.623.042l-2.163-5.971-6.35.114c-.822.014-1.19-1.025-.541-1.53l5.011-3.902-2.07-6.004c-.268-.777.608-1.449 1.289-.988l5.259 3.56 5.07-3.823c.657-.498 1.566.128 1.338.918zm-79.849 116.032l-1.76 6.102 5.204 3.64c.674.471.36 1.529-.462 1.556l-6.347.212-1.855 6.074c-.241.787-1.343.814-1.623.042l-2.163-5.971-6.35.114c-.822.014-1.19-1.025-.541-1.53l5.011-3.902-2.07-6.004c-.268-.777.608-1.449 1.289-.988l5.259 3.56 5.07-3.823c.657-.498 1.566.128 1.338.918zm109.698-75.596l-5.07 3.823 1.976 6.036c.256.781-.63 1.439-1.304.968l-5.204-3.641-5.13 3.744c-.664.484-1.564-.154-1.323-.941l1.855-6.073-5.146-3.721c-.666-.482-.335-1.535.487-1.549l6.35-.113 1.949-6.045c.253-.782 1.355-.793 1.623-.017l2.069 6.004 6.35-.014c.823-.003 1.175 1.043.518 1.539zm-133.517 44.861l-5.07 3.823 1.976 6.036c.256.781-.63 1.439-1.304.968l-5.204-3.641-5.13 3.744c-.664.484-1.564-.155-1.323-.941l1.855-6.073-5.146-3.721c-.666-.482-.335-1.535.487-1.549l6.35-.113 1.949-6.045c.253-.782 1.355-.793 1.623-.017l2.069 6.004 6.35-.014c.824-.001 1.175 1.045.518 1.539z" fill="#73AF00"/>
  </g>
</svg>
