<?xml version="1.0" encoding="iso-8859-1"?>
<!-- Generator: Adobe Illustrator 19.0.0, SVG Export Plug-In . SVG Version: 6.00 Build 0)  -->
<svg version="1.1" id="Layer_1" xmlns="http://www.w3.org/2000/svg" xmlns:xlink="http://www.w3.org/1999/xlink" x="0px" y="0px"
	 viewBox="0 0 512 512" style="enable-background:new 0 0 512 512;" xml:space="preserve">
<path style="fill:#73AF00;" d="M503.172,423.724H8.828c-4.875,0-8.828-3.953-8.828-8.828V97.104c0-4.875,3.953-8.828,8.828-8.828
	h494.345c4.875,0,8.828,3.953,8.828,8.828v317.792C512,419.772,508.047,423.724,503.172,423.724z"/>
<rect y="220.69" style="fill:#FFE15A;" width="511.999" height="23.54"/>
<rect y="244.226" style="fill:#464655;" width="511.999" height="23.54"/>
<rect y="267.774" style="fill:#F5F5F5;" width="511.999" height="23.54"/>
<rect x="220.689" y="88.276" style="fill:#FFE15A;" width="23.54" height="335.448"/>
<rect x="244.226" y="88.276" style="fill:#464655;" width="23.54" height="335.448"/>
<rect x="267.773" y="88.276" style="fill:#F5F5F5;" width="23.54" height="335.448"/>
<circle style="fill:#FF4B55;" cx="255.999" cy="256" r="88.276"/>
<path style="fill:#73AF00;" d="M248.421,271.185c0,0-1.031,7.217,5.98,17.938h13.608l-3.093-12.989L248.421,271.185z"/>
<path style="fill:#A561CD;" d="M247.459,222.871c0,0-22.266,36.425,10.446,58.142l3.436-20.618l2.199-26.666l-3.436-11.409
	L247.459,222.871z"/>
<path style="fill:#73AF00;" d="M247.459,222.87c0,0-2.545,4.237-4.653,10.612c2.866,2.996,10.701,6.708,20.335,5.08l0.399-4.834
	l-3.437-11.409L247.459,222.87z"/>
<path style="fill:#A561CD;" d="M243.197,217.648c0,0,0.274-7.285,7.423-7.285c8.935,0,16.22,2.061,27.765,25.978
	c0,0-10.269,10.08-16.769-3.849c-1.924-4.124-2.612-9.071-2.612-9.071s-7.972,2.749-13.47-0.413L243.197,217.648z"/>
<path style="fill:#FFE15A;" d="M246.771,221.084l-1.65-4.398c0,0-9.209-1.512-5.361,9.622c0,0,0.275-2.199,2.612-1.924
	C244.71,224.658,247.183,222.871,246.771,221.084z"/>
<g>
	<path style="fill:#73AF00;" d="M262.165,262.869c0,0-9.689,7.593-4.26,25.428c2.887,9.484,14.432,19.896,14.432,19.896
		s8.556-22.37,5.773-31.029C276.472,272.067,262.165,262.869,262.165,262.869z"/>
	<path style="fill:#73AF00;" d="M280.584,291.596c0,0-25.016-23.848-26.666-42.61c-1.65-18.762,9.169-15.784,11.134-14.57
		C269.725,237.303,281.546,249.399,280.584,291.596z"/>
</g>
<path style="fill:#B34900;" d="M277.48,297.06h-41.418c-0.861,0-1.558-0.697-1.558-1.558v-3.07c0-0.861,0.697-1.558,1.558-1.558
	h41.418c0.861,0,1.558,0.697,1.558,1.558v3.07C279.037,296.362,278.34,297.06,277.48,297.06z"/>
<path style="fill:#FFE15A;" d="M267.389,291.183c-1.442,0.599-4.33,1.341-3.608,3.917c0.553,1.974,4.33,1.752,3.608,4.021
	c-0.488,1.533-8.159,1.674-11.134,1.237c-1.822-0.268-5.773-1.341-5.223-5.876c0.55-4.536,2.199-5.234,4.262-6.048
	c2.045-0.808,10.99-0.629,12.302,0.481C268.265,289.483,268.481,290.73,267.389,291.183z"/>
<path id="SVGCleanerId_0" style="fill:#73AF00;" d="M256.812,177.137l2.009,6.025l6.35,0.05c0.822,0.007,1.163,1.056,0.502,1.544
	l-5.109,3.773l1.916,6.055c0.248,0.783-0.644,1.432-1.313,0.954l-5.167-3.693l-5.166,3.693c-0.669,0.478-1.561-0.17-1.313-0.954
	l1.916-6.055l-5.109-3.773c-0.661-0.489-0.32-1.538,0.502-1.544l6.35-0.05l2.009-6.025
	C255.448,176.357,256.551,176.357,256.812,177.137z"/>
<path id="SVGCleanerId_1" style="fill:#73AF00;" d="M256.812,317.989l2.009,6.025l6.35,0.05c0.822,0.007,1.163,1.056,0.502,1.544
	l-5.109,3.773l1.916,6.055c0.248,0.783-0.644,1.432-1.313,0.954l-5.167-3.693l-5.166,3.693c-0.669,0.478-1.561-0.17-1.313-0.954
	l1.916-6.055l-5.109-3.773c-0.661-0.489-0.32-1.538,0.502-1.544l6.35-0.05l2.009-6.025
	C255.448,317.209,256.551,317.209,256.812,317.989z"/>
<g>
	<path id="SVGCleanerId_0_1_" style="fill:#73AF00;" d="M256.812,177.137l2.009,6.025l6.35,0.05
		c0.822,0.007,1.163,1.056,0.502,1.544l-5.109,3.773l1.916,6.055c0.248,0.783-0.644,1.432-1.313,0.954l-5.167-3.693l-5.166,3.693
		c-0.669,0.478-1.561-0.17-1.313-0.954l1.916-6.055l-5.109-3.773c-0.661-0.489-0.32-1.538,0.502-1.544l6.35-0.05l2.009-6.025
		C255.448,176.357,256.551,176.357,256.812,177.137z"/>
</g>
<g>
	<path id="SVGCleanerId_1_1_" style="fill:#73AF00;" d="M256.812,317.989l2.009,6.025l6.35,0.05
		c0.822,0.007,1.163,1.056,0.502,1.544l-5.109,3.773l1.916,6.055c0.248,0.783-0.644,1.432-1.313,0.954l-5.167-3.693l-5.166,3.693
		c-0.669,0.478-1.561-0.17-1.313-0.954l1.916-6.055l-5.109-3.773c-0.661-0.489-0.32-1.538,0.502-1.544l6.35-0.05l2.009-6.025
		C255.448,317.209,256.551,317.209,256.812,317.989z"/>
</g>
<g>
	<path style="fill:#73AF00;" d="M207.734,191.592l1.76,6.102l-5.204,3.64c-0.674,0.471-0.36,1.529,0.462,1.556l6.347,0.212
		l1.855,6.074c0.241,0.787,1.343,0.814,1.623,0.042l2.163-5.971l6.35,0.114c0.822,0.014,1.19-1.025,0.541-1.53l-5.011-3.902
		l2.069-6.006c0.268-0.777-0.608-1.449-1.289-0.988l-5.259,3.56l-5.07-3.823C208.414,190.176,207.505,190.802,207.734,191.592z"/>
	<path style="fill:#73AF00;" d="M287.582,307.624l1.76,6.102l-5.204,3.64c-0.674,0.471-0.36,1.529,0.462,1.556l6.347,0.212
		l1.855,6.074c0.241,0.787,1.343,0.814,1.623,0.042l2.163-5.971l6.35,0.114c0.822,0.014,1.19-1.025,0.541-1.53l-5.011-3.902
		l2.07-6.004c0.268-0.777-0.608-1.449-1.289-0.988l-5.259,3.56l-5.07-3.823C288.264,306.208,287.355,306.834,287.582,307.624z"/>
	<path style="fill:#73AF00;" d="M177.885,232.028l5.07,3.823l-1.976,6.036c-0.256,0.781,0.63,1.439,1.304,0.968l5.204-3.641
		l5.13,3.744c0.664,0.484,1.564-0.154,1.323-0.941l-1.855-6.073l5.146-3.721c0.666-0.482,0.335-1.535-0.487-1.549l-6.35-0.113
		l-1.949-6.045c-0.253-0.782-1.355-0.793-1.623-0.017l-2.069,6.004l-6.35-0.014C177.58,230.486,177.229,231.532,177.885,232.028z"/>
	<path style="fill:#73AF00;" d="M311.401,276.889l5.07,3.823l-1.976,6.036c-0.256,0.781,0.63,1.439,1.304,0.968l5.204-3.641
		l5.13,3.744c0.664,0.484,1.564-0.155,1.323-0.941l-1.855-6.073l5.146-3.721c0.666-0.482,0.335-1.535-0.487-1.549l-6.35-0.113
		l-1.949-6.045c-0.253-0.782-1.355-0.793-1.623-0.017l-2.069,6.004l-6.35-0.014C311.097,275.349,310.745,276.395,311.401,276.889z"
		/>
	<path style="fill:#73AF00;" d="M300.912,191.592l-1.76,6.102l5.204,3.64c0.674,0.471,0.36,1.529-0.462,1.556l-6.347,0.212
		l-1.855,6.074c-0.241,0.787-1.343,0.814-1.623,0.042l-2.163-5.971l-6.35,0.114c-0.822,0.014-1.19-1.025-0.541-1.53l5.011-3.902
		l-2.07-6.004c-0.268-0.777,0.608-1.449,1.289-0.988l5.259,3.56l5.07-3.823C300.231,190.176,301.14,190.802,300.912,191.592z"/>
	<path style="fill:#73AF00;" d="M221.063,307.624l-1.76,6.102l5.204,3.64c0.674,0.471,0.36,1.529-0.462,1.556l-6.347,0.212
		l-1.855,6.074c-0.241,0.787-1.343,0.814-1.623,0.042l-2.163-5.971l-6.35,0.114c-0.822,0.014-1.19-1.025-0.541-1.53l5.011-3.902
		l-2.07-6.004c-0.268-0.777,0.608-1.449,1.289-0.988l5.259,3.56l5.07-3.823C220.382,306.208,221.291,306.834,221.063,307.624z"/>
	<path style="fill:#73AF00;" d="M330.761,232.028l-5.07,3.823l1.976,6.036c0.256,0.781-0.63,1.439-1.304,0.968l-5.204-3.641
		l-5.13,3.744c-0.664,0.484-1.564-0.154-1.323-0.941l1.855-6.073l-5.146-3.721c-0.666-0.482-0.335-1.535,0.487-1.549l6.35-0.113
		l1.949-6.045c0.253-0.782,1.355-0.793,1.623-0.017l2.069,6.004l6.35-0.014C331.066,230.486,331.418,231.532,330.761,232.028z"/>
	<path style="fill:#73AF00;" d="M197.244,276.889l-5.07,3.823l1.976,6.036c0.256,0.781-0.63,1.439-1.304,0.968l-5.204-3.641
		l-5.13,3.744c-0.664,0.484-1.564-0.155-1.323-0.941l1.855-6.073l-5.146-3.721c-0.666-0.482-0.335-1.535,0.487-1.549l6.35-0.113
		l1.949-6.045c0.253-0.782,1.355-0.793,1.623-0.017l2.069,6.004l6.35-0.014C197.55,275.349,197.901,276.395,197.244,276.889z"/>
</g>
<g>
</g>
<g>
</g>
<g>
</g>
<g>
</g>
<g>
</g>
<g>
</g>
<g>
</g>
<g>
</g>
<g>
</g>
<g>
</g>
<g>
</g>
<g>
</g>
<g>
</g>
<g>
</g>
<g>
</g>
</svg>
