<svg width="512" height="336" viewBox="0 0 512 336" xmlns="http://www.w3.org/2000/svg">
  <g fill="none">
    <path d="M503.172 335.724H8.828A8.829 8.829 0 0 1 0 326.896V9.103A8.829 8.829 0 0 1 8.828.275h494.345a8.829 8.829 0 0 1 8.828 8.828v317.793a8.83 8.83 0 0 1-8.829 8.828z" fill="#FF4B55"/>
    <path d="M257.266 168.381l-2.445 1.412c-4.236-6.1-4.004-21.02-4.004-21.19.044-.442-.221-.841-.619-1.017l-18.327-8.021.105-1.881c9.557 1.102 20.606 5.548 20.759 5.624.376.237.851.178 1.187-.099l15.208-12.68 3.273 2.925c-4.742 5.824-16.279 13.869-16.428 13.952-.408.177-.628.601-.589 1.035l1.88 19.94zm66.499-90.341c.373.191.822.154 1.16-.096l3.974-2.942-1.262 3.668c-.141.417-.019.883.309 1.185l1.871 1.672c-.556.939-.776 2.094-.798 3.299l-2.773 1.408c-.235.12-.42.32-.522.564l-2.068 5.007-1.133-4.152a1.096 1.096 0 0 0-1.216-.806l-4.99.682 4.051-4.588a1.11 1.11 0 0 0 .264-.895l-.903-6.059 4.036 2.053zm-45.203 163.504a1.104 1.104 0 0 0-.48 1.06l.643 4.901-2.594-2.884a1.123 1.123 0 0 0-1.186-.305l-2.37.824c-.551-.941-1.454-1.695-2.497-2.298l.115-3.107a1.12 1.12 0 0 0-.239-.73l-3.374-4.238 4.18 1.024a1.096 1.096 0 0 0 1.294-.672l1.825-4.694 2.046 5.768c.11.309.35.551.654.665l5.736 2.152-3.753 2.534zM157.188 126.599a1.106 1.106 0 0 0-.735-.903l-4.673-1.614 3.74-1.032c.424-.119.739-.483.802-.925l.321-2.488c1.088-.072 2.166-.544 3.172-1.207l2.729 1.492c.232.126.501.166.76.111l5.3-1.124-2.784 3.282a1.094 1.094 0 0 0 .023 1.458l3.384 3.731-6.074-.747a1.108 1.108 0 0 0-.888.288l-4.488 4.17-.589-4.492z" fill="#FFE15A"/>
    <path d="M254.399 276.642c-2.699 5.442-8.538 9.954-9.999 10.22-.266.044-.487-.044-.707-.266-.664-.753-.973-2.787-.088-5.486.088-.266.178-.619.31-1.017l10.484-3.451zm1.946-5.619a61.241 61.241 0 0 0-.885 2.92l-10.795 3.584c.31-.973.619-2.035.929-3.186l10.751-3.318z" fill="#F5F5F5"/>
    <path d="M258.734 264.962a100.892 100.892 0 0 0-1.46 3.451l-10.973 3.362c.31-1.194.664-2.433.973-3.672l11.46-3.141z" fill="#FFE15A"/>
    <g fill="#F5F5F5">
      <path d="M260.903 260.583c-.31.575-.619 1.151-.929 1.77l-12.078 3.274c.531-2.079.973-4.115 1.327-5.884l11.68.84zm3.406-4.602c-.707.664-1.372 1.504-2.035 2.477l-12.697-.929c.177-1.151.309-2.168.309-2.92 0-.575-.044-1.106-.088-1.682.487.044 1.017.044 1.46.044 3.186 0 5.442-.575 7.079-1.416 1.813 2.656 4.158 3.851 5.972 4.426zm2.567-1.814c-.797-.088-4.335-.442-6.726-3.893 1.195-1.017 1.77-2.123 2.035-2.876 1.327-3.716-7.919-9.512-13.582-12.609-2.655-1.46-4.734-4.335-6.592-7.654.221.044.398.044.619.044 2.831 0 5.088-1.327 6.282-2.345 1.062 1.77 2.035 3.406 2.92 4.822 4.026 6.814 5.885 9.91 10.176 12.919.132.088.309.177.487.177 2.079.266 8.096 1.592 8.45 4.247.488 3.628-.84 5.929-4.069 7.168z"/>
      <path d="M260.106 246.646c-.487 1.416-2.521 4.601-10.574 4.071-.708-4.601-2.743-7.875-5.973-9.379-4.203-1.991-19.91-13.228-27.076-19.91 1.416-4.513 5.132-8.184 10.397-10.132.753-.31 1.416-.575 1.991-.885 1.416 1.151 2.699 2.433 3.761 3.893 1.638 2.301 3.053 5.22 4.557 8.318 2.787 5.663 5.663 11.548 10.353 14.113 8.671 4.779 12.962 8.894 12.564 9.911z"/>
      <path d="M247.719 222.932c-.841.841-3.628 2.743-6.99 1.77-.531-1.017-1.017-2.035-1.548-3.052-1.548-3.186-3.008-6.194-4.778-8.628-1.017-1.46-2.301-2.743-3.672-3.893 1.991-1.726 2.301-3.584 2.389-5.176 3.495 3.008 6.77 6.769 9.778 11.414 1.9 2.875 3.449 5.352 4.821 7.565zm-16.68-20.617a9.408 9.408 0 0 0-.088 1.151c-.088 1.504-.221 2.965-1.991 4.291-3.716-2.655-8.008-4.469-11.68-5.663 1.682-1.726 2.787-3.451 3.318-5.132h.044c3.627 1.016 7.123 2.831 10.397 5.353zm-4.247 6.592c-.221.088-.398.221-.664.309-5.53 2.035-9.601 5.796-11.414 10.442-2.168-2.168-3.716-4.115-4.956-5.663-1.372-1.77-2.521-3.142-3.938-4.115 3.981-2.035 7.167-4.071 9.601-6.061h.088c3.452 1.062 7.655 2.654 11.283 5.088zm-13.45-6.283c-2.301 1.814-5.53 3.849-10.088 6.061a63.385 63.385 0 0 0-3.008-.663c-2.168-.398-3.584-.708-4.69-1.947-.664-.708-1.947-2.699-3.186-5.22.178.088.354.177.531.221 1.283.31 3.096-.266 5.353-1.062 2.787-.929 6.194-2.08 9.291-1.682 2.787.354 3.54 1.46 4.424 2.699.4.531.798 1.106 1.373 1.593z"/>
    </g>
    <path d="M218.606 195.988c-.354 1.372-1.327 3.097-3.54 5.176-.531-.354-.885-.841-1.283-1.416-.973-1.372-2.212-3.097-5.929-3.584-3.584-.487-7.3.753-10.308 1.77-1.682.575-3.452 1.195-4.159 1.017-.753-.178-1.726-1.372-1.77-2.567-.044-1.372 1.195-1.991 2.212-2.301 2.301-.707 5.088-.177 7.831.31 2.787.531 5.442 1.017 7.565.177 1.46-.575 3.142-2.389 5.176-5 1.416.309 2.61.797 3.318 1.814 1.02 1.462 1.286 3.012.887 4.604z" fill="#FFE15A"/>
    <path d="M211.838 189.263c-1.372 1.682-2.567 2.92-3.45 3.274-1.504.619-3.849.177-6.327-.31-2.831-.531-6.061-1.106-8.849-.266-1.682.487-2.61 1.327-3.142 2.123-.487-2.433-.487-4.778.619-6.636 1.106-1.947 2.566-3.584 4.071-5.22 1.991.266 3.45.664 8.494 5.088 1.726 1.504 4.513 1.682 7.212 1.814.442.044.929.089 1.372.133zm41.101-18.273c-4.956 3.274-27.032 17.785-31.634 19.688-.221.088-.398.266-.531.442-.132.221-.221.398-.354.619-.221-.575-.531-1.106-.885-1.636-.885-1.283-2.212-1.991-3.672-2.433a85.839 85.839 0 0 0 2.035-2.699c3.186-4.38 6.858-9.291 11.061-13.671 7.212-7.521 16.856-12.477 20.086-13.981.488 4.69 1.549 10.221 3.894 13.671zm-4.115-16.015c-2.301 1.017-13.228 6.194-21.458 14.777-4.335 4.513-8.185 9.689-11.238 13.892-.929 1.239-1.814 2.433-2.655 3.54-.973-.088-1.946-.177-2.876-.221-2.433-.177-4.734-.31-5.885-1.327-4.247-3.716-6.239-4.822-8.141-5.309.178-.177.31-.354.487-.531 2.787-2.831 5.707-5.795 8.008-9.91 3.981-7.123 17.299-22.653 25.971-28.271l17.565 7.699c0 1.06.046 3.14.222 5.661zM136.587 89.297c-3.662-4.846-5.089-12.087-4.674-13.512.079-.257.257-.416.554-.514.97-.257 2.929.375 4.948 2.372.198.198.474.435.771.732l-1.599 10.922zm4.157 4.252a61.102 61.102 0 0 0-2.217-2.097l1.619-11.258a75.207 75.207 0 0 0 2.434 2.254l-1.836 11.101z" fill="#F5F5F5"/>
    <path d="M145.098 98.396a101.34 101.34 0 0 0-2.434-2.848l1.896-11.318c.93.811 1.88 1.682 2.85 2.511l-2.312 11.655z" fill="#FFE15A"/>
    <g fill="#F5F5F5">
      <path d="M148.047 102.292a69.434 69.434 0 0 0-1.167-1.622l2.468-12.268a116.53 116.53 0 0 0 4.671 3.817l-5.972 10.073zm2.595 5.103c-.277-.93-.733-1.899-1.308-2.927l6.505-10.944c.95.672 1.801 1.246 2.474 1.582.514.257 1.01.455 1.544.672-.257.416-.494.89-.692 1.287-1.423 2.85-1.918 5.126-1.897 6.966-3.185.435-5.301 1.999-6.626 3.364zm.476 3.107c.435-.673 2.333-3.681 6.488-4.276.376 1.524 1.109 2.532 1.663 3.106 2.731 2.848 12.049-2.834 17.35-6.516 2.493-1.722 5.994-2.297 9.793-2.477-.138.178-.217.337-.317.534-1.266 2.532-1.086 5.144-.71 6.668-2.058.159-3.957.298-5.619.457-7.894.557-11.496.835-16.105 3.33-.139.079-.297.198-.375.356-1.166 1.741-5.043 6.531-7.576 5.662-3.462-1.186-4.927-3.401-4.592-6.844z"/>
      <path d="M160.872 107.807c-1.049-1.068-2.989-4.312 1.084-11.278 4.433 1.422 8.27 1.065 11.06-1.152 3.659-2.87 20.732-11.9 29.91-15.326 3.404 3.283 5.028 8.249 4.417 13.828-.058.811-.118 1.524-.098 2.176-1.662.753-3.383 1.327-5.164 1.624-2.79.436-6.035.398-9.478.36-6.312-.038-12.861-.094-17.252 2.955-8.149 5.624-13.748 7.624-14.479 6.813z"/>
      <path d="M187.622 107.322c-.376-1.128-.833-4.471 1.54-7.044 1.148-.021 2.275-.001 3.423-.021 3.542.039 6.886.076 9.854-.419 1.761-.258 3.481-.832 5.124-1.545.654 2.552 2.178 3.659 3.563 4.45-4.254 1.782-9.08 3.031-14.581 3.646-3.423.417-6.331.695-8.923.933zm25.897-5.708a9.423 9.423 0 0 0-.99-.594c-1.306-.751-2.553-1.523-2.95-3.699 4.035-2.138 7.576-5.167 10.286-7.918.792 2.275 1.842 4.035 3.108 5.262l-.02.04c-2.529 2.791-5.715 5.107-9.434 6.909zm-3.998-6.745c.02-.237-.02-.455.02-.732.651-5.857-.895-11.179-4.241-14.878 2.909-.971 5.342-1.486 7.281-1.902 2.196-.436 3.937-.852 5.44-1.684.042 4.471.438 8.231 1.132 11.297l-.04.079c-2.492 2.614-5.794 5.662-9.592 7.82zm11.63-9.225c-.595-2.869-.972-6.667-.915-11.733a65.639 65.639 0 0 0 1.938-2.394c1.325-1.761 2.234-2.89 3.837-3.326.93-.277 3.284-.535 6.094-.516-.158.119-.317.237-.435.376-.851 1.01-1.146 2.889-1.442 5.263-.414 2.909-.908 6.471-2.648 9.063-1.562 2.335-2.888 2.514-4.392 2.752-.652.119-1.344.218-2.037.515z"/>
    </g>
    <path d="M224.735 93.32c-1.069-.929-2.177-2.571-3.049-5.48.554-.317 1.148-.416 1.839-.515 1.662-.258 3.759-.595 5.855-3.702 2.037-2.988 2.59-6.867 3.023-10.013.237-1.761.473-3.622.948-4.175.494-.594 1.998-.931 3.086-.437 1.247.574 1.247 1.959 1.069 3.007-.395 2.375-2.115 4.631-3.777 6.867-1.72 2.257-3.342 4.414-3.539 6.689-.138 1.564.734 3.878 2.159 6.865-.909 1.128-1.879 1.98-3.105 2.158-1.758.258-3.262-.196-4.509-1.264z" fill="#FFE15A"/>
    <g fill="#F5F5F5">
      <path d="M233.777 90.27c-.892-1.978-1.465-3.601-1.387-4.551.118-1.623 1.562-3.522 3.104-5.522 1.74-2.295 3.698-4.928 4.192-7.797.316-1.721-.021-2.929-.497-3.759 2.394.652 4.492 1.7 5.66 3.52 1.247 1.859 2.059 3.897 2.851 5.974-1.128 1.663-2.136 2.791-8.348 5.325-2.116.872-3.521 3.286-4.845 5.641-.236.377-.493.793-.73 1.169zm-2.022 44.934c-.714-5.896-3.831-32.131-3.477-37.097.02-.237-.06-.474-.159-.673-.139-.217-.257-.375-.396-.594.614.06 1.227.02 1.86-.06 1.544-.218 2.77-1.089 3.818-2.198.456.97.95 1.959 1.505 3.027 2.495 4.807 5.247 10.286 7.287 16.004 3.506 9.813 3.628 20.655 3.531 24.216-4.333-.951-9.352-2.023-13.969-2.625z"/>
      <path d="M247.922 138.68c.118-2.513.371-14.602-3.63-25.8-2.1-5.896-5.01-11.652-7.406-16.262-.693-1.385-1.366-2.71-1.98-3.957a68.777 68.777 0 0 0 1.483-2.474c1.246-2.098 2.392-4.097 3.817-4.671 5.223-2.138 7.102-3.426 8.387-4.91.079.237.179.435.257.673 1.288 3.758 2.634 7.695 5.287 11.593 4.594 6.745 12.534 25.598 13.686 35.866l-14.735 12.273a88.007 88.007 0 0 0-5.166-2.331zM366.18 82.133c6.068-.281 12.847 2.635 13.789 3.783.168.211.198.447.111.748-.335.946-1.964 2.204-4.754 2.74-.275.052-.628.146-1.039.223l-8.107-7.494zm-5.857 1.025c1.1-.205 2.179-.45 2.983-.643l8.373 7.7a73.92 73.92 0 0 0-3.236.734l-8.12-7.791z"/>
    </g>
    <path d="M353.864 84.011c1.302-.116 2.543-.248 3.725-.398l8.265 7.961c-1.195.309-2.45.6-3.683.931l-8.307-8.494z" fill="#FFE15A"/>
    <g fill="#F5F5F5">
      <path d="M348.982 84.242c.653-.009 1.306-.017 1.998-.046l8.724 8.971c-2.076.545-4.07 1.146-5.789 1.695l-4.933-10.62zm-5.676-.746c.924.297 1.981.469 3.154.577l5.351 11.553c-1.091.404-2.046.781-2.703 1.146-.503.279-.946.575-1.427.893a16.684 16.684 0 0 0-.67-1.298c-1.546-2.785-3.144-4.479-4.673-5.502 1.439-2.874 1.345-5.504.968-7.369zm-2.832-1.363c.309.739 1.717 4.006-.14 7.769-1.47-.551-2.716-.516-3.502-.384-3.893.643-4.473 11.541-4.433 17.995.012 3.029-1.493 6.243-3.492 9.479a2.83 2.83 0 0 0-.262-.563c-1.374-2.475-3.63-3.805-5.099-4.355 1.032-1.788 1.991-3.433 2.799-4.894 4.003-6.827 5.81-9.954 6.357-15.167.013-.159.004-.356-.082-.511-.777-1.946-2.537-7.852-.387-9.45 2.935-2.187 5.591-2.141 8.241.081z"/>
      <path d="M337.183 91.701c1.474-.262 5.247-.029 8.691 7.27-3.679 2.852-5.555 6.22-5.302 9.774.299 4.641-1.903 23.828-4.267 33.336-4.632.952-9.647-.515-13.905-4.173-.636-.508-1.19-.959-1.74-1.311.319-1.796.818-3.541 1.579-5.177 1.217-2.548 3.083-5.203 5.06-8.021 3.598-5.185 7.348-10.556 7.316-15.902-.03-9.901 1.485-15.65 2.568-15.796z"/>
      <path d="M322.462 114.041c1.143.327 4.159 1.841 4.94 5.252-.632.958-1.286 1.877-1.918 2.836-2.034 2.9-3.956 5.636-5.224 8.365-.782 1.598-1.282 3.342-1.622 5.1-2.475-.904-4.249-.273-5.685.424.935-4.516 2.633-9.204 5.235-14.089a289.507 289.507 0 0 1 4.274-7.888zm-9.932 24.59a9.443 9.443 0 0 0 1.048-.481c1.358-.652 2.699-1.246 4.718-.342-.518 4.537-.021 9.171.717 12.961-2.325-.632-4.37-.762-6.098-.41l-.021-.039c-.87-3.666-.98-7.602-.364-11.689zm7.825.514c.184.15.386.241.593.43 4.463 3.848 9.727 5.581 14.669 4.913-.843 2.947-1.794 5.247-2.547 7.081-.882 2.058-1.523 3.73-1.686 5.44-3.712-2.494-7.037-4.291-9.959-5.452l-.043-.077c-.746-3.534-1.394-7.982-1.027-12.335zm1.034 14.809c2.702 1.131 6.049 2.967 10.195 5.878.284 1.057.605 2.093.879 2.953.704 2.089 1.12 3.477.574 5.045-.297.924-1.415 3.011-3.019 5.319a2.83 2.83 0 0 0-.064-.572c-.352-1.272-1.735-2.579-3.527-4.165-2.165-1.986-4.824-4.406-5.98-7.308-1.043-2.609-.441-3.804.213-5.178.274-.606.582-1.234.729-1.972z"/>
    </g>
    <path d="M313.032 152.572c1.371-.356 3.352-.342 6.244.583-.052.636-.306 1.182-.616 1.809-.727 1.516-1.634 3.437-.256 6.923 1.313 3.37 4.201 6.017 6.55 8.154 1.319 1.191 2.719 2.438 2.909 3.143.211.744-.362 2.174-1.385 2.793-1.177.704-2.321-.078-3.085-.818-1.736-1.668-2.624-4.363-3.53-6.997-.888-2.695-1.751-5.251-3.517-6.7-1.212-.998-3.614-1.587-6.883-2.1-.417-1.388-.57-2.668-.024-3.782.782-1.6 2.007-2.584 3.593-3.008z" fill="#FFE15A"/>
    <g fill="#F5F5F5">
      <path d="M310.438 161.753c2.135.383 3.798.826 4.537 1.428 1.271 1.015 2.023 3.279 2.799 5.682.91 2.733 1.974 5.836 4.062 7.865 1.241 1.234 2.428 1.638 3.381 1.716-1.891 1.607-3.941 2.744-6.103 2.679-2.239-.022-4.378-.504-6.54-1.025-.734-1.869-1.095-3.339.327-9.897.478-2.239-.721-4.761-1.914-7.186-.177-.406-.374-.853-.549-1.262zm-35.924-27.068c5.268 2.743 28.67 15.004 32.566 18.103.184.15.425.22.644.249.258.009.456 0 .714.009-.395.472-.71 1.001-1.002 1.568-.693 1.397-.668 2.901-.345 4.392a86.638 86.638 0 0 0-3.348-.47c-5.376-.66-11.452-1.486-17.321-3.036-10.076-2.655-19.09-8.683-21.972-10.777 3.181-2.843 7.388-6.529 10.064-10.038z"/>
      <path d="M262.507 146.056c2.006 1.517 11.836 8.561 23.333 11.59 6.05 1.601 12.444 2.454 17.6 3.083 1.534.211 3.008.405 4.383.604.395.894.79 1.788 1.203 2.622 1.026 2.214 2.027 4.289 1.695 5.789-1.188 5.517-1.188 7.795-.691 9.695-.241-.07-.46-.099-.701-.168-3.829-1.063-7.838-2.177-12.552-2.193-8.161-.024-28.201-4.131-37.323-8.986l-1.793-19.093a86.513 86.513 0 0 0 4.846-2.943z"/>
    </g>
    <path d="M381.988 84.996c-.107-.193-.193-.348-.318-.481-1.714-2.084-11.742-5.93-18.855-4.158-7.68 1.935-18.135 2.425-20.726.22-3.319-2.936-7.006-3.052-10.65-.567l-1.472-1.314 2.183-6.342a1.11 1.11 0 0 0-.394-1.252 1.107 1.107 0 0 0-1.313.002l-6.287 4.653-5.337-2.712a1.103 1.103 0 1 0-1.593 1.147l1.142 7.67-5.678 6.432a1.108 1.108 0 0 0-.146 1.255c.22.266.666.636 1.124.574l6.976-.954 1.73 6.344c.129.469.526.785.998.813.471.03.91-.243 1.092-.681l3.15-7.624 1.598-.811c.327 2.125.99 4.06 1.273 4.817-.534 4.598-2.306 7.605-6.008 14.062-2.158 3.678-4.794 8.227-8.235 14.793-5.728 10.921-7.571 21.002-5.482 29.963-.631.047-1.581.067-2.574.012-5.28-3.951-32.545-18.065-33.7-18.688-.064-.033-4.499-3.841-4.499-3.841-1.229-10.752-9.248-29.645-13.99-36.704-2.514-3.68-3.801-7.438-5.049-11.079-1.188-3.363-2.259-6.568-4.218-9.575-4.355-6.726-17.987-5.771-21.272-4.938-2.335.615-3.601 2.257-5.044 4.157a48.08 48.08 0 0 1-2.037 2.494c-1.345 1.504-3.224 1.901-6.252 2.516-2.374.495-5.362 1.13-9.259 2.496-9.14 3.247-27.339 12.95-31.217 15.959-3.818 2.989-9.378.953-12.346-.53-4.195-2.095-16.863-13.666-20.307-17.067-2.396-2.334-5.106-3.441-7.104-2.905a2.875 2.875 0 0 0-1.879 1.484c-.099.198-.178.356-.217.534-.751 2.592 1.746 13.038 7.229 17.903 5.938 5.241 12.253 13.588 11.897 16.972-.546 4.397 1.443 7.505 5.554 9.107l-.252 1.956-6.464 1.784a1.112 1.112 0 0 0-.81 1.032c-.015.486.286.922.745 1.081l7.392 2.556.78 5.937a1.103 1.103 0 1 0 1.848.666l5.682-5.278 8.515 1.047c.46.056.905-.179 1.118-.588.096-.332.148-.909-.162-1.252l-4.732-5.215 4.255-5.013c.314-.372.35-.878.107-1.282a1.105 1.105 0 0 0-1.178-.516l-8.071 1.711-1.571-.86c1.569-1.471 2.788-3.111 3.254-3.773 4.095-2.158 7.577-2.397 14.997-2.994 4.254-.298 9.497-.696 16.857-1.569 12.247-1.449 21.604-5.628 27.815-12.416.396.494.95 1.266 1.464 2.116-.275 6.589 3.497 37.057 3.636 38.364.009.068-.065 3.292-.065 3.292-9.067 5.931-22.324 21.457-26.511 28.838-2.168 3.893-4.956 6.724-7.655 9.468-2.477 2.567-4.866 4.956-6.68 8.052-4.071 6.902 2.876 18.67 5.088 21.237 1.592 1.814 3.628 2.212 5.973 2.655.929.177 1.947.398 3.142.707 1.946.531 3.142 2.035 5.044 4.469 1.504 1.902 3.406 4.291 6.371 7.167 6.99 6.726 23.802 18.67 28.227 20.794 4.38 2.08 5.044 7.964 5.044 11.282 0 4.69-4.69 21.193-6.194 25.793-1.017 3.186-.797 6.105.575 7.654a2.879 2.879 0 0 0 2.168 1.017c.221 0 .398 0 .575-.044 2.655-.487 10.883-7.389 12.787-14.467 2.035-7.654 6.68-17.033 9.866-18.228 4.178-1.476 6.069-4.644 5.665-9.037l1.863-.649 4.484 4.987a1.113 1.113 0 0 0 1.285.263c.44-.203.697-.668.636-1.15l-1.017-7.755 4.962-3.35a1.103 1.103 0 0 0-.228-1.951l-7.261-2.724-2.869-8.086a1.108 1.108 0 0 0-1.026-.737c-.339.063-.879.275-1.048.704l-2.553 6.566-6.386-1.566a1.109 1.109 0 0 0-1.13 1.764l5.138 6.455-.066 1.79c-2.017-.746-4.03-1.105-4.83-1.225-3.761-2.699-5.53-5.707-9.379-12.078-2.168-3.672-4.867-8.185-8.937-14.379-6.77-10.308-14.689-16.812-23.538-19.335.266-.575.708-1.416 1.239-2.257 6.017-2.699 31.59-19.688 32.695-20.396.015-.01.013-.035.028-.046l3.459-1.998c9.589 5.048 29.634 9.096 38.119 9.175 4.456.007 8.285 1.069 11.992 2.098 3.446.92 6.695 1.85 10.283 1.933 8.01.209 14.929-11.576 16.099-14.755.813-2.273.173-4.246-.578-6.51a48.46 48.46 0 0 1-.906-3.091c-.481-1.96.255-3.734 1.459-6.579.934-2.238 2.099-5.062 3.175-9.048 2.487-9.376 4.772-29.873 4.482-34.772-.308-4.839 4.515-8.275 7.416-9.885 4.1-2.276 20.806-6.185 25.558-7.103 3.279-.657 5.725-2.266 6.413-4.217.298-.827.222-1.695-.166-2.392zm-52.97-.168l-2.773 1.408c-.235.12-.42.32-.522.564l-2.068 5.007-1.133-4.152a1.095 1.095 0 0 0-1.215-.806l-4.991.682 4.051-4.588c.217-.246.312-.574.264-.895l-.903-6.059 4.036 2.051c.373.191.822.154 1.16-.095l3.974-2.942-1.262 3.668c-.141.417-.019.883.309 1.185l1.871 1.672c-.556.939-.775 2.095-.798 3.3zm-2.673 22.352c4.003-6.827 5.81-9.954 6.357-15.167.013-.159.004-.356-.082-.512-.777-1.947-2.537-7.852-.387-9.45 2.936-2.187 5.591-2.142 8.242.081.309.739 1.717 4.006-.14 7.769-1.47-.551-2.716-.516-3.502-.384-3.893.643-4.473 11.541-4.433 17.995.012 3.03-1.493 6.243-3.492 9.479a2.83 2.83 0 0 0-.262-.563c-1.374-2.475-3.63-3.805-5.099-4.355 1.03-1.787 1.989-3.432 2.798-4.893zm-8.158 14.75a293.795 293.795 0 0 1 4.275-7.889c1.143.327 4.159 1.841 4.94 5.254-.632.958-1.286 1.878-1.918 2.836-2.034 2.9-3.956 5.636-5.225 8.365-.782 1.598-1.282 3.342-1.622 5.1-2.475-.904-4.249-.273-5.685.424.934-4.518 2.633-9.205 5.235-14.09zm-5.657 16.701a9.092 9.092 0 0 0 1.048-.481c1.358-.652 2.699-1.246 4.718-.342-.518 4.537-.021 9.171.717 12.961-2.325-.632-4.37-.762-6.098-.41l-.022-.039c-.869-3.666-.979-7.602-.363-11.689zm-4.806 14.406c.258.009.456 0 .714.009-.396.472-.71 1.001-1.002 1.568-.692 1.396-.668 2.901-.345 4.392a86.638 86.638 0 0 0-3.348-.47c-5.376-.66-11.452-1.486-17.321-3.036-10.077-2.655-19.09-8.683-21.972-10.777 2.771-2.641 6.781-5.751 10.063-10.039 5.268 2.743 28.67 15.004 32.566 18.103.186.152.427.22.645.25zm-50.458 15.344l-2.445 1.412c-4.236-6.1-4.004-21.02-4.004-21.19.044-.442-.221-.841-.619-1.017l-18.327-8.021.105-1.881c9.557 1.102 20.606 5.548 20.759 5.624.376.237.851.178 1.187-.099l15.208-12.68 3.273 2.925c-4.742 5.824-16.279 13.869-16.428 13.952-.408.177-.628.601-.589 1.035l1.88 19.94zm-8.673-87.773c.079.237.179.436.257.672 1.288 3.759 2.634 7.697 5.287 11.593 4.593 6.745 12.534 25.598 13.685 35.866l-14.735 12.273a86.597 86.597 0 0 0-5.165-2.333c.118-2.513.371-14.602-3.63-25.8-2.1-5.896-5.011-11.652-7.406-16.262-.693-1.385-1.366-2.71-1.98-3.957a68.777 68.777 0 0 0 1.483-2.474c1.246-2.098 2.392-4.097 3.817-4.671 5.222-2.135 7.101-3.423 8.387-4.907zm-3.743-8.447c1.247 1.859 2.059 3.897 2.851 5.974-1.127 1.663-2.135 2.791-8.348 5.325-2.116.872-3.521 3.286-4.845 5.641-.237.376-.494.792-.732 1.167-.892-1.978-1.465-3.601-1.387-4.551.118-1.623 1.562-3.522 3.105-5.522 1.74-2.295 3.698-4.928 4.192-7.797.317-1.721-.021-2.929-.497-3.759 2.394.654 4.492 1.703 5.661 3.522zm-22.675-.644c1.325-1.761 2.234-2.89 3.837-3.326.93-.277 3.284-.535 6.094-.516-.158.119-.317.237-.435.376-.851 1.01-1.146 2.889-1.442 5.263-.415 2.909-.908 6.471-2.648 9.064-1.562 2.335-2.888 2.514-4.392 2.752-.653.119-1.345.217-2.038.515-.595-2.869-.972-6.667-.915-11.733a65.916 65.916 0 0 0 1.939-2.395zm-9.595 5.84c2.196-.436 3.937-.853 5.441-1.684.041 4.471.438 8.231 1.132 11.297l-.04.079c-2.492 2.613-5.795 5.661-9.593 7.819.02-.237-.02-.456.02-.732.651-5.857-.895-11.179-4.239-14.878 2.906-.969 5.341-1.485 7.279-1.901zm-39.565 18.02c3.659-2.87 20.732-11.9 29.91-15.326 3.404 3.283 5.028 8.248 4.417 13.828-.058.811-.118 1.524-.098 2.176-1.662.753-3.383 1.327-5.164 1.624-2.79.436-6.035.398-9.478.36-6.312-.038-12.861-.094-17.252 2.954-8.15 5.622-13.748 7.623-14.481 6.812-1.049-1.068-2.989-4.312 1.085-11.278 4.434 1.425 8.273 1.067 11.061-1.15zm-36.428-6.08c-3.662-4.846-5.089-12.087-4.674-13.512.079-.257.257-.415.554-.514.97-.257 2.929.375 4.948 2.372.198.198.474.435.771.732l-1.599 10.922zm4.157 4.252a61.943 61.943 0 0 0-2.217-2.097l1.619-11.258a74.171 74.171 0 0 0 2.434 2.254l-1.836 11.101zm1.92 1.997l1.896-11.318c.93.811 1.88 1.682 2.85 2.511l-2.311 11.655a102.522 102.522 0 0 0-2.435-2.848zm5.383 6.746a69.434 69.434 0 0 0-1.167-1.622l2.468-12.268a115.668 115.668 0 0 0 4.671 3.817l-5.972 10.073zm1.288 2.176l6.506-10.944c.95.672 1.801 1.246 2.474 1.582.514.257 1.01.455 1.544.672-.257.415-.494.89-.692 1.287-1.423 2.85-1.918 5.126-1.897 6.965-3.186.436-5.302 2.001-6.627 3.366-.278-.93-.734-1.9-1.308-2.928zm13.211 15.451c.232.126.502.167.76.111l5.3-1.124-2.784 3.282a1.094 1.094 0 0 0 .023 1.458l3.384 3.731-6.074-.747a1.104 1.104 0 0 0-.887.288l-4.488 4.17-.59-4.489a1.106 1.106 0 0 0-.735-.903l-4.673-1.614 3.74-1.033c.424-.119.739-.483.802-.925l.321-2.488c1.088-.072 2.166-.544 3.172-1.207l2.729 1.49zm23.549-19.046c-1.266 2.532-1.086 5.144-.71 6.668-2.058.159-3.957.298-5.619.457-7.894.557-11.496.835-16.105 3.33-.139.078-.297.198-.375.356-1.166 1.741-5.043 6.531-7.576 5.662-3.464-1.186-4.928-3.402-4.593-6.845.435-.673 2.333-3.681 6.488-4.276.376 1.524 1.109 2.532 1.663 3.106 2.731 2.848 12.049-2.834 17.35-6.516 2.493-1.722 5.994-2.297 9.793-2.477-.137.178-.216.336-.316.535zm10.45 5.516c-3.423.417-6.332.695-8.924.934-.376-1.128-.832-4.471 1.54-7.044 1.148-.021 2.275-.001 3.423-.021 3.542.039 6.886.077 9.854-.419 1.761-.257 3.482-.832 5.124-1.545.654 2.552 2.178 3.659 3.563 4.45-4.253 1.781-9.08 3.029-14.58 3.645zm26.41-11.683c-2.531 2.791-5.716 5.107-9.436 6.909a9.423 9.423 0 0 0-.99-.594c-1.306-.751-2.553-1.523-2.95-3.699 4.035-2.138 7.576-5.166 10.285-7.918.792 2.275 1.842 4.035 3.108 5.262.003 0 .003 0-.017.04zm1.78-1.386c-1.068-.93-2.177-2.571-3.049-5.48.554-.317 1.148-.416 1.839-.515 1.662-.258 3.759-.595 5.855-3.702 2.037-2.988 2.59-6.867 3.023-10.013.237-1.761.473-3.622.948-4.175.494-.594 1.998-.931 3.086-.437 1.247.574 1.247 1.959 1.069 3.007-.395 2.375-2.115 4.631-3.776 6.867-1.72 2.257-3.342 4.414-3.539 6.689-.138 1.564.734 3.878 2.159 6.866-.909 1.128-1.879 1.98-3.105 2.158-1.759.257-3.263-.197-4.51-1.265zm3.543 4.786c.02-.237-.06-.474-.159-.673-.139-.217-.257-.375-.396-.594.614.06 1.227.02 1.859-.06 1.544-.218 2.77-1.089 3.818-2.198.456.97.95 1.959 1.505 3.027 2.495 4.808 5.247 10.286 7.287 16.004 3.506 9.813 3.628 20.655 3.531 24.217-4.289-.931-8.644-1.899-13.97-2.626-.712-5.895-3.828-32.13-3.475-37.097zm-31.218 81.689c2.787-2.831 5.707-5.795 8.008-9.91 3.981-7.123 17.299-22.653 25.971-28.271l17.565 7.699c0 1.062.044 3.142.221 5.663-2.301 1.017-13.228 6.194-21.458 14.777-4.335 4.513-8.185 9.689-11.238 13.892-.929 1.239-1.814 2.433-2.655 3.54-.973-.088-1.946-.177-2.876-.221-2.433-.177-4.734-.31-5.885-1.327-4.247-3.716-6.239-4.822-8.141-5.309.178-.179.311-.356.488-.533zm-6.99 14.291c-.487-2.433-.487-4.778.619-6.636 1.106-1.946 2.566-3.584 4.071-5.22 1.991.266 3.45.664 8.494 5.088 1.726 1.504 4.513 1.682 7.212 1.814.442.044.929.088 1.372.132-1.372 1.682-2.567 2.92-3.45 3.274-1.504.619-3.849.177-6.327-.31-2.831-.531-6.061-1.106-8.849-.266-1.682.486-2.611 1.327-3.142 2.124zm3.761 0c2.301-.707 5.088-.177 7.831.31 2.787.531 5.442 1.017 7.565.177 1.46-.575 3.142-2.389 5.176-5 1.416.309 2.61.797 3.318 1.814 1.017 1.46 1.283 3.008.885 4.601-.354 1.372-1.327 3.097-3.54 5.176-.531-.354-.885-.841-1.283-1.416-.973-1.372-2.212-3.097-5.929-3.584-3.584-.487-7.3.753-10.308 1.77-1.682.575-3.452 1.195-4.159 1.017-.753-.178-1.726-1.372-1.77-2.567-.043-1.369 1.196-1.988 2.214-2.298zm9.423 14.599a63.385 63.385 0 0 0-3.008-.663c-2.168-.398-3.584-.708-4.69-1.947-.664-.708-1.947-2.699-3.186-5.22.178.088.354.177.531.221 1.283.31 3.096-.266 5.353-1.062 2.787-.929 6.194-2.08 9.291-1.682 2.787.354 3.54 1.46 4.424 2.699.398.531.797 1.106 1.372 1.592-2.3 1.815-5.53 3.85-10.087 6.062zm6.504 5.31c-1.372-1.77-2.521-3.142-3.938-4.115 3.981-2.035 7.167-4.071 9.601-6.061h.088c3.45 1.062 7.654 2.655 11.282 5.088-.221.088-.398.221-.664.309-5.53 2.035-9.601 5.796-11.414 10.442-2.168-2.168-3.716-4.115-4.955-5.663zm33.802 27.341c-4.203-1.991-19.91-13.228-27.076-19.91 1.416-4.513 5.132-8.184 10.397-10.132.753-.31 1.416-.575 1.991-.885 1.416 1.151 2.699 2.433 3.761 3.893 1.638 2.301 3.053 5.22 4.557 8.318 2.787 5.663 5.663 11.548 10.353 14.113 8.672 4.778 12.963 8.893 12.565 9.91-.487 1.416-2.521 4.601-10.574 4.071-.71-4.599-2.744-7.873-5.974-9.378zm.839 45.526c-.266.044-.487-.044-.707-.266-.664-.753-.973-2.787-.088-5.486.088-.266.178-.619.31-1.017l10.486-3.451c-2.7 5.442-8.54 9.956-10.001 10.22zm11.061-12.919l-10.795 3.584c.31-.973.619-2.035.929-3.186l10.751-3.318a63.163 63.163 0 0 0-.885 2.92zm1.814-5.53l-10.973 3.362c.31-1.194.664-2.433.973-3.672l11.458-3.142a108.087 108.087 0 0 0-1.458 3.452zm2.7-6.062l-12.078 3.274c.531-2.079.973-4.115 1.327-5.884l11.68.841c-.31.576-.619 1.15-.929 1.769zm2.3-3.893l-12.697-.929c.177-1.151.309-2.168.309-2.92 0-.575-.044-1.106-.088-1.682.487.044 1.017.044 1.46.044 3.186 0 5.442-.575 7.079-1.416 1.814 2.655 4.159 3.849 5.973 4.424-.708.665-1.373 1.506-2.036 2.479zm4.306-23.692l4.18 1.024a1.096 1.096 0 0 0 1.294-.672l1.825-4.694 2.046 5.768c.11.309.35.551.654.665l5.736 2.152-3.753 2.534a1.104 1.104 0 0 0-.48 1.06l.643 4.902-2.594-2.884a1.123 1.123 0 0 0-1.186-.305l-2.37.824c-.551-.941-1.454-1.695-2.497-2.298l.115-3.107a1.12 1.12 0 0 0-.239-.73l-3.374-4.239zm-14.748-5.11c4.026 6.814 5.885 9.91 10.176 12.919.132.088.309.177.487.177 2.079.266 8.096 1.592 8.45 4.247.487 3.628-.841 5.929-4.071 7.167-.797-.088-4.335-.442-6.725-3.893 1.195-1.017 1.77-2.123 2.035-2.876 1.327-3.716-7.919-9.512-13.582-12.609-2.655-1.46-4.734-4.335-6.592-7.654.221.044.398.044.619.044 2.831 0 5.088-1.327 6.282-2.345 1.063 1.771 2.037 3.408 2.921 4.823zm-8.937-14.289a298.297 298.297 0 0 1 4.822 7.565c-.841.841-3.628 2.743-6.99 1.77-.531-1.017-1.017-2.035-1.548-3.052-1.548-3.186-3.008-6.194-4.778-8.628-1.017-1.46-2.301-2.743-3.672-3.893 1.991-1.726 2.301-3.584 2.389-5.176 3.496 3.008 6.769 6.768 9.777 11.414zm-11.856-13.052a9.408 9.408 0 0 0-.088 1.151c-.088 1.504-.221 2.965-1.991 4.291-3.716-2.655-8.008-4.469-11.68-5.663 1.682-1.726 2.787-3.451 3.318-5.132h.044c3.627 1.016 7.123 2.831 10.397 5.353zm-9.734-11.636c-.221.088-.398.266-.531.442-.132.221-.221.398-.354.619-.221-.575-.531-1.106-.885-1.636-.885-1.283-2.212-1.991-3.672-2.433a85.839 85.839 0 0 0 2.035-2.699c3.186-4.38 6.858-9.291 11.061-13.671 7.212-7.521 16.856-12.477 20.086-13.981.487 4.69 1.548 10.22 3.893 13.671-4.955 3.273-27.031 17.785-31.633 19.688zm89.417-20.937c-1.188 5.517-1.19 7.795-.691 9.694-.241-.068-.46-.099-.701-.168-3.829-1.063-7.838-2.177-12.552-2.193-8.16-.024-28.201-4.131-37.323-8.986l-1.793-19.093a86.723 86.723 0 0 0 4.844-2.942c2.006 1.517 11.836 8.561 23.334 11.59 6.05 1.601 12.444 2.454 17.6 3.083 1.534.212 3.008.405 4.383.604.395.894.79 1.788 1.203 2.622 1.027 2.213 2.027 4.29 1.696 5.789zm8.393 11.382c-2.239-.022-4.378-.504-6.54-1.025-.734-1.869-1.095-3.339.327-9.897.478-2.239-.721-4.761-1.914-7.186-.177-.408-.374-.855-.549-1.263 2.135.384 3.798.826 4.537 1.429 1.272 1.014 2.023 3.279 2.799 5.682.91 2.733 1.975 5.836 4.063 7.865 1.241 1.234 2.428 1.638 3.381 1.716-1.892 1.607-3.943 2.745-6.104 2.679zm7.362-5.149c-1.177.704-2.321-.078-3.085-.818-1.736-1.668-2.624-4.363-3.53-6.997-.888-2.695-1.751-5.252-3.517-6.7-1.212-.998-3.614-1.587-6.883-2.1-.417-1.388-.57-2.669-.024-3.782.782-1.598 2.007-2.582 3.593-3.007 1.37-.356 3.352-.342 6.244.583-.052.636-.306 1.182-.615 1.809-.727 1.516-1.634 3.437-.256 6.923 1.314 3.37 4.201 6.017 6.55 8.154 1.319 1.191 2.719 2.438 2.908 3.143.211.743-.361 2.174-1.385 2.792zm6.561-8.146c-.297.924-1.415 3.012-3.018 5.32-.009-.198-.017-.396-.064-.572-.352-1.272-1.735-2.579-3.527-4.165-2.165-1.986-4.824-4.406-5.98-7.308-1.043-2.609-.441-3.804.212-5.178.271-.606.58-1.234.727-1.972 2.702 1.131 6.049 2.967 10.195 5.878a64.93 64.93 0 0 0 .881 2.953c.705 2.088 1.121 3.476.574 5.044zm.032-16.26c-.882 2.058-1.523 3.73-1.687 5.44-3.712-2.494-7.037-4.291-9.959-5.452l-.043-.077c-.746-3.532-1.394-7.98-1.026-12.333.184.15.386.241.593.43 4.463 3.848 9.727 5.581 14.669 4.913-.844 2.945-1.794 5.245-2.547 7.079zm7.502-42.823c.299 4.641-1.903 23.828-4.267 33.336-4.632.952-9.647-.515-13.905-4.173-.636-.508-1.19-.959-1.74-1.311.319-1.796.818-3.541 1.579-5.177 1.217-2.548 3.083-5.203 5.06-8.021 3.598-5.185 7.348-10.556 7.316-15.902-.031-9.901 1.484-15.65 2.567-15.796 1.474-.262 5.247-.029 8.691 7.27-3.678 2.851-5.553 6.22-5.301 9.774zm8.535-11.974c-.503.279-.946.575-1.427.893a16.684 16.684 0 0 0-.67-1.298c-1.546-2.785-3.144-4.479-4.673-5.502 1.441-2.874 1.347-5.504.97-7.369.924.297 1.981.469 3.154.577l5.351 11.553c-1.094.403-2.048.781-2.705 1.146zm4.809-1.911l-4.934-10.621c.653-.009 1.306-.017 1.998-.046l8.724 8.971a118.656 118.656 0 0 0-5.788 1.696zm8.256-2.356l-8.308-8.494a99.977 99.977 0 0 0 3.725-.398l8.265 7.961c-1.194.309-2.449.601-3.682.931zm6.269-1.557l-8.119-7.789c1.1-.205 2.179-.45 2.983-.643l8.373 7.7c-1.001.199-2.08.444-3.237.732zm6.885-1.544c-.275.051-.627.146-1.039.223l-8.106-7.494c6.068-.281 12.847 2.635 13.789 3.783.168.211.198.447.111.748-.336.945-1.966 2.203-4.755 2.74z" fill="#464655"/>
  </g>
</svg>
