<?xml version="1.0" encoding="iso-8859-1"?>
<!-- Generator: Adobe Illustrator 19.0.0, SVG Export Plug-In . SVG Version: 6.00 Build 0)  -->
<svg version="1.1" id="Layer_1" xmlns="http://www.w3.org/2000/svg" xmlns:xlink="http://www.w3.org/1999/xlink" x="0px" y="0px"
	 viewBox="0 0 512 512" style="enable-background:new 0 0 512 512;" xml:space="preserve">
<path style="fill:#41479B;" d="M503.172,423.724H8.828c-4.875,0-8.828-3.953-8.828-8.828V97.103c0-4.875,3.953-8.828,8.828-8.828
	h494.345c4.875,0,8.828,3.953,8.828,8.828v317.793C512,419.772,508.047,423.724,503.172,423.724z"/>
<path style="fill:#F5F5F5;" d="M3.978,422.078L512,211.862v-61.793L0,414.897C0,417.94,1.635,420.49,3.978,422.078z"/>
<path style="fill:#FF9B55;" d="M508.658,90.351L0,406.069v8.828l512-264.828V97.103C512,94.336,510.649,91.97,508.658,90.351z"/>
<polygon style="fill:#F5F5F5;" points="145.903,210.169 203.034,203.034 145.903,195.9 174.858,178.141 138.831,186.95 
	160.757,157.036 130.844,178.962 139.652,142.935 121.894,171.89 114.759,114.759 107.624,171.89 89.865,142.935 98.674,178.962 
	68.76,157.036 90.686,186.95 54.659,178.141 83.614,195.9 26.483,203.034 83.614,210.169 54.659,227.928 90.686,219.119 
	68.76,249.033 98.674,227.107 89.865,263.134 107.624,234.179 114.759,291.31 121.894,234.179 139.652,263.134 130.844,227.107 
	160.757,249.033 138.831,219.119 174.858,227.928 "/>
<g>
</g>
<g>
</g>
<g>
</g>
<g>
</g>
<g>
</g>
<g>
</g>
<g>
</g>
<g>
</g>
<g>
</g>
<g>
</g>
<g>
</g>
<g>
</g>
<g>
</g>
<g>
</g>
<g>
</g>
</svg>
