<svg width="512" height="336" viewBox="0 0 512 336" xmlns="http://www.w3.org/2000/svg">
  <g fill="none">
    <path d="M503.172 335.724H8.828A8.829 8.829 0 0 1 0 326.896V9.104A8.829 8.829 0 0 1 8.828.276h494.345a8.829 8.829 0 0 1 8.828 8.828v317.792a8.83 8.83 0 0 1-8.829 8.828z" fill="#41479B"/>
    <g fill="#F5F5F5">
      <path d="M512 150.345H273.655V.276h-35.311v150.069H0v35.31h238.344v150.069h35.311V185.655H512z"/>
      <path d="M172.41 115.12c-.253-1.502-.823-3.281-1.543-4.426-1.431-1.978-3.087-3.363-4.691-4.225-12.639-5.806-23.22-4.668-33.317-4.708-9.973.257-19.303 1.977-26.877 3.635-2.056.414-3.837.723-5.742 1.081.942-1.946 4.395-4.381 9.045-5.857 11.336-3.872 24.276-5.427 36.994-7.905 3.212-.629 6.468-1.366 9.802-2.314 1.795-.615 3.306-1.095 5.42-2.077a21.997 21.997 0 0 0 3.833-2.763c1.216-1.094 1.123-1.4 1.749-2.138 2.888-5.497.154-9.411-2.138-11.455-2.209-1.813-4.07-2.521-5.841-3.25-3.438-1.206-6.623-1.962-9.697-2.603l-17.447-3.491c-2.708-.627-5.327-1.323-7.625-2.167-2.029-.541-4.896-2.546-4.47-1.999-5.239-.452 7.175-6.295 16.126-9.559 2.379-1.05 4.744-2.11 7.167-3.606 2.377-1.571 4.826-2.904 7.467-7.304.519-.913.497-1.135.769-1.732l.302-.759c.655-2.339.295-1.708.447-2.722.309-2.454-.654-5.077-2.178-7.262-3.111-3.362-6.205-4.324-8.503-4.968-9.504-2.252-16.342-1.636-22.283-1.613l-17.705.832-.435.02-.039.002a6.529 6.529 0 0 0-6.137 6.9c.02.352.185.647.258.98-5.102 1.406-13.175 2.844-21.162.961a2.158 2.158 0 0 0-2.62 1.615 2.174 2.174 0 0 0 1.615 2.62c3.138.74 6.251 1.03 9.219 1.03 6.305 0 11.691-1.283 15.369-2.41 1.186.881 2.628 1.436 4.218 1.343l17.892-1.047c5.331-.192 12.495-.473 18.407.916.489.076.751.228 1.075.365.046-.524-.954.952-2.517 1.711-1.517.979-3.491 1.917-5.545 2.849-4.2 1.903-9.006 3.539-14.334 6.406-2.572 1.518-5.752 3.06-8.394 7.571-1.235 2.09-1.821 5.469-1.172 7.851l.192.971.109.48.058.238c-.409-.849.622 1.434.541 1.228l.533.888c.473.676.399.956 1.535 2.136a25.09 25.09 0 0 0 3.001 2.754c.93.64 1.624.942 2.461 1.416 1.649.972 3.146 1.422 4.708 2.035 3.08 1.085 6.079 1.822 9.074 2.484l17.695 3.33a67.495 67.495 0 0 1 7.055 1.772c-2.791 1.006-6.697 2.02-10.066 2.669-12.255 2.586-25.25 4.15-38.467 8.792-3.308 1.259-6.697 2.764-10.02 5.309-3.129 2.371-6.418 7.1-5.997 12.295-1.121.157-2.409.386-3.445.501-11.212 1.484-15.924-.49-15.62-.547a3.076 3.076 0 0 0-4.215 1.085 3.076 3.076 0 0 0 1.084 4.215s1.922 1.305 5.353 2.057c3.414.772 8.217 1.126 14.067.665 1.611-.11 3.498-.351 5.27-.538 1.225 1.766 2.652 3.714 3.981 4.658 3.089 2.591 6.36 4.248 9.62 5.699 13.123 5.076 26.239 6.142 39.027 5.639 6.42-.482 12.738-1.231 19.226-4.126 3.025-1.411 7.177-3.633 8.459-10.06.004-.823.145-1.198.019-2.373zm-9.438 2.024c-.167-.95-.69 1.205-3.14 1.799-4.217 1.853-9.973 2.701-15.631 2.999-11.41.375-23.87-.957-34.554-5.29-1.679-.776-3.049-1.753-4.49-2.687.792-.121 1.479-.205 2.291-.333 7.939-1.265 16.214-2.754 25.719-2.911 9.053-.166 20.581-.041 28.236 3.767.889.479 1.278.978 1.572 1.279 0 0-.254-.305.029-.499.126.194-.032 1.278-.032 1.876zm283.094-2.024c-.253-1.502-.823-3.281-1.543-4.426-1.431-1.978-3.087-3.363-4.691-4.225-12.639-5.806-23.22-4.668-33.317-4.708-9.973.257-19.303 1.977-26.877 3.635-2.056.414-3.837.723-5.742 1.081.942-1.946 4.395-4.381 9.045-5.857 11.336-3.872 24.276-5.427 36.994-7.905 3.212-.629 6.468-1.366 9.802-2.314 1.795-.615 3.306-1.095 5.42-2.077a21.997 21.997 0 0 0 3.833-2.763c1.216-1.094 1.123-1.4 1.749-2.138 2.888-5.497.155-9.411-2.138-11.455-2.209-1.813-4.069-2.521-5.841-3.25-3.438-1.206-6.623-1.962-9.697-2.603l-17.447-3.491c-2.708-.627-5.327-1.323-7.625-2.167-2.029-.541-4.896-2.546-4.47-1.999-5.239-.452 7.175-6.295 16.126-9.559 2.379-1.05 4.744-2.11 7.167-3.606 2.377-1.571 4.826-2.904 7.467-7.304.519-.913.497-1.135.769-1.732l.302-.759c.655-2.339.295-1.708.447-2.722.309-2.454-.654-5.077-2.178-7.262-3.111-3.362-6.205-4.324-8.503-4.968-9.504-2.252-16.342-1.636-22.283-1.613l-17.705.832-.435.02-.039.002a6.529 6.529 0 0 0-6.137 6.9c.02.352.185.647.258.98-5.102 1.406-13.175 2.844-21.162.961a2.158 2.158 0 0 0-2.62 1.615 2.174 2.174 0 0 0 1.615 2.62c3.138.74 6.251 1.03 9.219 1.03 6.305 0 11.691-1.283 15.369-2.41 1.186.881 2.628 1.436 4.218 1.343l17.892-1.047c5.331-.192 12.495-.473 18.407.916.489.076.751.228 1.075.365.046-.524-.954.952-2.517 1.711-1.517.979-3.491 1.917-5.545 2.849-4.2 1.903-9.006 3.539-14.334 6.406-2.572 1.518-5.752 3.06-8.394 7.571-1.235 2.09-1.821 5.469-1.172 7.851l.192.971.109.48.059.238c-.409-.849.622 1.434.541 1.228l.533.888c.473.676.399.956 1.535 2.136a25.09 25.09 0 0 0 3.001 2.754c.93.64 1.624.942 2.461 1.416 1.649.972 3.146 1.422 4.708 2.035 3.08 1.085 6.079 1.822 9.074 2.484l17.695 3.33a67.495 67.495 0 0 1 7.055 1.772c-2.791 1.006-6.697 2.02-10.066 2.669-12.255 2.586-25.25 4.15-38.467 8.792-3.308 1.259-6.697 2.764-10.02 5.309-3.129 2.371-6.418 7.1-5.997 12.295-1.121.157-2.409.386-3.445.501-11.212 1.484-15.924-.49-15.62-.547a3.076 3.076 0 0 0-4.215 1.085 3.076 3.076 0 0 0 1.084 4.215s1.922 1.305 5.353 2.057c3.414.772 8.217 1.126 14.067.665 1.611-.11 3.498-.351 5.27-.538 1.225 1.766 2.652 3.714 3.981 4.658 3.089 2.591 6.36 4.248 9.62 5.699 13.123 5.076 26.24 6.142 39.027 5.639 6.42-.482 12.738-1.231 19.226-4.126 3.025-1.411 7.177-3.633 8.459-10.06.001-.823.142-1.198.018-2.373zm-9.439 2.024c-.167-.95-.69 1.205-3.14 1.799-4.217 1.853-9.973 2.701-15.631 2.999-11.41.375-23.87-.957-34.554-5.29-1.679-.776-3.049-1.753-4.49-2.687.792-.121 1.479-.205 2.291-.333 7.939-1.265 16.214-2.754 25.719-2.911 9.053-.166 20.581-.041 28.236 3.767.889.479 1.278.978 1.572 1.279 0 0-.254-.305.029-.499.126.194-.031 1.278-.032 1.876zM172.41 300.498c-.253-1.502-.823-3.281-1.543-4.426-1.431-1.978-3.087-3.363-4.691-4.225-12.639-5.806-23.22-4.668-33.317-4.708-9.973.257-19.303 1.977-26.877 3.635-2.056.414-3.837.723-5.742 1.081.942-1.946 4.395-4.381 9.045-5.857 11.336-3.872 24.276-5.427 36.994-7.905 3.212-.629 6.468-1.366 9.802-2.314 1.795-.615 3.306-1.095 5.42-2.077a21.997 21.997 0 0 0 3.833-2.763c1.216-1.094 1.123-1.4 1.749-2.138 2.888-5.497.154-9.411-2.138-11.455-2.209-1.813-4.07-2.521-5.841-3.25-3.438-1.206-6.623-1.962-9.697-2.603l-17.447-3.491c-2.708-.627-5.327-1.323-7.625-2.167-2.029-.541-4.896-2.546-4.47-1.999-5.239-.452 7.175-6.295 16.126-9.559 2.379-1.05 4.744-2.111 7.167-3.606 2.377-1.571 4.826-2.904 7.467-7.304.519-.913.497-1.135.769-1.732l.302-.759c.655-2.339.295-1.708.447-2.722.309-2.454-.654-5.077-2.178-7.262-3.111-3.362-6.205-4.324-8.503-4.968-9.504-2.252-16.342-1.636-22.283-1.613l-17.705.832-.435.02-.039.002a6.529 6.529 0 0 0-6.137 6.9c.02.352.185.647.258.98-5.102 1.406-13.175 2.844-21.162.961a2.158 2.158 0 0 0-2.62 1.615 2.174 2.174 0 0 0 1.615 2.62c3.138.74 6.251 1.03 9.219 1.03 6.305 0 11.691-1.283 15.369-2.41 1.186.881 2.628 1.436 4.218 1.343l17.892-1.047c5.331-.192 12.495-.473 18.407.916.489.076.751.228 1.075.365.046-.524-.954.952-2.517 1.711-1.517.979-3.491 1.917-5.545 2.849-4.2 1.903-9.006 3.539-14.334 6.405-2.572 1.518-5.752 3.06-8.394 7.571-1.235 2.09-1.821 5.469-1.172 7.851l.192.971.109.48.058.238c-.409-.849.622 1.434.541 1.228l.533.888c.473.676.399.956 1.535 2.136.911.987 1.94 1.93 3.001 2.754.93.64 1.624.942 2.461 1.416 1.649.972 3.146 1.422 4.708 2.035 3.08 1.085 6.079 1.822 9.074 2.484l17.695 3.33a67.495 67.495 0 0 1 7.055 1.772c-2.791 1.006-6.697 2.02-10.066 2.669-12.255 2.586-25.25 4.15-38.467 8.792-3.308 1.259-6.697 2.764-10.02 5.309-3.129 2.371-6.418 7.1-5.997 12.295-1.121.157-2.409.386-3.445.501-11.212 1.484-15.924-.49-15.62-.547a3.076 3.076 0 0 0-4.215 1.085 3.076 3.076 0 0 0 1.084 4.215s1.922 1.305 5.353 2.057c3.414.772 8.217 1.125 14.067.665 1.611-.11 3.498-.351 5.27-.538 1.225 1.766 2.652 3.714 3.981 4.658 3.089 2.591 6.36 4.248 9.62 5.699 13.123 5.076 26.239 6.142 39.027 5.639 6.42-.482 12.738-1.231 19.226-4.126 3.025-1.411 7.177-3.633 8.459-10.06.004-.821.145-1.196.019-2.372zm-9.438 2.025c-.167-.95-.69 1.205-3.14 1.799-4.217 1.853-9.973 2.701-15.631 2.999-11.41.375-23.87-.957-34.554-5.29-1.679-.776-3.049-1.753-4.49-2.687.792-.121 1.479-.205 2.291-.333 7.939-1.265 16.214-2.754 25.719-2.911 9.053-.165 20.581-.041 28.236 3.767.889.479 1.278.978 1.572 1.279 0 0-.254-.305.029-.499.126.194-.032 1.278-.032 1.876zm283.094-2.025c-.253-1.502-.823-3.281-1.543-4.426-1.431-1.978-3.087-3.363-4.691-4.225-12.639-5.806-23.22-4.668-33.317-4.708-9.973.257-19.303 1.977-26.877 3.635-2.056.414-3.837.723-5.742 1.081.942-1.946 4.395-4.381 9.045-5.857 11.336-3.872 24.276-5.427 36.994-7.905 3.212-.629 6.468-1.366 9.802-2.314 1.795-.615 3.306-1.095 5.42-2.077a21.997 21.997 0 0 0 3.833-2.763c1.216-1.094 1.123-1.4 1.749-2.138 2.888-5.497.155-9.411-2.138-11.455-2.209-1.813-4.069-2.521-5.841-3.25-3.438-1.206-6.623-1.962-9.697-2.603l-17.447-3.491c-2.708-.627-5.327-1.323-7.625-2.167-2.029-.541-4.896-2.546-4.47-1.999-5.239-.452 7.175-6.295 16.126-9.559 2.379-1.05 4.744-2.111 7.167-3.606 2.377-1.571 4.826-2.904 7.467-7.304.519-.913.497-1.135.769-1.732l.302-.759c.655-2.339.295-1.708.447-2.722.309-2.454-.654-5.077-2.178-7.262-3.111-3.362-6.205-4.324-8.503-4.968-9.504-2.252-16.342-1.636-22.283-1.613l-17.705.832-.435.02-.039.002a6.529 6.529 0 0 0-6.137 6.9c.02.352.185.647.258.98-5.102 1.406-13.175 2.844-21.162.961a2.158 2.158 0 0 0-2.62 1.615 2.174 2.174 0 0 0 1.615 2.62c3.138.74 6.251 1.03 9.219 1.03 6.305 0 11.691-1.283 15.369-2.41 1.186.881 2.628 1.436 4.218 1.343l17.892-1.047c5.331-.192 12.495-.473 18.407.916.489.076.751.228 1.075.365.046-.524-.954.952-2.517 1.711-1.517.979-3.491 1.917-5.545 2.849-4.2 1.903-9.006 3.539-14.334 6.405-2.572 1.518-5.752 3.06-8.394 7.571-1.235 2.09-1.821 5.469-1.172 7.851l.192.971.109.48.059.238c-.409-.849.622 1.434.541 1.228l.533.888c.473.676.399.956 1.535 2.136.911.987 1.94 1.93 3.001 2.754.93.64 1.624.942 2.461 1.416 1.649.972 3.146 1.422 4.708 2.035 3.08 1.085 6.079 1.822 9.074 2.484l17.695 3.33a67.495 67.495 0 0 1 7.055 1.772c-2.791 1.006-6.697 2.02-10.066 2.669-12.255 2.586-25.25 4.15-38.467 8.792-3.308 1.259-6.697 2.764-10.02 5.309-3.129 2.371-6.418 7.1-5.997 12.295-1.121.157-2.409.386-3.445.501-11.212 1.484-15.924-.49-15.62-.547a3.076 3.076 0 0 0-4.215 1.085 3.076 3.076 0 0 0 1.084 4.215s1.922 1.305 5.353 2.057c3.414.772 8.217 1.125 14.067.665 1.611-.11 3.498-.351 5.27-.538 1.225 1.766 2.652 3.714 3.981 4.658 3.089 2.591 6.36 4.248 9.62 5.699 13.123 5.076 26.24 6.142 39.027 5.639 6.42-.482 12.738-1.231 19.226-4.126 3.025-1.411 7.177-3.633 8.459-10.06.001-.821.142-1.196.018-2.372zm-9.439 2.025c-.167-.95-.69 1.205-3.14 1.799-4.217 1.853-9.973 2.701-15.631 2.999-11.41.375-23.87-.957-34.554-5.29-1.679-.776-3.049-1.753-4.49-2.687.792-.121 1.479-.205 2.291-.333 7.939-1.265 16.214-2.754 25.719-2.911 9.053-.165 20.581-.041 28.236 3.767.889.479 1.278.978 1.572 1.279 0 0-.254-.305.029-.499.126.194-.031 1.278-.032 1.876z"/>
    </g>
  </g>
</svg>
