<?xml version="1.0" encoding="iso-8859-1"?>
<!-- Generator: Adobe Illustrator 19.0.0, SVG Export Plug-In . SVG Version: 6.00 Build 0)  -->
<svg version="1.1" id="Layer_1" xmlns="http://www.w3.org/2000/svg" xmlns:xlink="http://www.w3.org/1999/xlink" x="0px" y="0px"
	 viewBox="0 0 512 512" style="enable-background:new 0 0 512 512;" xml:space="preserve">
<path style="fill:#FF4B55;" d="M503.172,88.276H256v335.448h247.172c4.875,0,8.828-3.953,8.828-8.828V97.103
	C512,92.228,508.047,88.276,503.172,88.276z"/>
<path style="fill:#F5F5F5;" d="M8.828,423.724H256V88.276H8.828C3.953,88.276,0,92.228,0,97.103v317.793
	C0,419.772,3.953,423.724,8.828,423.724z"/>
<path style="fill:#FF4B55;" d="M73.564,108.874v23.62c1.301,0.051,2.752,0.641,3.958,1.847c1.206,1.206,1.798,2.657,1.847,3.958
	h23.62v23.54H79.368c-0.051,1.301-0.641,2.752-1.847,3.958c-1.206,1.206-2.657,1.796-3.958,1.847v23.62h-23.54v-23.62
	c-1.301-0.051-2.752-0.641-3.958-1.847c-1.206-1.206-1.796-2.657-1.847-3.958H20.598V138.3h23.62
	c0.051-1.301,0.641-2.752,1.847-3.958c1.206-1.206,2.657-1.796,3.958-1.847v-23.62H73.564 M76.505,105.931h-2.943h-23.54H47.08
	v2.943v21.303c-1.123,0.46-2.177,1.165-3.096,2.083c-0.919,0.919-1.623,1.973-2.084,3.096H20.598h-2.943v2.943v23.54v2.943h2.943
	h21.303c0.461,1.123,1.165,2.178,2.084,3.096c0.918,0.918,1.972,1.623,3.095,2.083v21.303v2.942h2.943h23.54h2.943v-2.943v-21.303
	c1.123-0.46,2.177-1.165,3.096-2.084c0.918-0.918,1.623-1.972,2.083-3.095h21.303h2.942v-2.943v-23.54v-2.943h-2.943H81.686
	c-0.46-1.123-1.165-2.177-2.084-3.096c-0.918-0.918-1.972-1.623-3.096-2.083v-21.302V105.931L76.505,105.931z"/>
<polygon style="fill:#CDCDCD;" points="102.988,138.298 73.564,138.298 73.564,108.874 50.023,108.874 50.023,138.298 
	20.598,138.298 20.598,161.839 50.023,161.839 50.023,191.264 73.564,191.264 73.564,161.839 102.988,161.839 "/>
<g>
	<circle style="fill:#B4A08C;" cx="61.793" cy="150.069" r="11.77"/>
	
		<ellipse transform="matrix(0.7071 -0.7071 0.7071 0.7071 -101.1539 82.2021)" style="fill:#B4A08C;" cx="48.65" cy="163.205" rx="3.663" ry="5.234"/>
	
		<ellipse transform="matrix(0.7071 0.7071 -0.7071 0.7071 137.3461 -5.1845)" style="fill:#B4A08C;" cx="74.931" cy="163.199" rx="3.663" ry="5.234"/>
	
		<ellipse transform="matrix(-0.7071 0.7071 -0.7071 -0.7071 224.7286 180.7894)" style="fill:#B4A08C;" cx="74.922" cy="136.938" rx="3.663" ry="5.234"/>
	
		<ellipse transform="matrix(-0.7071 -0.7071 0.7071 -0.7071 -13.7812 268.1631)" style="fill:#B4A08C;" cx="48.648" cy="136.936" rx="3.663" ry="5.234"/>
	<path style="fill:#B4A08C;" d="M61.793,166.182c-8.885,0-16.113-7.226-16.113-16.113s7.228-16.113,16.113-16.113
		s16.113,7.228,16.113,16.113C77.906,158.954,70.678,166.182,61.793,166.182z M61.793,135.428c-8.072,0-14.641,6.569-14.641,14.641
		c0,8.072,6.569,14.641,14.641,14.641s14.641-6.569,14.641-14.641C76.434,141.997,69.865,135.428,61.793,135.428z"/>
</g>
<g>
</g>
<g>
</g>
<g>
</g>
<g>
</g>
<g>
</g>
<g>
</g>
<g>
</g>
<g>
</g>
<g>
</g>
<g>
</g>
<g>
</g>
<g>
</g>
<g>
</g>
<g>
</g>
<g>
</g>
</svg>
