<svg width="512" height="336" viewBox="0 0 512 336" xmlns="http://www.w3.org/2000/svg">
  <g fill="none">
    <path d="M503.172 335.724H8.828A8.829 8.829 0 0 1 0 326.896V9.103A8.829 8.829 0 0 1 8.828.275h494.345a8.829 8.829 0 0 1 8.828 8.828v317.793a8.83 8.83 0 0 1-8.829 8.828z" fill="#41479B"/>
    <path d="M247.172.276h-15.334l-81.77 53.574V.276H105.93V53.85L24.16.276H8.828A8.828 8.828 0 0 0 0 9.103v7.002l70.155 45.963H0v44.138h70.155L0 152.17v7.002A8.829 8.829 0 0 0 8.828 168h15.334l81.77-53.574V168h44.138v-53.574L231.839 168h15.334a8.829 8.829 0 0 0 8.828-8.828v-7.002l-70.155-45.963H256V62.069h-70.155L256 16.106V9.104a8.828 8.828 0 0 0-8.828-8.828z" fill="#F5F5F5"/>
    <g fill="#FF4B55">
      <path d="M256 70.897H141.241V.276h-26.482v70.621H0v26.482h114.759V168h26.482V97.379H256z"/>
      <path d="M97.103 62.069L4.207 1.768C1.735 3.332 0 5.961 0 9.103v.458l80.889 52.508h16.214zm69.18 0l88.374-57.366c-1.536-2.599-4.246-4.427-7.485-4.427h-1.909l-95.194 61.793h16.214zm-76.809 44.138L1.269 163.463C2.79 166.125 5.542 168 8.828 168h1.665l95.196-61.793H89.474zm166.386 53.658l-82.666-53.658H156.98l93.874 60.935c2.812-1.305 4.741-4.04 5.006-7.277z"/>
    </g>
    <path d="M130.671 216.13l6.663 21.997 21.353-8.505c1.822-.726 3.478 1.352 2.366 2.966l-13.044 18.924 19.962 11.391c1.703.972 1.112 3.562-.844 3.699l-22.929 1.601 3.541 22.71c.302 1.938-2.092 3.091-3.418 1.646l-15.548-16.928-15.548 16.928c-1.326 1.444-3.72.291-3.418-1.646l3.541-22.71-22.929-1.601c-1.956-.137-2.547-2.727-.844-3.699l19.962-11.391-13.044-18.924c-1.112-1.614.544-3.692 2.366-2.966l21.353 8.505 6.663-21.997c.571-1.877 3.228-1.877 3.796 0zM393.279 59.729l3.255 10.745 10.43-4.154c.889-.354 1.699.66 1.155 1.449l-6.371 9.245 9.751 5.565c.832.474.543 1.74-.413 1.806l-11.2.782 1.729 11.093c.148.947-1.022 1.51-1.67.804l-7.595-8.269-7.595 8.269c-.648.705-1.817.142-1.67-.804l1.729-11.093-11.2-.782c-.956-.066-1.245-1.332-.413-1.806l9.751-5.565-6.371-9.245c-.544-.789.266-1.803 1.155-1.449l10.43 4.154 3.255-10.745c.282-.917 1.581-.917 1.858 0zm-72.577 82.476l3.255 10.745 10.43-4.154c.889-.354 1.699.66 1.155 1.449l-6.371 9.245 9.751 5.565c.832.474.543 1.74-.413 1.806l-11.2.782 1.729 11.093c.148.947-1.022 1.51-1.67.804l-7.595-8.269-7.595 8.269c-.648.705-1.817.142-1.67-.804l1.729-11.093-11.2-.782c-.956-.066-1.245-1.332-.413-1.806l9.751-5.565-6.371-9.245c-.544-.789.266-1.803 1.155-1.449l10.43 4.154 3.255-10.745c.282-.917 1.58-.917 1.858 0zm141.241-35.311l3.255 10.745 10.43-4.154c.889-.354 1.699.66 1.155 1.449l-6.371 9.245 9.751 5.565c.832.474.543 1.74-.413 1.806l-11.2.782 1.729 11.093c.148.947-1.022 1.51-1.669.804l-7.595-8.269-7.595 8.269c-.648.705-1.817.142-1.67-.804l1.729-11.093-11.2-.782c-.956-.066-1.245-1.332-.413-1.806l9.751-5.565-6.371-9.245c-.544-.789.266-1.803 1.155-1.449l10.43 4.154 3.255-10.745c.281-.917 1.579-.917 1.857 0zm-68.664 141.242l3.255 10.745 10.43-4.155c.889-.354 1.699.66 1.155 1.449l-6.371 9.245 9.751 5.565c.832.474.543 1.74-.413 1.806l-11.2.782 1.729 11.093c.148.947-1.022 1.51-1.67.804l-7.595-8.269-7.595 8.269c-.648.705-1.817.142-1.67-.804l1.729-11.093-11.2-.782c-.956-.066-1.245-1.332-.413-1.806l9.751-5.565-6.371-9.245c-.544-.789.266-1.803 1.155-1.449l10.43 4.155 3.255-10.745c.282-.917 1.581-.917 1.858 0zm25.182-86.623l-2.613 7.836-8.259.064c-1.069.009-1.513 1.373-.652 2.008l6.644 4.907-2.492 7.875c-.322 1.02.839 1.863 1.708 1.241l6.72-4.803 6.72 4.803c.87.622 2.03-.222 1.708-1.241l-2.492-7.875 6.644-4.907c.861-.636.417-1.999-.652-2.008l-8.259-.064-2.613-7.836c-.339-1.015-1.774-1.015-2.112 0z" fill="#F5F5F5"/>
  </g>
</svg>
