<svg width="513" height="336" viewBox="0 0 513 336" fill="none" xmlns="http://www.w3.org/2000/svg">
<path d="M503.672 335.724H9.328C4.453 335.724 0.5 331.771 0.5 326.896V9.10387C0.5 4.22887 4.453 0.275879 9.328 0.275879H503.673C508.548 0.275879 512.501 4.22887 512.501 9.10387V326.896C512.5 331.772 508.547 335.724 503.672 335.724Z" fill="#4173CD"/>
<path d="M512.5 123.862H230.017V0.275879H141.741V123.862H0.5V212.138H141.741V335.724H230.017V212.138H512.5V123.862Z" fill="#FFE15A"/>
<path d="M512.5 150.345H203.534V0.275879H168.224V150.345H0.5V185.655H168.224V335.724H203.534V185.655H512.5V150.345Z" fill="#FF4B55"/>
</svg>
