<?xml version="1.0" encoding="iso-8859-1"?>
<!-- Generator: Adobe Illustrator 19.0.0, SVG Export Plug-In . SVG Version: 6.00 Build 0)  -->
<svg version="1.1" id="Layer_1" xmlns="http://www.w3.org/2000/svg" xmlns:xlink="http://www.w3.org/1999/xlink" x="0px" y="0px"
	 viewBox="0 0 512 512" style="enable-background:new 0 0 512 512;" xml:space="preserve">
<path style="fill:#41479B;" d="M170.667,423.724H8.828c-4.875,0-8.828-3.953-8.828-8.828V97.104c0-4.875,3.953-8.828,8.828-8.828
	h161.839V423.724z"/>
<rect x="170.67" y="88.276" style="fill:#FFE15A;" width="170.67" height="335.448"/>
<path style="fill:#41479B;" d="M503.172,423.724H341.333V88.276h161.839c4.875,0,8.828,3.953,8.828,8.828v317.792
	C512,419.772,508.047,423.724,503.172,423.724z"/>
<path style="fill:#464655;" d="M326.62,207.256c0,0-24.564,0-42.987,18.423h12.281c0,0-11.898,21.493-18.039,58.339l-12.665-2.068
	v-56.454l12.281,4.021l-21.492-52.965l-21.493,52.965l12.281-4.095v56.527l-12.665,2.068c-6.141-36.845-18.039-58.339-18.039-58.339
	h12.281c-18.422-18.422-42.986-18.422-42.986-18.422c30.704,36.845,30.704,98.255,30.704,98.255l30.704-5.117v41.963h18.423v-41.963
	l30.704,5.117C295.915,305.512,295.915,244.103,326.62,207.256z"/>
<g>
</g>
<g>
</g>
<g>
</g>
<g>
</g>
<g>
</g>
<g>
</g>
<g>
</g>
<g>
</g>
<g>
</g>
<g>
</g>
<g>
</g>
<g>
</g>
<g>
</g>
<g>
</g>
<g>
</g>
</svg>
