<?xml version="1.0" encoding="iso-8859-1"?>
<!-- Generator: Adobe Illustrator 19.0.0, SVG Export Plug-In . SVG Version: 6.00 Build 0)  -->
<svg version="1.1" id="Layer_1" xmlns="http://www.w3.org/2000/svg" xmlns:xlink="http://www.w3.org/1999/xlink" x="0px" y="0px"
	 viewBox="0 0 512 512" style="enable-background:new 0 0 512 512;" xml:space="preserve">
<g>
	<path style="fill:#41479B;" d="M512,155.366H0V97.104c0-4.875,3.953-8.828,8.828-8.828h494.345c4.875,0,8.828,3.953,8.828,8.828
		V155.366z"/>
	<path style="fill:#41479B;" d="M503.172,423.724H8.828c-4.875,0-8.828-3.953-8.828-8.828v-58.262h512v58.262
		C512,419.772,508.047,423.724,503.172,423.724z"/>
</g>
<rect y="155.366" style="fill:#F5F5F5;" width="511.999" height="67.09"/>
<rect y="222.455" style="fill:#41479B;" width="511.999" height="67.089"/>
<rect y="289.545" style="fill:#F5F5F5;" width="511.999" height="67.089"/>
<path style="fill:#FF4B55;" d="M3.31,421.627l255.402-161.754c2.841-1.8,2.841-5.945,0-7.745L3.31,90.373
	C1.335,91.992,0,94.351,0,97.104v317.792C0,417.649,1.336,420.008,3.31,421.627z"/>
<path style="fill:#F5F5F5;" d="M88.526,213.441l9.064,27.176l28.647,0.222c2.219,0.018,3.139,2.849,1.354,4.168l-23.045,17.018
	l8.641,27.313c0.67,2.116-1.74,3.866-3.545,2.575l-23.306-16.658l-23.306,16.659c-1.805,1.291-4.215-0.46-3.545-2.575l8.641-27.312
	L45.08,245.009c-1.785-1.319-0.865-4.151,1.354-4.168l28.647-0.222l9.064-27.176C84.846,211.336,87.824,211.336,88.526,213.441z"/>
<g>
</g>
<g>
</g>
<g>
</g>
<g>
</g>
<g>
</g>
<g>
</g>
<g>
</g>
<g>
</g>
<g>
</g>
<g>
</g>
<g>
</g>
<g>
</g>
<g>
</g>
<g>
</g>
<g>
</g>
</svg>
