<?xml version="1.0" encoding="iso-8859-1"?>
<!-- Generator: Adobe Illustrator 19.0.0, SVG Export Plug-In . SVG Version: 6.00 Build 0)  -->
<svg version="1.1" id="Layer_1" xmlns="http://www.w3.org/2000/svg" xmlns:xlink="http://www.w3.org/1999/xlink" x="0px" y="0px"
	 viewBox="0 0 512 512" style="enable-background:new 0 0 512 512;" xml:space="preserve">
<path style="fill:#73AF00;" d="M512,200.092H0V97.103c0-4.875,3.953-8.828,8.828-8.828h494.345c4.875,0,8.828,3.953,8.828,8.828
	V200.092z"/>
<path style="fill:#FF4B55;" d="M503.172,423.724H8.828c-4.875,0-8.828-3.953-8.828-8.828V311.908h512v102.988
	C512,419.772,508.047,423.724,503.172,423.724z"/>
<rect y="200.088" style="fill:#FFE15A;" width="512" height="111.812"/>
<path style="fill:#4173CD;" d="M361.945,256.098c0,58.426-47.435,105.945-105.945,105.945s-105.945-47.519-105.945-105.945
	c0-58.594,47.435-106.029,105.945-106.029S361.945,197.504,361.945,256.098L361.945,256.098z"/>
<g>
	<path style="fill:#F2DD30;" d="M175.42,229.463h61.556l13.929-42.867l3.699,11.498l-20.228,62.316l-6.026-4.396l6.301-19.362
		h-49.506L175.42,229.463z M206.176,324.248l19.025-58.51l-36.462-26.551h12.026l52.995,38.473l-6.024,4.396l-16.509-12.007
		l-15.325,47.181L206.176,324.248L206.176,324.248z M305.822,324.248L256,288.061l-36.442,26.464l3.721-11.329l52.952-38.558
		l2.262,7.102l-16.468,11.923l40.057,29.172L305.822,324.248L305.822,324.248z M336.578,229.463l-49.781,36.274l13.931,42.869
		l-9.724-7.104l-20.209-62.316h7.399l6.298,19.448l40.079-29.172h12.006V229.463z M256,170.953l19.025,58.51h45.088l-9.745,7.189
		h-65.487l2.305-7.189h20.418l-15.325-47.096L256,170.953z"/>
	<path style="fill:#F2DD30;" d="M257.775,340.822h-3.53V294.91h3.53V340.822L257.775,340.822z M336.051,283.831l-43.651-14.12
		l1.1-3.297l43.672,14.12L336.051,283.831L336.051,283.831z M175.928,283.831l-1.1-3.297l43.692-14.12l1.08,3.297L175.928,283.831
		L175.928,283.831z M280.289,225.658l-2.877-2.028l26.995-37.12l2.812,2.03L280.289,225.658L280.289,225.658z M231.776,225.658
		l-27.038-37.118l2.855-2.03l26.973,37.12L231.776,225.658L231.776,225.658z"/>
</g>
<g>
</g>
<g>
</g>
<g>
</g>
<g>
</g>
<g>
</g>
<g>
</g>
<g>
</g>
<g>
</g>
<g>
</g>
<g>
</g>
<g>
</g>
<g>
</g>
<g>
</g>
<g>
</g>
<g>
</g>
</svg>
