<?xml version="1.0" encoding="iso-8859-1"?>
<!-- Generator: Adobe Illustrator 19.0.0, SVG Export Plug-In . SVG Version: 6.00 Build 0)  -->
<svg version="1.1" id="Layer_1" xmlns="http://www.w3.org/2000/svg" xmlns:xlink="http://www.w3.org/1999/xlink" x="0px" y="0px"
	 viewBox="0 0 512 512" style="enable-background:new 0 0 512 512;" xml:space="preserve">
<path style="fill:#82AFFF;" d="M503.172,423.724H8.828c-4.875,0-8.828-3.953-8.828-8.828V97.103c0-4.875,3.953-8.828,8.828-8.828
	h494.345c4.875,0,8.828,3.953,8.828,8.828v317.793C512,419.772,508.047,423.724,503.172,423.724z"/>
<g>
	<path style="fill:#F5F5F5;" d="M254.837,136.569l-6.801,20.392l-21.495,0.167c-1.178,0.009-1.667,1.513-0.719,2.214l17.292,12.769
		l-6.484,20.494c-0.355,1.123,0.924,2.054,1.882,1.368l17.487-12.5l17.489,12.5c0.959,0.685,2.238-0.244,1.882-1.368l-6.484-20.494
		l17.292-12.769c0.948-0.7,0.459-2.204-0.719-2.214l-21.495-0.167l-6.801-20.392C256.791,135.452,255.209,135.452,254.837,136.569z"
		/>
	<path style="fill:#F5F5F5;" d="M254.837,318.632l-6.801,20.392l-21.495,0.167c-1.178,0.009-1.667,1.513-0.719,2.214l17.292,12.769
		l-6.484,20.494c-0.355,1.123,0.924,2.054,1.882,1.368l17.487-12.5l17.489,12.5c0.959,0.685,2.238-0.244,1.882-1.368l-6.484-20.494
		l17.292-12.769c0.948-0.7,0.459-2.204-0.719-2.214l-21.495-0.167l-6.801-20.392C256.791,317.514,255.209,317.514,254.837,318.632z"
		/>
	<path style="fill:#F5F5F5;" d="M375.431,254.837l-20.392-6.801l-0.167-21.495c-0.009-1.178-1.513-1.667-2.214-0.719l-12.769,17.292
		l-20.494-6.484c-1.123-0.355-2.053,0.924-1.368,1.882l12.5,17.487l-12.5,17.489c-0.685,0.959,0.244,2.238,1.368,1.882l20.494-6.484
		l12.769,17.292c0.7,0.948,2.204,0.459,2.214-0.719l0.167-21.495l20.392-6.801C376.548,256.791,376.548,255.209,375.431,254.837z"/>
	<path style="fill:#F5F5F5;" d="M136.569,254.837l20.392-6.801l0.167-21.495c0.009-1.178,1.513-1.667,2.214-0.719l12.769,17.292
		l20.494-6.484c1.123-0.355,2.054,0.924,1.368,1.882L181.473,256l12.5,17.489c0.685,0.959-0.244,2.238-1.368,1.882l-20.494-6.484
		l-12.769,17.292c-0.7,0.948-2.204,0.459-2.214-0.719l-0.167-21.495l-20.392-6.801C135.452,256.791,135.452,255.209,136.569,254.837
		z"/>
</g>
<g>
</g>
<g>
</g>
<g>
</g>
<g>
</g>
<g>
</g>
<g>
</g>
<g>
</g>
<g>
</g>
<g>
</g>
<g>
</g>
<g>
</g>
<g>
</g>
<g>
</g>
<g>
</g>
<g>
</g>
</svg>
