<svg width="512" height="336" viewBox="0 0 512 336" xmlns="http://www.w3.org/2000/svg">
  <g fill="none">
    <path d="M503.172 335.725H8.828A8.829 8.829 0 0 1 0 326.897V9.104A8.829 8.829 0 0 1 8.828.276h494.345a8.829 8.829 0 0 1 8.828 8.828v317.793a8.83 8.83 0 0 1-8.829 8.828z" fill="#41479B"/>
    <path d="M512 9.104a8.829 8.829 0 0 0-8.828-8.828h-39.495l-163.54 107.147V.276h-88.276v107.147L48.322.276H8.828A8.829 8.829 0 0 0 0 9.104v22.831l140.309 91.927H0v88.276h140.309L0 304.066v22.831a8.829 8.829 0 0 0 8.828 8.828h39.495l163.54-107.147v107.147h88.276V228.578l163.54 107.147h39.495a8.829 8.829 0 0 0 8.828-8.828v-22.831l-140.309-91.927H512v-88.276H371.691L512 31.935V9.104z" fill="#F5F5F5"/>
    <g fill="#FF4B55">
      <path d="M512 141.518H282.483V.276h-52.966v141.242H0v52.965h229.517v141.242h52.966V194.483H512z"/>
      <path d="M178.948 212.138L.25 328.135c.625 4.263 4.14 7.59 8.577 7.59h12.159l190.39-123.587-32.428.001v-.001zm167.44 0H313.96l190.113 123.404c4.431-.472 7.928-4.09 7.928-8.646v-7.258l-165.613-107.5zM0 18.849l161.779 105.014h32.428L5.143 1.137C2.123 2.54 0 5.555 0 9.104v9.745zm332.566 105.014L511.693 7.586c-.744-4.122-4.184-7.309-8.521-7.309h-12.647L300.138 123.863h32.428z"/>
    </g>
  </g>
</svg>
