<?xml version="1.0" encoding="iso-8859-1"?>
<!-- Generator: Adobe Illustrator 19.0.0, SVG Export Plug-In . SVG Version: 6.00 Build 0)  -->
<svg version="1.1" id="Layer_1" xmlns="http://www.w3.org/2000/svg" xmlns:xlink="http://www.w3.org/1999/xlink" x="0px" y="0px"
	 viewBox="0 0 512 512" style="enable-background:new 0 0 512 512;" xml:space="preserve">
<path style="fill:#F5F5F5;" d="M503.172,423.724H8.828c-4.875,0-8.828-3.953-8.828-8.828V97.103c0-4.875,3.953-8.828,8.828-8.828
	h494.345c4.875,0,8.828,3.953,8.828,8.828v317.793C512,419.772,508.047,423.724,503.172,423.724z"/>
<g>
	<polygon style="fill:#FF4B55;" points="512,229.517 282.483,229.517 282.483,88.276 229.517,88.276 229.517,229.517 0,229.517 
		0,282.483 229.517,282.483 229.517,423.724 282.483,423.724 282.483,282.483 512,282.483 	"/>
	<path style="fill:#FF4B55;" d="M150.069,146.833c-8.744,0.879-17.31,1.76-25.888,2.642c0.882-8.579,1.762-17.145,2.643-25.888
		c-8.019,1.037-16.11,1.037-24.129,0c0.879,8.743,1.76,17.31,2.643,25.888c-8.579-0.881-17.146-1.762-25.888-2.642
		c1.037,8.018,1.037,16.11,0,24.128c8.744-0.879,17.31-1.76,25.888-2.642c-0.882,8.579-1.763,17.145-2.643,25.888
		c8.019-1.037,16.11-1.037,24.129,0c-0.879-8.743-1.761-17.31-2.643-25.888c8.579,0.881,17.145,1.762,25.888,2.642
		C149.033,162.943,149.033,154.85,150.069,146.833z"/>
	<path style="fill:#FF4B55;" d="M432.552,146.833c-8.744,0.879-17.31,1.76-25.888,2.642c0.882-8.579,1.762-17.145,2.643-25.888
		c-8.019,1.037-16.11,1.037-24.129,0c0.879,8.743,1.76,17.31,2.643,25.888c-8.579-0.881-17.146-1.762-25.888-2.642
		c1.037,8.018,1.037,16.11,0,24.128c8.744-0.879,17.31-1.76,25.888-2.642c-0.882,8.579-1.763,17.145-2.643,25.888
		c8.019-1.037,16.11-1.037,24.129,0c-0.879-8.743-1.761-17.31-2.643-25.888c8.579,0.881,17.145,1.762,25.888,2.642
		C431.516,162.943,431.516,154.85,432.552,146.833z"/>
	<path style="fill:#FF4B55;" d="M150.069,341.039c-8.744,0.879-17.31,1.76-25.888,2.642c0.882-8.579,1.762-17.145,2.643-25.888
		c-8.019,1.037-16.11,1.037-24.129,0c0.879,8.743,1.76,17.31,2.643,25.888c-8.579-0.881-17.146-1.762-25.888-2.642
		c1.037,8.018,1.037,16.11,0,24.128c8.744-0.879,17.31-1.76,25.888-2.642c-0.882,8.579-1.763,17.145-2.643,25.888
		c8.019-1.037,16.11-1.037,24.129,0c-0.879-8.743-1.761-17.31-2.643-25.888c8.579,0.881,17.145,1.762,25.888,2.642
		C149.033,357.15,149.033,349.057,150.069,341.039z"/>
	<path style="fill:#FF4B55;" d="M432.552,341.039c-8.744,0.879-17.31,1.76-25.888,2.642c0.882-8.579,1.762-17.145,2.643-25.888
		c-8.019,1.037-16.11,1.037-24.129,0c0.879,8.743,1.76,17.31,2.643,25.888c-8.579-0.881-17.146-1.762-25.888-2.642
		c1.037,8.018,1.037,16.11,0,24.128c8.744-0.879,17.31-1.76,25.888-2.642c-0.882,8.579-1.763,17.145-2.643,25.888
		c8.019-1.037,16.11-1.037,24.129,0c-0.879-8.743-1.761-17.31-2.643-25.888c8.579,0.881,17.145,1.762,25.888,2.642
		C431.516,357.15,431.516,349.057,432.552,341.039z"/>
</g>
<g>
</g>
<g>
</g>
<g>
</g>
<g>
</g>
<g>
</g>
<g>
</g>
<g>
</g>
<g>
</g>
<g>
</g>
<g>
</g>
<g>
</g>
<g>
</g>
<g>
</g>
<g>
</g>
<g>
</g>
</svg>
