<?xml version="1.0" encoding="iso-8859-1"?>
<!-- Generator: Adobe Illustrator 19.0.0, SVG Export Plug-In . SVG Version: 6.00 Build 0)  -->
<svg version="1.1" id="Layer_1" xmlns="http://www.w3.org/2000/svg" xmlns:xlink="http://www.w3.org/1999/xlink" x="0px" y="0px"
	 viewBox="0 0 512 512" style="enable-background:new 0 0 512 512;" xml:space="preserve">
<path style="fill:#FF4B55;" d="M512,200.092H0V97.103c0-4.875,3.953-8.828,8.828-8.828h494.345c4.875,0,8.828,3.953,8.828,8.828
	V200.092z"/>
<path style="fill:#73AF00;" d="M503.172,423.724H8.828c-4.875,0-8.828-3.953-8.828-8.828V311.908h512v102.988
	C512,419.772,508.047,423.724,503.172,423.724z"/>
<rect y="200.088" style="fill:#FFE15A;" width="512" height="111.812"/>
<path style="fill:#464655;" d="M259.722,213.909l9.213,27.623l29.118,0.226c3.769,0.029,5.333,4.84,2.301,7.08l-23.424,17.298
	l8.783,27.763c1.138,3.594-2.955,6.568-6.023,4.375L256,281.34l-23.69,16.932c-3.066,2.193-7.159-0.781-6.023-4.375l8.783-27.763
	l-23.424-17.298c-3.032-2.24-1.47-7.05,2.301-7.08l29.118-0.226l9.213-27.623C253.471,210.333,258.529,210.333,259.722,213.909z"/>
<g>
</g>
<g>
</g>
<g>
</g>
<g>
</g>
<g>
</g>
<g>
</g>
<g>
</g>
<g>
</g>
<g>
</g>
<g>
</g>
<g>
</g>
<g>
</g>
<g>
</g>
<g>
</g>
<g>
</g>
</svg>
