<?xml version="1.0" encoding="iso-8859-1"?>
<!-- Generator: Adobe Illustrator 19.0.0, SVG Export Plug-In . SVG Version: 6.00 Build 0)  -->
<svg version="1.1" id="Layer_1" xmlns="http://www.w3.org/2000/svg" xmlns:xlink="http://www.w3.org/1999/xlink" x="0px" y="0px"
	 viewBox="0 0 512 512" style="enable-background:new 0 0 512 512;" xml:space="preserve">
<path style="fill:#41479B;" d="M503.172,423.724H8.828c-4.875,0-8.828-3.953-8.828-8.828V97.103c0-4.875,3.953-8.828,8.828-8.828
	h494.345c4.875,0,8.828,3.953,8.828,8.828v317.793C512,419.772,508.047,423.724,503.172,423.724z"/>
<rect y="150.069" style="fill:#F5F5F5;" width="512" height="211.862"/>
<path style="fill:#41479B;" d="M301.869,256l22.933-39.721h-45.865L256,176.552l-22.936,39.727h-45.865L210.132,256l-22.933,39.721
	h45.865L256,335.448l22.936-39.727h45.865L301.869,256z M302.302,229.27l-7.933,13.74l-7.933-13.74H302.302z M286.869,256
	l-15.433,26.73h-30.873L225.131,256l15.433-26.73h30.873L286.869,256z M256,202.534l7.936,13.746h-15.872L256,202.534z
	 M209.698,229.27h15.865l-7.933,13.74L209.698,229.27z M209.698,282.73l7.933-13.74l7.933,13.74H209.698z M256,309.466
	l-7.936-13.746h15.872L256,309.466z M294.369,268.99l7.933,13.74h-15.865L294.369,268.99z"/>
<g>
</g>
<g>
</g>
<g>
</g>
<g>
</g>
<g>
</g>
<g>
</g>
<g>
</g>
<g>
</g>
<g>
</g>
<g>
</g>
<g>
</g>
<g>
</g>
<g>
</g>
<g>
</g>
<g>
</g>
</svg>
