<svg width="512" height="336" viewBox="0 0 512 336" xmlns="http://www.w3.org/2000/svg">
  <g fill="none">
    <path d="M503.172 335.724H8.828A8.829 8.829 0 0 1 0 326.896V9.104A8.829 8.829 0 0 1 8.828.276h494.345a8.829 8.829 0 0 1 8.828 8.828v317.792a8.829 8.829 0 0 1-8.829 8.828z" fill="#FF4B55"/>
    <path d="M305.466 170.78c-2.239-1.926-4.779-3.328-7.328-4.353 14.409-2.841 25.997-15.016 25.997-15.016-7.005 3.073-10.261 3.695-21.41.031-2.805-.922-5.688-1.246-8.435-1.217 12.224-8.14 18.272-23.82 18.272-23.82-5.295 5.519-8.066 7.341-19.768 8.222-2.945.222-5.732 1.026-8.26 2.104 8.18-12.197 7.766-29.001 7.766-29.001-2.78 7.126-4.642 9.869-15.117 15.16-2.636 1.332-4.904 3.143-6.826 5.105 2.888-14.399-3.924-29.763-3.924-29.763.159 7.647-.513 10.894-8.164 19.792-1.926 2.239-3.328 4.779-4.353 7.328-2.841-14.409-15.016-25.997-15.016-25.997 3.073 7.005 3.695 10.261.031 21.41-.922 2.805-1.246 5.688-1.217 8.435-8.14-12.224-23.82-18.272-23.82-18.272 5.519 5.295 7.341 8.066 8.222 19.768.222 2.945 1.026 5.732 2.103 8.259-12.199-8.179-29-7.765-29-7.765 7.126 2.78 9.869 4.642 15.16 15.117 1.332 2.636 3.143 4.903 5.106 6.826-14.4-2.889-29.765 3.924-29.765 3.924 7.648-.159 10.894.513 19.793 8.164 2.239 1.926 4.779 3.327 7.328 4.353-14.409 2.841-25.997 15.016-25.997 15.016 7.005-3.073 10.261-3.695 21.41-.031 2.806.922 5.689 1.246 8.436 1.217-12.224 8.139-18.273 23.821-18.273 23.821 5.295-5.519 8.066-7.341 19.768-8.222 2.945-.222 5.732-1.026 8.259-2.103-8.179 12.199-7.765 29-7.765 29 2.78-7.127 4.642-9.869 15.117-15.161 2.636-1.332 4.903-3.143 6.826-5.105-2.889 14.4 3.924 29.764 3.924 29.764-.159-7.648.513-10.894 8.164-19.793 1.926-2.239 3.328-4.779 4.353-7.328 2.841 14.408 15.016 25.997 15.016 25.997-3.073-7.005-3.695-10.262-.031-21.41.922-2.805 1.246-5.688 1.217-8.435 8.14 12.224 23.82 18.272 23.82 18.272-5.519-5.295-7.341-8.066-8.222-19.768-.222-2.944-1.026-5.732-2.103-8.259 12.197 8.179 29 7.765 29 7.765-7.126-2.781-9.869-4.642-15.161-15.117-1.332-2.636-3.143-4.904-5.105-6.826 14.4 2.888 29.764-3.924 29.764-3.924-7.647.159-10.894-.511-19.792-8.164z" fill="#FFE15A"/>
    <path fill="#FFD25A" d="M291.406 175.044l35.214-7.043-35.214-7.043 29.839-19.982-35.229 6.968 19.921-29.88-29.88 19.921 6.969-35.229-19.982 29.838L256 97.381l-7.042 35.214-19.982-29.838 6.969 35.229-29.88-19.921 19.921 29.88-35.229-6.968 29.839 19.982-35.216 7.042 35.214 7.043-29.839 19.982 35.229-6.969-19.921 29.88 29.88-19.921-6.969 35.229 19.982-29.838L256 238.621l7.043-35.214 19.982 29.838-6.969-35.229 29.88 19.921-19.921-29.88 35.229 6.969z"/>
    <circle fill="#FFE15A" cx="255.999" cy="168.001" r="35.31"/>
    <path d="M102.265 273.931c25.61 0 25.61 8.828 51.221 8.828 25.629 0 25.629-8.828 51.256-8.828s25.629 8.828 51.256 8.828c25.571 0 25.571-8.828 51.143-8.828 25.585 0 25.585 8.828 51.169 8.828 25.596 0 25.596-8.828 51.191-8.828 25.595 0 25.595 8.828 51.19 8.828 25.596 0 25.596-8.828 51.192-8.828l.116.002V247.45l-.116-.002c-25.596 0-25.596 8.828-51.192 8.828-25.594 0-25.594-8.828-51.19-8.828-25.596 0-25.596 8.828-51.191 8.828-25.585 0-25.585-8.828-51.169-8.828-25.571 0-25.571 8.828-51.143 8.828-25.629 0-25.629-8.828-51.256-8.828s-25.629 8.828-51.256 8.828c-25.611 0-25.611-8.828-51.221-8.828-25.588 0-25.588 8.828-51.177 8.828-25.561 0-25.609-8.797-51.088-8.825v26.483c25.48.029 25.527 8.825 51.088 8.825 25.589 0 25.589-8.828 51.177-8.828zM0 220.969c25.48.028 25.527 8.824 51.088 8.824 25.589 0 25.589-8.828 51.177-8.828 25.61 0 25.61 8.828 51.221 8.828 25.629 0 25.629-8.828 51.256-8.828s25.629 8.828 51.256 8.828c25.571 0 25.571-8.828 51.143-8.828 25.585 0 25.585 8.828 51.169 8.828 25.596 0 25.596-8.828 51.191-8.828 25.595 0 25.595 8.828 51.19 8.828 25.596 0 25.596-8.828 51.192-8.828l.116.002v-26.483l-.116-.002c-25.596 0-25.596 8.828-51.192 8.828-25.594 0-25.594-8.828-51.19-8.828-25.596 0-25.596 8.828-51.191 8.828-25.585 0-25.585-8.828-51.169-8.828-25.571 0-25.571 8.828-51.143 8.828-25.629 0-25.629-8.828-51.256-8.828s-25.629 8.828-51.256 8.828c-25.611 0-25.611-8.828-51.221-8.828-25.588 0-25.588 8.828-51.177 8.828-25.561 0-25.609-8.797-51.088-8.825v26.484z" fill="#41479B"/>
    <path d="M0 300.417c25.48.028 25.527 8.824 51.088 8.824 25.589 0 25.589-8.828 51.177-8.828 25.61 0 25.61 8.828 51.221 8.828 25.629 0 25.629-8.828 51.256-8.828s25.629 8.828 51.256 8.828c25.571 0 25.571-8.828 51.143-8.828 25.585 0 25.585 8.828 51.169 8.828 25.596 0 25.596-8.828 51.191-8.828 25.595 0 25.595 8.828 51.19 8.828 25.596 0 25.596-8.828 51.192-8.828l.116.002v-26.483l-.116-.002c-25.596 0-25.596 8.828-51.192 8.828-25.594 0-25.594-8.828-51.19-8.828-25.596 0-25.596 8.828-51.191 8.828-25.585 0-25.585-8.828-51.169-8.828-25.571 0-25.571 8.828-51.143 8.828-25.629 0-25.629-8.828-51.256-8.828s-25.629 8.828-51.256 8.828c-25.611 0-25.611-8.828-51.221-8.828-25.588 0-25.588 8.828-51.177 8.828-25.561 0-25.609-8.797-51.088-8.825v26.484zm0-52.965c25.48.028 25.527 8.824 51.088 8.824 25.589 0 25.589-8.828 51.177-8.828 25.61 0 25.61 8.828 51.221 8.828 25.629 0 25.629-8.828 51.256-8.828s25.629 8.828 51.256 8.828c25.571 0 25.571-8.828 51.143-8.828 25.585 0 25.585 8.828 51.169 8.828 25.596 0 25.596-8.828 51.191-8.828 25.595 0 25.595 8.828 51.19 8.828 25.596 0 25.596-8.828 51.192-8.828l.116.002v-26.483l-.116-.002c-25.596 0-25.596 8.828-51.192 8.828-25.594 0-25.594-8.828-51.19-8.828-25.596 0-25.596 8.828-51.191 8.828-25.585 0-25.585-8.828-51.169-8.828-25.571 0-25.571 8.828-51.143 8.828-25.629 0-25.629-8.828-51.256-8.828s-25.629 8.828-51.256 8.828c-25.611 0-25.611-8.828-51.221-8.828-25.588 0-25.588 8.828-51.177 8.828-25.561 0-25.609-8.797-51.088-8.825v26.484zm0-52.965c25.48.028 25.527 8.824 51.088 8.824 25.589 0 25.589-8.828 51.177-8.828 25.61 0 25.61 8.828 51.221 8.828 25.629 0 25.629-8.828 51.256-8.828s25.629 8.828 51.256 8.828c25.571 0 25.571-8.828 51.143-8.828 25.585 0 25.585 8.828 51.169 8.828 25.596 0 25.596-8.828 51.191-8.828 25.595 0 25.595 8.828 51.19 8.828 25.596 0 25.596-8.828 51.192-8.828l.116.002v-26.483l-.116-.002c-25.596 0-25.596 8.828-51.192 8.828-25.594 0-25.594-8.828-51.19-8.828-25.596 0-25.596 8.828-51.191 8.828-25.585 0-25.585-8.828-51.169-8.828-25.571 0-25.571 8.828-51.143 8.828-25.629 0-25.629-8.828-51.256-8.828s-25.629 8.828-51.256 8.828c-25.611 0-25.611-8.828-51.221-8.828-25.588 0-25.588 8.828-51.177 8.828-25.561 0-25.609-8.797-51.088-8.825v26.484z" fill="#F5F5F5"/>
    <path d="M460.692 309.242c-25.594 0-25.594-8.828-51.19-8.828-25.596 0-25.596 8.828-51.191 8.828-25.585 0-25.585-8.828-51.169-8.828-25.571 0-25.571 8.828-51.142 8.828-25.629 0-25.629-8.828-51.256-8.828s-25.629 8.828-51.256 8.828c-25.611 0-25.611-8.828-51.221-8.828-25.588 0-25.588 8.828-51.177 8.828-25.561 0-25.609-8.797-51.088-8.825v26.48a8.829 8.829 0 0 0 8.828 8.828h494.345c4.813 0 8.693-3.863 8.792-8.652.011-15.532.023-26.655.035-26.655l-.116-.002c-25.598-.002-25.598 8.826-51.194 8.826z" fill="#41479B"/>
    <path d="M274.38 47.165c42.927-1.66 64.746-20.396 64.746-20.396-3.083 1.185-51.227 5.217-64.983 6.403-8.687.748-19.524 10.653-26.349 17.865-1.838-4.994-5.431-10.174-12.546-11.224-14.467-2.134-52.888-4.505-62.374-9.013 0 0 6.123 9.465 37.769 13.756 15.162 2.056 23.522 7.256 27.503 10.796l-3.609-.124-6.166-3.084c-6.166-3.083-12.333 2.134-12.333 2.134h-9.822c-1.23 0-1.932 1.405-1.194 2.388l.945 1.26a5.106 5.106 0 0 0 4.087 2.044h10.015c3.558 6.166 17.076 12.57 28.223 12.57 11.146 0 45.299-15.178 48.619-15.178l-30.894-1.057 8.363-9.14z" fill="#FFE15A"/>
  </g>
</svg>
