<svg width="512" height="336" viewBox="0 0 512 336" xmlns="http://www.w3.org/2000/svg">
  <g fill="none">
    <path d="M503.172.276H8.828A8.828 8.828 0 0 0 0 9.103v317.793a8.829 8.829 0 0 0 8.828 8.828h494.345a8.829 8.829 0 0 0 8.828-8.828V9.103a8.83 8.83 0 0 0-8.829-8.827z" fill="#FFD250"/>
    <path d="M185.379 35.586v264.828a8.829 8.829 0 0 0 8.828 8.828H476.69a8.829 8.829 0 0 0 8.828-8.828V35.586a8.829 8.829 0 0 0-8.828-8.828H194.207a8.83 8.83 0 0 0-8.828 8.828z" fill="#963C3C"/>
    <path d="M92.69 26.759H35.31a8.829 8.829 0 0 0-8.828 8.828v264.828a8.829 8.829 0 0 0 8.828 8.828h57.38V26.759z" fill="#5AA587"/>
    <path d="M150.069 26.759H92.69v282.483h57.379a8.829 8.829 0 0 0 8.828-8.828V35.586a8.828 8.828 0 0 0-8.828-8.827z" fill="#FF7350"/>
    <g fill="#FFD250">
      <path d="M393.553 238.735c-.296-1.973 1.441-4.521 4.125-8.182.971-1.323 2.374-3.24 2.752-4.158-.25-.018-.594.002-.85.015-1.485.072-3.732.174-5.695-2.005a4.14 4.14 0 0 1-1.066-3.089c.147-2.371 2.083-4.702 3.284-5.935-3.097-2.175-6.056-4.434-8.785-7.162-5.214-5.215-11.161-7.726-17.727-7.588-.608 6.531 2.758 10.826 6.35 15.347 1.059 1.331 2.114 2.66 3.073 4.049 4.725 6.841 3.737 20.049 3.138 21.448-.679 1.586-4.415 5.102-9.54 4.417-2.357-.31-5.07.483-6.78 1.977-.735.643-1.612 1.713-1.612 3.147 0 .072.006.435.118.502.689.416 3.262-.396 5.102-1.391a1.353 1.353 0 0 1 1.568.203c3.623 3.392 7.26.461 7.661.116a1.364 1.364 0 0 1 1.736-.032c3.708 2.988 7.573-.278 7.736-.419a1.359 1.359 0 0 1 1.628-.109c1.609 1.055 3.08 1.356 4.393.906 1.146-.398 1.754-1.26 1.825-1.468.033-.548-.703-3.375-1.191-5.247-.512-1.965-1.04-3.995-1.243-5.342z"/>
      <path d="M433.707 113.665c-1.117-.085-1.926.157-2.479.705-1.015 1.003-.932 2.81-.93 2.828.021.402-.138.794-.431 1.068a1.332 1.332 0 0 1-1.095.354c-2.008-.263-4.978-2.382-10.488-6.421-8.755-6.417-21.987-16.115-34.611-17.71-14.674-1.864-27.733 2.817-31.05 11.113-3.694 9.236 4.157 17.651 4.236 17.736.399.423.487 1.054.213 1.567-2.07 3.9-.502 6.778.911 8.355.443-1.302 1.105-2.191 2.017-2.738 2.202-1.316 5.078-.227 9.055 1.279 2.35.888 5.013 1.896 8.119 2.657 7.964 1.952 17.677.212 26.248-1.323 3.029-.543 5.95-1.064 8.666-1.411 6.835-.871 13.687 2.158 15.57 6.906.913 2.3 1.4 6.915-5.581 11.993-12.556 9.133-69.815 4.918-73.188 4.661a12.22 12.22 0 0 1-.307.024c1.252 1.406 2.721 2.777 3.361 2.948a1.353 1.353 0 0 1-.328 2.66l-5.866.089.54 5.645c.039.416-.116.828-.422 1.113a1.387 1.387 0 0 1-1.137.352c-.23-.038-5.293-.847-8.793-2.793l-6.625 4.179a1.351 1.351 0 0 1-1.158.135 1.353 1.353 0 0 1-.835-.814l-2.528-6.873-2.997 5.996a1.352 1.352 0 0 1-1.145.747c-.487.051-.951-.216-1.213-.632l-2.569-4.095c-1.175 1.468-3.059 3.605-4.986 4.939a1.353 1.353 0 0 1-2.06-.703l-1.346-4.249c-1.191 1.506-2.914 3.502-4.738 4.999a1.35 1.35 0 1 1-2.207-.959l-.434-6.831c-1.542.786-3.641 1.81-4.804 2.173a1.353 1.353 0 0 1-1.575-1.967c2.087-3.624 4.002-8.149 4.148-10.399-1.384 1.657-3.321 3.243-5.486 5.004-4.606 3.75-10.337 8.413-14.556 16.576-2.946 5.705-5.062 15.657-1.331 24.935 3.185 7.915 10.039 13.821 20.308 17.615-.343-1.498-.607-2.97-.634-4.353-.134-7.028 1.325-13.443 1.388-13.713a1.343 1.343 0 0 1 1.621-1.013 1.353 1.353 0 0 1 1.015 1.621c-.014.063-1.444 6.371-1.318 13.053.063 3.271 1.47 7.307 2.829 11.209 1.806 5.188 3.676 10.552 2.863 15.066-1.107 6.136-8.746 7.692-15.838 6.508-2.016-.339-3.85.159-5.167 1.388-1.337 1.247-2.023 3.159-1.834 5.115.089.921.434 1.107.546 1.169.853.461 2.86-.166 3.945-.733a1.353 1.353 0 0 1 1.639.298c2.844 3.186 6.674.007 6.835-.132a1.356 1.356 0 0 1 1.863.106c1.071 1.142 2.206 1.71 3.469 1.739 2.309.141 4.502-1.916 4.524-1.933.399-.389.999-.49 1.505-.26 4.463 2.043 6.805.856 6.901.8 3.873-3.302 1.635-11.137 1.612-11.217a1.343 1.343 0 0 1 .13-1.064c.189-.322.502-.552.865-.636 5.425-1.244 8.457-4.725 9.923-7.033-2.68-.026-4.81-.966-6.065-2.926-2.02-3.165-1.05-7.93 2.474-12.141 6.029-7.204 9.715-21.784 9.162-27.722a1.356 1.356 0 0 1 1.223-1.473c.724-.074 1.402.479 1.473 1.223.483 5.201-1.862 15.988-6.142 24.122 5.422-1.5 10.371-3.695 15.534-6.051 5.132-2.342 10.441-4.762 16.82-6.761 10.781-3.375 20.29-1.036 28.274 6.951 3.868 3.868 8.09 6.7 12.98 9.983 2.147 1.441 4.382 2.941 6.7 4.611 6.285 4.524 6.174 8.302 6.056 12.301-.035 1.219-.074 2.479.063 3.844.649 6.495-4.515 7.522-6.998 8.015-.34.067-.659.13-.937.199-.351.088-.77.174-1.234.268-2.521.511-6.33 1.284-7.266 4.511-.169.578-.104.78-.104.78.398.181 2.462-.287 4.105-1.034a1.357 1.357 0 0 1 1.843.791c.479 1.405 1.226 1.644 1.471 1.724 1.704.532 4.491-1.036 5.332-1.633a1.354 1.354 0 0 1 1.7.103c1.397 1.276 2.689 1.837 3.85 1.681 1.554-.216 2.497-1.679 2.507-1.695a1.358 1.358 0 0 1 1.028-.636c.43-.023.842.129 1.128.442.003.006 1.187 1.255 3.61 2.02 1.589.497 1.99-.076 2.121-.266.671-.98.43-3.48-.879-5.115-1.716-2.146-2.513-5.409-2.029-8.312.444-2.673 1.886-4.852 4.165-6.304 4.178-2.659 5.132-5.524 4.865-6.07-.077-.038-.531-.097-.894-.145-1.864-.247-4.984-.659-8.193-6.584-2.834-5.229-.092-13.508 3.082-23.097 1.61-4.857 3.274-9.882 4.299-14.81 2.84-13.632-6.086-24.456-6.176-24.563a1.353 1.353 0 0 1 .111-1.857c6.265-5.878 8.959-11.327 8.002-16.195-.995-5.076-5.911-8.625-9.817-10.121-4.868-1.866-13.75-.806-22.343.216-7.18.853-13.966 1.662-18.347.747-2.257-.474-3.91-1.544-4.913-3.179-.826-1.348-1.028-2.825-1.021-3.977-2.176.818-3.646 2.834-3.663 2.858a1.354 1.354 0 0 1-1.075.566c-.534-.021-.836-.186-1.096-.523-1.107-1.431-1.553-3.009-1.32-4.694.298-2.178 1.704-4.051 2.856-5.259-5.037-1.769-8.898 2.453-9.076 2.654a1.37 1.37 0 0 1-1.721.256c-2.43-1.494-3.936-4.426-3.841-7.469.092-2.873 1.574-5.282 4.065-6.605 1.707-.906 3.345-1.073 4.863-.5 1.444.544 2.457 1.668 3.095 2.622 1.843-2.102 1.998-5.73 1.998-5.772a1.35 1.35 0 0 1 .43-.953c.265-.247.632-.402.98-.363 3.204.132 5.693 1.29 7.393 3.439 2.324 2.941 2.542 7.025 2.406 9.554 5.119-2.613 4.47-8.644 4.437-8.926a1.356 1.356 0 0 1 .499-1.217 1.34 1.34 0 0 1 1.297-.218c5.432 1.917 7.409 6.761 7.874 10.366 1.538-1.468 1.561-3.351 1.561-3.375a1.353 1.353 0 0 1 2.541-.649c2.095 3.83 5.291 6.215 7.629 7.548l-1.61-3.903a1.353 1.353 0 0 1 1.892-1.707c2.68 1.443 4.803 3.076 7.05 4.807 2.71 2.087 5.513 4.243 9.461 6.098 3.855 1.813 6.455 1.468 7.951.862 1.55-.626 2.436-1.73 2.724-2.486.544-1.429.703-3.481-.171-4.842-.562-.879-1.512-1.365-2.824-1.452zM273.95 133.122l.004.003.014.002c.1.033 10.218 3.226 19.404 3.773.504.03.951.34 1.155.802a1.357 1.357 0 0 1-.181 1.397l-.321.399c1.822-.273 4.114-.526 6.362-.535a251.598 251.598 0 0 1-3.243-3.951c-2.457-.045-11.446-.436-18.762-3.961-1.777-.862-4.849-2.35-6.31-1.597-.252.13-.668.74-.599 1.489.091.95.968 1.725 2.477 2.179zm30.486-19.558c-.141 0-.269.015-.382.05-.59.177-.889.844-.969 1.364-.098.666.071 1.561.844 2.078 1.01.671 2.09.212 2.705-.395.194-.189 1.122-1.182.437-2.268l-.002-.003c-1.057-.487-1.984-.826-2.633-.826z"/>
      <path d="M291.157 146.186c.655 1.562 1.672 2.773 2.513 3.585.319-.691.806-1.408 1.544-1.946.722-.526 1.974-1.039 3.808-.657.029.002.054.008.083.011.053.012.094.007.148.02.047.011.077.049.124.062.065.023.134.025.196.06.047.025.076.068.118.098.69.294 1.266.766 1.571 1.48 1.025 2.392-.779 7.036-2.371 10.34a108.085 108.085 0 0 0 2.784-1.432 1.346 1.346 0 0 1 1.297.011c.404.224.664.638.693 1.096l.382 6.036a43.32 43.32 0 0 0 3.804-4.685 1.362 1.362 0 0 1 1.314-.575c.513.076.936.437 1.092.93l1.544 4.875c2.161-1.987 4.044-4.648 4.066-4.682.263-.37.691-.567 1.142-.575.452.012.871.25 1.112.634l2.327 3.711 3.321-6.641c.242-.484.697-.789 1.287-.747.54.03 1.007.377 1.195.885l3.03 8.241 5.914-3.732a1.345 1.345 0 0 1 1.464.014c1.929 1.263 4.893 2.078 6.761 2.497l-.505-5.297a1.355 1.355 0 0 1 1.327-1.482l3.384-.051a29.648 29.648 0 0 1-1.816-2.025 1.336 1.336 0 0 1-.294-.919c-2.493-.106-5.967-.551-9.441-2.05l-2.067 3.188a1.346 1.346 0 0 1-1.134.617c-.266 0-.529-.079-.754-.23l-7.816-5.244-1.436 3.91a1.351 1.351 0 0 1-1.025.863c-.47.092-.95-.081-1.265-.44-1.343-1.54-3.452-3.901-4.706-5.196-1.13 1.089-3.112 2.846-5.231 4.022a1.355 1.355 0 0 1-1.926-.711l-2.143-5.751a1.354 1.354 0 0 1 2.538-.944l1.562 4.195c2.268-1.575 4.16-3.603 4.183-3.628a1.352 1.352 0 0 1 1.837-.138c.788.631 2.926 2.986 4.419 4.66l1.246-3.393c.142-.39.458-.693.853-.819a1.322 1.322 0 0 1 1.172.162l8.105 5.438 1.96-3.02a1.347 1.347 0 0 1 1.739-.474c3.598 1.799 7.482 2.234 9.962 2.3-1.513-2.827-1.646-6.411-1.655-7.253a30.299 30.299 0 0 1-7.02-4.303l-.974 2.407a1.356 1.356 0 0 1-2.049.587l-3.91-2.837-.381 2.93a1.35 1.35 0 0 1-.758 1.045c-.41.198-.895.178-1.288-.063-.136-.081-3.353-2.047-5.27-4.204a1.352 1.352 0 0 1 .113-1.91 1.35 1.35 0 0 1 1.91.113c.81.911 1.945 1.816 2.891 2.502l.393-3.018a1.354 1.354 0 0 1 2.138-.921l4.352 3.157 1.042-2.571a1.353 1.353 0 0 1 2.182-.475c3.374 3.175 7.025 4.889 9.295 5.73-.776-3.612-1.071-8.142-1.086-8.38-.002-.034.013-.063.013-.096-2.109-1.163-5.09-3.167-7.667-6.316-.012 1.668-.148 3.366-.557 4.438-.141.37-.435.659-.807.793a1.377 1.377 0 0 1-1.125-.097c-.163-.094-3.108-1.784-5.3-4.254-.378 1.361-.833 2.794-1.216 3.434a1.354 1.354 0 0 1-1.766.514c-.129-.063-2.203-1.113-4.051-2.719-.18 1.802-.458 3.838-.854 4.83-.142.36-.434.64-.798.771a1.388 1.388 0 0 1-1.107-.086c-.124-.067-2.472-1.355-4.665-2.988l-.594 2.257a1.36 1.36 0 0 1-.729.879 1.37 1.37 0 0 1-1.14.009c-.163-.074-4.033-1.854-6.237-4.547a1.348 1.348 0 0 1 .19-1.902 1.348 1.348 0 0 1 1.902.19c1.054 1.287 2.666 2.363 3.829 3.038l.694-2.637c.121-.458.47-.819.924-.953a1.336 1.336 0 0 1 1.293.295c1.293 1.17 3.043 2.321 4.287 3.083.265-1.671.47-4.086.558-5.652a1.353 1.353 0 0 1 2.54-.569c.744 1.37 2.532 2.705 3.88 3.549.37-1.158.826-2.865 1.169-4.338a1.35 1.35 0 0 1 1.186-1.039 1.327 1.327 0 0 1 1.365.789c.845 1.873 2.893 3.585 4.355 4.633.159-1.973.012-4.777-.169-6.531a1.355 1.355 0 0 1 .971-1.44c.643-.174 1.3.116 1.589.702 2.722 5.521 7.535 8.579 10.039 9.865 1.365-14.934-3.012-20.648-3.059-20.706a1.363 1.363 0 0 1 .374-2.023c2.431-1.407 3.906-3.977 4.811-6.471-5.502 5.334-14.219 7.383-18.465 8.092l2.073 2.527a1.355 1.355 0 0 1-.913 2.204c-5.203.52-9-.169-11.556-1.031l.885 1.633c.233.428.216.95-.042 1.362-.257.414-.729.693-1.205.634-4.239-.181-7.948-1.928-10.996-3.471-.145.995-.636 1.964-1.453 2.763-1.001.977-2.274 1.482-3.537 1.482a4.589 4.589 0 0 1-2.56-.774c-1.529-1.021-2.303-2.834-2.019-4.73.263-1.742 1.362-3.104 2.87-3.555 2.017-.599 4.32.567 7.233 2.051 2.312 1.178 5.069 2.581 8.075 3.21l-1.675-3.094a1.354 1.354 0 0 1 .343-1.702 1.36 1.36 0 0 1 1.736.038c.03.026 3.398 2.793 11.042 2.65l-1.928-2.35a1.355 1.355 0 0 1-.203-1.379 1.359 1.359 0 0 1 1.124-.826c.146-.013 11.251-1.14 18.083-6.645-2.225.651-3.947.548-4.079.546a1.352 1.352 0 0 1-.954-.508c-3.13-3.933-6.333-5.149-7.948-5.525-.907 2.858-3.103 5.171-3.21 5.282-.29.301-.705.449-1.117.408a1.36 1.36 0 0 1-1.01-.632c-2.414-3.891-5.894-4.914-7.916-5.167.248 2.876-1.762 5.238-3.1 6.221a1.36 1.36 0 0 1-1.704-.081c-5.807-5.191-10.292-3.655-12.106-2.618.573 1.423.303 2.586-.085 3.372-2.773 5.619-19.927 6.749-23.338 6.918a1.337 1.337 0 0 1-1.119-.5 1.354 1.354 0 0 1-.256-1.199c.25-.936.083-1.945-.469-2.847-.564-.921-1.468-1.592-2.415-1.795-.892-.189-2.593-.067-3.61 1.048-1.163 1.279-1.242 3.644-.23 6.841 1.816 5.739 7.411 11.393 10.894 14.492a14.52 14.52 0 0 1-.003-1.37c.03-.578.423-1.073.98-1.231a1.344 1.344 0 0 1 1.482.526 13.364 13.364 0 0 0 3.564 3.464l.679-4.329a1.355 1.355 0 0 1 1.178-1.134c.599-.051 1.178.268 1.409.83 1.226 2.978 8.988 12.301 11.875 15.642.37.426.435 1.037.163 1.533a1.375 1.375 0 0 1-1.379.691c-4.946-.705-12.212.941-12.284.957a1.353 1.353 0 0 1-1.358-2.166l1.001-1.246c-6.867-.714-13.553-2.519-16.256-3.309l-2.271 6.17 6.12-.611c.461-.058.936.156 1.217.537.286.381.349.881.169 1.322l-1.154 2.82 5.041-1.334a1.343 1.343 0 0 1 1.606.81c.668 1.692 1.487 2.803 2.141 3.492l1.42-3.139c.224-.49.712-.832 1.252-.794a1.34 1.34 0 0 1 1.224.826zm-17.525 69.197c5.337 3.564 9.651-.502 11.956-3.633-4.917-3.587-8.497-8-10.61-13.255-.691-1.717-1.14-3.453-1.491-5.186-.502-.394-7.927-6.275-14.146-13.15a7.925 7.925 0 0 1-1.073 1.932c.437 1.777.012 3.228-.535 4.158.377 1.267.074 2.524-.365 3.441.941 1.42 1.112 2.81.509 4.146a5.395 5.395 0 0 1-.518.865c.774.934 1.991 3.072 1.991 7.374 0 2.893 1.071 4.629 1.871 5.521.467-.404.978-.631 1.54-.691 1.707-.19 3.109 1.27 5.026 3.284 1.501 1.579 3.368 3.543 5.845 5.194zm-26.547-36.685l-.301-.002a29.758 29.758 0 0 1-5.364-.527c-.158.452.178 1.766.529 2.036.345.265.576.703.564 1.138-.012.434-.199.86-.558 1.105-.231.162-.918.776-.927 1.374-.009.584.68 1.187 1.092 1.497a1.351 1.351 0 0 1 .206 1.974c-.174.206-.671.959-.585 1.591.018.134.074.543.779 1.022.305.207.513.532.575.897.06.365-.032.738-.254 1.034.002 0-.378.555-.233 1.107.162.611.924 1.081 1.532 1.367 1.139.536 2.778.881 4.487.948.052-.009.105-.001.158-.003 1.44.042 2.919-.098 4.182-.564 1.239-.457 2.061-1.119 2.444-1.969.12-.265.369-.815-.696-2.058a1.355 1.355 0 0 1-.047-1.704c.002-.003.904-1.244.348-2.234a1.353 1.353 0 0 1 .222-1.621c.079-.088.919-1.077.254-2.852a1.352 1.352 0 0 1 .34-1.461c.049-.049 1.273-1.323 1.246-3.26a45.25 45.25 0 0 1-.493-.608c-2.62 1.111-5.832 1.773-9.5 1.773zm12.378-94.323c-5.472 2.943-17.142 12.17-17.479 37.43l.301 42.568c.036.06.088.121.118.179.706 1.332.372 3.059-.024 4.255 3.381 1.208 7.597.712 9.404.265-.361-1.055-.646-2.76.577-4.69-.19-50.764 4.651-72.36 7.103-80.007z"/>
      <path d="M260.026 169.675c0-2.164-1.632-3.848-3.245-4.394-.334-.115-1.473-.431-1.995.254-.978 1.279-.631 2.183-.298 3.059.186.487.378.989.234 1.563-.183.733-.851 1.034-1.071 1.134-1.836.833-8.817 1.926-13.641-.564a1.358 1.358 0 0 1-.594-1.801c.509-1.043.879-2.574.596-3.106-.023-.044-.086-.165-.467-.216a7.793 7.793 0 0 0-1.073-.074c-1.647 0-3.175.518-4.001 1.402-.664.712-.872 1.618-.634 2.767.802 3.873 5.651 6.223 12.971 6.29 5.178-.018 9.632-1.24 11.855-3.445.906-.895 1.363-1.86 1.363-2.869zm-11.648 32.106c.313-.413.83-.611 1.34-.505.941.197 3.279.693 4.621-.348.469-.36.575-1.341.215-1.981-.124-.221-.499-.885-1.908-.345-1.334.514-3.249 1.071-4.452-.011a2.092 2.092 0 0 1-.509-.728c-.362-.031-.722-.051-1.077-.105a2.09 2.09 0 0 1-.546.833c-1.198 1.08-3.115.525-4.45.011-1.405-.534-1.786.125-1.908.345-.36.64-.256 1.621.212 1.978 1.344 1.036 3.684.546 4.452.384.499-.1 1.11.072 1.429.481.317.413.451.951.218 1.415-.305.609-1.63 3.2-2.925 4.818 1.692 2.474 3.157 6.883-.275 10.806-.28.317-.715.476-1.119.458a1.35 1.35 0 0 1-1.037-.618c-.195-.296-.883-1.117-1.642-1.265-.23-.044-.591-.062-1.116.296-.354.245-.553 1.055-.254 1.942.534 1.586 2.194 2.466 4.535 2.357.532-.053 1.108.313 1.323.851a1.354 1.354 0 0 1-.377 1.527l-2.206 1.892 3.602.877c.478.116.854.483.985.957.006.023.544 1.942 1.621 3.561 1.075-1.619 1.614-3.538 1.619-3.561.13-.474.508-.841.985-.957l3.602-.877-2.208-1.892a1.353 1.353 0 0 1-.377-1.527c.213-.537.75-.898 1.323-.851 2.314.103 4.001-.771 4.537-2.359.299-.885.1-1.695-.254-1.94-.532-.361-.898-.343-1.124-.295-.785.159-1.489 1.037-1.635 1.263-.23.358-.615.587-1.037.618a1.359 1.359 0 0 1-1.119-.458c-3.431-3.922-1.964-8.332-.273-10.806-1.295-1.618-2.62-4.207-2.925-4.818a1.347 1.347 0 0 1 .134-1.423z"/>
    </g>
    <path d="M438.807 113.65c-.723-1.126-2.164-2.504-4.925-2.684-1.919-.138-3.457.378-4.576 1.497-.9.897-1.334 2.008-1.54 2.947-1.846-.971-4.8-3.135-7.884-5.395-8.981-6.582-22.552-16.529-35.873-18.214-10.804-1.373-23.093.782-29.85 7.052.102-.829.132-1.384.136-1.479.001-.018-.014-.031-.014-.05a1.316 1.316 0 0 0-.196-.7c-.028-.045-.057-.079-.09-.121a1.323 1.323 0 0 0-.586-.455c-.004-.002-.007-.008-.012-.009h-.004a1.33 1.33 0 0 0-.757-.017c-.047.011-.088.019-.134.034a1.324 1.324 0 0 0-.604.422c-.011.013-.03.014-.04.028a10.548 10.548 0 0 1-8.078 4.311c-5.067-6.017-10.422-6.204-10.653-6.209-.776.051-1.269.481-1.369 1.154-.212 1.429-1.043 2.844-1.746 3.826-4.465-5.551-10.751-4.995-11.031-4.972a1.347 1.347 0 0 0-1.039.671 1.36 1.36 0 0 0-.059 1.235c.806 1.772-.171 3.316-.95 4.174-8.79-7.044-15.554-1.305-15.625-1.242a1.353 1.353 0 0 0-.222 1.786c.655.95.54 1.474.365 1.828-1.422 2.882-11.74 4.762-19.467 5.314a6.532 6.532 0 0 0-.978-3.161c-.959-1.565-2.474-2.667-4.157-3.029-1.871-.407-4.503.023-6.18 1.875-1.875 2.061-2.144 5.25-.806 9.479 2.092 6.607 8.372 12.823 12.035 16.022-.892-.33-1.777-.69-2.634-1.102-2.156-1.05-5.767-2.807-8.435-1.42-1.346.696-2.208 2.439-2.051 4.142.079.853.556 2.77 3.053 3.994l-3.004 8.16c-.16.437-.085.927.201 1.295.284.369.738.569 1.204.518l6.033-.602-1.331 3.254a1.354 1.354 0 0 0 .236 1.406 1.33 1.33 0 0 0 1.364.414l6.549-1.734c1.692 3.475 3.948 4.691 4.054 4.745a1.353 1.353 0 0 0 1.861-.64l1.043-2.31a14.548 14.548 0 0 0 2.974 3.072c-.44.364-.874.722-1.351 1.11-4.547 3.7-10.774 8.769-15.25 17.434-2.248 4.351-3.999 10.989-3.476 18.049-3.26-2.74-9.406-8.175-13.931-13.738.545-.372 1.124-.723 1.562-1.155 1.415-1.4 2.162-3.059 2.162-4.791 0-3.598-2.636-6.13-5.084-6.958a5.268 5.268 0 0 0-2.586-.217c-.079-58.979 6.638-77.035 8.002-80.076a1.355 1.355 0 0 0-.215-1.443 1.354 1.354 0 0 0-1.4-.408c-.886.26-21.713 6.766-22.172 41.226l.29 41.112c-2.827-.298-5.511.506-7.074 2.175-.888.95-1.834 2.616-1.308 5.166.701 3.383 3.43 5.88 7.618 7.252a4.291 4.291 0 0 0-.098 1.508c.065.661.271 1.479.653 2.188-.511.609-1.013 1.48-1.039 2.553-.024 1.034.387 2.005 1.226 2.894-.331.668-.62 1.571-.493 2.572.077.596.328 1.387 1.034 2.152a3.906 3.906 0 0 0-.109 2.211c.217.877.762 1.631 1.571 2.275-2.072-.384-3.528.551-4.209 1.767-1.024 1.825-.609 4.271.924 5.45 1.249.96 2.734 1.267 4.087 1.196-.689 1.166-1.417 2.244-1.875 2.602a1.355 1.355 0 0 0-.173 1.977c.141.156 3.092 3.481 1.335 6.936-.543-.446-1.246-.863-2.082-1.033-1.087-.221-2.187.03-3.188.717-1.429.98-1.96 3.05-1.29 5.035.513 1.521 1.792 3.08 3.975 3.799l-1.899 1.628a1.353 1.353 0 0 0 .56 2.342l5.429 1.323c.416 1.193 1.367 3.496 2.956 5.085.254.254.736.396 1.096.396.36 0 .703-.142.957-.396 1.589-1.589 2.541-3.892 2.956-5.085l5.429-1.323a1.35 1.35 0 0 0 .995-.999 1.356 1.356 0 0 0-.435-1.343l-1.899-1.628c2.182-.721 3.463-2.279 3.975-3.799.67-1.986.139-4.057-1.29-5.035-1.003-.689-2.109-.936-3.189-.717-.835.169-1.536.585-2.081 1.031-1.728-3.436 1.198-6.782 1.34-6.938a1.357 1.357 0 0 0-.176-1.973c-.457-.356-1.182-1.432-1.871-2.598 1.352.012 2.829-.234 4.083-1.202.275-.211.47-.501.671-.782.096 5.939 3.86 8.289 4.023 8.388a1.35 1.35 0 0 0 1.85-.457c.319-.52.509-.62.505-.626.476.026 1.811 1.432 2.787 2.457 1.592 1.675 3.576 3.762 6.304 5.58 1.999 1.334 3.889 1.859 5.625 1.859 4.872 0 8.521-4.111 10.078-6.223 3.034 1.903 6.474 3.555 10.396 4.895.134.046.27.064.405.067a132.97 132.97 0 0 0 1.507 4.564c1.693 4.857 3.443 9.881 2.755 13.695-.889 4.943-8.71 4.993-12.729 4.317-2.86-.466-5.513.266-7.46 2.081-1.947 1.819-2.95 4.567-2.678 7.354.189 1.947 1.164 2.863 1.951 3.288 1.806.971 4.248.245 5.575-.298 3.047 2.654 6.691 1.54 8.896.138 1.356 1.133 2.868 1.727 4.505 1.763.054.002.107.002.162.002 2.474 0 4.555-1.302 5.596-2.099 5.241 2.121 8.238.54 8.763.215 4.255-3.59 3.555-10.041 3-12.846 8.745-2.648 11.563-10.248 11.685-10.585a1.359 1.359 0 0 0-.278-1.374 1.367 1.367 0 0 0-1.348-.389c-2.696.724-4.825.231-5.839-1.356-1.373-2.147-.483-5.661 2.268-8.947a26.837 26.837 0 0 0 1.657-2.248c6.758-1.511 12.53-4.139 18.641-6.926 5.058-2.306 10.29-4.692 16.508-6.641 1.743-.547 3.437-.868 5.107-1.085-.505 7.331 3.255 12.161 6.948 16.808 1.02 1.282 2.04 2.563 2.964 3.901 3.96 5.735 3.2 17.759 2.879 18.844-.281.617-2.935 3.319-6.697 2.803-3.126-.416-6.625.614-8.919 2.622-1.636 1.432-2.537 3.274-2.537 5.184 0 1.628.782 2.436 1.44 2.828 1.96 1.164 5.203-.081 6.941-.913 1.624 1.255 3.292 1.718 4.833 1.718 1.917 0 3.64-.714 4.849-1.506 3.628 2.292 7.428.95 9.546-.495 2.654 1.44 4.787 1.155 6.162.614a6.31 6.31 0 0 0 1.226-.647c.055.057.105.134.161.181 1.44 1.239 4.104.579 5.809-.039.776 1.284 1.802 1.863 2.613 2.121 2.506.798 5.383-.575 6.831-1.432 1.757 1.358 3.502 1.929 5.246 1.684 1.538-.213 2.698-1.039 3.445-1.763.797.573 2.007 1.279 3.641 1.795.721.23 1.355.322 1.911.322 1.886 0 2.87-1.075 3.256-1.636 1.565-2.285.749-6.154-.998-8.338-1.031-1.288-1.887-3.699-1.474-6.177.221-1.322.909-3.168 2.947-4.465 3.676-2.338 6.088-5.504 6.144-8.063.024-1.057-.377-1.929-1.133-2.457-.667-.467-1.414-.566-2.137-.661-1.61-.213-3.616-.478-6.168-5.191-2.274-4.201.419-12.339 3.274-20.957 1.632-4.931 3.321-10.03 4.378-15.108 2.618-12.569-3.693-22.696-5.978-25.849 6.355-6.251 9.02-12.25 7.922-17.842-1.208-6.162-6.953-10.383-11.503-12.126-5.501-2.108-14.719-1.012-23.633.056-6.951.832-13.523 1.621-17.47.785-1.492-.312-2.553-.96-3.153-1.928-1.043-1.683-.484-3.895-.479-3.918.109-.414.014-.86-.254-1.193-.269-.333-.714-.546-1.108-.505-2.593.104-4.659 1.549-5.935 2.742a3.314 3.314 0 0 1-.033-1.122c.351-2.601 3.346-4.874 3.375-4.896a1.357 1.357 0 0 0-.107-2.239c-5.512-3.357-10.658-.871-13.292 1.464-1.113-1.09-1.784-2.758-1.732-4.437.033-1.103.423-3.129 2.627-4.301.997-.531 1.854-.647 2.631-.361 1.3.484 2.164 2.082 2.388 2.659.142.369.443.659.815.789.374.136.789.095 1.13-.106 3.017-1.76 3.982-5.457 4.288-7.508 1.774.289 3.127 1.042 4.11 2.282 2.758 3.478 1.63 9.604 1.619 9.666-.088.458.067.928.407 1.246.34.317.821.435 1.272.317 6.124-1.641 8.084-6.614 8.386-10.29 4.683 2.916 4.364 8.947 4.346 9.23a1.354 1.354 0 0 0 1.858 1.345c2.241-.909 3.481-2.388 4.169-3.753 4.263 5.59 10.189 7.53 10.473 7.623a1.353 1.353 0 1 0 1.662-1.806l-1.323-3.207c1.077.759 2.114 1.558 3.18 2.379 2.826 2.174 5.746 4.423 9.96 6.403 4.738 2.226 8.114 1.727 10.119.924 1.999-.809 3.584-2.317 4.239-4.035.764-2.001 1.052-4.963-.425-7.262zm-2.105 6.304c-.287.756-1.173 1.86-2.724 2.486-1.496.606-4.096.951-7.951-.862-3.948-1.855-6.752-4.012-9.461-6.098-2.247-1.73-4.37-3.363-7.05-4.807a1.35 1.35 0 1 0-1.892 1.707l1.61 3.903c-2.338-1.334-5.534-3.718-7.629-7.548a1.353 1.353 0 1 0-2.541.649c0 .024-.023 1.908-1.561 3.375-.466-3.605-2.442-8.448-7.874-10.366a1.342 1.342 0 0 0-1.297.218 1.358 1.358 0 0 0-.499 1.217c.033.281.682 6.313-4.437 8.926.138-2.528-.081-6.613-2.406-9.554-1.7-2.15-4.188-3.307-7.393-3.439-.348-.039-.715.116-.98.363-.266.247-.419.59-.43.953 0 .042-.156 3.67-1.998 5.772-.638-.953-1.651-2.078-3.095-2.622-1.518-.573-3.156-.405-4.863.5-2.492 1.323-3.974 3.732-4.065 6.605-.095 3.043 1.411 5.975 3.841 7.469a1.366 1.366 0 0 0 1.721-.256c.178-.201 4.039-4.423 9.076-2.654-1.152 1.208-2.558 3.082-2.856 5.259-.233 1.684.213 3.263 1.32 4.694.259.337.562.502 1.096.523a1.353 1.353 0 0 0 1.075-.566c.018-.024 1.487-2.04 3.663-2.858-.009 1.152.194 2.628 1.021 3.977 1.003 1.635 2.655 2.705 4.913 3.179 4.381.915 11.167.106 18.347-.747 8.593-1.022 17.475-2.082 22.343-.216 3.906 1.496 8.822 5.044 9.817 10.121.957 4.868-1.737 10.318-8.002 16.195a1.352 1.352 0 0 0-.111 1.857c.089.107 9.016 10.931 6.176 24.563-1.025 4.928-2.689 9.953-4.299 14.81-3.174 9.588-5.914 17.868-3.082 23.097 3.209 5.926 6.329 6.337 8.193 6.584.363.047.815.107.894.145.268.546-.687 3.411-4.865 6.07-2.28 1.452-3.721 3.631-4.165 6.304-.483 2.903.313 6.167 2.029 8.312 1.309 1.635 1.55 4.136.879 5.114-.132.19-.532.763-2.121.266-2.423-.767-3.607-2.016-3.61-2.02a1.407 1.407 0 0 0-1.128-.443 1.351 1.351 0 0 0-1.028.636c-.011.015-.953 1.479-2.507 1.695-1.161.157-2.453-.405-3.85-1.681a1.36 1.36 0 0 0-1.7-.103c-.841.597-3.628 2.165-5.332 1.633-.245-.079-.992-.319-1.471-1.724a1.355 1.355 0 0 0-1.843-.791c-1.644.747-3.708 1.216-4.105 1.036 0 0-.065-.204.104-.782.936-3.227 4.745-4 7.266-4.511.463-.094.883-.18 1.234-.268.278-.068.597-.132.937-.199 2.483-.493 7.647-1.521 6.998-8.015-.138-1.365-.098-2.625-.063-3.844.118-4 .23-7.777-6.056-12.301-2.318-1.671-4.553-3.17-6.7-4.611-4.889-3.283-9.112-6.115-12.98-9.983-7.983-7.987-17.492-10.327-28.274-6.951-6.378 1.998-11.687 4.419-16.82 6.761-5.163 2.356-10.112 4.551-15.534 6.051 4.28-8.135 6.624-18.922 6.142-24.122-.071-.744-.749-1.297-1.473-1.223a1.356 1.356 0 0 0-1.223 1.473c.553 5.938-3.133 20.518-9.162 27.722-3.523 4.211-4.494 8.977-2.474 12.141 1.255 1.961 3.384 2.9 6.065 2.926-1.465 2.308-4.499 5.79-9.923 7.033a1.359 1.359 0 0 0-.865.636 1.344 1.344 0 0 0-.13 1.064c.023.079 2.261 7.915-1.612 11.217-.097.056-2.439 1.242-6.901-.8a1.356 1.356 0 0 0-1.505.26c-.023.018-2.215 2.073-4.524 1.933-1.263-.029-2.398-.597-3.469-1.739a1.357 1.357 0 0 0-1.863-.106c-.16.139-3.991 3.318-6.835.132a1.353 1.353 0 0 0-1.639-.298c-1.086.567-3.092 1.195-3.945.733-.113-.062-.457-.247-.546-1.169-.189-1.955.497-3.868 1.834-5.115 1.318-1.23 3.153-1.727 5.167-1.388 7.092 1.184 14.731-.372 15.838-6.508.812-4.514-1.057-9.877-2.863-15.066-1.361-3.903-2.766-7.939-2.829-11.209-.127-6.681 1.304-12.989 1.318-13.053a1.352 1.352 0 0 0-1.015-1.621 1.343 1.343 0 0 0-1.621 1.013c-.063.269-1.523 6.685-1.388 13.713.028 1.383.29 2.855.634 4.353-10.269-3.794-17.123-9.699-20.308-17.615-3.732-9.278-1.615-19.23 1.331-24.935 4.218-8.163 9.95-12.826 14.556-16.576 2.165-1.761 4.103-3.347 5.486-5.004-.146 2.25-2.06 6.775-4.148 10.399a1.351 1.351 0 0 0 1.575 1.967c1.163-.363 3.263-1.387 4.804-2.173l.434 6.831c.032.505.345.951.81 1.154a1.343 1.343 0 0 0 1.397-.195c1.824-1.496 3.546-3.492 4.738-4.999l1.346 4.249a1.355 1.355 0 0 0 2.06.703c1.928-1.334 3.811-3.471 4.987-4.939l2.569 4.095c.26.416.726.684 1.213.632a1.35 1.35 0 0 0 1.145-.747l2.997-5.996 2.528 6.873a1.353 1.353 0 0 0 1.993.679l6.625-4.179c3.501 1.945 8.565 2.755 8.793 2.793.408.054.832-.065 1.137-.352.305-.286.46-.697.422-1.113l-.54-5.645 5.866-.089a1.353 1.353 0 1 0 .328-2.66c-.64-.171-2.108-1.543-3.361-2.948.159-.011.232-.018.307-.024 3.373.257 60.632 4.472 73.188-4.661 6.983-5.078 6.495-9.694 5.581-11.993-1.884-4.748-8.736-7.777-15.57-6.906-2.717.348-5.639.868-8.666 1.411-8.57 1.535-18.283 3.275-26.248 1.323-3.106-.761-5.769-1.769-8.119-2.657-3.977-1.506-6.852-2.595-9.055-1.279-.913.546-1.575 1.436-2.017 2.738-1.414-1.577-2.982-4.456-.911-8.355a1.357 1.357 0 0 0-.213-1.567c-.079-.085-7.931-8.5-4.236-17.736 3.318-8.295 16.377-12.977 31.05-11.113 12.625 1.597 25.856 11.294 34.611 17.71 5.512 4.039 8.48 6.158 10.488 6.421.402.058.798-.081 1.095-.354a1.36 1.36 0 0 0 .431-1.068c-.002-.018-.085-1.825.93-2.828.553-.548 1.362-.789 2.479-.705 1.313.086 2.262.573 2.825 1.447.872 1.367.714 3.42.169 4.849zm-42.54 130.836c-1.313.451-2.784.15-4.393-.906a1.359 1.359 0 0 0-1.628.109c-.163.141-4.03 3.407-7.736.419a1.364 1.364 0 0 0-1.736.032c-.402.345-4.039 3.275-7.661-.116a1.355 1.355 0 0 0-1.568-.203c-1.842.995-4.414 1.807-5.102 1.391-.113-.067-.118-.43-.118-.502 0-1.434.877-2.504 1.612-3.147 1.709-1.494 4.423-2.287 6.78-1.977 5.126.685 8.863-2.831 9.54-4.417.599-1.399 1.588-14.606-3.138-21.448-.959-1.388-2.014-2.719-3.073-4.049-3.593-4.52-6.958-8.815-6.35-15.347 6.566-.138 12.513 2.374 17.727 7.588 2.729 2.729 5.687 4.989 8.785 7.162-1.201 1.234-3.137 3.564-3.284 5.935a4.143 4.143 0 0 0 1.066 3.089c1.963 2.179 4.21 2.078 5.695 2.005.256-.014.599-.033.85-.015-.378.918-1.781 2.835-2.752 4.158-2.684 3.661-4.42 6.209-4.125 8.182.203 1.346.732 3.375 1.244 5.339.488 1.871 1.225 4.7 1.191 5.247-.071.21-.679 1.072-1.826 1.471zm5.698-18.639c2.601-3.549 3.922-5.471 3.157-7-.785-1.571-2.389-1.503-3.563-1.443-1.26.06-2.454.113-3.558-1.113-.287-.319-.404-.661-.377-1.108.094-1.546 1.838-3.552 2.842-4.536.777.527 1.549 1.054 2.342 1.586 2.125 1.426 4.334 2.909 6.626 4.559 5.119 3.686 5.044 6.209 4.934 10.027-.038 1.244-.079 2.654.076 4.193.375 3.758-1.768 4.481-4.833 5.09-.387.077-.749.15-1.068.23-.317.079-.696.156-1.116.242-1.955.396-5.08 1.065-7.253 3.091a162.08 162.08 0 0 0-.657-2.574c-.493-1.896-1.004-3.855-1.186-5.058-.149-1.022 2.313-4.38 3.634-6.186zm-137.098-25.246c-.562.06-1.073.287-1.54.691-.8-.892-1.871-2.627-1.871-5.521 0-4.302-1.217-6.441-1.991-7.374.193-.277.38-.558.518-.865.602-1.335.431-2.726-.509-4.146.439-.918.742-2.174.365-3.441.548-.93.972-2.382.535-4.158a7.859 7.859 0 0 0 1.073-1.932c6.219 6.873 13.644 12.755 14.146 13.15.351 1.732.8 3.468 1.491 5.186 2.113 5.255 5.693 9.667 10.61 13.255-2.305 3.13-6.618 7.197-11.956 3.633-2.477-1.651-4.345-3.616-5.844-5.194-1.918-2.014-3.32-3.475-5.027-3.284zm-11.321 11.924a1.356 1.356 0 0 0 2.156-.16c.147-.225.851-1.105 1.635-1.263.225-.05.591-.067 1.124.295.354.245.553 1.055.254 1.94-.535 1.588-2.223 2.462-4.537 2.359-.573-.047-1.11.313-1.323.851a1.353 1.353 0 0 0 .377 1.527l2.208 1.892-3.602.877a1.354 1.354 0 0 0-.985.957c-.006.023-.544 1.942-1.619 3.561-1.077-1.619-1.615-3.538-1.621-3.561a1.354 1.354 0 0 0-.985-.957l-3.602-.877 2.206-1.892c.439-.377.59-.99.377-1.527-.215-.537-.791-.904-1.323-.851-2.342.109-4.001-.771-4.535-2.357-.299-.886-.1-1.697.254-1.942.523-.358.886-.34 1.116-.296.759.148 1.447.969 1.642 1.265.23.358.615.587 1.037.618.404.018.839-.141 1.119-.458 3.432-3.922 1.966-8.332.275-10.806 1.295-1.618 2.62-4.207 2.925-4.818.233-.463.098-1.003-.218-1.415-.319-.408-.93-.582-1.429-.481-.768.162-3.108.652-4.452-.384-.467-.358-.57-1.34-.212-1.978.121-.221.504-.879 1.908-.345 1.335.514 3.253 1.069 4.45-.011.273-.245.431-.535.546-.833.355.054.715.073 1.077.105.116.26.268.512.509.728 1.204 1.081 3.118.525 4.452.011 1.409-.54 1.785.125 1.908.345.36.64.254 1.621-.215 1.981-1.343 1.039-3.681.544-4.621.348a1.341 1.341 0 0 0-1.34.505c-.313.41-.366.963-.136 1.426.305.609 1.63 3.2 2.925 4.818-1.69 2.471-3.155 6.882.275 10.803zm4.389-38.036c-.398.374-.532.95-.34 1.461.666 1.777-.174 2.764-.254 2.852-.43.428-.52 1.09-.222 1.621.557.99-.345 2.23-.348 2.234a1.356 1.356 0 0 0 .047 1.704c1.064 1.242.815 1.793.696 2.058-.382.85-1.205 1.512-2.444 1.969-1.265.467-2.743.606-4.182.564-.053.002-.106-.006-.158.003-1.708-.068-3.348-.412-4.487-.948-.608-.286-1.369-.756-1.532-1.367-.147-.552.234-1.107.233-1.107.222-.296.313-.67.254-1.034a1.359 1.359 0 0 0-.575-.897c-.705-.479-.761-.888-.779-1.022-.086-.632.41-1.385.585-1.591a1.353 1.353 0 0 0-.206-1.974c-.413-.31-1.101-.915-1.092-1.497.009-.599.696-1.213.927-1.374.36-.245.546-.671.558-1.105.012-.435-.218-.874-.564-1.138-.352-.27-.686-1.583-.529-2.036 1.639.316 3.417.51 5.364.527l.301.002c3.668 0 6.879-.662 9.496-1.773.162.203.328.406.493.608.031 1.937-1.193 3.212-1.242 3.26zm-9.021-4.803c-7.32-.067-12.17-2.418-12.971-6.29-.238-1.151-.03-2.056.634-2.767.826-.885 2.354-1.402 4.001-1.402.354 0 .714.024 1.073.074.381.051.444.172.467.216.284.532-.086 2.063-.596 3.106a1.357 1.357 0 0 0 .594 1.801c4.824 2.489 11.805 1.397 13.641.564.221-.1.888-.402 1.071-1.134.145-.575-.047-1.077-.234-1.562-.333-.876-.68-1.78.298-3.059.522-.685 1.66-.369 1.995-.254 1.614.546 3.245 2.23 3.245 4.394 0 1.007-.458 1.973-1.362 2.87-2.224 2.203-6.678 3.425-11.856 3.443zm4.974-6.919c-1.806.448-6.023.945-9.404-.265.396-1.196.732-2.923.024-4.255-.031-.057-.082-.119-.118-.179l-.301-42.568c.337-25.261 12.006-34.488 17.479-37.43-2.452 7.647-7.293 29.242-7.103 80.006-1.223 1.932-.937 3.637-.577 4.691zm36.892-22.92l-1.42 3.139c-.653-.689-1.473-1.801-2.141-3.492a1.341 1.341 0 0 0-1.605-.81l-5.041 1.334 1.154-2.82c.18-.44.116-.941-.169-1.322a1.328 1.328 0 0 0-1.217-.537l-6.12.611 2.271-6.17c2.702.789 9.389 2.595 16.256 3.309l-1.001 1.246a1.353 1.353 0 0 0 1.358 2.166c.072-.015 7.338-1.662 12.284-.957a1.374 1.374 0 0 0 1.379-.691 1.351 1.351 0 0 0-.163-1.533c-2.888-3.34-10.649-12.664-11.875-15.642-.231-.562-.811-.881-1.409-.83a1.355 1.355 0 0 0-1.178 1.134l-.679 4.329a13.348 13.348 0 0 1-3.564-3.464 1.34 1.34 0 0 0-1.482-.526c-.557.159-.95.653-.98 1.231-.007.132-.029.658.003 1.37-3.484-3.1-9.077-8.754-10.894-14.492-1.013-3.198-.934-5.562.229-6.841 1.016-1.116 2.719-1.237 3.611-1.048.948.203 1.852.874 2.415 1.795.552.903.718 1.911.469 2.847-.111.417-.018.863.256 1.199.271.337.696.531 1.119.5 3.411-.169 20.565-1.299 23.338-6.918.387-.786.658-1.949.085-3.372 1.815-1.036 6.298-2.572 12.106 2.618a1.358 1.358 0 0 0 1.704.081c1.337-.983 3.348-3.346 3.1-6.221 2.023.254 5.503 1.278 7.916 5.167a1.357 1.357 0 0 0 2.127.224c.107-.111 2.303-2.424 3.21-5.282 1.615.377 4.818 1.592 7.948 5.525.234.295.579.478.954.508.132.002 1.855.105 4.079-.546-6.833 5.505-17.938 6.631-18.083 6.645a1.353 1.353 0 1 0-.921 2.205l1.928 2.35c-7.645.142-11.012-2.624-11.042-2.65a1.364 1.364 0 0 0-1.736-.038 1.354 1.354 0 0 0-.343 1.702l1.675 3.094c-3.006-.629-5.763-2.031-8.075-3.21-2.912-1.483-5.215-2.65-7.233-2.051-1.508.451-2.607 1.813-2.87 3.555-.284 1.898.49 3.711 2.019 4.73.779.52 1.667.774 2.56.774 1.261 0 2.536-.505 3.537-1.482.818-.798 1.309-1.768 1.453-2.763 3.048 1.544 6.758 3.289 10.996 3.471.476.058.948-.221 1.205-.634a1.35 1.35 0 0 0 .042-1.362l-.885-1.633c2.557.862 6.354 1.55 11.556 1.031a1.353 1.353 0 0 0 .913-2.204l-2.073-2.527c4.247-.707 12.964-2.758 18.465-8.092-.905 2.494-2.38 5.064-4.811 6.471a1.364 1.364 0 0 0-.374 2.023c.046.058 4.424 5.772 3.059 20.706-2.504-1.287-7.317-4.345-10.039-9.865a1.358 1.358 0 0 0-1.589-.702 1.355 1.355 0 0 0-.971 1.44c.181 1.754.328 4.558.169 6.531-1.462-1.048-3.51-2.761-4.355-4.633a1.326 1.326 0 0 0-1.365-.789 1.351 1.351 0 0 0-1.186 1.039c-.342 1.473-.798 3.18-1.169 4.338-1.347-.844-3.136-2.178-3.88-3.549a1.352 1.352 0 1 0-2.54.569c-.088 1.566-.295 3.982-.558 5.652-1.244-.762-2.994-1.913-4.287-3.083a1.341 1.341 0 0 0-1.293-.295 1.357 1.357 0 0 0-.924.953l-.694 2.637c-1.163-.675-2.775-1.751-3.829-3.038a1.35 1.35 0 0 0-1.902-.19 1.35 1.35 0 0 0-.19 1.902c2.205 2.694 6.073 4.473 6.237 4.547a1.355 1.355 0 0 0 1.869-.888l.594-2.257c2.194 1.633 4.542 2.921 4.665 2.988.34.183.742.212 1.107.086.365-.132.655-.413.798-.771.396-.992.675-3.027.854-4.83 1.848 1.606 3.922 2.655 4.051 2.719a1.355 1.355 0 0 0 1.766-.514c.382-.64.836-2.073 1.216-3.434 2.191 2.468 5.137 4.16 5.3 4.254.34.192.753.225 1.126.097.372-.134.666-.423.807-.793.408-1.073.544-2.77.557-4.438 2.577 3.148 5.559 5.153 7.667 6.316 0 .033-.015.062-.013.096.014.238.31 4.768 1.086 8.38-2.271-.841-5.922-2.554-9.295-5.73a1.353 1.353 0 0 0-2.182.475l-1.042 2.571-4.352-3.157a1.356 1.356 0 0 0-2.138.921l-.393 3.018c-.946-.685-2.081-1.591-2.891-2.502a1.354 1.354 0 0 0-2.023 1.797c1.917 2.156 5.134 4.122 5.27 4.204a1.354 1.354 0 0 0 2.046-.982l.381-2.93 3.91 2.837a1.356 1.356 0 0 0 2.049-.587l.974-2.407a30.264 30.264 0 0 0 7.02 4.303c.01.842.142 4.426 1.655 7.253-2.479-.065-6.364-.5-9.962-2.3a1.35 1.35 0 0 0-1.739.474l-1.96 3.02-8.105-5.438a1.321 1.321 0 0 0-1.172-.162 1.35 1.35 0 0 0-.853.819l-1.246 3.393c-1.492-1.674-3.631-4.03-4.419-4.66a1.352 1.352 0 0 0-1.837.138c-.023.024-1.916 2.052-4.183 3.628l-1.562-4.195a1.359 1.359 0 0 0-1.741-.797 1.355 1.355 0 0 0-.797 1.741l2.143 5.751a1.352 1.352 0 0 0 1.926.711c2.12-1.177 4.102-2.934 5.231-4.022 1.255 1.295 3.363 3.656 4.706 5.196.316.36.794.532 1.265.44.47-.086.86-.414 1.025-.863l1.436-3.91 7.816 5.244a1.362 1.362 0 0 0 1.025.201c.356-.072.667-.284.863-.588l2.067-3.188c3.474 1.5 6.948 1.944 9.441 2.05-.014.322.073.65.294.919.33.404 1.003 1.199 1.816 2.025l-3.384.051a1.352 1.352 0 0 0-1.326 1.482l.505 5.297c-1.868-.419-4.831-1.234-6.761-2.497a1.347 1.347 0 0 0-1.464-.014l-5.914 3.732-3.03-8.241a1.352 1.352 0 0 0-1.195-.885c-.588-.042-1.045.263-1.287.747l-3.321 6.641-2.327-3.711a1.357 1.357 0 0 0-1.112-.634c-.451.007-.879.204-1.142.575-.023.033-1.907 2.693-4.066 4.682l-1.544-4.875a1.354 1.354 0 0 0-1.092-.93 1.362 1.362 0 0 0-1.314.575 43.43 43.43 0 0 1-3.804 4.685l-.382-6.036a1.35 1.35 0 0 0-.693-1.096 1.346 1.346 0 0 0-1.297-.011c-.582.312-1.658.876-2.784 1.432 1.592-3.305 3.398-7.948 2.371-10.34-.306-.714-.882-1.187-1.571-1.48-.043-.03-.072-.073-.118-.098-.063-.034-.131-.036-.196-.06-.046-.013-.076-.051-.124-.062-.054-.013-.095-.009-.148-.02-.028-.003-.054-.009-.083-.011-1.835-.382-3.086.13-3.808.657-.738.54-1.225 1.256-1.544 1.946-.841-.812-1.857-2.023-2.513-3.585a1.35 1.35 0 0 0-1.228-.83c-.539-.034-1.027.308-1.251.798zm-10.29-15.1c7.315 3.526 16.305 3.916 18.762 3.961a252.607 252.607 0 0 0 3.243 3.951c-2.248.009-4.541.263-6.362.535l.321-.399a1.355 1.355 0 0 0-.974-2.199c-9.186-.546-19.304-3.738-19.404-3.773l-.012-.001-.008-.004c-1.508-.455-2.386-1.23-2.474-2.179-.068-.749.348-1.358.599-1.489 1.46-.754 4.532.735 6.309 1.597zm12.784.763c.292-.21.508-.511.565-.871l.396-2.537c.811 1.18 1.794 2.486 2.808 3.802a55.996 55.996 0 0 1-3.769-.394zm-2.382-.383a48.04 48.04 0 0 1-2.026-.423c.061-.29.025-.6-.114-.879a3.63 3.63 0 0 1-.109-.243 15.879 15.879 0 0 0 2.249 1.545zm17.846-14.772c-.615.606-1.695 1.066-2.705.395-.774-.516-.942-1.411-.844-2.078.079-.52.378-1.187.969-1.364a1.37 1.37 0 0 1 .382-.05c.649 0 1.575.34 2.633.824l.002.003c.686 1.088-.243 2.081-.437 2.27zm51.45 20.256a1.36 1.36 0 0 0 1.299.083c.417-.195.706-.593.767-1.05.225-1.702.641-2.746 1.238-3.104 1.078-.647 3.69.343 6.709 1.487 2.301.872 5.166 1.955 8.43 2.755 8.519 2.087 18.534.295 27.368-1.288 2.985-.534 5.86-1.048 8.533-1.39 5.589-.712 11.287 1.628 12.713 5.22 1.077 2.711-.578 5.839-4.659 8.807-11.313 8.226-65.482 4.573-71.005 4.178-1.469-1.399-2.044-4.263-2.215-6.15.893.285 1.492.427 1.569.444a1.364 1.364 0 0 0 1.302-.438c.321-.374.416-.889.247-1.352-.844-2.303-1.308-6.558-1.501-8.736a1.32 1.32 0 0 0 1.054-.134c.352-.216.585-.584.634-.994 1.6-13.594-1.191-20.682-2.654-23.337a11.47 11.47 0 0 0 1.004-.87c.098 6.425 3.825 11.592 5.349 13.437-2.721 6.162 1.23 10.791 3.818 12.432z" fill="#464655"/>
    <path d="M222.355 67.24c-.525-10.901-3.113-28.531-11.385-28.935-4.662-.215-6.959 2.655-7.054 2.778a1.394 1.394 0 0 1-1.155.531l-3.161-.19.566 2.095a1.36 1.36 0 0 1-.435 1.387c-.192.162-4.662 4.044-1.942 8.988 2.072 3.767 8.769 5.55 13.658 6.85 2.183.582 4.07 1.084 5.294 1.683 2.182 1.067 4.093 2.867 5.614 4.813z" fill="#FFD250"/>
    <path d="M211.1 35.602c-4.757-.233-7.718 2.138-8.831 3.271l-4.385-.263a1.36 1.36 0 0 0-1.13.497 1.354 1.354 0 0 0-.259 1.207l.842 3.124c-2.15 2.194-4.678 6.75-1.922 11.759 2.628 4.782 9.973 6.735 15.334 8.163 2.047.544 3.815 1.015 4.803 1.497 3.17 1.55 5.716 5.076 7.041 7.86a1.351 1.351 0 0 0 1.514.739 1.353 1.353 0 0 0 1.06-1.308c.014-1.462.187-35.851-14.067-36.546zm.345 25.141c-4.889-1.3-11.586-3.083-13.658-6.85-2.72-4.943 1.75-8.825 1.942-8.988.399-.339.57-.881.435-1.387l-.566-2.095 3.161.19c.435.023.883-.177 1.155-.531.095-.124 2.392-2.994 7.054-2.778 8.273.404 10.86 18.034 11.385 28.935-1.521-1.945-3.432-3.746-5.615-4.813-1.222-.6-3.11-1.102-5.293-1.683z" fill="#464655"/>
    <path d="M448.542 67.24c.525-10.901 3.113-28.531 11.385-28.935 4.662-.215 6.959 2.655 7.054 2.778.273.354.721.553 1.155.531l3.161-.19-.566 2.095a1.36 1.36 0 0 0 .435 1.387c.192.162 4.662 4.044 1.942 8.988-2.072 3.767-8.769 5.55-13.658 6.85-2.183.582-4.07 1.084-5.294 1.683-2.182 1.067-4.094 2.867-5.614 4.813z" fill="#FFD250"/>
    <path d="M445.729 72.15a1.355 1.355 0 0 0 1.352 1.34 1.35 1.35 0 0 0 1.221-.771c1.325-2.784 3.871-6.31 7.041-7.86.989-.483 2.755-.953 4.803-1.497 5.362-1.427 12.705-3.381 15.334-8.163 2.755-5.01.227-9.566-1.922-11.759l.842-3.124a1.356 1.356 0 0 0-1.389-1.704l-4.385.263c-1.113-1.131-4.074-3.502-8.831-3.271-14.252.693-14.079 35.082-14.066 36.546zm8.428-9.725c-2.183 1.068-4.095 2.869-5.615 4.813.525-10.901 3.113-28.531 11.385-28.935 4.662-.215 6.959 2.655 7.054 2.778.273.354.721.553 1.155.531l3.161-.19-.566 2.095a1.36 1.36 0 0 0 .435 1.387c.192.162 4.662 4.044 1.942 8.988-2.072 3.767-8.769 5.55-13.658 6.85-2.181.582-4.069 1.084-5.293 1.683z" fill="#464655"/>
    <path d="M448.542 268.76c.525 10.901 3.113 28.531 11.385 28.935 4.662.215 6.959-2.655 7.054-2.779a1.394 1.394 0 0 1 1.155-.531l3.161.19-.566-2.095a1.36 1.36 0 0 1 .435-1.387c.192-.162 4.662-4.044 1.942-8.988-2.072-3.767-8.769-5.55-13.658-6.85-2.183-.582-4.07-1.084-5.294-1.683-2.182-1.065-4.094-2.866-5.614-4.812z" fill="#FFD250"/>
    <path d="M459.797 300.398c4.757.233 7.717-2.138 8.831-3.271l4.385.263a1.36 1.36 0 0 0 1.13-.497c.275-.337.372-.786.259-1.207l-.842-3.124c2.15-2.194 4.678-6.75 1.922-11.759-2.628-4.782-9.973-6.735-15.334-8.163-2.047-.544-3.815-1.015-4.803-1.497-3.17-1.55-5.716-5.076-7.041-7.86a1.35 1.35 0 0 0-2.573.569c-.015 1.462-.188 35.851 14.066 36.546zm-.345-25.141c4.889 1.3 11.586 3.083 13.658 6.85 2.72 4.943-1.75 8.825-1.942 8.988-.399.339-.57.881-.435 1.387l.566 2.095-3.161-.19a1.389 1.389 0 0 0-1.155.531c-.095.124-2.392 2.994-7.054 2.778-8.273-.404-10.86-18.034-11.385-28.935 1.521 1.945 3.432 3.746 5.615 4.813 1.222.6 3.11 1.102 5.293 1.683z" fill="#464655"/>
    <path d="M222.355 268.76c-.525 10.901-3.113 28.531-11.385 28.935-4.662.215-6.959-2.655-7.054-2.779a1.394 1.394 0 0 0-1.155-.531l-3.161.19.566-2.095a1.36 1.36 0 0 0-.435-1.387c-.192-.162-4.662-4.044-1.942-8.988 2.072-3.767 8.769-5.55 13.658-6.85 2.183-.582 4.07-1.084 5.294-1.683 2.182-1.065 4.093-2.866 5.614-4.812z" fill="#FFD250"/>
    <path d="M225.167 263.85a1.355 1.355 0 0 0-1.352-1.34c-.513 0-.994.292-1.222.771-1.325 2.784-3.871 6.31-7.041 7.86-.989.483-2.755.953-4.803 1.497-5.362 1.427-12.705 3.381-15.334 8.163-2.755 5.01-.227 9.566 1.922 11.759l-.842 3.124a1.356 1.356 0 0 0 1.389 1.704l4.385-.263c1.113 1.131 4.074 3.502 8.831 3.271 14.254-.693 14.081-35.082 14.067-36.546zm-8.428 9.725c2.183-1.068 4.095-2.869 5.615-4.813-.525 10.901-3.113 28.531-11.385 28.935-4.662.215-6.959-2.655-7.054-2.778a1.394 1.394 0 0 0-1.155-.531l-3.161.19.566-2.095a1.36 1.36 0 0 0-.435-1.387c-.192-.162-4.662-4.044-1.942-8.988 2.072-3.767 8.769-5.55 13.658-6.85 2.182-.582 4.07-1.084 5.293-1.683z" fill="#464655"/>
  </g>
</svg>
