<?xml version="1.0" encoding="iso-8859-1"?>
<!-- Generator: Adobe Illustrator 19.0.0, SVG Export Plug-In . SVG Version: 6.00 Build 0)  -->
<svg version="1.1" id="Layer_1" xmlns="http://www.w3.org/2000/svg" xmlns:xlink="http://www.w3.org/1999/xlink" x="0px" y="0px"
	 viewBox="0 0 512 512" style="enable-background:new 0 0 512 512;" xml:space="preserve">
<path style="fill:#FF4B55;" d="M512,118.771H0V97.103c0-4.875,3.953-8.828,8.828-8.828h494.345c4.875,0,8.828,3.953,8.828,8.828
	V118.771z"/>
<rect y="118.775" style="fill:#F5F5F5;" width="512" height="30.495"/>
<rect y="149.263" style="fill:#FF4B55;" width="512" height="30.495"/>
<rect y="179.763" style="fill:#F5F5F5;" width="512" height="30.495"/>
<path style="fill:#FF4B55;" d="M512,240.753H8.828C3.953,240.753,0,236.8,0,231.925v-21.667h512V240.753z"/>
<polygon style="fill:#F5F5F5;" points="512,271.247 0,271.247 0,229.517 8.826,229.517 8.828,240.753 512,240.753 "/>
<rect y="271.25" style="fill:#FF4B55;" width="512" height="30.495"/>
<rect y="301.738" style="fill:#F5F5F5;" width="512" height="30.495"/>
<rect y="332.237" style="fill:#FF4B55;" width="512" height="30.495"/>
<rect y="362.737" style="fill:#F5F5F5;" width="512" height="30.495"/>
<path style="fill:#FF4B55;" d="M503.172,423.724H8.828c-4.875,0-8.828-3.953-8.828-8.828v-21.667h512v21.667
	C512,419.772,508.047,423.724,503.172,423.724z"/>
<path style="fill:#41479B;" d="M141.241,240.753H8.828C3.953,240.753,0,236.8,0,231.925V97.103c0-4.875,3.953-8.828,8.828-8.828
	h132.414c4.875,0,8.828,3.953,8.828,8.828v134.822C150.069,236.8,146.116,240.753,141.241,240.753z"/>
<path style="fill:#F5F5F5;" d="M72.512,127.737l-8.428,25.27l-26.638,0.206c-2.554,0.02-3.614,3.279-1.559,4.797l21.429,15.825
	l-8.035,25.398c-0.77,2.435,2.003,4.45,4.081,2.965l21.674-15.49l21.672,15.49c2.078,1.485,4.851-0.53,4.081-2.965l-8.035-25.398
	l21.429-15.825c2.055-1.517,0.995-4.778-1.559-4.797l-26.638-0.206l-8.428-25.27C76.748,125.313,73.321,125.313,72.512,127.737z"/>
<g>
</g>
<g>
</g>
<g>
</g>
<g>
</g>
<g>
</g>
<g>
</g>
<g>
</g>
<g>
</g>
<g>
</g>
<g>
</g>
<g>
</g>
<g>
</g>
<g>
</g>
<g>
</g>
<g>
</g>
</svg>
