<svg width="512" height="336" viewBox="0 0 512 336" xmlns="http://www.w3.org/2000/svg">
  <g fill="none">
    <path fill="#C8414B" d="M17.655 17.931h476.69v300.138H17.655z"/>
    <path d="M503.172.276H8.828A8.828 8.828 0 0 0 0 9.103v317.793a8.829 8.829 0 0 0 8.828 8.828h494.345a8.829 8.829 0 0 0 8.828-8.828V9.103a8.83 8.83 0 0 0-8.829-8.827zm-8.827 317.793H17.655V17.931h476.69v300.138z" fill="#E6B432"/>
    <circle fill="#41479B" cx="328.43" cy="223.371" r="13.433"/>
    <g fill="#E6B432">
      <path d="M352.003 146.242c-9.886 8.311-16.535 8.661-16.535 8.661 17.586-7.174 15.748-20.822 15.748-20.822-8.311 10.936-16.798 13.998-16.798 13.998 17.673-11.986 14.873-28.084 14.873-28.084-5.774 12.774-13.079 17.76-13.079 17.76 14.698-19.554 7.48-32.152 7.48-32.152-5.774 18.11-10.63 23.36-10.63 23.36 11.286-30.184 1.619-38.889 1.619-38.889 0 16.185-6.037 25.459-6.037 25.459 6.3-21.347-3.587-33.596-3.587-33.596s-.093 17.404-3.445 26.52c-.804-1.222-1.28-1.06-1.28-1.06-1.704 11.179-7.712 19.049-10.306 22.01-.576-2.786-2.308-3.639-2.308-3.639s-.312 2.735-2.766 6.769c-1.608 2.643-9.204 8.806-10.429 14.23-.982 4.349 3.325 7.961 4.724 8.836 1.4.875 2.887 2.45 2.274 4.986-.612 2.537-5.162 2.274-8.399 2.187-3.237-.087-3.674 5.249-7.262 5.075l-.608 3.98-1.405.307s-14.698 29.289-15.949 39.255l-10.823 1.427-10.823-1.427c-1.251-9.966-15.949-39.255-15.949-39.255l-1.405-.307-.608-3.98c-3.587.175-4.024-5.162-7.262-5.075-3.238.087-7.787.35-8.399-2.187-.612-2.537.875-4.113 2.274-4.986 1.4-.875 5.707-4.488 4.724-8.836-1.225-5.425-8.821-11.587-10.429-14.23-2.454-4.033-2.766-6.769-2.766-6.769s-1.732.853-2.308 3.639c-2.593-2.963-8.601-10.831-10.305-22.01 0 0-.476-.161-1.28 1.06-3.352-9.117-3.445-26.52-3.445-26.52s-9.886 12.248-3.587 33.596c0 0-6.037-9.273-6.037-25.459 0 0-9.667 8.705 1.619 38.889 0 0-4.855-5.249-10.63-23.36 0 0-7.218 12.598 7.48 32.152 0 0-7.305-4.986-13.079-17.76 0 0-2.799 16.098 14.873 28.084 0 0-8.487-3.062-16.798-13.998 0 0-1.837 13.649 15.748 20.822 0 0-6.649-.35-16.535-8.661 0 0-1.75 12.074 21.172 18.285 0 0-9.362-.175-18.898-6.562 0 0-.263 11.898 19.335 14.261 0 0-6.474.962-13.736-1.662 0 0 .263 9.623 17.323 10.848 0 0-6.737.525-11.111-.525 0 0 .437 9.886 13.911 8.224 0 0-4.55 1.487-6.037 1.924 0 0 .263 8.071 14.304 5.184 0 0-2.494 1.553-5.906 2.078 0 0 2.887 6.737 14.611 3.762l-2.406 2.625s9.055 5.249 16.01-1.969l-2.494 4.462s5.906 2.231 9.58-3.543c0 0-1.006 8.661-13.255 10.237 0 0 .437 1.837.962 2.537 0 0-.788 1.487-7.874 2.712 0 0 1.487 2.274 3.062 2.975 0 0-3.062 2.625-4.724 3.149 0 0 2.625 1.312 4.287 1.575 0 0-3.674 3.587-8.224 3.674-4.55.087-12.685-.438-12.685-.438s-.087-4.374-2.187-8.137c-2.1-3.762-2.799-4.046-2.799-4.046s.459-3.018-.853-4.265c-1.312-1.247-2.034-1.837-2.034-1.837s.7-6.037-1.225-9.799c-1.924-3.762-8.749-11.986-9.099-18.11-.35-6.124-.087-8.399-.087-8.399l-2.1.525-1.4-2.887 2.362-.263-.962-4.374-3.238 1.225-.438-3.762-3.849 1.575 1.924 3.412-3.412.962 2.013 4.024 2.625-1.662.7 3.499s-1.575.35-2.45 1.75c0 0 4.329 2.873 5.599 6.3 2.013 5.425 1.4 17.673 4.287 21.347 2.887 3.674 5.162 6.211 5.162 6.211s-.809 2.494.109 3.871c.919 1.378 2.231 1.772 2.231 1.772s-.788 5.578 1.247 9.252c2.034 3.674 3.215 4.594 3.215 4.594s-7.415 4.527-2.165 9.777c0 0-.7 4.768 4.287 5.906 0 0 .263 3.762 4.55 3.325 0 0 2.1-.612 2.625.438.525 1.049 0 7.086 0 7.086s1.924-.175 3.149-1.049l3.849 1.924.087-4.287 4.812-1.924s-2.1.35-6.387-3.674c0 0 .7-.438 1.225-3.85 0 0 3.412-2.712 4.113-4.899.7-2.187 5.512-6.999 11.111-8.574l.766 3.412s8.006-7.086 11.351-7.48l2.756 3.63s10.324-15.31 14.873-18.023c-.35 1.225 2.187 1.4-3.456 7.699-5.643 6.3-2.144 11.286-2.144 11.286-3.499 2.887-2.799 5.512-3.238 8.487-.437 2.975-12.074 10.674-12.074 10.674 3.674 4.637 7.787 3.587 7.787 3.587-2.275 1.487-1.575 6.474-1.575 6.474 3.325.875 6.649-.612 6.649-.612-1.138 3.149.612 5.336.612 5.336 2.1-1.312 6.912-2.1 6.912-2.1-.612 5.425 2.887 8.311 2.887 8.311l3.062-3.325c.525 6.124 5.95 9.624 5.95 9.624s5.425-3.5 5.95-9.624l3.062 3.325s3.5-2.887 2.887-8.311c0 0 4.812.788 6.912 2.1 0 0 1.75-2.187.612-5.336 0 0 3.325 1.487 6.649.612 0 0 .7-4.987-1.575-6.474 0 0 4.113 1.049 7.787-3.587 0 0-11.636-7.699-12.074-10.674-.437-2.975.263-5.599-3.238-8.487 0 0 3.499-4.987-2.144-11.286-5.643-6.3-3.106-6.475-3.456-7.699 4.55 2.712 14.873 18.023 14.873 18.023l2.756-3.63c3.347.394 11.351 7.48 11.351 7.48l.766-3.412.145-.158c4.174 2.248 11.068 5.288 13.854 7.418 2.975 2.275 5.425 2.45 12.598 0 7.175-2.45 20.522-6.217 18.548-10.674-.108-.243-.23-.406-.348-.596.313-1.151.442-3.16-1.665-4.916 0 0 .025.489.008 1.117l-6.839-2.549c-.226-.605-.564-1.198-1.217-1.717 0 0 .01.525-.084 1.233l-1.754-.654 3.501-9.849c-.265-.148-.563-.231-.838-.361.071-.892.239-2.125.5-3.414.855.299 1.636.668 2.202 1.131l.988-3.606s-1.063-.07-2.464-.332c.354-1.088.774-2.065 1.273-2.696l-4.637-1.4s.12 1.405.038 3.158c-.885-.359-1.729-.815-2.411-1.399l-1.087 4.002c.373.022 1.639.131 3.106.393-.265 1.175-.732 2.217-1.401 2.999-.165-.022-.318-.082-.486-.098l-3.4 9.565-9.22-3.436c-.395.622-.7 1.3-.985 1.986.049-.1.093-.256.145-.319 0 0-3.567 1.866-3.518 4.607-.657.249-1.233.742-1.558 1.597-1.049 2.756 5.38 8.924 3.806 9.711-1.546.772-9.623-5.88-10.918-6.997 1.665-.323 4.094-1.533 4.094-1.533-1.663-.525-4.724-3.149-4.724-3.149 1.575-.7 3.062-2.975 3.062-2.975-7.086-1.225-7.874-2.712-7.874-2.712.525-.7.962-2.537.962-2.537-12.248-1.575-13.255-10.237-13.255-10.237 3.674 5.774 9.58 3.543 9.58 3.543l-2.494-4.462c6.955 7.218 16.01 1.969 16.01 1.969l-2.406-2.625c11.723 2.975 14.611-3.762 14.611-3.762-3.412-.525-5.906-2.078-5.906-2.078 14.042 2.887 14.304-5.184 14.304-5.184-1.487-.438-6.037-1.924-6.037-1.924 13.473 1.663 13.911-8.224 13.911-8.224-4.374 1.049-11.111.525-11.111.525 17.06-1.225 17.323-10.848 17.323-10.848-7.262 2.625-13.736 1.662-13.736 1.662 19.597-2.362 19.335-14.261 19.335-14.261-9.536 6.387-18.898 6.562-18.898 6.562 22.932-6.213 21.182-18.286 21.182-18.286zm-19.882 86.548c-.935-1.518 1.293-2.876 2.296-4.321l3.878 1.444c-1.317 1.571-5.21 4.442-6.174 2.877zm-2.591-6.142c-1.258 1.949-2.133 4.135-6.005 4.239-4.855.131-5.643-4.2-6.692-6.562-.306-.689-.834-1.209-1.44-1.566-.002-.424.02-.889.057-1.359l14.08 5.248z"/>
      <path d="M255.635 134.212s-6.233-5.315-8.071-8.202c0 0 2.1-.853 3.149-2.165 0 0-5.643-3.018-8.661-6.102 0 0 1.969-.328 3.478-1.575 0 0-5.068-.916-7.638-5.066 5.859-2.001 3.898-7.467 3.898-7.467-1.181 1.575-6.037 3.543-11.286 1.312s-11.023-.657-11.023 2.231c0 0-11.811-3.412-8.858 8.006 0 0 1.902-4.265 6.102-2.69 4.2 1.575 8.465 6.955 8.465 6.955s-2.625 1.443-7.48-.131c0 0 1.969 7.545 10.827 3.74 0 0 3.499 1.881 3.674 7.393 0 0 1.487-.788 2.45-2.537 0 0 1.4 5.336-.437 9.711 0 0 2.45-.437 3.238-1.225 0 0 .7 4.637-2.362 8.399 0 0 13.451 6.409 21.982-.612 0 0-3.215-3.674-4.265-7.086-.004-.002 1.767-.724 2.818-2.889z"/>
      <path d="M294.677 107.178c0-2.887-5.774-4.462-11.023-2.231s-10.105.263-11.286-1.312c0 0-1.962 5.466 3.898 7.467-2.57 4.15-7.638 5.066-7.638 5.066 1.51 1.247 3.478 1.575 3.478 1.575-3.018 3.084-8.661 6.102-8.661 6.102 1.049 1.312 3.149 2.165 3.149 2.165-1.837 2.887-8.071 8.202-8.071 8.202 1.049 2.165 2.822 2.887 2.822 2.887-1.049 3.412-4.265 7.086-4.265 7.086 8.53 7.021 21.982.612 21.982.612-3.062-3.762-2.362-8.399-2.362-8.399.788.788 3.238 1.225 3.238 1.225-1.837-4.374-.437-9.711-.437-9.711.962 1.75 2.45 2.537 2.45 2.537.175-5.512 3.674-7.393 3.674-7.393 8.858 3.806 10.827-3.74 10.827-3.74-4.855 1.575-7.48.131-7.48.131s4.265-5.38 8.465-6.955c4.2-1.575 6.102 2.69 6.102 2.69 2.948-11.416-8.862-8.004-8.862-8.004z"/>
      <path d="M289.329 176.884c-1.152-6.706-2.145-12.498.748-19.134l.54-1.239-11.457-13.156-1.354.451c-.117.04-12.092 3.955-19.769.115l-.958-.479-.958.479c-7.641 3.829-19.648-.075-19.772-.117l-1.354-.447-11.455 13.154.54 1.239c2.893 6.636 1.9 12.428.748 19.134-1.085 6.332-2.316 13.51-.15 22.263 2.351 9.502 10.268 12.879 17.25 15.863 5.383 2.297 10.466 4.467 13.34 9.022l1.81 2.87 1.81-2.87c2.874-4.555 7.957-6.724 13.34-9.022 6.984-2.983 14.899-6.36 17.25-15.863 2.167-8.754.935-15.932-.149-22.263zm-60.807-19.576l7.863-9.027c3.562.979 13.19 3.097 20.693-.088 7.502 3.186 17.13 1.066 20.693.088l7.863 9.027c-2.761 7.272-1.674 13.611-.526 20.3.859 5.012 1.714 10.175.996 16.121h-58.052c-.717-5.946.138-11.109.996-16.121 1.148-6.689 2.235-13.029-.526-20.3zm42.026 53.764c-4.866 2.078-9.873 4.214-13.47 8.269-3.597-4.055-8.604-6.191-13.47-8.269-6.828-2.915-12.719-5.463-14.662-12.618h56.262c-1.941 7.155-7.832 9.703-14.66 12.618z"/>
    </g>
    <path d="M228.522 157.308l7.863-9.027c3.562.979 13.19 3.097 20.693-.088 7.502 3.186 17.13 1.066 20.693.088l7.863 9.027c-2.761 7.272-1.674 13.611-.526 20.3.859 5.012 1.714 10.175.996 16.121h-58.052c-.717-5.946.138-11.109.996-16.121 1.148-6.689 2.235-13.029-.526-20.3z" fill="#41479B"/>
    <path d="M228.646 197.205c.067.307.11.602.188.914 1.839 7.431 7.834 9.99 14.776 12.953 4.866 2.078 9.873 4.214 13.47 8.269 3.597-4.055 8.604-6.191 13.47-8.269 6.942-2.964 12.937-5.523 14.776-12.953.077-.311.12-.607.188-.914h-56.868z" fill="#73AF00"/>
    <path d="M282.763 172.391c0-3.871-3.679-4.481-7.023-4.415-3.345.067-8.237-.544-8.361-3.144-.077-1.621 2.643-1.772 4.415-1.204 1.028.33 7.424 1.472 9.431-2.809 0 0-2.339.075-4.808-.479-1.902-.427-9.707.545-11.112 3.555-1.405 3.01 3.125 6.014 8.342 6.014 5.217 0 5.933 1.044 5.892 2.316-.054 1.672-4.191 2.145-6.569 2.123-3.743-1.359-12.477-.295-12.519-.46-.05-.202-2.015-3.575-2.015-3.575s3.576-.252 4.029-.907c.453-.654-2.713-3.169-2.713-3.169s2.663-1.062 2.764-1.817c.11-.831-2.162-2.798-2.162-2.798s.878-.865 1.538-2.342c.472-1.055-3.277-1.337-3.277-1.337.201-.802.124-1.581-.87-1.94-.768-.277-3.612.802-5.551.802s-2.676 1.405-2.676 1.405-3.411.402-3.88.802c-.468.402.134 3.01.134 3.01-1.739-.267-2.541-1.806-2.541-1.806-.87 3.946 3.211 4.348 3.211 4.348l.669 2.141 1.672.201c1.672.201.87 1.806-1.739 1.806s-3.716 3.112-3.716 3.112c-1.813.051-2.82-1.41-3.223-3.274-.444-2.051-.182-5.203.151-7.201.403-2.418-.806-3.123-.806-3.123l-.806 2.015c-.05-2.065-1.864-2.266-1.864-2.266l-.302 2.518c-.907-1.662-2.467-.907-2.467-.907s1.511 5.439 1.461 5.741c-.051.302-.554.554-1.259-.202-.705-.756-1.208-.252-1.208-.252.756 5.439 3.672 4.641 3.672 4.641s.13 1.704 1.011 5.163c.94 3.693 4.808 2.998 4.808 2.998 0 1.204.937 2.943 1.204 6.956.267 4.013-3.411 6.823-3.411 6.823-3.345-.067-3.01 3.211-3.01 3.211h9.23c0-8.535 3.669-9.998 3.669-9.998 5.439.252 10.677-2.015 10.677-2.015-.806 3.274.605 4.633.605 4.633 2.216-.302 1.108 4.079.453 4.079h-2.82c-.805 0-3.123 2.518-3.123 2.518h9.569s1.461-2.115 1.964-3.172c.503-1.058-1.108-2.518-1.208-3.626-.1-1.108 1.662-1.813 1.662-1.813 1.864 2.618 6.144 2.77 6.144 2.77l-.1-1.964s2.216.756 2.72 1.41c.503.654.403 3.677-2.266 4.029-2.669.352-2.871 2.266-2.871 2.266h7.303c1.209 0 2.165-2.266 2.165-3.123v-7.656c0-1.208-1.007-1.057-3.374-1.31-2.15-.228-1.944-2.581-2.83-5.312 3.108-.104 7.915-.784 7.915-3.99zm-.566-91.519c-.599-5.281-4.809-12.006-20.844-15.158a4.177 4.177 0 0 0-2.6-3.756v-2.943h2.625v-3.149h-2.625v-2.624h-3.149v2.625h-2.625v3.149h2.625v2.943a4.18 4.18 0 0 0-2.6 3.756c-16.035 3.153-20.245 9.877-20.844 15.158-.747 6.585 3.969 12.829 8.221 15.222v3.341h33.596v-3.341c4.251-2.393 8.966-8.638 8.22-15.223zm-17.588 10.165h-4.702V71.668c3.876 1.751 6.274 4.436 6.972 8.124.869 4.592-.967 9.274-2.27 11.245zm-17.132-11.248c.698-3.688 3.095-6.372 6.972-8.122v19.369h-4.703c-1.305-1.97-3.14-6.654-2.269-11.247zm-3.887-5.318a16.714 16.714 0 0 0-1.516 4.515c-.76 4.302.111 8.674 1.551 12.051h-1.103c-2.356-1.622-5.383-5.612-4.936-9.549.311-2.755 2.4-5.118 6.004-7.017zm28.245 16.566h-1.106c1.44-3.375 2.312-7.747 1.553-12.049a16.747 16.747 0 0 0-1.517-4.518c3.605 1.899 5.694 4.264 6.005 7.017.447 3.938-2.58 7.928-4.935 9.55z" fill="#E6B432"/>
  </g>
</svg>
