<?xml version="1.0" encoding="iso-8859-1"?>
<!-- Generator: Adobe Illustrator 19.0.0, SVG Export Plug-In . SVG Version: 6.00 Build 0)  -->
<svg version="1.1" id="Layer_1" xmlns="http://www.w3.org/2000/svg" xmlns:xlink="http://www.w3.org/1999/xlink" x="0px" y="0px"
	 viewBox="0 0 512 512" style="enable-background:new 0 0 512 512;" xml:space="preserve">
<path style="fill:#FF4B55;" d="M503.172,423.724H8.828c-4.875,0-8.828-3.953-8.828-8.828V97.103c0-4.875,3.953-8.828,8.828-8.828
	h494.345c4.875,0,8.828,3.953,8.828,8.828v317.793C512,419.772,508.047,423.724,503.172,423.724z"/>
<path style="fill:#73AF00;" d="M185.379,88.276H8.828C3.953,88.276,0,92.228,0,97.103v317.793c0,4.875,3.953,8.828,8.828,8.828
	h176.552V88.276z"/>
<circle style="fill:#FFE15A;" cx="185.446" cy="256" r="79.38"/>
<path style="fill:#FF4B55;" d="M211.932,229.517v35.31c0,14.603-11.88,26.483-26.483,26.483s-26.483-11.88-26.483-26.483v-35.31
	H211.932 M220.759,211.862h-70.621c-4.875,0-8.828,3.953-8.828,8.828v44.138c0,24.376,19.762,44.138,44.138,44.138
	s44.138-19.762,44.138-44.138V220.69C229.587,215.815,225.634,211.862,220.759,211.862L220.759,211.862z"/>
<path style="fill:#F5F5F5;" d="M211.932,229.517v35.31c0,14.603-11.88,26.483-26.483,26.483s-26.483-11.88-26.483-26.483v-35.31
	H211.932"/>
<g>
	<circle style="fill:#FFE15A;" cx="150.069" cy="220.69" r="4.414"/>
	<circle style="fill:#FFE15A;" cx="220.69" cy="220.69" r="4.414"/>
	<circle style="fill:#FFE15A;" cx="150.069" cy="256" r="4.414"/>
	<circle style="fill:#FFE15A;" cx="220.69" cy="256" r="4.414"/>
	<circle style="fill:#FFE15A;" cx="185.379" cy="220.69" r="4.414"/>
	<circle style="fill:#FFE15A;" cx="211.884" cy="288.552" r="4.414"/>
	<circle style="fill:#FFE15A;" cx="159.404" cy="288.552" r="4.414"/>
</g>
<g>
	<path style="fill:#41479B;" d="M191.149,253.762v7.602c0,3.144-2.558,5.702-5.702,5.702s-5.702-2.558-5.702-5.702v-7.602
		L191.149,253.762"/>
	<path style="fill:#41479B;" d="M191.149,235.74v7.602c0,3.144-2.558,5.702-5.702,5.702s-5.702-2.558-5.702-5.702v-7.602H191.149"/>
	<path style="fill:#41479B;" d="M191.149,271.969v7.602c0,3.144-2.558,5.702-5.702,5.702s-5.702-2.558-5.702-5.702v-7.602
		L191.149,271.969"/>
	<path style="fill:#41479B;" d="M206.506,253.762v7.602c0,3.144-2.558,5.702-5.702,5.702s-5.702-2.558-5.702-5.702v-7.602
		L206.506,253.762"/>
	<path style="fill:#41479B;" d="M175.794,253.762v7.602c0,3.144-2.558,5.702-5.702,5.702s-5.702-2.558-5.702-5.702v-7.602
		L175.794,253.762"/>
</g>
<g>
</g>
<g>
</g>
<g>
</g>
<g>
</g>
<g>
</g>
<g>
</g>
<g>
</g>
<g>
</g>
<g>
</g>
<g>
</g>
<g>
</g>
<g>
</g>
<g>
</g>
<g>
</g>
<g>
</g>
</svg>
