<?xml version="1.0" encoding="iso-8859-1"?>
<!-- Generator: Adobe Illustrator 19.0.0, SVG Export Plug-In . SVG Version: 6.00 Build 0)  -->
<svg version="1.1" id="Layer_1" xmlns="http://www.w3.org/2000/svg" xmlns:xlink="http://www.w3.org/1999/xlink" x="0px" y="0px"
	 viewBox="0 0 512 512" style="enable-background:new 0 0 512 512;" xml:space="preserve">
<path style="fill:#73AF00;" d="M503.172,423.724H8.828c-4.875,0-8.828-3.953-8.828-8.828V97.103c0-4.875,3.953-8.828,8.828-8.828
	h494.345c4.875,0,8.828,3.953,8.828,8.828v317.793C512,419.772,508.047,423.724,503.172,423.724z"/>
<g>
	<rect y="150.069" style="fill:#F5F5F5;" width="512" height="35.31"/>
	<rect y="326.621" style="fill:#F5F5F5;" width="512" height="35.31"/>
</g>
<rect y="185.379" style="fill:#C8414B;" width="512" height="141.241"/>
<path style="fill:#FFE15A;" d="M253.801,201.614l-12.854,38.541l-40.627,0.314c-2.228,0.018-3.15,2.86-1.359,4.183l32.683,24.135
	l-12.255,38.737c-0.672,2.124,1.746,3.881,3.559,2.585L256,286.484l33.053,23.625c1.812,1.295,4.23-0.461,3.559-2.585
	l-12.255-38.737l32.683-24.135c1.792-1.323,0.868-4.166-1.359-4.183l-40.627-0.314l-12.854-38.541
	C257.494,199.501,254.506,199.501,253.801,201.614z"/>
<g>
</g>
<g>
</g>
<g>
</g>
<g>
</g>
<g>
</g>
<g>
</g>
<g>
</g>
<g>
</g>
<g>
</g>
<g>
</g>
<g>
</g>
<g>
</g>
<g>
</g>
<g>
</g>
<g>
</g>
</svg>
