<?xml version="1.0" encoding="iso-8859-1"?>
<!-- Generator: Adobe Illustrator 19.0.0, SVG Export Plug-In . SVG Version: 6.00 Build 0)  -->
<svg version="1.1" id="Layer_1" xmlns="http://www.w3.org/2000/svg" xmlns:xlink="http://www.w3.org/1999/xlink" x="0px" y="0px"
	 viewBox="0 0 512 512" style="enable-background:new 0 0 512 512;" xml:space="preserve">
<path style="fill:#FF4B55;" d="M512,200.092H0V97.103c0-4.875,3.953-8.828,8.828-8.828h494.345c4.875,0,8.828,3.953,8.828,8.828
	V200.092z"/>
<path style="fill:#464655;" d="M503.172,423.724H8.828c-4.875,0-8.828-3.953-8.828-8.828V311.908h512v102.988
	C512,419.772,508.047,423.724,503.172,423.724z"/>
<rect y="200.088" style="fill:#F5F5F5;" width="512" height="111.812"/>
<g>
	<path style="fill:#73AF00;" d="M150.03,223.314l7.36,22.068l23.262,0.18c3.011,0.023,4.26,3.866,1.837,5.656l-18.713,13.82
		l7.017,22.179c0.908,2.871-2.361,5.247-4.811,3.496l-18.925-13.527l-18.925,13.527c-2.451,1.751-5.719-0.625-4.811-3.496
		l7.017-22.179l-18.713-13.82c-2.423-1.789-1.174-5.633,1.837-5.656l23.262-0.18l7.36-22.068
		C145.036,220.457,149.077,220.457,150.03,223.314z"/>
	<path style="fill:#73AF00;" d="M367.917,223.314l7.36,22.068l23.262,0.18c3.011,0.023,4.26,3.866,1.837,5.656l-18.713,13.82
		l7.017,22.179c0.908,2.871-2.361,5.247-4.811,3.496l-18.925-13.527l-18.925,13.527c-2.451,1.751-5.72-0.625-4.811-3.496
		l7.017-22.179l-18.713-13.82c-2.423-1.789-1.174-5.633,1.837-5.656l23.262-0.18l7.36-22.068
		C362.923,220.457,366.964,220.457,367.917,223.314z"/>
</g>
<g>
</g>
<g>
</g>
<g>
</g>
<g>
</g>
<g>
</g>
<g>
</g>
<g>
</g>
<g>
</g>
<g>
</g>
<g>
</g>
<g>
</g>
<g>
</g>
<g>
</g>
<g>
</g>
<g>
</g>
</svg>
