<svg width="512" height="336" viewBox="0 0 512 336" xmlns="http://www.w3.org/2000/svg">
  <g fill="none">
    <path d="M0 223.908h512v102.988a8.829 8.829 0 0 1-8.828 8.828H8.828A8.829 8.829 0 0 1 0 326.896V223.908z" fill="#73AF00"/>
    <path d="M8.828.276h494.345a8.829 8.829 0 0 1 8.828 8.828v102.988H0V9.103A8.828 8.828 0 0 1 8.828.276z" fill="#FF4B55"/>
    <path fill="#F5F5F5" d="M0 112.088h512V223.9H0z"/>
    <g fill="#FFCD5A">
      <path d="M227.069 199.535c3.67-1.849 5.817-4.897 6.966-7.097 6.575 4.296 12.209 2.837 15.145 1.463 2.865-1.342 5.224-3.531 6.798-5.762 1.575 2.231 3.934 4.42 6.798 5.762 2.935 1.374 8.569 2.83 15.145-1.463 1.148 2.2 3.295 5.247 6.966 7.097 2.116 1.066 4.448 1.601 6.979 1.601 2.6 0 5.408-.563 8.408-1.687l-1.457-3.886c-4.771 1.789-8.819 1.886-12.025.286-4.488-2.237-5.986-7.17-5.998-7.211l-.875-3.063-2.447 2.038c-4.318 3.596-8.789 4.478-12.936 2.53-4.211-1.972-6.484-5.963-6.484-7.16v-17.907c.898-1.975 2.879-3.358 5.186-3.358.793 0 1.577.172 2.329.511l2.568 1.159-.388-2.792c-.814-5.866-5.875-10.289-11.77-10.289-5.896 0-10.956 4.423-11.77 10.289l-.388 2.792 2.568-1.159a5.635 5.635 0 0 1 2.329-.511c2.307 0 4.289 1.383 5.186 3.358v17.907c0 1.197-2.272 5.188-6.484 7.16-4.145 1.947-8.618 1.068-12.936-2.53l-2.429-2.012-.893 3.029c-.014.049-1.513 4.982-6.001 7.219-3.209 1.601-7.255 1.505-12.025-.286l-1.457 3.886c2.999 1.124 5.809 1.687 8.408 1.687 2.535-.001 4.867-.535 6.984-1.601zm21.647-40.93c-.248 0-.495.01-.742.032 1.389-3.096 4.495-5.219 8.003-5.219 3.507 0 6.614 2.123 8.003 5.219-3.226-.284-6.278 1.292-8.003 3.789a8.81 8.81 0 0 0-7.261-3.821zm-28.665 54.122l1.315 3.935c8.821-2.944 21.438-4.633 34.612-4.633 13.174 0 25.791 1.689 34.612 4.633l1.315-3.935c-9.228-3.082-22.324-4.849-35.927-4.849-13.603.001-26.699 1.767-35.927 4.849z"/>
      <path d="M255.978 203.73c2.163.007 4.068-1.279 5.359-3.01-.858-.53-2.004-.84-3.302-1.001.001-.047.017-.09.017-.138 0-1.779-.84-3.315-2.074-4.149-1.235.834-2.074 2.37-2.074 4.149 0 .047.015.09.017.138-1.297.161-2.443.47-3.302 1.001 1.289 1.731 3.195 3.015 5.359 3.01zm-19.043 1.96c2.12-.426 3.731-2.067 4.649-4.021-.947-.348-2.132-.422-3.434-.32-.009-.046-.002-.092-.012-.139-.355-1.742-1.485-3.08-2.862-3.65-1.043 1.065-1.559 2.738-1.203 4.48.01.047.033.086.043.132-1.238.417-2.3.949-3.034 1.641 1.611 1.438 3.734 2.316 5.853 1.877zm39.745-8.131c-1.377.57-2.507 1.908-2.862 3.65-.01.047-.003.092-.012.139-1.302-.102-2.487-.028-3.434.32.918 1.955 2.529 3.595 4.649 4.021 2.119.439 4.242-.439 5.854-1.878-.735-.691-1.796-1.224-3.034-1.641.011-.046.034-.085.043-.132.355-1.741-.162-3.414-1.204-4.479zm-21.256-76.409l-1.398 4.191-4.417.034c-.572.004-.809.734-.349 1.074l3.553 2.624-1.332 4.212c-.172.545.448.996.914.664l3.594-2.569 3.594 2.569a.595.595 0 0 0 .914-.664l-1.333-4.212 3.553-2.624c.46-.34.223-1.069-.349-1.074l-4.417-.034-1.398-4.191a.595.595 0 0 0-1.129 0zm-25.286 6.915l-1.398 4.191-4.417.034c-.572.004-.809.734-.349 1.074l3.553 2.624-1.333 4.212c-.172.545.448.996.914.664l3.594-2.569 3.594 2.569a.595.595 0 0 0 .914-.664l-1.333-4.212 3.553-2.624c.46-.34.223-1.069-.349-1.074l-4.417-.034-1.398-4.191c-.18-.543-.947-.543-1.128 0zm-18.585 18.672l-1.398 4.191-4.417.034c-.572.004-.809.734-.349 1.074l3.553 2.624-1.332 4.212c-.172.545.448.996.914.664l3.594-2.569 3.594 2.569a.595.595 0 0 0 .914-.664l-1.332-4.212 3.553-2.624c.46-.34.223-1.069-.349-1.074l-4.417-.034-1.398-4.191c-.182-.542-.949-.542-1.13 0zm-6.829 25.242l-1.398 4.191-4.417.034c-.572.004-.809.734-.349 1.074l3.553 2.624-1.333 4.212c-.172.545.448.996.914.664l3.594-2.569 3.594 2.569a.595.595 0 0 0 .914-.664l-1.333-4.212 3.553-2.624c.46-.34.223-1.069-.349-1.074l-4.417-.034-1.398-4.191c-.18-.543-.947-.543-1.128 0zm77.138-43.914l1.398 4.191 4.417.034c.572.004.809.734.349 1.074l-3.553 2.624 1.333 4.212c.172.545-.448.996-.914.664l-3.594-2.569-3.594 2.569a.595.595 0 0 1-.914-.664l1.333-4.212-3.553-2.624c-.46-.34-.223-1.069.349-1.074l4.417-.034 1.398-4.191c.18-.543.947-.543 1.128 0zm18.585 18.672l1.398 4.191 4.417.034c.572.004.809.734.349 1.074l-3.553 2.624 1.333 4.212c.172.545-.448.996-.914.664l-3.594-2.569-3.594 2.569a.595.595 0 0 1-.914-.664l1.333-4.212-3.553-2.624c-.46-.34-.223-1.069.349-1.074l4.417-.034 1.398-4.191c.18-.542.947-.542 1.128 0zm6.829 25.242l1.398 4.191 4.417.034c.572.004.809.734.349 1.074l-3.553 2.624 1.332 4.212c.172.545-.448.996-.914.664l-3.594-2.569-3.594 2.569a.595.595 0 0 1-.914-.664l1.332-4.212-3.553-2.624c-.46-.34-.223-1.069.349-1.074l4.417-.034 1.398-4.191c.182-.543.949-.543 1.13 0z"/>
    </g>
  </g>
</svg>
