<svg width="512" height="336" viewBox="0 0 512 336" fill="none" xmlns="http://www.w3.org/2000/svg">
<path d="M503.172 0.276001H8.828C3.953 0.276001 0 4.228 0 9.103V326.896C0 331.771 3.953 335.724 8.828 335.724H503.173C508.048 335.724 512.001 331.771 512.001 326.896V9.103C512 4.228 508.047 0.276001 503.172 0.276001Z" fill="#FF4B55"/>
<path d="M3.495 333.751L287.363 173.483C291.631 171.073 291.631 164.927 287.363 162.518L3.495 2.24899C1.42 3.86399 0 6.27099 0 9.10299V326.896C0 329.729 1.421 332.136 3.495 333.751Z" fill="#FFE15A"/>
<path d="M2.741 333.244L195.673 174.073C199.49 170.924 199.49 165.077 195.673 161.927L2.741 2.75598C1.065 4.36398 0 6.59798 0 9.10298V326.896C0 329.402 1.065 331.637 2.741 333.244Z" fill="#464655"/>
<path d="M55.132 126.545L55.973 158.317L26.184 169.398C23.327 170.461 23.467 174.548 26.39 175.413L56.867 184.431L58.201 216.186C58.329 219.232 62.259 220.361 63.985 217.849L81.98 191.65L112.593 200.194C115.528 201.014 117.818 197.624 115.962 195.207L96.605 169.997L114.191 143.523C115.877 140.984 113.362 137.76 110.489 138.778L80.533 149.396L60.789 124.49C58.894 122.101 55.051 123.498 55.132 126.545Z" fill="#F5F5F5"/>
</svg>
