<?xml version="1.0" encoding="iso-8859-1"?>
<!-- Generator: Adobe Illustrator 19.0.0, SVG Export Plug-In . SVG Version: 6.00 Build 0)  -->
<svg version="1.1" id="Layer_1" xmlns="http://www.w3.org/2000/svg" xmlns:xlink="http://www.w3.org/1999/xlink" x="0px" y="0px"
	 viewBox="0 0 512 512" style="enable-background:new 0 0 512 512;" xml:space="preserve">
<path style="fill:#73AF00;" d="M503.172,423.724H8.828c-4.875,0-8.828-3.953-8.828-8.828V97.104c0-4.875,3.953-8.828,8.828-8.828
	h494.345c4.875,0,8.828,3.953,8.828,8.828v317.792C512,419.772,508.047,423.724,503.172,423.724z"/>
<rect x="70.621" y="88.276" style="fill:#FF4B55;" width="88.276" height="335.448"/>
<polygon style="fill:#F5F5F5;" points="150.069,126.529 132.414,141.242 97.103,141.242 79.448,126.529 79.448,111.816 
	97.103,97.104 132.414,97.104 150.069,111.816 "/>
<g>
	<polygon style="fill:#73AF00;" points="150.069,250.115 132.414,264.828 97.103,264.828 79.448,250.115 79.448,235.403 
		97.103,220.69 132.414,220.69 150.069,235.403 	"/>
	<polygon style="fill:#73AF00;" points="150.069,188.322 132.414,203.035 97.103,203.035 79.448,188.322 79.448,173.61 
		97.103,158.897 132.414,158.897 150.069,173.61 	"/>
	<polygon style="fill:#73AF00;" points="150.069,311.908 132.414,326.621 97.103,326.621 79.448,311.908 79.448,297.196 
		97.103,282.483 132.414,282.483 150.069,297.196 	"/>
</g>
<g>
	<polygon style="fill:#FFB400;" points="70.621,132.414 88.276,150.069 70.621,167.724 	"/>
	<polygon style="fill:#FFB400;" points="158.896,167.724 141.241,150.069 158.896,132.414 	"/>
	<polygon style="fill:#FFB400;" points="70.621,194.207 88.276,211.862 70.621,229.517 	"/>
	<polygon style="fill:#FFB400;" points="158.896,229.517 141.241,211.862 158.896,194.207 	"/>
	<polygon style="fill:#FFB400;" points="70.621,256 88.276,273.655 70.621,291.31 	"/>
	<polygon style="fill:#FFB400;" points="158.896,291.31 141.241,273.655 158.896,256 	"/>
	<polygon style="fill:#FFB400;" points="70.621,317.793 88.276,335.448 70.621,353.103 	"/>
	<polygon style="fill:#FFB400;" points="158.896,353.103 141.241,335.448 158.896,317.793 	"/>
	<polygon style="fill:#FFB400;" points="70.621,88.276 88.276,88.276 70.621,105.931 	"/>
	<polygon style="fill:#FFB400;" points="158.896,105.931 141.241,88.276 158.896,88.276 	"/>
	<rect x="110.345" y="158.897" style="fill:#FFB400;" width="8.828" height="44.138"/>
</g>
<rect x="97.103" y="176.552" style="fill:#FF4B55;" width="35.31" height="8.828"/>
<g>
	<polygon style="fill:#FFB400;" points="141.241,166.253 132.414,158.897 132.414,203.035 141.241,195.678 	"/>
	<polygon style="fill:#FFB400;" points="88.276,195.678 97.103,203.035 97.103,158.898 88.276,166.253 	"/>
	<polygon style="fill:#FFB400;" points="114.758,97.104 97.104,97.104 79.448,111.816 79.448,119.173 114.758,119.173 	"/>
	<polygon style="fill:#FFB400;" points="114.758,141.242 132.414,141.242 150.069,126.529 150.069,119.173 114.758,119.173 	"/>
</g>
<polygon style="fill:#FF4B55;" points="114.758,132.414 97.103,119.225 114.758,105.931 132.414,119.225 "/>
<g>
	<polygon style="fill:#73AF00;" points="114.758,132.414 132.414,119.225 132.345,119.173 114.758,119.173 	"/>
	<polygon style="fill:#73AF00;" points="114.758,119.173 114.758,105.931 97.173,119.173 	"/>
</g>
<rect x="97.103" y="229.517" style="fill:#FF4B55;" width="35.31" height="26.483"/>
<rect x="132.414" y="238.345" style="fill:#FFB400;" width="8.828" height="8.828"/>
<rect x="110.345" y="238.345" style="fill:#F5F5F5;" width="8.828" height="8.828"/>
<rect x="110.345" y="291.31" style="fill:#FF4B55;" width="8.828" height="8.828"/>
<g>
	<rect x="123.586" y="300.138" style="fill:#FFB400;" width="8.828" height="8.828"/>
	<rect x="97.103" y="300.138" style="fill:#FFB400;" width="8.828" height="8.828"/>
</g>
<rect x="110.345" y="308.965" style="fill:#FF4B55;" width="8.828" height="8.828"/>
<rect x="88.276" y="238.345" style="fill:#FFB400;" width="8.828" height="8.828"/>
<polygon style="fill:#F5F5F5;" points="150.069,373.701 132.414,388.414 97.103,388.414 79.448,373.701 79.448,358.989 
	97.103,344.276 132.414,344.276 150.069,358.989 "/>
<g>
	<polygon style="fill:#FFB400;" points="114.758,344.276 97.104,344.276 79.448,358.988 79.448,366.345 114.758,366.345 	"/>
	<polygon style="fill:#FFB400;" points="114.758,388.414 132.414,388.414 150.069,373.701 150.069,366.345 114.758,366.345 	"/>
</g>
<polygon style="fill:#FF4B55;" points="132.414,370.758 114.758,379.586 97.103,370.758 97.103,361.931 114.758,353.103 
	132.414,361.931 "/>
<g>
	<path style="fill:#F5F5F5;" d="M280.01,136.343c-0.94-0.462-1.791,0.761-1.028,1.48c9.99,9.427,16.303,22.666,16.303,37.433
		c0,29.007-23.316,52.279-51.986,52.279c-5.292,0-10.389-0.825-15.197-2.328c-0.996-0.311-1.641,1.025-0.783,1.621
		c8.382,5.827,18.485,9.31,29.514,9.31c29.049,0,52.787-23.275,52.787-52.703C309.619,162.753,297.48,144.932,280.01,136.343z"/>
	<path style="fill:#F5F5F5;" d="M208.173,170.403l-2.159,6.109l5.08,4.021c0.658,0.521,0.275,1.579-0.564,1.557l-6.477-0.167
		l-2.254,6.074c-0.292,0.787-1.417,0.749-1.655-0.055l-1.843-6.211l-6.474-0.267c-0.839-0.034-1.15-1.116-0.459-1.591l5.338-3.672
		l-1.747-6.24c-0.226-0.808,0.706-1.439,1.372-0.928l5.142,3.942l5.395-3.59C207.564,168.92,208.452,169.612,208.173,170.403z"/>
	<path style="fill:#F5F5F5;" d="M234.407,183.653l-2.159,6.109l5.08,4.021c0.658,0.521,0.275,1.579-0.564,1.557l-6.477-0.167
		l-2.254,6.074c-0.292,0.787-1.417,0.749-1.655-0.055l-1.843-6.211l-6.474-0.267c-0.839-0.034-1.15-1.116-0.459-1.591l5.338-3.672
		l-1.747-6.24c-0.226-0.808,0.706-1.439,1.372-0.928l5.142,3.942l5.395-3.59C233.799,182.171,234.686,182.863,234.407,183.653z"/>
	<path style="fill:#F5F5F5;" d="M234.142,156.358l-2.159,6.109l5.08,4.021c0.658,0.521,0.275,1.579-0.564,1.557l-6.477-0.167
		l-2.254,6.074c-0.292,0.787-1.417,0.749-1.655-0.055l-1.843-6.211l-6.474-0.267c-0.839-0.034-1.15-1.116-0.459-1.591l5.338-3.672
		l-1.747-6.24c-0.226-0.808,0.706-1.439,1.372-0.928l5.142,3.942l5.395-3.59C233.534,154.876,234.422,155.568,234.142,156.358z"/>
	<path style="fill:#F5F5F5;" d="M235.036,130.013l-2.159,6.109l5.08,4.021c0.658,0.521,0.275,1.579-0.564,1.557l-6.477-0.167
		l-2.254,6.074c-0.292,0.787-1.417,0.749-1.655-0.055l-1.843-6.211l-6.474-0.267c-0.839-0.034-1.15-1.116-0.459-1.591l5.338-3.672
		l-1.747-6.24c-0.226-0.808,0.706-1.439,1.372-0.928l5.142,3.942l5.395-3.59C234.427,128.53,235.315,129.222,235.036,130.013z"/>
	<path style="fill:#F5F5F5;" d="M260.741,143.263l-2.159,6.109l5.08,4.021c0.658,0.521,0.275,1.579-0.564,1.557l-6.477-0.167
		l-2.254,6.074c-0.292,0.787-1.417,0.749-1.655-0.055l-1.843-6.211l-6.474-0.267c-0.839-0.034-1.15-1.116-0.459-1.591l5.338-3.672
		l-1.747-6.24c-0.226-0.808,0.706-1.439,1.372-0.928l5.142,3.942l5.395-3.59C260.132,141.78,261.02,142.472,260.741,143.263z"/>
</g>
<g>
</g>
<g>
</g>
<g>
</g>
<g>
</g>
<g>
</g>
<g>
</g>
<g>
</g>
<g>
</g>
<g>
</g>
<g>
</g>
<g>
</g>
<g>
</g>
<g>
</g>
<g>
</g>
<g>
</g>
</svg>
