<svg width="512" height="336" viewBox="0 0 512 336" xmlns="http://www.w3.org/2000/svg">
  <g fill="none">
    <path d="M503.172 335.724H8.828A8.829 8.829 0 0 1 0 326.896V9.104A8.829 8.829 0 0 1 8.828.276h494.345a8.829 8.829 0 0 1 8.828 8.828v317.792a8.83 8.83 0 0 1-8.829 8.828z" fill="#3CC8FF"/>
    <path d="M247.172 168H8.828A8.829 8.829 0 0 1 0 159.172V9.104A8.829 8.829 0 0 1 8.828.276h238.344A8.829 8.829 0 0 1 256 9.104v150.069a8.827 8.827 0 0 1-8.828 8.827z" fill="#41479B"/>
    <path d="M247.172.276h-15.333l-81.77 53.573V.276h-44.138v53.573L24.161.276H8.828A8.829 8.829 0 0 0 0 9.104v7.002l70.155 45.963H0v44.138h70.155L0 152.171v7.001A8.829 8.829 0 0 0 8.828 168h15.333l81.77-53.573V168h44.138v-53.573L231.838 168h15.333a8.829 8.829 0 0 0 8.828-8.828v-7.002l-70.154-45.963h70.154V62.069h-70.155l70.155-45.963V9.104a8.827 8.827 0 0 0-8.827-8.828z" fill="#F5F5F5"/>
    <g fill="#FF4B55">
      <path d="M255.999 70.897H141.241V.276h-26.483v70.621H0v26.482h114.758V168h26.483V97.379h114.758z"/>
      <path d="M97.103 62.069L4.207 1.768C1.735 3.333 0 5.961 0 9.104v.458l80.889 52.507h16.214zm69.18 0l88.374-57.366c-1.536-2.599-4.246-4.427-7.485-4.427h-1.909l-95.194 61.793h16.214zm-76.809 44.138L1.269 163.463C2.79 166.125 5.542 168 8.828 168h1.665l95.195-61.793H89.474zm166.385 53.66l-82.666-53.659H156.98l93.873 60.934c2.813-1.305 4.741-4.04 5.006-7.275z"/>
    </g>
    <path d="M284.332 274.782l4.297 12.884 13.581.105c1.758.013 2.487 2.258 1.073 3.302l-10.925 8.067 4.097 12.949c.531 1.676-1.378 3.063-2.809 2.04l-11.049-7.897-11.049 7.897c-1.43 1.023-3.339-.364-2.809-2.04l4.097-12.949-10.925-8.067c-1.415-1.045-.685-3.288 1.073-3.302l13.581-.105 4.297-12.884c.553-1.668 2.913-1.668 3.47 0zm124.998-97.21l4.297 12.884 13.581.105c1.758.013 2.487 2.258 1.073 3.302l-10.925 8.067 4.097 12.949c.531 1.676-1.378 3.063-2.809 2.04l-11.049-7.897-11.049 7.897c-1.43 1.023-3.339-.364-2.809-2.04l4.097-12.949-10.925-8.067c-1.415-1.045-.685-3.288 1.073-3.302l13.581-.105 4.297-12.884c.555-1.668 2.914-1.668 3.47 0zm58.94-36.125l4.297 12.884 13.581.105c1.758.013 2.487 2.258 1.073 3.302l-10.925 8.067 4.097 12.949c.531 1.676-1.378 3.063-2.809 2.04l-11.049-7.897-11.049 7.897c-1.43 1.023-3.339-.364-2.809-2.04l4.097-12.949-10.925-8.067c-1.415-1.045-.685-3.288 1.073-3.302l13.581-.105 4.297-12.884c.554-1.669 2.914-1.669 3.47 0zM454.209 17.498l4.297 12.884 13.581.105c1.758.013 2.487 2.258 1.073 3.302l-10.925 8.067 4.097 12.949c.531 1.676-1.378 3.063-2.809 2.04l-11.049-7.897-11.049 7.897c-1.43 1.023-3.339-.364-2.809-2.04l4.097-12.949-10.925-8.067c-1.415-1.045-.685-3.288 1.073-3.302l13.581-.105 4.297-12.884c.554-1.668 2.913-1.668 3.47 0zM336.584 306.979l-4.297-12.884-13.581-.105c-1.758-.013-2.487-2.258-1.073-3.302l10.925-8.067-4.097-12.949c-.531-1.676 1.378-3.063 2.809-2.04l11.049 7.897 11.049-7.897c1.43-1.023 3.339.364 2.809 2.04l-4.097 12.949 10.925 8.067c1.415 1.045.685 3.288-1.073 3.302l-13.581.105-4.297 12.884c-.555 1.668-2.914 1.668-3.47 0zm40.621-36.456l-4.297-12.884-13.581-.105c-1.758-.013-2.487-2.258-1.073-3.302l10.925-8.067-4.097-12.949c-.531-1.676 1.378-3.063 2.809-2.04l11.049 7.897 11.049-7.897c1.43-1.023 3.339.364 2.809 2.04l-4.097 12.949 10.925 8.067c1.415 1.045.685 3.288-1.073 3.302l-13.581.105-4.297 12.884c-.554 1.669-2.914 1.669-3.47 0zm36.555-158.998l-4.297-12.884-13.581-.105c-1.758-.013-2.487-2.258-1.073-3.302l10.925-8.067-4.097-12.949c-.531-1.676 1.378-3.063 2.809-2.04l11.049 7.897 11.049-7.897c1.43-1.023 3.339.364 2.809 2.04l-4.097 12.949 10.925 8.067c1.415 1.045.685 3.288-1.073 3.302l-13.581.105-4.297 12.884c-.553 1.667-2.913 1.667-3.47 0zm-42.183 13.54l-4.297-12.884-13.581-.105c-1.758-.013-2.487-2.258-1.073-3.302l10.925-8.067-4.097-12.949c-.531-1.676 1.378-3.063 2.809-2.04l11.049 7.897 11.049-7.897c1.43-1.023 3.339.364 2.809 2.04l-4.097 12.949 10.925 8.067c1.415 1.045.685 3.288-1.073 3.302l-13.581.105-4.297 12.884c-.555 1.668-2.914 1.668-3.47 0zm-27.008 105.184l-4.297-12.884-13.581-.105c-1.758-.013-2.487-2.258-1.073-3.302l10.925-8.067-4.097-12.949c-.531-1.676 1.378-3.063 2.809-2.04l11.049 7.897 11.049-7.897c1.43-1.023 3.339.364 2.809 2.04l-4.097 12.949 10.925 8.067c1.415 1.045.685 3.288-1.073 3.302l-13.581.105-4.297 12.884c-.554 1.668-2.913 1.668-3.47 0z" fill="#FFE15A"/>
  </g>
</svg>
