<svg width="512" height="336" viewBox="0 0 512 336" xmlns="http://www.w3.org/2000/svg">
  <g fill="none">
    <path d="M512.001 112.092H0V9.103A8.829 8.829 0 0 1 8.828.275h494.345a8.829 8.829 0 0 1 8.828 8.828v102.989z" fill="#82AFFF"/>
    <path d="M503.172 335.724H8.828A8.829 8.829 0 0 1 0 326.896V223.908h512v102.988a8.828 8.828 0 0 1-8.828 8.828z" fill="#73AF00"/>
    <path fill="#F5F5F5" d="M0 112.088h512V223.9H0z"/>
    <path d="M0 102.157h512v13.942H0zm0 117.738h512v13.942H0z" fill="#FF4B55"/>
    <path d="M113.491 84.071c-18.072 0-32.721-14.614-32.721-32.621 0-18.073 14.648-32.753 32.721-32.753l.206.001c1.064.014 1.437-1.399.499-1.902a38.783 38.783 0 0 0-18.668-4.622c-21.624.154-39.189 18.073-38.959 39.697.226 21.401 17.722 38.724 39.242 38.724a38.898 38.898 0 0 0 18.417-4.627c.935-.501.557-1.914-.503-1.899-.08.002-.157.002-.234.002zm25.622-9.021l-1.461 4.382-4.619.035c-.598.004-.846.768-.365 1.123l3.716 2.744-1.394 4.404c-.18.57.469 1.042.956.694l3.758-2.686 3.758 2.686c.487.348 1.135-.124.956-.694l-1.394-4.404 3.715-2.744c.481-.355.233-1.119-.365-1.123l-4.619-.035-1.461-4.382c-.189-.567-.991-.567-1.181 0zm32.543 0l-1.461 4.382-4.619.035c-.598.004-.846.768-.365 1.123l3.715 2.744-1.394 4.404c-.18.57.469 1.042.956.694l3.758-2.686 3.758 2.686c.487.348 1.135-.124.956-.694l-1.394-4.404 3.715-2.744c.481-.355.233-1.119-.365-1.123l-4.619-.035-1.461-4.382c-.189-.567-.992-.567-1.18 0zm32.542 0l-1.461 4.382-4.619.035c-.598.004-.846.768-.365 1.123l3.716 2.744-1.394 4.404c-.18.57.469 1.042.956.694l3.758-2.686 3.758 2.686c.487.348 1.135-.124.956-.694l-1.394-4.404 3.715-2.744c.481-.355.233-1.119-.365-1.123l-4.619-.035-1.461-4.382c-.189-.567-.992-.567-1.181 0zm32.542 0l-1.461 4.382-4.619.035c-.598.004-.846.768-.365 1.123l3.715 2.744-1.394 4.404c-.18.57.469 1.042.956.694l3.758-2.686 3.758 2.686c.487.348 1.135-.124.956-.694l-1.394-4.404 3.715-2.744c.481-.355.233-1.119-.365-1.123l-4.619-.035-1.461-4.382c-.188-.567-.991-.567-1.18 0zm32.543 0l-1.461 4.382-4.619.035c-.598.004-.846.768-.365 1.123l3.716 2.744-1.394 4.404c-.18.57.469 1.042.956.694l3.758-2.686 3.758 2.686c.487.348 1.135-.124.956-.694l-1.394-4.404 3.716-2.744c.481-.355.233-1.119-.365-1.123l-4.619-.035-1.461-4.382c-.191-.567-.993-.567-1.182 0zm-97.627-30.372l-1.461 4.382-4.619.035c-.598.004-.846.768-.365 1.123l3.715 2.744-1.394 4.404c-.18.57.469 1.042.956.694l3.758-2.686 3.758 2.686c.487.348 1.135-.124.956-.694l-1.394-4.404 3.715-2.744c.481-.355.233-1.119-.365-1.123l-4.619-.035-1.461-4.382c-.189-.569-.992-.569-1.18 0zm32.542 0l-1.461 4.382-4.619.035c-.598.004-.846.768-.365 1.123l3.716 2.744-1.394 4.404c-.18.57.469 1.042.956.694l3.758-2.686 3.758 2.686c.487.348 1.135-.124.956-.694l-1.394-4.404 3.715-2.744c.481-.355.233-1.119-.365-1.123l-4.619-.035-1.461-4.382c-.189-.569-.992-.569-1.181 0zm32.542 0l-1.461 4.382-4.619.035c-.598.004-.846.768-.365 1.123l3.715 2.744-1.394 4.404c-.18.57.469 1.042.956.694l3.758-2.686 3.758 2.686c.487.348 1.135-.124.956-.694l-1.394-4.404 3.715-2.744c.481-.355.233-1.119-.365-1.123l-4.619-.035-1.461-4.382c-.188-.569-.991-.569-1.18 0zm32.543 0l-1.461 4.382-4.619.035c-.598.004-.846.768-.365 1.123l3.716 2.744-1.394 4.404c-.18.57.469 1.042.956.694l3.758-2.686 3.758 2.686c.487.348 1.135-.124.956-.694l-1.394-4.404 3.716-2.744c.481-.355.233-1.119-.365-1.123l-4.619-.035-1.461-4.382c-.191-.569-.993-.569-1.182 0z" fill="#F5F5F5"/>
    <path d="M204.198 75.05l-1.461 4.382-4.619.035c-.598.004-.846.768-.365 1.123l3.716 2.744-1.394 4.404c-.18.57.469 1.042.956.694l3.758-2.686 3.758 2.686c.487.348 1.135-.124.956-.694l-1.394-4.404 3.715-2.744c.481-.355.233-1.119-.365-1.123l-4.619-.035-1.461-4.382c-.189-.567-.992-.567-1.181 0zm0-60.746l-1.461 4.382-4.619.035c-.598.004-.846.768-.365 1.123l3.716 2.744-1.394 4.404c-.18.57.469 1.042.956.694L204.789 25l3.758 2.686c.487.348 1.135-.124.956-.694l-1.394-4.404 3.715-2.744c.481-.355.233-1.119-.365-1.123l-4.619-.035-1.461-4.382c-.189-.567-.992-.567-1.181 0zM236.74 75.05l-1.461 4.382-4.619.035c-.598.004-.846.768-.365 1.123l3.715 2.744-1.394 4.404c-.18.57.469 1.042.956.694l3.758-2.686 3.758 2.686c.487.348 1.135-.124.956-.694l-1.394-4.404 3.715-2.744c.481-.355.233-1.119-.365-1.123l-4.619-.035-1.461-4.382c-.188-.567-.991-.567-1.18 0zm32.543 0l-1.461 4.382-4.619.035c-.598.004-.846.768-.365 1.123l3.716 2.744-1.394 4.404c-.18.57.469 1.042.956.694l3.758-2.686 3.758 2.686c.487.348 1.135-.124.956-.694l-1.394-4.404 3.716-2.744c.481-.355.233-1.119-.365-1.123l-4.619-.035-1.461-4.382c-.191-.567-.993-.567-1.182 0zM236.74 14.304l-1.461 4.382-4.619.035c-.598.004-.846.768-.365 1.123l3.715 2.744-1.394 4.404c-.18.57.469 1.042.956.694L237.33 25l3.758 2.686c.487.348 1.135-.124.956-.694l-1.394-4.404 3.715-2.744c.481-.355.233-1.119-.365-1.123l-4.619-.035-1.461-4.382c-.188-.567-.991-.567-1.18 0zm32.543 0l-1.461 4.382-4.619.035c-.598.004-.846.768-.365 1.123l3.716 2.744-1.394 4.404c-.18.57.469 1.042.956.694L269.874 25l3.758 2.686c.487.348 1.135-.124.956-.694l-1.394-4.404 3.716-2.744c.481-.355.233-1.119-.365-1.123l-4.619-.035-1.461-4.382c-.191-.567-.993-.567-1.182 0z" fill="#F5F5F5"/>
  </g>
</svg>
