<?xml version="1.0" encoding="iso-8859-1"?>
<!-- Generator: Adobe Illustrator 19.0.0, SVG Export Plug-In . SVG Version: 6.00 Build 0)  -->
<svg version="1.1" id="Layer_1" xmlns="http://www.w3.org/2000/svg" xmlns:xlink="http://www.w3.org/1999/xlink" x="0px" y="0px"
	 viewBox="0 0 512 512" style="enable-background:new 0 0 512 512;" xml:space="preserve">
<path style="fill:#FF4B55;" d="M503.172,423.724H8.828c-4.875,0-8.828-3.953-8.828-8.828V97.103c0-4.875,3.953-8.828,8.828-8.828
	h494.345c4.875,0,8.828,3.953,8.828,8.828v317.793C512,419.772,508.047,423.724,503.172,423.724z"/>
<path style="fill:#41479B;" d="M8.828,88.276h238.345c4.875,0,8.828,3.953,8.828,8.828v150.069c0,4.875-3.953,8.828-8.828,8.828
	H8.828C3.953,256,0,252.047,0,247.172V97.103C0,92.228,3.953,88.276,8.828,88.276z"/>
<g>
	<path style="fill:#F5F5F5;" d="M125.766,197.596l-4.053,12.151l-12.809,0.099c-1.658,0.013-2.346,2.13-1.012,3.114l10.304,7.609
		l-3.863,12.212c-0.5,1.581,1.3,2.889,2.649,1.924l10.421-7.448l10.421,7.448c1.35,0.964,3.149-0.343,2.649-1.924l-3.863-12.212
		l10.304-7.609c1.334-0.985,0.647-3.102-1.012-3.114l-12.809-0.099l-4.053-12.151C128.515,196.022,126.291,196.022,125.766,197.596z
		"/>
	<path style="fill:#F5F5F5;" d="M126.079,102.852l-3.278,9.83l-10.361,0.081c-1.342,0.01-1.898,1.722-0.819,2.519l8.335,6.155
		l-3.125,9.879c-0.405,1.279,1.052,2.337,2.143,1.557l8.429-6.025l8.429,6.025c1.091,0.78,2.548-0.278,2.143-1.557l-3.125-9.879
		l8.335-6.155c1.079-0.797,0.523-2.509-0.819-2.519l-10.361-0.081l-3.278-9.83C128.303,101.579,126.504,101.579,126.079,102.852z"/>
	<path style="fill:#F5F5F5;" d="M178.493,132.094l-3.278,9.83l-10.361,0.081c-1.342,0.01-1.898,1.722-0.819,2.519l8.335,6.155
		l-3.125,9.879c-0.405,1.279,1.052,2.337,2.143,1.557l8.429-6.025l8.429,6.025c1.091,0.78,2.548-0.278,2.143-1.557l-3.125-9.879
		l8.335-6.155c1.079-0.797,0.523-2.509-0.819-2.519l-10.361-0.081l-3.278-9.83C180.717,130.82,178.918,130.82,178.493,132.094z"/>
	<path style="fill:#F5F5F5;" d="M74.769,143.68l-3.278,9.83l-10.361,0.081c-1.342,0.01-1.898,1.722-0.819,2.519l8.335,6.155
		l-3.125,9.879c-0.405,1.279,1.052,2.337,2.143,1.557l8.429-6.025l8.429,6.025c1.091,0.78,2.548-0.278,2.143-1.557l-3.125-9.879
		l8.335-6.155c1.079-0.797,0.523-2.509-0.819-2.519l-10.361-0.081l-3.278-9.83C76.993,142.407,75.193,142.407,74.769,143.68z"/>
	<path style="fill:#F5F5F5;" d="M155.901,175.768l-1.841,5.518l-5.816,0.045c-0.753,0.006-1.065,0.967-0.459,1.415l4.679,3.455
		l-1.754,5.546c-0.227,0.718,0.59,1.312,1.203,0.874l4.732-3.382l4.732,3.382c0.612,0.438,1.43-0.156,1.203-0.874l-1.754-5.546
		l4.679-3.455c0.606-0.447,0.294-1.408-0.459-1.415l-5.816-0.045l-1.841-5.518C157.15,175.053,156.139,175.053,155.901,175.768z"/>
</g>
<g>
</g>
<g>
</g>
<g>
</g>
<g>
</g>
<g>
</g>
<g>
</g>
<g>
</g>
<g>
</g>
<g>
</g>
<g>
</g>
<g>
</g>
<g>
</g>
<g>
</g>
<g>
</g>
<g>
</g>
</svg>
