<svg width="513" height="336" viewBox="0 0 513 336" fill="none" xmlns="http://www.w3.org/2000/svg">
<path d="M503.672 335.725H9.328C4.453 335.725 0.5 331.772 0.5 326.897V9.104C0.5 4.229 4.453 0.276001 9.328 0.276001H503.673C508.548 0.276001 512.501 4.229 512.501 9.104V326.897C512.5 331.773 508.547 335.725 503.672 335.725Z" fill="#41479B"/>
<path d="M267.81 114.484C262.707 113.518 256.5 107.036 258.707 103.45C260.914 99.864 256.776 91.864 251.81 94.622C246.844 97.381 243.534 100.691 238.844 101.794C234.154 102.897 230.292 106.484 233.878 109.794C237.464 113.104 242.981 119.725 237.74 126.622C232.499 133.519 234.154 128.829 227.809 131.863C221.464 134.897 217.05 140.966 218.981 144.553C220.912 148.139 222.567 149.519 217.05 152.001C211.533 154.483 209.05 152.829 204.636 153.932C200.222 155.035 189.464 160.553 186.153 165.242C182.843 169.932 175.67 165.518 172.636 164.966C169.602 164.414 163.533 166.621 162.153 170.207C160.774 173.793 163.256 177.104 168.498 178.759C173.739 180.414 175.946 180.69 173.464 185.104C170.982 189.518 172.636 198.07 176.774 200.552C180.912 203.035 188.912 210.759 188.912 216C188.912 221.241 187.809 228.966 195.533 230.069C203.257 231.172 215.119 234.483 219.257 241.655C223.395 248.827 224.498 252.965 225.326 257.379C226.154 261.793 226.981 265.379 229.464 270.345C231.947 275.311 233.602 283.862 231.119 285.793C228.636 287.724 226.705 289.103 228.636 292.827C230.567 296.551 230.981 297.93 234.567 295.861C238.153 293.792 238.153 295.999 240.084 295.585C242.015 295.171 250.843 291.999 249.187 287.723C247.532 283.447 243.946 273.654 249.049 268.551C254.152 263.448 261.049 262.62 265.463 259.172C269.877 255.724 277.187 255.172 282.842 249.655C288.497 244.138 294.566 247.448 295.532 251.31C296.498 255.172 298.015 262.62 302.429 262.482C306.843 262.344 307.808 262.344 308.636 256.965C309.464 251.586 316.36 239.586 319.119 241.103C321.878 242.62 324.36 241.379 324.498 239.034C324.636 236.689 329.877 234.62 332.084 237.931C334.291 241.241 339.118 243.862 338.981 239.724C338.843 235.586 333.188 236.138 333.05 231.586C332.912 227.034 337.602 224.138 341.74 222.207C345.878 220.276 343.395 215.31 344.637 212.552C345.878 209.793 352.637 206.345 352.913 203.586C353.189 200.827 351.258 199.724 354.154 199.034C357.051 198.344 360.637 197.103 358.568 193.931C356.499 190.759 357.189 188.414 359.396 186.897C361.603 185.38 362.638 178.179 359.419 177.243C356.199 176.308 350.384 179.009 348.93 180.774C347.476 182.54 341.557 174.958 338.752 173.088C335.948 171.219 317.877 172.361 318.293 169.246C318.709 166.131 326.293 154.759 322.983 152.966C319.673 151.173 314.431 148.552 310.155 147.173C305.879 145.794 306.845 150.483 304.5 146.759C302.155 143.035 301.328 129.793 298.707 129.793C296.086 129.793 294.155 135.31 293.052 133.241C291.949 131.172 293.466 116.827 287.397 116.551C281.328 116.275 281.19 119.861 277.742 117.241C274.293 114.622 274.787 115.803 267.81 114.484Z" fill="#FF9B55"/>
<path d="M230.337 36.014L225.754 49.7539L211.27 49.867C210.476 49.874 210.147 50.887 210.786 51.358L222.437 59.962L218.068 73.772C217.829 74.529 218.69 75.1559 219.337 74.6929L231.12 66.27L242.904 74.6929C243.55 75.1539 244.412 74.529 244.173 73.772L239.804 59.962L251.455 51.358C252.094 50.887 251.765 49.873 250.971 49.867L236.487 49.7539L231.904 36.014C231.654 35.262 230.588 35.262 230.337 36.014Z" fill="#F5F5F5"/>
<path d="M281.372 36.014L276.789 49.7539L262.305 49.867C261.511 49.874 261.182 50.887 261.821 51.358L273.472 59.962L269.103 73.772C268.864 74.529 269.725 75.1559 270.372 74.6929L282.156 66.27L293.94 74.6929C294.586 75.1539 295.448 74.529 295.209 73.772L290.84 59.962L302.491 51.358C303.13 50.887 302.8 49.873 302.007 49.867L287.523 49.7539L282.94 36.014C282.688 35.262 281.622 35.262 281.372 36.014Z" fill="#F5F5F5"/>
<path d="M179.992 44.4279L175.409 58.1679L160.925 58.2809C160.131 58.2879 159.802 59.3009 160.441 59.7719L172.092 68.3759L167.723 82.1859C167.484 82.9429 168.345 83.5699 168.992 83.1069L180.776 74.6839L192.56 83.1069C193.206 83.5679 194.068 82.9429 193.829 82.1859L189.46 68.3759L201.111 59.7719C201.75 59.3009 201.421 58.2869 200.627 58.2809L186.143 58.1679L181.56 44.4279C181.309 43.6749 180.243 43.6749 179.992 44.4279Z" fill="#F5F5F5"/>
<path d="M132.359 61.741L127.776 75.481L113.292 75.594C112.498 75.601 112.169 76.614 112.808 77.085L124.459 85.689L120.09 99.499C119.851 100.256 120.712 100.883 121.359 100.42L133.143 91.997L144.927 100.42C145.573 100.881 146.435 100.256 146.196 99.499L141.827 85.689L153.478 77.085C154.117 76.614 153.788 75.6 152.994 75.594L138.51 75.481L133.927 61.741C133.676 60.989 132.61 60.989 132.359 61.741Z" fill="#F5F5F5"/>
<path d="M333.147 44.4279L337.73 58.1679L352.214 58.2809C353.008 58.2879 353.337 59.3009 352.698 59.7719L341.047 68.3759L345.416 82.1859C345.655 82.9429 344.794 83.5699 344.147 83.1069L332.363 74.6839L320.579 83.1069C319.933 83.5679 319.071 82.9429 319.31 82.1859L323.679 68.3759L312.028 59.7719C311.389 59.3009 311.718 58.2869 312.512 58.2809L326.995 58.1679L331.578 44.4279C331.83 43.6749 332.896 43.6749 333.147 44.4279Z" fill="#F5F5F5"/>
<path d="M380.78 61.741L385.363 75.481L399.847 75.594C400.641 75.601 400.97 76.614 400.331 77.085L388.68 85.689L393.049 99.499C393.288 100.256 392.427 100.883 391.78 100.42L379.996 91.997L368.212 100.42C367.566 100.881 366.704 100.256 366.943 99.499L371.312 85.689L359.661 77.085C359.022 76.614 359.352 75.6 360.145 75.594L374.629 75.481L379.212 61.741C379.463 60.989 380.529 60.989 380.78 61.741Z" fill="#F5F5F5"/>
</svg>
