<svg width="512" height="336" viewBox="0 0 512 336" xmlns="http://www.w3.org/2000/svg">
  <g fill="none">
    <path d="M503.172 335.724H8.828A8.829 8.829 0 0 1 0 326.896V9.104A8.829 8.829 0 0 1 8.828.276h494.345a8.829 8.829 0 0 1 8.828 8.828v317.792a8.83 8.83 0 0 1-8.829 8.828z" fill="#FF4B55"/>
    <path d="M352.551 209.793c-4.828-3.034-7.724 1.793-7.724 1.793l-14.069 1.655 7.034-5.931c5.103.414 5.793-1.103 7.172-3.172 1.379-2.069 7.172-1.103 7.172-1.103-.828-6.345-8.828-2.759-8.828-2.759-6.483-.69-7.586 4.552-7.586 4.552l-10.069 7.724-22.159-6.566c2.298-2.532 4.103-5.027 4.366-6.538.441-2.537-16.367-6.805-21.517-12.138-5.149-5.334-6.988-13.793-4.597-16 2.39-2.207 4.414 4.045 6.988 9.195 2.574 5.15 7.357 9.195 10.483 6.621 3.126-2.574-3.31-6.436-6.253-11.954-2.942-5.517 2.207-7.541 4.598-6.989 2.391.552 3.862 11.955 9.564 17.839 5.7 5.885 10.85 4.781 11.402 1.103.552-3.678-9.409-8.21-11.433-11.337-2.023-3.126-2.545-9.261.766-9.444 3.31-.184 15.448 17.906 25.748 24.828 11.218 7.54 20.229-1.288 18.759-4.966-1.471-3.679-8.276-2.207-16.184-4.231-7.908-2.023-16-12.69-18.391-18.574-2.391-5.885-.414-5.885.966-5.333 1.379.552 6.621 8.276 16.69 14.207 10.069 5.931 17.103.276 17.931-1.103.828-1.379 4.009-7.571-6.345-6.115-11.769 1.655-18.483-5.333-23.31-9.057-4.828-3.724-6.759-8.828-4.552-10.897 2.207-2.069 9.471 7.264 20.505 10.207 10.136 2.702 14.253-1.655 13.976-5.655-.276-4-2.621-2.345-14.069-3.448-11.448-1.103-19.448-11.862-19.862-12.552-.414-.69-.276-4.552 5.517-.828 5.793 3.724 16.138 5.931 22.207 5.655 6.069-.276 7.31-8.414 4.414-9.793-2.896-1.379-3.586.69-10.207 2.069s-19.034-5.379-22.069-8.552.276-5.241 1.793-4.966c1.517.275 11.448 6.069 20.276 5.793 8.828-.276 12.552-8.414 12.276-10.897-.276-2.483-2.759-4.552-6.483-2.069-3.724 2.483-8.69 5.379-16.965 4-8.276-1.379-12.138-6.897-11.034-8.965 1.103-2.069 9.103 1.517 21.793.138s13.241-12.552 12-14.759c-1.241-2.207-4.276-1.517-8.552 2.483s-12.552 4.828-19.034 4.828c-6.483 0-6.621-3.172-5.655-5.379.966-2.207 7.862-1.655 17.517-4.69 9.655-3.034 15.172-10.759 16.69-15.586 1.518-4.827-2.207-8.552-3.724-8.552-1.517 0-.552-2.207-7.172 7.31-6.621 9.517-24 13.241-24 13.241-1.241-2.345-3.172-3.172-3.172-3.172-11.724 2.345-25.866 12.468-25.866 12.468s2.493 7.996-.622 14.228c-4.011 8.022-17.759 3.011-14.02-9.658 3.113-10.55 15.162-16.928 25.341-18.071 10.178-1.142 10.697-4.985 10.697-4.985s-10.688 3.48-10.879-1.297c2.207.448 5.46.643 10.983.154 8.205-.726 12.775-6.543 9.14-7.789-3.635-1.246-2.077 2.493-8.309 5.401-4.445 2.074-9.11 1.14-11.445.431 2.157-4.71 11.237-2.301 11.237-2.301.104-8.205-10.783-5.27-10.783-5.27-4.781-10.3-32.736 1.655-32.736 1.655l6.621 5.333c-16.184 9.011-19.495 26.114-19.495 26.114s-3.31-17.103-19.495-26.115l6.621-5.333s-27.955-11.955-32.736-1.655c0 0-10.888-2.934-10.783 5.27 0 0 9.08-2.409 11.238 2.301-2.335.71-7 1.643-11.445-.431-6.231-2.909-4.673-6.646-8.309-5.401-3.635 1.246.935 7.062 9.14 7.789 5.523.489 8.776.295 10.983-.154-.191 4.777-10.879 1.297-10.879 1.297s.52 3.842 10.697 4.985c10.178 1.143 22.228 7.521 25.341 18.071 3.738 12.67-10.009 17.679-14.02 9.658-3.116-6.231-.622-14.228-.622-14.228s-14.142-10.123-25.866-12.468c0 0-1.931.828-3.172 3.172 0 0-17.379-3.724-24-13.241-6.621-9.517-5.655-7.31-7.172-7.31-1.517 0-5.241 3.724-3.724 8.552 1.517 4.828 7.034 12.552 16.69 15.586 9.656 3.034 16.552 2.483 17.517 4.69.966 2.207.828 5.379-5.655 5.379-6.483 0-14.759-.828-19.034-4.828-4.276-4-7.31-4.69-8.552-2.483-1.241 2.207-.69 13.379 12 14.759 12.69 1.379 20.69-2.207 21.793-.138 1.103 2.069-2.759 7.586-11.034 8.965-8.276 1.379-13.241-1.517-16.965-4s-6.207-.414-6.483 2.069c-.276 2.483 3.448 10.621 12.276 10.897 8.828.276 18.759-5.517 20.276-5.793 1.517-.276 4.828 1.793 1.793 4.965-3.034 3.172-15.448 9.931-22.069 8.552-6.621-1.379-7.31-3.448-10.207-2.069-2.897 1.379-1.655 9.517 4.414 9.793 6.069.276 16.414-1.931 22.207-5.655 5.793-3.724 5.931.138 5.517.828-.414.69-8.414 11.448-19.862 12.552-11.448 1.103-13.793-.552-14.069 3.448-.276 4 3.841 8.358 13.977 5.655 11.034-2.943 18.3-12.276 20.506-10.207 2.207 2.069.276 7.172-4.552 10.897-4.828 3.724-11.541 10.712-23.31 9.057-10.354-1.455-7.172 4.736-6.345 6.115.827 1.379 7.862 7.034 17.931 1.103s15.31-13.655 16.69-14.207c1.379-.552 3.357-.552.966 5.333s-10.483 16.552-18.391 18.574c-7.908 2.024-14.713.552-16.184 4.231-1.471 3.678 7.54 12.505 18.759 4.965 10.3-6.922 22.437-25.012 25.748-24.828 3.31.183 2.788 6.318.766 9.444-2.024 3.127-11.985 7.659-11.433 11.337.552 3.678 5.7 4.781 11.402-1.103 5.701-5.885 7.172-17.288 9.564-17.839 2.39-.552 7.54 1.472 4.597 6.989-2.942 5.517-9.379 9.379-6.252 11.954 3.126 2.574 7.908-1.471 10.483-6.621 2.574-5.15 4.597-11.402 6.988-9.195 2.391 2.207.552 10.666-4.598 16-5.149 5.333-21.959 9.601-21.517 12.138.263 1.511 2.067 4.005 4.366 6.538l-22.159 6.565-10.069-7.724s-1.103-5.241-7.586-4.552c0 0-8-3.586-8.828 2.759 0 0 5.793-.966 7.172 1.103 1.379 2.069 2.069 3.586 7.172 3.172l7.033 5.932-14.069-1.655s-2.897-4.828-7.724-1.793c0 0-6.069-1.931-7.586 3.862 0 0 5.241-.966 6.621-.276 0 0 2.069 4.69 8.69 1.931l13.931.69-7.862 3.862s-9.931-3.172-9.517 5.103c0 0-2.897 3.31-.276 6.621 0 0 .552-3.586 3.172-5.103 0 0 5.103 2.069 8.414-4l10.069-6.069 9.931 4.828s-.276 5.379 7.034 3.172c0 0 2.483 1.655 3.172 3.862 0 0 3.172-3.448-1.931-7.448 0 0-1.241-4.69-7.31-2.897l-5.655-2.897 20.925-6.209c3.623 3.45 7.532 6.279 8.9 5.805 2.7-.935 4.778-3.738 6.646-7.685 1.869-3.947 10.282-17.655 14.436-17.55 4.154.104 6.024 3.426 4.985 9.347-1.038 5.919-9.134 17.259-14.376 19.604-5.241 2.345-6.069 3.448-10.897 3.034-4.828-.414-6.483 1.655-5.379 4.414 1.103 2.759 6.534 4.513 11.862 2.483 5.793-2.207 8-5.241 10.207-3.448 2.207 1.793-2.345 8.276-8.552 10.207-6.207 1.931-10.897.69-9.931 4.552.966 3.862 7.586 4.138 11.862 1.655 4.276-2.483 9.103-9.379 10.345-7.172 1.241 2.207.414 7.862-3.724 10.897-4.138 3.034-8.845 1.249-9.793 4-1.379 4 3.448 6.621 7.172 5.103 3.724-1.517 8-6.207 9.931-10.345 1.931-4.138 5.517-.552 4.414 3.31-1.103 3.862-.184 7.034-8.093 13.103l14.713 22.62 14.713-22.621c-7.908-6.069-6.988-9.241-8.093-13.103-1.103-3.862 2.483-7.448 4.414-3.31 1.931 4.138 6.207 8.828 9.931 10.345 3.724 1.517 8.552-1.103 7.172-5.103-.948-2.751-5.655-.966-9.793-4-4.138-3.034-4.966-8.69-3.724-10.897 1.241-2.207 6.069 4.69 10.345 7.172 4.276 2.483 10.897 2.207 11.862-1.655.965-3.862-3.724-2.621-9.931-4.552-6.207-1.931-10.759-8.414-8.552-10.207 2.207-1.793 4.414 1.241 10.207 3.448 5.329 2.03 10.759.276 11.862-2.483 1.103-2.759-.552-4.828-5.379-4.414-4.828.414-5.655-.69-10.897-3.034s-13.337-13.684-14.376-19.604c-1.039-5.92.831-9.244 4.985-9.347 4.154-.105 12.566 13.603 14.436 17.55 1.869 3.947 3.946 6.751 6.646 7.686 1.369.474 5.279-2.355 8.9-5.805l20.925 6.209-5.655 2.897c-6.069-1.793-7.31 2.897-7.31 2.897-5.103 4-1.931 7.448-1.931 7.448.69-2.207 3.172-3.862 3.172-3.862 7.31 2.207 7.034-3.172 7.034-3.172l9.931-4.828 10.069 6.069c3.31 6.069 8.414 4 8.414 4 2.621 1.517 3.172 5.103 3.172 5.103 2.621-3.31-.276-6.621-.276-6.621.414-8.275-9.517-5.102-9.517-5.102l-7.866-3.86 13.931-.69c6.621 2.759 8.69-1.931 8.69-1.931 1.379-.69 6.621.276 6.621.276-1.518-5.793-7.587-3.862-7.587-3.862z" fill="#464655"/>
  </g>
</svg>
