<svg width="512" height="336" viewBox="0 0 512 336" xmlns="http://www.w3.org/2000/svg">
  <g fill="none">
    <path d="M503.172.276H8.828A8.829 8.829 0 0 0 0 9.104v317.792a8.829 8.829 0 0 0 8.828 8.828h494.345a8.829 8.829 0 0 0 8.828-8.828V9.104a8.83 8.83 0 0 0-8.829-8.828z" fill="#FF6E55"/>
    <path d="M3.256 333.591L508.743 2.41c-1.53-1.273-3.425-2.134-5.571-2.134H8.828A8.829 8.829 0 0 0 0 9.104v317.792c0 2.729 1.311 5.076 3.256 6.695z" fill="#FFE15A"/>
    <g transform="translate(204 60)" fill="#FFF5DC">
      <path d="M77.52 30.026c-4.436.95-11.405-1.426-11.405-1.426 1.436 2.473 5.276 4.138 8.739 5.186a78.583 78.583 0 0 1-9.532.359c-14.257-.318-20.909 9.029-20.909 9.029 5.069-3.169 10.296-3.169 18.058-2.059 7.762 1.109 24.236-3.801 24.236-3.801l1.426-6.336c0-.001-6.177-1.902-10.613-.952z"/>
      <path d="M92.173.326s7.371 1.562 14.852 5.855c-.45.236-.881.525-1.291.864-2.418-1.202-5.339-2.175-9.127-2.561 0 0 3.921 1.02 7.688 3.97-.975 1.149-1.779 2.456-2.398 3.618-8.287-8.886-17.249-2.955-17.249-2.955 11.117-.845 13.74 6.298 14.366 9.748-2.153-1.439-4.181-2.625-6.083-3.59.279-.209.42-.397.747-.612 0 0-.696.028-1.662.172-14.188-6.819-21.149-1.44-21.149-1.44 6.301-.77 12.124.868 16.744 2.908-2.03 1.169-3.405 3.228-2.271 6.728-7.957-2.165-17.957-4.298-22.869-2.983-8.871 2.376-6.019 10.613-6.019 10.613s.159-5.544 6.178-6.812c4.506-.949 26.928 6.178 26.928 6.178l7.286-3.485-3.009-2.535s-5.784-2.322-3.304-6.312c4.147 2.211 6.788 4.41 6.788 4.41l1.783-2.605c.087.674.118 1.18.118 1.18l5.069-2.217 1.109-1.585c.444-2.404 1.178-4.114 2.023-5.394a16.61 16.61 0 0 1 3.284 6.937l4.594.476s-.746-5.31-5.886-9.533c.456-.324.906-.593 1.349-.772 3.385 2.429 6.542 5.466 8.734 9.276l8.474-.119c.002.002-13.938-15.522-35.797-17.423z"/>
      <circle cx="173.036" cy="75.172" r="10.613"/>
      <circle cx="148.264" cy="164.496" r="14.238"/>
      <circle cx="39.718" cy="157.6" r="11.285"/>
      <circle cx="13.765" cy="211.194" r="13.028"/>
      <path d="M137.872 47.452s24.402 8.696 30.294 11.642c8.317 4.158 21.385-7.96 30.532 1.426 0 0-1.585-6.257-9.187-6.732 0 0 .159-6.178-6.969-5.86 0 0 5.227 3.801 2.218 6.495 0 0-2.059-4.594-7.921-3.801 0 0 4.435 1.742 3.327 4.435 0 0-7.049 3.405-10.217 1.188-3.168-2.218-28.195-15.722-36.116-16.039l4.039 7.246z"/>
    </g>
    <path d="M335.614 115.054s5.227 1.545 12.831 9.504c3.523 3.689 12.592 3.921 11.167-3.208-1.426-7.128-19.008-11.523-20.909-11.523-1.9 0-3.089 5.227-3.089 5.227z" fill="#F5F5F5"/>
    <path d="M373.711 99.373l-9.98 3.327s1.109 6.772-4.594 9.742c-3.512 1.83-5.86 6.573-5.703 10.058 0 0 3.327-4.594 8.078-7.128 1.119-.597 2.151-1.12 3.091-1.651-.189 2.375-.239 4.868.078 7.037.95 6.494-1.109 8.712-1.109 8.712s5.545-4.277 4.91-11.246c-.244-2.678.195-4.575.877-6.015.491 4.853 3.082 7.125 3.082 7.125-1.901-3.801 2.059-7.921 3.644-11.247 1.586-3.329-2.374-8.714-2.374-8.714zm25.225-13.781c-3.929-1.336-7.722 1.069-9.98 3.089-.961.86-3.493 1.297-6.084 1.532 1.73-1.224 3.572-2.669 4.541-3.907 2.138-2.732 6.059-3.208 9.385-4.277 3.327-1.069 4.753-5.346 4.753-5.346s-1.782 2.614-6.772 2.376-6.653-.476-9.98 3.089c-1.023 1.096-2.455 1.943-3.94 2.624.032-1.557.167-3.538.613-4.881.832-2.495 4.633-4.514 4.871-9.504.237-4.99.476-4.514 3.327-7.485 2.851-2.97 3.683-8.554 2.851-6.772-.832 1.782-4.633 3.921-7.841 6.891s-.95 6.296-2.614 8.91c-1.663 2.614-5.583 3.208-5.822 8.078-.237 4.871-3.683 7.722-3.683 7.722s-8.435 4.633 1.663 8.317c10.099 3.683 18.268-6.563 23.285-6.296 11.167.594 14.137-3.089 14.137-3.089-1.899-.001-6.77.949-12.71-1.071zm-122.485 78.251c-.633-.476-11.563-12.514-15.207-14.257l.792 3.01s-2.376-.159-6.653-5.386c-4.277-5.227-7.445-6.653-7.445-6.653s3.01 4.753 2.851 7.762c0 0-6.495-.476-13.464 2.851 0 0-3.168-6.178-5.86-7.286 0 0 .95 6.495-1.267 8.078-2.218 1.585 20.909 12.514 24.077 12.831 3.168.317 22.176-.95 22.176-.95zm14.415-23.602c-.225-.056-1.394.766-2.902 1.843-.666-3.847-2.008-11.624-2.008-11.981 0-.476-10.772-15.523-11.089-16.157-.006-.011-.041-.012-.049-.022 1.046-2.53 2.173-6.838-4.228-3.463-8.713 4.595-12.197 15.207-12.197 15.207 1.986-2.072 5.452-3.654 8.218-4.682.057 1.292.067 2.826-1.724 5.474-3.644 5.385-1.585 7.445-1.585 7.445 2.851-4.91 9.187-5.386 9.187-5.386-.95 5.861 2.376 9.187 2.376 9.187l2.692-3.168c-.332 4.535 2.095 9.401 3.604 11.958-.596.288-1.14.509-1.544.555-2.694.318-6.969 2.376-6.969 2.376s3.466-.739 5.434.781c1.967 1.521 5.099 2.684 6.798 2.326 0 0-.806 4.115.089 5.635 0 0-2.237-.628-4.831-.537-2.594.09-4.482-1.71-4.482-1.71s4.753 6.81 8.237 8.236c3.484 1.426 9.504-3.801 9.504-3.801s-1.897-19.959-2.531-20.116zm-81.894 99.319s-3.01.317-5.86 4.594l-1.267-4.435s-3.485 2.535-7.286.95c0 0 3.485-.792 4.118-3.96.633-3.168 1.901-3.485 1.901-3.485s-2.376-2.535-4.91-2.376c0 0 6.969-3.644 10.772-.159 3.798 3.485 2.532 8.871 2.532 8.871zm83.794-35.007s-3.01.317-5.86 4.594l-1.267-4.436s-3.485 2.535-7.286.95c0 0 3.485-.792 4.118-3.96.633-3.168 1.901-3.485 1.901-3.485s-2.376-2.535-4.91-2.376c0 0 6.969-3.644 10.772-.159 3.8 3.486 2.532 8.872 2.532 8.872zm51.38-45.065s-1.47 2.646.394 7.436l-4.359-1.511s.073 4.309-3.407 6.51c0 0 1.353-3.307-.876-5.646s-1.761-3.558-1.761-3.558-3.439.489-4.766 2.655c0 0 1.021-7.798 6.057-8.908 5.037-1.109 8.718 3.022 8.718 3.022z" fill="#FFF5DC"/>
    <path d="M359.398 213.021l3.066 1.828c-.892-.767-1.951-1.342-3.066-1.828z" fill="#FF6E55"/>
    <path d="M186.478 228.313s-14.098 19.8-30.255 24.077l5.703-7.286s-7.604 6.653-16.157 8.078l10.296-11.88s-22.968 21.385-52.431 25.82c0 0 22.81-14.414 27.404-19.484 0 0-11.089 4.436-21.068 4.594 0 0 28.671-11.089 33.423-15.523 0 0-11.405 2.535-18.533.159 0 0 24.711-7.128 28.195-6.178 0 0-14.257-5.703-22.81-5.069 0 0 14.573-3.485 31.522 0l-3.644-3.96s9.663-2.535 19.167-3.168c9.504-.633 4.753-1.426 4.753-1.426l1.109-3.168s-6.178.792-11.246 0c0 0 15.207-8.554 19.484-12.355 4.277-3.801 1.426-2.059 1.426-2.059s-7.921 2.692-10.772 3.168c0 0 7.128-8.237 9.346-13.623 0 0-6.495 2.535-12.039 0 0 0 6.653-1.901 9.98-5.227 3.327-3.327 8.237-11.603 8.237-11.603l-5.703 2.495s4.99-8.554 9.386-10.692c0 0-7.485.594-9.86-1.188 0 0 7.96-1.901 10.336-3.801 2.376-1.901 7.604-6.891 12.949-4.99 0 0 7.485-6.891 4.99-11.405 0 0 4.871.356 7.366 3.327 2.495 2.97 6.415 5.465 6.415 5.465l-20.355 15.919-15.523 50.372-11.091 10.611z" fill="#FFF5DC"/>
    <g fill="#F5F5F5">
      <path d="M385.907 133.27c5.862 9.504-1.426 10.455-1.426 10.455-1.109-9.029-8.712-7.919-8.712-7.919l2.059 6.653c-12.672 1.585-11.722-11.089-11.722-11.089-1.901 1.585-5.069 8.078-5.069 8.078s-34.215 11.405-57.342-22.493c0 0-.633-6.02 1.268-8.872l-14.257-10.771-18.375 2.535s-7.286 16.473 1.585 26.612c8.871 10.137 19.325 24.394 17.424 31.047-1.127 3.944-4.48 5.549-9.135 5.214-3.199-.231-7.011-1.378-11.139-3.313-10.138-4.753-34.849-14.889-52.59-6.653-17.741 8.237-19.666 22.49-23.127 33.582-3.064 9.818-9.863 34.884-58.299 57.753-2.314 1.092-1.137 4.609 1.346 3.992 20.996-5.22 49.621-13.918 58.457-24.203l7.128.237-2.614 10.93s9.267 2.851 10.692 16.395c0 0-16.236 4.435-7.049 18.375 0 0 1.426-10.138 12.672-10.613 0 0 2.535 3.327 8.078 3.801 0 0 2.851 4.595 1.426 8.396 0 0 11.246-3.485 1.742-16.95 0 0 10.613-2.534 12.039 10.772 0 0 6.812-21.543-17.503-19.959 0 0 0-3.801-6.415-10.692 0 0-1.583-3.882 0-9.267a65.546 65.546 0 0 0 1.268-5.017 13.24 13.24 0 0 0 6.018 1.692s3.96 6.494 15.682 5.385c0 0-8.554-3.959-7.762-11.563.792-7.604 10.772-11.722 15.049-8.713 0 0-1.109-9.98-16.632-3.485 0 0 0-7.445 8.237-7.919 0 0-13.305-10.138-16.316 9.187l-5.506 1.376c-2.69-7.457-6.098-24.771 8.991-31.077 15.919-6.653 32.552 8.317 62.015 9.742 0 0-2.851 17.345 6.653 21.622 9.504 4.277 32.789 8.317 32.789 8.317-.237 25.027 17.978 21.7 17.978 21.7-8.841-5.298-8.841-15.406-3.384-21.31 7.437-8.046 20.333-.392 20.333-.392-.182-12.182-17.266-10.297-17.266-10.297 2.692-7.919 13.305-9.98 13.305-9.98-14.731-5.385-26.928 10.535-26.928 10.535l-24.949-7.128s-.95-4.99 4.99-11.642c5.94-6.652 10.93-17.821 9.267-29.7 0 0 6.891-4.832 15.444-.079 8.554 4.753 26.928-5.703 26.928-5.703 7.921 10.137 26.77 8.237 29.304-3.959 2.538-12.199-6.65-13.625-6.65-13.625z"/>
      <path d="M359.771 104.125c-4.712-2.749-13.148-5.069-15.999 1.267-2.851 6.336-6.019 12.672-15.84 12.355-9.821-.317-14.257 8.078-21.068 5.703 0 0 6.336-2.059 7.604-5.069 1.267-3.01 6.336-8.554 6.336-8.554l-.633-5.703s-11.722.632-15.207 3.959c-3.485 3.327-16.632-2.85-16.632-2.85l1.585-13.781s10.137-15.523 24.236-14.414c14.098 1.109 16.474-2.535 23.285-2.059 6.812.476 10.296 7.445 17.582 9.029 7.286 1.585 21.859-1.426 23.76 3.01 1.901 4.435-3.644 6.178-5.069 12.355-1.426 6.177-4.436 10.297-13.94 4.752z"/>
    </g>
    <g transform="translate(289 76)" fill="#FFF5DC">
      <path d="M29.587 24.165s-6.812 4.594-12.514 2.692C11.37 24.956 6.301 25.59.441 27.49c0 0 10.772-1.267 15.207 2.851 4.435 4.118 15.682 1.426 16.474-.317l-2.535-5.859z"/>
      <path d="M33.072 34.777s-6.653 4.753-13.305 3.485c-6.653-1.267-12.672 1.426-12.672 1.426s4.91-5.386 11.563-4.435c6.653.95 9.028-5.544 9.028-5.544l4.436.317.95 4.751z"/>
      <circle cx="38.459" cy="28.916" r="8.872"/>
      <path d="M33.229 22.264s-3.485-4.435-12.197-2.692c-8.712 1.742-10.772-1.426-10.772-1.426s4.118 6.336 10.613 5.544c6.495-.792 9.187 3.644 9.187 3.644l3.169-5.07zm29.309-11.091c.783-1.079 1.768-2.108 3.114-2.891.794-.462 1.611-.754 2.42-.994.18-1.203.003-2.5-.683-3.678-1.497-2.57-4.61-3.546-6.954-2.18-2.343 1.365-3.029 4.555-1.532 7.125a5.501 5.501 0 0 0 3.635 2.618zm-7.781 10.204c.446-1.257 1.099-2.521 2.168-3.655.631-.668 1.332-1.178 2.039-1.638-.168-1.204-.704-2.399-1.696-3.335-2.163-2.041-5.426-2.097-7.287-.125-1.862 1.972-1.617 5.226.547 7.267a5.487 5.487 0 0 0 4.229 1.486z"/>
    </g>
  </g>
</svg>
