<?xml version="1.0" encoding="iso-8859-1"?>
<!-- Generator: Adobe Illustrator 19.0.0, SVG Export Plug-In . SVG Version: 6.00 Build 0)  -->
<svg version="1.1" id="Layer_1" xmlns="http://www.w3.org/2000/svg" xmlns:xlink="http://www.w3.org/1999/xlink" x="0px" y="0px"
	 viewBox="0 0 512 512" style="enable-background:new 0 0 512 512;" xml:space="preserve">
<path style="fill:#82AFFF;" d="M503.172,423.724H8.828c-4.875,0-8.828-3.953-8.828-8.828V97.103c0-4.875,3.953-8.828,8.828-8.828
	h494.345c4.875,0,8.828,3.953,8.828,8.828v317.793C512,419.772,508.047,423.724,503.172,423.724z"/>
<g>
	<path style="fill:#FFE15A;" d="M503.172,88.276h-25.305L0,335.448v17.655L508.367,90.155
		C506.893,89.052,505.155,88.276,503.172,88.276z"/>
	<path style="fill:#FFE15A;" d="M8.828,423.724h25.305L512,176.552v-17.655L3.633,421.845
		C5.107,422.948,6.845,423.724,8.828,423.724z"/>
</g>
<path style="fill:#FF4B55;" d="M508.367,90.155L0,353.103v61.793c0,2.893,1.483,5.339,3.633,6.948L512,158.897V97.103
	C512,94.21,510.517,91.765,508.367,90.155z"/>
<path style="fill:#FFE15A;" d="M92.619,122.978l12.718,38.135l40.199,0.311c2.248,0.018,3.18,2.886,1.372,4.222l-32.339,23.881
	l12.126,38.328c0.678,2.143-1.762,3.916-3.591,2.609l-32.705-23.377l-32.705,23.377c-1.828,1.308-4.269-0.466-3.591-2.609
	l12.126-38.328L33.89,165.646c-1.809-1.335-0.876-4.204,1.372-4.222l40.199-0.311l12.718-38.135
	C88.892,120.846,91.907,120.846,92.619,122.978z"/>
<g>
</g>
<g>
</g>
<g>
</g>
<g>
</g>
<g>
</g>
<g>
</g>
<g>
</g>
<g>
</g>
<g>
</g>
<g>
</g>
<g>
</g>
<g>
</g>
<g>
</g>
<g>
</g>
<g>
</g>
</svg>
