<svg width="512" height="336" viewBox="0 0 512 336" xmlns="http://www.w3.org/2000/svg">
  <g fill="none">
    <path d="M503.172 335.724H8.828A8.829 8.829 0 0 1 0 326.896V9.104A8.829 8.829 0 0 1 8.828.276h494.345a8.829 8.829 0 0 1 8.828 8.828v317.792a8.83 8.83 0 0 1-8.829 8.828z" fill="#41479B"/>
    <path d="M0 194.483h511.999v23.54H0zm0 47.084h511.999v23.54H0z" fill="#F5F5F5"/>
    <path fill="#FF4B55" d="M0 218.019h511.999v23.54H0z"/>
    <path d="M169.649 146.664l2.708 8.118 8.557.066c.663.006.938.851.405 1.245l-6.884 5.084 2.581 8.159c.2.632-.52 1.155-1.059.769l-6.963-4.977-6.963 4.977c-.54.385-1.259-.137-1.059-.769l2.581-8.159-6.884-5.084c-.533-.394-.258-1.24.405-1.245l8.557-.066 2.708-8.118c.21-.629 1.101-.629 1.31 0zm0 142.658l2.708 8.118 8.557.066c.663.006.938.851.405 1.245l-6.884 5.084 2.581 8.159c.2.632-.52 1.155-1.059.769l-6.963-4.977-6.963 4.977c-.54.385-1.259-.137-1.059-.769l2.581-8.159-6.884-5.084c-.533-.394-.258-1.24.405-1.245l8.557-.066 2.708-8.118c.21-.629 1.101-.629 1.31 0zm-46.307 7.971l6.881-5.088 7.041 4.864c.545.376 1.257-.158 1.047-.787l-2.712-8.117 6.802-5.194c.527-.403.238-1.244-.425-1.238l-8.557.071-2.838-8.074c-.22-.626-1.109-.611-1.309.021l-2.577 8.161-8.555.204c-.663.015-.924.866-.384 1.251l6.965 4.972-2.45 8.2c-.19.637.537 1.148 1.071.754zm13.762-115.971l-6.987-4.941-6.937 5.012c-.537.388-1.26-.131-1.063-.765l2.54-8.172-6.91-5.049c-.535-.391-.265-1.238.398-1.247l8.557-.109 2.667-8.131c.206-.63 1.096-.634 1.309-.007l2.749 8.105 8.558.023c.663.002.942.846.41 1.242l-6.859 5.118 2.623 8.147c.204.629-.513 1.156-1.055.774zm64.448.105l6.881-5.088 7.041 4.864c.545.376 1.257-.158 1.047-.787l-2.712-8.117 6.802-5.194c.527-.403.238-1.244-.425-1.238l-8.557.071-2.838-8.074c-.22-.626-1.109-.611-1.309.021l-2.577 8.161-8.555.204c-.663.015-.924.866-.384 1.251l6.965 4.972-2.45 8.2c-.19.636.538 1.148 1.071.754zm13.763 115.761l-6.987-4.941-6.937 5.012c-.537.388-1.26-.131-1.063-.765l2.54-8.172-6.91-5.049c-.535-.391-.265-1.238.398-1.247l8.557-.109 2.667-8.131c.206-.63 1.096-.634 1.309-.007l2.749 8.105 8.558.023c.663.002.942.846.41 1.242l-6.859 5.118 2.623 8.147c.203.631-.514 1.157-1.055.774zm-102.208-49.861l-8.557.056-2.824-8.078c-.218-.626-1.108-.613-1.309.019l-2.591 8.157-8.556.19c-.663.014-.926.865-.386 1.251l6.957 4.984-2.464 8.195c-.191.634.536 1.148 1.07.754l6.89-5.076 7.033 4.876c.545.377 1.257-.156 1.048-.785l-2.699-8.121 6.81-5.182c.528-.403.241-1.245-.422-1.24zm-23.836-43.985l8.556-.161 2.617-8.148c.203-.631 1.092-.641 1.309-.014l2.798 8.087 8.558-.029c.663-.002.948.841.418 1.24l-6.827 5.16 2.673 8.13c.207.63-.506 1.161-1.05.781l-7.017-4.898-6.906 5.054c-.535.392-1.26-.124-1.068-.758l2.49-8.188-6.941-5.006c-.538-.388-.272-1.238.39-1.25zm159.428-.315l-8.557.056-2.824-8.078c-.218-.626-1.108-.614-1.309.019l-2.591 8.157-8.556.19c-.663.014-.926.865-.386 1.251l6.957 4.984-2.464 8.195c-.191.634.536 1.148 1.07.755l6.89-5.076 7.033 4.876c.545.377 1.257-.156 1.048-.785l-2.698-8.121 6.81-5.182c.527-.404.24-1.246-.423-1.241zm-23.835 44.615l8.556-.161 2.617-8.148c.203-.631 1.092-.641 1.309-.014l2.798 8.087 8.558-.029c.663-.002.948.841.418 1.24l-6.827 5.16 2.673 8.13c.207.63-.506 1.161-1.05.781l-7.017-4.898-6.906 5.054c-.535.392-1.26-.124-1.068-.758l2.49-8.188-6.941-5.006c-.538-.388-.273-1.236.39-1.25z" fill="#FFE15A"/>
  </g>
</svg>
