<svg width="512" height="336" viewBox="0 0 512 336" xmlns="http://www.w3.org/2000/svg">
  <g fill="none">
    <path d="M503.172 335.724H8.828A8.829 8.829 0 0 1 0 326.896V9.104A8.829 8.829 0 0 1 8.828.276h494.345a8.829 8.829 0 0 1 8.828 8.828v317.792a8.83 8.83 0 0 1-8.829 8.828z" fill="#F5F5F5"/>
    <g fill="#41479B">
      <path d="M512 265.103c-25.629 0-25.629-8.828-51.256-8.828-25.629 0-25.629 8.828-51.256 8.828-25.611 0-25.611-8.828-51.221-8.828-25.589 0-25.589 8.828-51.177 8.828-25.602 0-25.602-8.828-51.204-8.828-25.596 0-25.596 8.828-51.191 8.828-25.595 0-25.596-8.828-51.19-8.828-25.594 0-25.596 8.828-51.191 8.828-25.585 0-25.585-8.828-51.168-8.828-25.571 0-25.571 8.828-51.143 8.828V238.62c25.571 0 25.571-8.828 51.143-8.828 25.584 0 25.584 8.828 51.168 8.828 25.596 0 25.596-8.828 51.191-8.828 25.595 0 25.596 8.828 51.19 8.828 25.596 0 25.596-8.828 51.191-8.828 25.602 0 25.602 8.828 51.204 8.828 25.589 0 25.589-8.828 51.177-8.828 25.611 0 25.611 8.828 51.221 8.828 25.629 0 25.629-8.828 51.256-8.828 25.629 0 25.629 8.828 51.256 8.828v26.483zm0-105.931c-25.629 0-25.629-8.828-51.256-8.828-25.629 0-25.629 8.828-51.256 8.828-25.611 0-25.611-8.828-51.221-8.828-25.589 0-25.589 8.828-51.177 8.828-25.602 0-25.602-8.828-51.204-8.828-25.596 0-25.596 8.828-51.191 8.828-25.595 0-25.596-8.828-51.19-8.828-25.594 0-25.596 8.828-51.191 8.828-25.585 0-25.585-8.828-51.168-8.828-25.571 0-25.571 8.828-51.143 8.828V132.69c25.571 0 25.571-8.828 51.143-8.828 25.584 0 25.584 8.828 51.168 8.828 25.596 0 25.596-8.828 51.191-8.828 25.595 0 25.596 8.828 51.19 8.828 25.596 0 25.596-8.828 51.191-8.828 25.602 0 25.602 8.828 51.204 8.828 25.589 0 25.589-8.828 51.177-8.828 25.611 0 25.611 8.828 51.221 8.828 25.629 0 25.629-8.828 51.256-8.828 25.629 0 25.629 8.828 51.256 8.828v26.482zm0-52.965c-25.629 0-25.629-8.828-51.256-8.828-25.629 0-25.629 8.828-51.256 8.828-25.611 0-25.611-8.828-51.221-8.828-25.589 0-25.589 8.828-51.177 8.828-25.602 0-25.602-8.828-51.204-8.828-25.596 0-25.596 8.828-51.191 8.828-25.595 0-25.596-8.828-51.19-8.828-25.594 0-25.596 8.828-51.191 8.828-25.585 0-25.585-8.828-51.168-8.828-25.571 0-25.571 8.828-51.143 8.828V79.724c25.571 0 25.571-8.828 51.143-8.828 25.584 0 25.584 8.828 51.168 8.828 25.596 0 25.596-8.828 51.191-8.828 25.595 0 25.596 8.828 51.19 8.828 25.596 0 25.596-8.828 51.191-8.828 25.602 0 25.602 8.828 51.204 8.828 25.589 0 25.589-8.828 51.177-8.828 25.611 0 25.611 8.828 51.221 8.828 25.629 0 25.629-8.828 51.256-8.828 25.629 0 25.629 8.828 51.256 8.828v26.483zm0-52.965c-25.629 0-25.629-8.828-51.256-8.828-25.629 0-25.629 8.828-51.256 8.828-25.611 0-25.611-8.828-51.221-8.828-25.589 0-25.589 8.828-51.177 8.828-25.602 0-25.602-8.828-51.204-8.828-25.596 0-25.596 8.828-51.191 8.828-25.595 0-25.596-8.828-51.19-8.828-25.594 0-25.596 8.828-51.191 8.828-25.585 0-25.585-8.828-51.168-8.828-25.571 0-25.571 8.828-51.143 8.828V26.759c25.571 0 25.571-8.828 51.143-8.828 25.584 0 25.584 8.828 51.168 8.828 25.596 0 25.596-8.828 51.191-8.828 25.595 0 25.596 8.828 51.19 8.828 25.596 0 25.596-8.828 51.191-8.828 25.602 0 25.602 8.828 51.204 8.828 25.589 0 25.589-8.828 51.177-8.828 25.611 0 25.611 8.828 51.221 8.828 25.629 0 25.629-8.828 51.256-8.828 25.629 0 25.629 8.828 51.256 8.828v26.483zm0 158.896c-25.629 0-25.629-8.828-51.256-8.828-25.629 0-25.629 8.828-51.256 8.828-25.611 0-25.611-8.828-51.221-8.828-25.589 0-25.589 8.828-51.177 8.828-25.602 0-25.602-8.828-51.204-8.828-25.596 0-25.596 8.828-51.191 8.828-25.595 0-25.596-8.828-51.19-8.828-25.594 0-25.596 8.828-51.191 8.828-25.585 0-25.585-8.828-51.168-8.828-25.571 0-25.571 8.828-51.143 8.828v-26.483c25.571 0 25.571-8.828 51.143-8.828 25.584 0 25.584 8.828 51.168 8.828 25.596 0 25.596-8.828 51.191-8.828 25.595 0 25.596 8.828 51.19 8.828 25.596 0 25.596-8.828 51.191-8.828 25.602 0 25.602 8.828 51.204 8.828 25.589 0 25.589-8.828 51.177-8.828 25.611 0 25.611 8.828 51.221 8.828 25.629 0 25.629-8.828 51.256-8.828 25.629 0 25.629 8.828 51.256 8.828v26.483zm0 105.931c-25.629 0-25.629-8.828-51.256-8.828-25.629 0-25.629 8.828-51.256 8.828-25.611 0-25.611-8.828-51.221-8.828-25.589 0-25.589 8.828-51.177 8.828-25.602 0-25.602-8.828-51.204-8.828-25.596 0-25.596 8.828-51.191 8.828-25.595 0-25.596-8.828-51.19-8.828-25.594 0-25.596 8.828-51.191 8.828-25.585 0-25.585-8.828-51.168-8.828-25.571 0-25.571 8.828-51.143 8.828v-26.483c25.571 0 25.571-8.828 51.143-8.828 25.584 0 25.584 8.828 51.168 8.828 25.596 0 25.596-8.828 51.191-8.828 25.595 0 25.596 8.828 51.19 8.828 25.596 0 25.596-8.828 51.191-8.828 25.602 0 25.602 8.828 51.204 8.828 25.589 0 25.589-8.828 51.177-8.828 25.611 0 25.611 8.828 51.221 8.828 25.629 0 25.629-8.828 51.256-8.828 25.629 0 25.629 8.828 51.256 8.828v26.483z"/>
      <path d="M247.172 168H8.828A8.829 8.829 0 0 1 0 159.172V9.104A8.829 8.829 0 0 1 8.828.276h238.344A8.829 8.829 0 0 1 256 9.104v150.069a8.827 8.827 0 0 1-8.828 8.827z"/>
    </g>
    <path d="M247.172.276h-15.333l-81.77 53.573V.276h-44.138v53.573L24.161.276H8.828A8.829 8.829 0 0 0 0 9.104v7.002l70.155 45.963H0v44.138h70.155L0 152.171v7.001A8.829 8.829 0 0 0 8.828 168h15.333l81.77-53.573V168h44.138v-53.573L231.838 168h15.333a8.829 8.829 0 0 0 8.828-8.828v-7.002l-70.154-45.963h70.154V62.069h-70.155l70.155-45.963V9.104a8.827 8.827 0 0 0-8.827-8.828z" fill="#F5F5F5"/>
    <g fill="#FF4B55">
      <path d="M255.999 70.897H141.241V.276h-26.483v70.621H0v26.482h114.758V168h26.483V97.379h114.758z"/>
      <path d="M97.103 62.069L4.207 1.768C1.735 3.333 0 5.961 0 9.104v.458l80.889 52.507h16.214zm69.18 0l88.374-57.366c-1.536-2.599-4.246-4.427-7.485-4.427h-1.909l-95.194 61.793h16.214zm-76.809 44.138L1.269 163.463C2.79 166.125 5.542 168 8.828 168h1.665l95.195-61.793H89.474zm166.385 53.66l-82.666-53.659H156.98l93.873 60.934c2.813-1.305 4.741-4.04 5.006-7.275z"/>
    </g>
    <path d="M388.413 299.387a6.112 6.112 0 0 1-6.111-6.111V97.724h12.222v195.553a6.11 6.11 0 0 1-6.111 6.11z" fill="#965032"/>
    <path fill="#73AF00" d="M473.968 122.167l-12.222-6.111-45-5.624 27.842-35.797 4.321-12.964-12.963 4.322-35.797 27.841-5.624-44.998-6.112-12.223-6.111 12.223-5.624 44.998-35.797-27.841-12.963-4.322 4.321 12.964 27.842 35.797-45 5.624-12.222 6.111 12.222 6.111 45 5.626-27.842 35.795-4.321 12.965 12.963-4.321 38.89-30.248 8.642-13.705 8.642 13.705 38.891 30.248 12.963 4.321-4.321-12.965-27.842-35.795 45-5.626z"/>
    <path d="M415.018 193.34c-5.492-5.482-17.252-3.467-23.549-1.877v-5.129a3.055 3.055 0 0 0-6.11 0v5.128c-6.296-1.594-18.055-3.609-23.549 1.878-5.238 5.235-1.443 17.858 2.161 26.634v8.126a4.065 4.065 0 0 0 4.066 4.066h40.756a4.066 4.066 0 0 0 4.066-4.066v-8.126c3.602-8.776 7.397-21.4 2.159-26.634zm-4.321 4.321c2.333 2.335-.28 12.567-4.49 22.284h-14.739v-22.17c6.861-1.943 16.259-3.091 19.229-.114zm-44.567 0c2.968-2.976 12.366-1.828 19.229.114v22.169H370.62c-4.21-9.716-6.823-19.948-4.49-22.283z" fill="#FFE15A"/>
  </g>
</svg>
