<?xml version="1.0" encoding="iso-8859-1"?>
<!-- Generator: Adobe Illustrator 19.0.0, SVG Export Plug-In . SVG Version: 6.00 Build 0)  -->
<svg version="1.1" id="Layer_1" xmlns="http://www.w3.org/2000/svg" xmlns:xlink="http://www.w3.org/1999/xlink" x="0px" y="0px"
	 viewBox="0 0 512 512" style="enable-background:new 0 0 512 512;" xml:space="preserve">
<path style="fill:#464655;" d="M512,200.092H0V97.103c0-4.875,3.953-8.828,8.828-8.828h494.345c4.875,0,8.828,3.953,8.828,8.828
	V200.092z"/>
<path style="fill:#73AF00;" d="M503.172,423.724H8.828c-4.875,0-8.828-3.953-8.828-8.828V311.908h512v102.988
	C512,419.772,508.047,423.724,503.172,423.724z"/>
<rect y="200.088" style="fill:#F5F5F5;" width="512" height="111.812"/>
<path style="fill:#FF4B55;" d="M3.256,421.59l299.112-162.017c2.838-1.537,2.838-5.61,0-7.147L3.256,90.41
	C1.311,92.029,0,94.375,0,97.103v317.793C0,417.625,1.311,419.971,3.256,421.59z"/>
<path style="fill:#F5F5F5;" d="M95.399,233.164l5.247,11.381l12.169-2.994c0.76-0.186,1.389,0.602,1.038,1.302l-5.626,11.198
	l9.928,7.648c0.62,0.478,0.395,1.462-0.371,1.623l-12.263,2.583l0.211,12.531c0.013,0.782-0.897,1.22-1.5,0.723l-9.665-7.977
	l-9.665,7.977c-0.604,0.498-1.513,0.06-1.5-0.723l0.211-12.531l-12.263-2.583c-0.766-0.161-0.99-1.145-0.371-1.623l9.928-7.648
	l-5.626-11.198c-0.351-0.7,0.278-1.489,1.038-1.302l12.169,2.994l5.247-11.381C94.061,232.454,95.071,232.454,95.399,233.164z"/>
<g>
</g>
<g>
</g>
<g>
</g>
<g>
</g>
<g>
</g>
<g>
</g>
<g>
</g>
<g>
</g>
<g>
</g>
<g>
</g>
<g>
</g>
<g>
</g>
<g>
</g>
<g>
</g>
<g>
</g>
</svg>
