<svg width="512" height="336" viewBox="0 0 512 336" xmlns="http://www.w3.org/2000/svg">
  <g fill="none">
    <path d="M503.172 335.724H8.828A8.829 8.829 0 0 1 0 326.896V9.103A8.829 8.829 0 0 1 8.828.275h494.345a8.829 8.829 0 0 1 8.828 8.828v317.793a8.83 8.83 0 0 1-8.829 8.828z" fill="#FF4B55"/>
    <g fill="#FFE15A">
      <path d="M349.373 194.327s-17.586-2.932-30.613-13.735c-3.843-3.187-9.42-5.622-14.852-7.422 4.367-.194 8.999-.072 13.376.813 18.132 3.666 35.713-5.135 35.713-5.135s-17.739 1.79-33.145-5.213c-4.167-1.894-9.571-2.786-14.846-3.162 3.794-1.091 7.82-1.945 11.795-2.165 18.471-1.024 33.265-13.973 33.265-13.973s-16.714 6.204-33.388 3.311c-4.856-.843-10.817-.212-16.364.903 3.649-2.292 7.667-4.434 11.836-5.813 17.562-5.811 28.462-22.174 28.462-22.174s-14.515 10.353-31.366 11.914c-5.004.463-10.703 2.71-15.846 5.297 2.967-3.253 6.354-6.473 10.104-8.961 15.413-10.229 21.622-28.884 21.622-28.884s-11.277 13.809-27.124 19.751c-4.32 1.62-8.797 4.864-12.818 8.36 1.922-3.494 4.181-6.989 6.865-9.991 12.329-13.791 13.622-33.409 13.622-33.409s-7.423 16.21-21.253 25.963c-4.032 2.844-7.8 7.512-10.934 12.23.958-4.206 2.281-8.568 4.254-12.499 8.299-16.533 4.424-35.808 4.424-35.808s-2.932 17.586-13.735 30.613c-3.187 3.843-5.622 9.42-7.422 14.854-.194-4.367-.072-8.999.813-13.376 3.666-18.132-5.135-35.713-5.135-35.713s1.79 17.739-5.214 33.145c-1.894 4.167-2.786 9.571-3.162 14.846-1.091-3.794-1.945-7.82-2.165-11.795-1.024-18.471-13.973-33.265-13.973-33.265s6.204 16.714 3.311 33.388c-.843 4.856-.212 10.817.903 16.365-2.292-3.649-4.434-7.667-5.813-11.837-5.811-17.562-22.174-28.462-22.174-28.462s10.353 14.515 11.914 31.366c.463 5.004 2.71 10.705 5.298 15.847-3.253-2.967-6.473-6.354-8.962-10.105-10.229-15.413-28.884-21.621-28.884-21.621s13.809 11.277 19.751 27.124c1.62 4.32 4.864 8.798 8.36 12.818-3.494-1.922-6.989-4.181-9.991-6.865-13.791-12.329-33.409-13.622-33.409-13.622s16.21 7.423 25.963 21.254c2.842 4.031 7.511 7.8 12.227 10.934-4.205-.958-8.567-2.281-12.497-4.254-16.533-8.299-35.808-4.424-35.808-4.424s17.586 2.932 30.613 13.735c3.843 3.187 9.42 5.622 14.854 7.422-4.367.194-8.999.072-13.376-.813-18.132-3.666-35.713 5.135-35.713 5.135s17.739-1.79 33.145 5.214c4.167 1.894 9.571 2.786 14.846 3.162-3.794 1.091-7.82 1.945-11.795 2.165-18.471 1.024-33.265 13.973-33.265 13.973s16.714-6.204 33.388-3.311c4.856.843 10.817.212 16.365-.903-3.649 2.292-7.667 4.434-11.837 5.813-17.562 5.811-28.462 22.174-28.462 22.174s14.515-10.353 31.366-11.914c5.004-.463 10.705-2.71 15.847-5.298-2.967 3.253-6.354 6.473-10.105 8.962-15.413 10.229-21.622 28.884-21.622 28.884s11.277-13.809 27.124-19.751c4.319-1.62 8.797-4.864 12.817-8.36-1.921 3.493-4.181 6.989-6.863 9.99-12.329 13.791-13.622 33.409-13.622 33.409s7.423-16.21 21.254-25.963c4.032-2.844 7.8-7.512 10.934-12.228-.958 4.206-2.281 8.567-4.254 12.498-8.299 16.533-4.424 35.808-4.424 35.808s2.932-17.586 13.735-30.613c3.187-3.843 5.622-9.42 7.422-14.854.194 4.369.072 9-.813 13.377-3.666 18.132 5.135 35.712 5.135 35.712s-1.79-17.738 5.214-33.144c1.894-4.167 2.786-9.572 3.162-14.846 1.091 3.794 1.945 7.82 2.165 11.795 1.024 18.471 13.973 33.265 13.973 33.265s-6.204-16.715-3.311-33.388c.843-4.856.212-10.817-.903-16.364 2.292 3.649 4.434 7.666 5.813 11.836 5.811 17.562 22.174 28.462 22.174 28.462s-10.353-14.515-11.914-31.367c-.463-5.004-2.71-10.705-5.298-15.847 3.253 2.967 6.473 6.354 8.962 10.105 10.229 15.413 28.884 21.622 28.884 21.622s-13.809-11.277-19.751-27.124c-1.62-4.319-4.864-8.797-8.36-12.817 3.493 1.921 6.988 4.181 9.99 6.863 13.791 12.329 33.409 13.622 33.409 13.622s-16.21-7.423-25.963-21.254c-2.844-4.032-7.512-7.801-12.23-10.934 4.206.958 8.567 2.281 12.498 4.254 16.532 8.298 35.807 4.423 35.807 4.423zm-93.394 18.497c-24.753 0-44.819-20.066-44.819-44.819 0-24.753 20.066-44.819 44.819-44.819 24.753 0 44.819 20.066 44.819 44.819 0 24.753-20.066 44.819-44.819 44.819z"/>
      <path d="M241.769 149.867c.956-.746 1.907-1.495 2.873-2.161-6.35-2.888-12.066-4.275-16.076-4.896-.638.694-1.214 1.439-1.799 2.179 3.938.765 9.229 2.225 15.002 4.878zm-11.275-9.035c4.309.487 10.547 1.77 17.468 4.747a60.092 60.092 0 0 1 3.47-1.895c-7.473-3.068-14.219-4.211-18.862-4.564-.698.566-1.422 1.098-2.076 1.712zm22.438 20.774a55.126 55.126 0 0 0-2.712-2.398c-8.391 7.986-15.732 19.633-19.046 36.532 1.205 1.078 2.401 2.168 3.738 3.085 2.435-17.187 9.572-29.05 18.02-37.219zm-3.254-7.423c.951-.765 1.901-1.533 2.865-2.217-1.174-.749-2.344-1.407-3.51-2.048-.999.684-1.999 1.346-2.986 2.115a63.966 63.966 0 0 1 3.631 2.15zm23.188-2.164c7.194 6.319 13.77 15.217 18.449 27.553 1.201-3.663 2.013-7.503 2.013-11.567a37.169 37.169 0 0 0-6.354-20.835c-3.71.738-8.691 2.18-14.108 4.849zm-19.664 4.565c.937.696 1.855 1.482 2.777 2.255.921-.774 1.839-1.559 2.777-2.255-.922-.768-1.842-1.524-2.777-2.214-.935.691-1.854 1.446-2.777 2.214zm2.777-10.815a62.75 62.75 0 0 0-3.527 1.964 60.658 60.658 0 0 1 3.527 2.004 62.193 62.193 0 0 1 3.527-2.004 62.124 62.124 0 0 0-3.527-1.964zm-28.875 45.657c3.951-16.135 11.399-27.189 19.734-34.793a55.57 55.57 0 0 0-3.49-2.276c-8.021 7.053-15.279 17.245-19.751 31.929a37.037 37.037 0 0 0 3.507 5.14zm11.988-39.407c-5.417-2.67-10.398-4.11-14.109-4.85a37.169 37.169 0 0 0-6.354 20.835c0 4.064.812 7.904 2.013 11.567 4.68-12.336 11.255-21.233 18.45-27.552zm16.887-10.441c7.946-3.283 15.276-4.449 20.489-4.757-5.887-3.876-12.914-6.165-20.489-6.165-7.575 0-14.602 2.29-20.489 6.165 5.213.308 12.543 1.473 20.489 4.757zm0 23.187c-7.449 8.255-13.597 20.107-15.592 37.081 4.758 2.198 10.007 3.508 15.592 3.508 5.586 0 10.834-1.31 15.592-3.508-1.995-16.973-8.143-28.826-15.592-37.081zm12.631-10.408a57.085 57.085 0 0 0-3.49 2.276c8.334 7.603 15.783 18.658 19.734 34.793a37.096 37.096 0 0 0 3.507-5.14c-4.471-14.683-11.73-24.876-19.751-31.929zm12.173 41.383c-3.314-16.899-10.655-28.545-19.046-36.532a54.67 54.67 0 0 0-2.712 2.398c8.448 8.169 15.585 20.032 18.019 37.218 1.338-.916 2.534-2.006 3.739-3.084zm-20.257-52.057a60.37 60.37 0 0 1 3.47 1.895c6.921-2.977 13.159-4.26 17.468-4.747-.654-.614-1.378-1.146-2.076-1.713-4.643.355-11.389 1.498-18.862 4.565zm1.754 10.5a64.564 64.564 0 0 1 3.631-2.15c-.986-.769-1.987-1.431-2.986-2.115-1.166.642-2.335 1.299-3.51 2.048.963.684 1.914 1.453 2.865 2.217zm7.909-4.316c5.773-2.653 11.064-4.113 15-4.877-.585-.74-1.16-1.486-1.799-2.179-4.01.621-9.726 2.007-16.076 4.896.968.664 1.92 1.414 2.875 2.16z"/>
    </g>
  </g>
</svg>
