<svg width="512" height="336" viewBox="0 0 512 336" xmlns="http://www.w3.org/2000/svg">
  <g fill="none">
    <path d="M512.001 168H0V9.103A8.829 8.829 0 0 1 8.828.275h494.345a8.829 8.829 0 0 1 8.828 8.828V168z" fill="#41479B"/>
    <path d="M0 168h512v158.897a8.829 8.829 0 0 1-8.828 8.828H8.828A8.829 8.829 0 0 1 0 326.897V168z" fill="#FF4B55"/>
    <path d="M164.028 100.687a1.237 1.237 0 0 0-.708-.749 23.121 23.121 0 0 0-1.839-.59c.489-.662.834-1.438.834-2.322 0-.758-.269-1.427-.638-2.031 1.222-.683 2.083-1.94 2.083-3.435 0-1.185-.544-2.221-1.368-2.952.988-.726 1.672-1.841 1.672-3.157 0-1.469-.836-2.702-2.023-3.394.623-.704 1.033-1.604 1.033-2.616 0-1.761-1.167-3.212-2.755-3.738.362-.6.627-1.265.627-2.016 0-2.164-1.739-3.913-3.892-3.968.089-.332.205-.655.205-1.015a3.993 3.993 0 0 0-3.989-3.988c-.371 0-.705.117-1.046.212.006-.088.051-.163.051-.254a3.993 3.993 0 0 0-3.988-3.988c-.756 0-1.422.267-2.026.633-.465-1.686-1.947-2.954-3.778-2.954a3.973 3.973 0 0 0-2.817 1.169c-.675-1.246-1.95-2.125-3.464-2.125-1.382 0-2.541.749-3.257 1.818-.728-.774-1.743-1.271-2.887-1.271-1.476 0-2.716.843-3.405 2.037-.73-.818-1.763-1.356-2.944-1.356-1.46 0-2.684.826-3.379 1.998-.679-.534-1.496-.904-2.424-.904-1.676 0-3.101 1.046-3.69 2.515a3.965 3.965 0 0 0-2.763-1.132c-1.521 0-2.802.886-3.474 2.141a3.837 3.837 0 0 0-.931-.427 7.734 7.734 0 0 0 1.332-4.35c0-3.125-1.862-5.807-4.525-7.046l1.118-2.237a1.233 1.233 0 0 0 0-1.101l-1.346-2.692c.098-.089.191-.182.28-.28l2.695 1.346a1.227 1.227 0 0 0 1.096-.003l6.554-3.277a1.226 1.226 0 0 0 0-2.196l-6.554-3.277a1.226 1.226 0 0 0-1.098 0l-2.692 1.346a4.721 4.721 0 0 0-.282-.284l1.346-2.692a1.233 1.233 0 0 0 0-1.101l-3.277-6.554c-.416-.832-1.783-.832-2.199 0l-3.277 6.554a1.233 1.233 0 0 0 0 1.101l1.346 2.692a4.109 4.109 0 0 0-.28.28l-2.695-1.346a1.226 1.226 0 0 0-1.098.003l-6.554 3.277a1.226 1.226 0 0 0 0 2.196l6.554 3.277c.173.086.36.131.548.131.189 0 .376-.045.548-.131l2.692-1.346c.09.099.184.193.282.284l-1.346 2.692a1.233 1.233 0 0 0 0 1.101l1.118 2.237c-2.663 1.238-4.525 3.921-4.525 7.046 0 1.577.479 3.041 1.288 4.268a3.85 3.85 0 0 0-1.336.51c-.672-1.255-1.953-2.141-3.474-2.141a3.963 3.963 0 0 0-2.763 1.132 3.98 3.98 0 0 0-3.69-2.515c-.929 0-1.747.37-2.424.904-.695-1.172-1.92-1.998-3.379-1.998-1.181 0-2.214.538-2.944 1.356-.69-1.195-1.929-2.037-3.405-2.037-1.143 0-2.159.498-2.887 1.271-.716-1.069-1.876-1.818-3.257-1.818-1.514 0-2.788.879-3.464 2.125a3.973 3.973 0 0 0-2.817-1.169c-1.832 0-3.314 1.268-3.778 2.954-.602-.366-1.27-.633-2.026-.633a3.993 3.993 0 0 0-3.988 3.988c0 .089.045.166.051.254-.341-.095-.675-.212-1.046-.212a3.993 3.993 0 0 0-3.989 3.988c0 .36.116.683.205 1.015-2.153.055-3.892 1.804-3.892 3.968 0 .751.265 1.416.627 2.016-1.588.526-2.755 1.976-2.755 3.738 0 1.012.409 1.912 1.033 2.616-1.186.692-2.023 1.924-2.023 3.394 0 1.318.684 2.431 1.672 3.157-.824.732-1.368 1.767-1.368 2.952 0 1.495.862 2.752 2.083 3.435-.369.605-.638 1.273-.638 2.031 0 .931.371 1.751.907 2.43-.888.263-1.433.47-1.463.482a1.234 1.234 0 0 0-.598 1.776c.097.16 9.76 16.386 12.959 32.378.079.396.366.651.704.811 2.457 3.319 23.746 5.913 49.66 5.913 25.914 0 47.202-2.594 49.66-5.913.338-.161.626-.415.704-.811 3.196-15.98 12.861-32.218 12.959-32.378.185-.31.226-.685.111-1.028z" fill="#FFE15A"/>
    <g fill="#464655">
      <path d="M164.028 100.687a1.237 1.237 0 0 0-.708-.749 23.121 23.121 0 0 0-1.839-.59c.489-.662.834-1.438.834-2.322 0-.758-.269-1.427-.638-2.031 1.222-.683 2.083-1.94 2.083-3.435 0-1.185-.544-2.221-1.368-2.952.988-.726 1.672-1.841 1.672-3.157 0-1.469-.836-2.702-2.023-3.394.623-.704 1.033-1.604 1.033-2.616 0-1.761-1.167-3.212-2.755-3.738.362-.6.627-1.265.627-2.016 0-2.164-1.739-3.913-3.892-3.968.089-.332.205-.655.205-1.015a3.993 3.993 0 0 0-3.989-3.988c-.371 0-.705.117-1.046.212.006-.088.051-.163.051-.254a3.993 3.993 0 0 0-3.988-3.988c-.756 0-1.422.267-2.026.633-.465-1.686-1.947-2.954-3.778-2.954a3.973 3.973 0 0 0-2.817 1.169c-.675-1.246-1.95-2.125-3.464-2.125-1.382 0-2.541.749-3.257 1.818-.728-.774-1.743-1.271-2.887-1.271-1.476 0-2.716.843-3.405 2.037-.73-.818-1.763-1.356-2.944-1.356-1.46 0-2.684.826-3.379 1.998-.679-.534-1.496-.904-2.424-.904-1.676 0-3.101 1.046-3.69 2.515a3.965 3.965 0 0 0-2.763-1.132c-1.521 0-2.802.886-3.474 2.141a3.837 3.837 0 0 0-.931-.427 7.734 7.734 0 0 0 1.332-4.35c0-3.125-1.862-5.807-4.525-7.046l1.118-2.237a1.233 1.233 0 0 0 0-1.101l-1.346-2.692c.098-.089.191-.182.28-.28l2.695 1.346a1.227 1.227 0 0 0 1.096-.003l6.554-3.277a1.226 1.226 0 0 0 0-2.196l-6.554-3.277a1.226 1.226 0 0 0-1.098 0l-2.692 1.346a4.721 4.721 0 0 0-.282-.284l1.346-2.692a1.233 1.233 0 0 0 0-1.101l-3.277-6.554c-.416-.832-1.783-.832-2.199 0l-3.277 6.554a1.233 1.233 0 0 0 0 1.101l1.346 2.692a4.109 4.109 0 0 0-.28.28l-2.695-1.346a1.226 1.226 0 0 0-1.098.003l-6.554 3.277a1.226 1.226 0 0 0 0 2.196l6.554 3.277c.173.086.36.131.548.131.189 0 .376-.045.548-.131l2.692-1.346c.09.099.184.193.282.284l-1.346 2.692a1.233 1.233 0 0 0 0 1.101l1.118 2.237c-2.663 1.238-4.525 3.921-4.525 7.046 0 1.577.479 3.041 1.288 4.268a3.85 3.85 0 0 0-1.336.51c-.672-1.255-1.953-2.141-3.474-2.141a3.963 3.963 0 0 0-2.763 1.132 3.98 3.98 0 0 0-3.69-2.515c-.929 0-1.747.37-2.424.904-.695-1.172-1.92-1.998-3.379-1.998-1.181 0-2.214.538-2.944 1.356-.69-1.195-1.929-2.037-3.405-2.037-1.143 0-2.159.498-2.887 1.271-.716-1.069-1.876-1.818-3.257-1.818-1.514 0-2.788.879-3.464 2.125a3.973 3.973 0 0 0-2.817-1.169c-1.832 0-3.314 1.268-3.778 2.954-.602-.366-1.27-.633-2.026-.633a3.993 3.993 0 0 0-3.988 3.988c0 .089.045.166.051.254-.341-.095-.675-.212-1.046-.212a3.993 3.993 0 0 0-3.989 3.988c0 .36.116.683.205 1.015-2.153.055-3.892 1.804-3.892 3.968 0 .751.265 1.416.627 2.016-1.588.526-2.755 1.976-2.755 3.738 0 1.012.409 1.912 1.033 2.616-1.186.692-2.023 1.924-2.023 3.394 0 1.318.684 2.431 1.672 3.157-.824.732-1.368 1.767-1.368 2.952 0 1.495.862 2.752 2.083 3.435-.369.605-.638 1.273-.638 2.031 0 .931.371 1.751.907 2.43-.888.263-1.433.47-1.463.482a1.234 1.234 0 0 0-.598 1.776c.097.16 9.76 16.386 12.959 32.378.079.396.366.651.704.811 2.457 3.319 23.746 5.913 49.66 5.913 25.914 0 47.202-2.594 49.66-5.913.338-.161.626-.415.704-.811 3.196-15.98 12.861-32.218 12.959-32.378.185-.31.226-.685.111-1.028zm-34.742-7.916V73.538a37.46 37.46 0 0 1 4.533-.127v19.98c-1.356-.655-2.887-.846-4.533-.62zM115.14 66.575c.034.033.082.047.117.079l-.157.034c.017-.038.026-.076.04-.113zm43.186 28.921a1.53 1.53 0 0 1 0 3.058 1.53 1.53 0 0 1 0-3.058zm1.443-2.407a1.53 1.53 0 1 1 .002-3.06 1.53 1.53 0 0 1-.002 3.06zm-1.223-7.639a1.53 1.53 0 1 1 3.06.001 1.53 1.53 0 0 1-3.06-.001zm-45.701 15.237c-1.468-5.581-3.373-13.982-4.177-22.38.845-.296 2.297-.781 4.177-1.35v23.73zm-20.486-22.28c-.865 8.937-2.976 17.889-4.463 23.4V76.955c2.108.638 3.689 1.177 4.463 1.452zm9.766-10.098a1.53 1.53 0 1 1-3.06-.001 1.53 1.53 0 0 1 3.06.001zm-16.523-1.726l-.01-.002s.006-.003.008-.006l.002.008zM40.665 83.921a1.53 1.53 0 0 1 0 3.058 1.53 1.53 0 0 1 0-3.058zM42.5 91.56a1.53 1.53 0 1 1-3.06-.001 1.53 1.53 0 0 1 3.06.001zm-.086 3.936a1.53 1.53 0 0 1 0 3.058 1.53 1.53 0 0 1 0-3.058zm6.311-20.706c2.406-3.892 7.102-8.53 15.82-8.53 8.512 0 20.522 2.601 28.214 4.513a72.939 72.939 0 0 1-.191 5.098c-5.248-1.827-26.121-8.508-34.999-2.432-10.047 6.89-6.872 20.033-4.995 25.476a19.754 19.754 0 0 0-4.761-.66c-3.629-7.281-3.265-16.706.912-23.465zm6.923 25.317c-.864-2.009-6.389-15.905 1.824-23.42v24.518a14.442 14.442 0 0 0-1.824-1.098zm4.282-25.151c1.298-.673 2.828-1.109 4.533-1.341v21.87c-2.465 2.499-3.561 5.938-4.044 8.524-.156-.196-.328-.354-.49-.537V74.956h.001zm6.992-1.547a37.46 37.46 0 0 1 4.533.127v19.213c-.268-.024-.548-.093-.81-.093-1.208 0-2.342.253-3.372.771-.127.063-.23.149-.352.216V73.408h.001v.001zm6.991.391c1.523.202 3.043.467 4.533.765v21.037c-1.56-1.076-3.078-1.854-4.533-2.329V73.8zm6.992 1.293c1.611.371 3.132.76 4.533 1.151v26.012a36.035 36.035 0 0 0-4.533-4.748V75.093zm14.301-3.699c1.848.48 3.306.879 4.161 1.12v20.844c-3.331.337-5.876 2.038-7.818 4.129 1.73-7.206 3.593-17.04 3.657-26.093zm6.618 1.12a217.02 217.02 0 0 1 4.009-1.08c.068 8.961 1.895 18.677 3.609 25.856-1.918-1.996-4.396-3.605-7.617-3.93V72.515h-.001v-.001zm13.479 3.732c1.402-.39 2.922-.78 4.533-1.151v22.606c0 .057.025.107.033.163a36.28 36.28 0 0 0-4.566 4.989V76.246zm6.991-1.679a70.472 70.472 0 0 1 4.533-.765v19.586c-1.458.535-2.979 1.384-4.533 2.507V74.567zm13.983-.95c1.706.232 3.235.666 4.533 1.34v28.788c0 .064.026.12.036.181-.024.031-.052.054-.076.084-.51-2.732-1.724-6.398-4.493-8.919V73.617zm6.991 3.072c8.799 8.056 1.79 23.505 1.714 23.669-.008.017-.006.034-.012.051-.584.332-1.149.722-1.702 1.151V76.689zm-.098-3.25c-8.702-5.96-28.974.36-34.709 2.332a71.948 71.948 0 0 1-.183-4.959c7.684-1.917 19.798-4.552 28.366-4.552 8.718 0 13.415 4.638 15.82 8.53 4.177 6.76 4.542 16.184.913 23.466-1.71.034-3.502.275-5.262.81 1.869-5.351 5.193-18.675-4.945-25.627zm15.915 7.531a1.53 1.53 0 1 1 .002-3.06 1.53 1.53 0 0 1-.002 3.06zm-.597-7.285c0 .845-.686 1.533-1.532 1.533a1.534 1.534 0 0 1-1.529-1.533 1.53 1.53 0 0 1 3.061 0zm-3.686-4.983a1.53 1.53 0 1 1-3.06-.002 1.53 1.53 0 0 1 3.06.002zm-6.515-5.559a1.53 1.53 0 1 1-.002 3.06 1.53 1.53 0 0 1 .002-3.06zm-5.804-2.321a1.53 1.53 0 0 1 0 3.058 1.53 1.53 0 0 1 0-3.058zm-6.281-.957a1.53 1.53 0 1 1-.002 3.06 1.53 1.53 0 0 1 .002-3.06zm-6.145.548a1.53 1.53 0 1 1-.002 3.06 1.53 1.53 0 0 1 .002-3.06zm-6.349.682a1.53 1.53 0 1 1-.002 3.06 1.53 1.53 0 0 1 .002-3.06zm-5.805 1.094a1.53 1.53 0 0 1 0 3.058 1.53 1.53 0 0 1 0-3.058zm-6.451 1.383a1.53 1.53 0 0 1 0 3.058 1.53 1.53 0 0 1 0-3.058zm-5.531 4.544a1.53 1.53 0 0 1 0-3.058 1.53 1.53 0 0 1 0 3.058zM98.547 42.09a2.05 2.05 0 0 1 2.048-2.048 2.05 2.05 0 0 1 2.048 2.048 2.05 2.05 0 0 1-2.048 2.048 2.05 2.05 0 0 1-2.048-2.048zm8.602-1.904l3.807 1.905-3.807 1.905-2.133-1.067a4.46 4.46 0 0 0 .085-.838 4.47 4.47 0 0 0-.085-.839l2.133-1.066zm-8.457-4.651l1.902-3.806 1.902 3.806-1.067 2.133a4.43 4.43 0 0 0-.836-.085c-.287 0-.565.033-.836.085l-1.065-2.133zm-4.652 8.459l-3.807-1.905 3.807-1.905 2.133 1.067a4.46 4.46 0 0 0-.085.838c0 .287.033.566.085.839l-2.133 1.066zm4.652 4.65l1.067-2.133c.271.052.55.085.836.085.286 0 .565-.033.836-.085l1.067 2.133-1.066 2.133c-.278-.03-.55-.085-.836-.085-.287 0-.558.054-.836.085l-1.068-2.133zm1.903 4.507a5.33 5.33 0 0 1 5.325 5.325 5.33 5.33 0 0 1-5.325 5.325 5.33 5.33 0 0 1-5.325-5.325 5.33 5.33 0 0 1 5.325-5.325zM94.82 65.057a1.53 1.53 0 0 1 0 3.058 1.53 1.53 0 0 1 0-3.058zm-5.53-1.485a1.53 1.53 0 0 1 0 3.058 1.53 1.53 0 0 1 0-3.058zm-6.453-1.383a1.53 1.53 0 0 1 0 3.058 1.53 1.53 0 0 1 0-3.058zm-5.803-1.094a1.531 1.531 0 1 1 0 3.062 1.534 1.534 0 0 1-1.529-1.533 1.528 1.528 0 0 1 1.529-1.529zm-6.35-.682c.845 0 1.532.685 1.532 1.529a1.53 1.53 0 0 1-3.061 0 1.53 1.53 0 0 1 1.529-1.529zm-6.146-.548a1.531 1.531 0 1 1 0 3.062 1.53 1.53 0 1 1 0-3.062zm-6.28.957a1.53 1.53 0 0 1 0 3.058 1.53 1.53 0 0 1 0-3.058zm-5.804 2.321a1.531 1.531 0 1 1 0 3.062 1.534 1.534 0 0 1-1.529-1.533 1.529 1.529 0 0 1 1.529-1.529zm-4.983 4.029a1.53 1.53 0 1 1-.002 3.06 1.53 1.53 0 0 1 .002-3.06zm-3.687 4.984a1.53 1.53 0 1 1-.002 3.06 1.53 1.53 0 0 1 .002-3.06zm-2.129 5.754a1.53 1.53 0 1 1-.002 3.06 1.53 1.53 0 0 1 .002-3.06zm107.122 54.669c-5.667-2.803-25.06-4.871-48.181-4.871s-42.515 2.068-48.182 4.871c-2.931-13.569-9.939-26.697-12.275-30.823 3.892-1.194 15.034-3.562 20.03 6.43a1.23 1.23 0 0 0 2.33-.55c0-.089.067-9.106 5.875-12.011 5.751-2.861 15.055 6.637 18.015 12.562a1.212 1.212 0 0 0 .449.466c.039.024.075.046.117.065.053.026.095.067.153.086.127.042.255.061.38.061.023 0 .042-.02.065-.021.024 0 .043.015.068.014.116-.013.201-.092.305-.135.11-.044.221-.065.314-.138.114-.089.174-.218.252-.343.051-.083.136-.132.168-.228.036-.113.189-.59.415-1.334 1.074-3.105 4.477-10.923 11.524-10.923 5.981 0 9.336 5.633 10.873 9.237.501 1.731.854 2.84.913 3.02a1.23 1.23 0 0 0 1.55.79c.022-.008.038-.025.06-.033.342-.087.651-.258.814-.584 2.962-5.928 12.274-15.404 18.015-12.562a7.77 7.77 0 0 1 1.079.66c.333.281.558.489.938.794 3.785 3.694 3.858 10.478 3.858 10.557.001.569.394 1.066.948 1.197a1.233 1.233 0 0 0 1.382-.647c4.986-9.97 16.13-7.617 20.029-6.426-2.344 4.129-9.35 17.254-12.281 30.819z"/>
      <path d="M105.443 105.561c-.159.131-.314.27-.468.414-1.192 1.122-3.153.241-3.153-1.397v-.221a1.23 1.23 0 0 0-2.458 0v.221c0 1.638-1.96 2.519-3.153 1.397a10.733 10.733 0 0 0-.468-.414 1.227 1.227 0 0 0-1.73.163 1.228 1.228 0 0 0 .161 1.731c3.358 2.781 5.188 9.358 5.188 11.957v1.332a1.23 1.23 0 0 0 2.458 0v-1.332c0-2.599 1.831-9.175 5.188-11.957a1.229 1.229 0 0 0-1.565-1.894zm27.866 5.163c-.145-.011-.288-.015-.433-.011-1.151.079-2.275-1.555-1.717-2.823l.071-.161c.215-.49.051-1.292-.359-1.813-.409-.52-.94-.492-1.194.084-.026.062-.054.122-.082.185-.58 1.318-2.251.924-2.514-1.013a34.985 34.985 0 0 0-.106-.754c-.129-.819-.6-1.387-1.102-1.16-.499.218-.836 1.137-.716 1.969.711 5.494-.104 11.288-1.035 13.395l-.491 1.117c-.253.574.07 1.018.729.97.66-.05 1.377-.503 1.593-.992l.428-.974c.882-2.01 4.577-6.467 7.604-6.236.487-.003.694-.32.5-.796-.193-.472-.706-.947-1.176-.987zm18.233 3.824c-.12 0-.239.007-.36.021-.966.161-1.785-1.338-1.227-2.606l.071-.161c.215-.49.137-1.255-.167-1.728-.303-.473-.748-.408-1.002.169-.026.062-.054.122-.082.184-.58 1.318-1.945 1.058-2.024-.797-.009-.239-.02-.481-.033-.722-.047-.783-.399-1.299-.835-1.042-.433.248-.78 1.162-.74 1.958.192 5.267-.91 10.934-1.841 13.041l-.491 1.117c-.253.574-.015.98.538.886.555-.097 1.186-.587 1.401-1.077l.428-.974c.882-2.01 4.29-6.593 6.798-6.59.407-.039.602-.36.476-.807-.126-.445-.52-.869-.91-.872zm-74.493 4.076c-.931-2.106-1.746-7.901-1.035-13.395.12-.831-.217-1.749-.716-1.969-.502-.227-.974.341-1.102 1.16-.039.252-.073.503-.106.754-.264 1.937-1.934 2.329-2.514 1.013l-.082-.185c-.254-.577-.783-.604-1.194-.084-.409.521-.574 1.322-.359 1.813l.071.161c.558 1.268-.567 2.902-1.717 2.823-.145-.004-.288 0-.433.011-.47.04-.984.514-1.178.988-.194.476.013.792.5.796 3.027-.232 6.722 4.225 7.604 6.236l.428.974c.215.49.932.942 1.593.992.66.049.982-.395.729-.97a188.45 188.45 0 0 0-.489-1.118zm-19.18 4.239c-.93-2.106-2.033-7.774-1.841-13.041.04-.796-.309-1.709-.74-1.958-.436-.257-.788.259-.835 1.042-.014.241-.024.482-.033.722-.078 1.855-1.443 2.114-2.024.797-.028-.062-.054-.124-.082-.184-.254-.577-.698-.642-1.002-.169-.303.473-.383 1.238-.167 1.728l.071.161c.558 1.268-.262 2.767-1.227 2.606a3.13 3.13 0 0 0-.36-.021c-.39.003-.783.426-.911.871-.127.446.07.768.476.807 2.508-.003 5.917 4.579 6.798 6.59l.428.974c.215.49.847.98 1.401 1.077.554.095.791-.311.538-.886l-.49-1.116z"/>
    </g>
  </g>
</svg>
