<svg width="512" height="336" viewBox="0 0 512 336" xmlns="http://www.w3.org/2000/svg">
  <g fill="none">
    <path d="M341.333.276h161.839A8.829 8.829 0 0 1 512 9.104v317.793a8.829 8.829 0 0 1-8.828 8.828H341.333V.276z" fill="#FF4B55"/>
    <path fill="#FFE15A" d="M170.67.276h170.67v335.448H170.67z"/>
    <path d="M8.828.276h161.839v335.448H8.828A8.829 8.829 0 0 1 0 326.896V9.103A8.828 8.828 0 0 1 8.828.276z" fill="#41479B"/>
    <path fill="#FFCD5A" d="M267.254 203.956l4.392-3.58 20.012 24.543-4.392 3.58z"/>
    <path fill="#FFBE5A" d="M265.062 205.753l8.784-7.156 8.802 10.805-8.783 7.156z"/>
    <path fill="#FFCD5A" d="M227.177 228.52l-4.391-3.581 20.012-24.544 4.391 3.58z"/>
    <path fill="#FFBE5A" d="M240.573 216.555l-8.783-7.156 8.802-10.805 8.784 7.155z"/>
    <path fill="#FFE15A" d="M250.14 209.586l-14.163 28.327 19.828 14.163v-39.657z"/>
    <path fill="#FFCD5A" d="M261.471 209.586l14.163 28.327-19.829 14.163v-39.657z"/>
    <path d="M216.148 209.586v-73.65h8.498v56.653c0 8.499-8.498 16.997-8.498 16.997z" fill="#FFBE5A"/>
    <path d="M210.482 223.75v-87.814h8.498v70.817c-.001 8.498-8.498 16.997-8.498 16.997z" fill="#FFCD5A"/>
    <path d="M204.817 235.081v-99.144h8.498v82.148c0 8.497-8.498 16.996-8.498 16.996z" fill="#FFE15A"/>
    <path d="M224.646 138.769v53.821c0 14.164 20.537 12.275 31.159 22.661 10.623-10.387 31.159-8.498 31.159-22.661v-53.821h-62.318z" fill="#FF4B55"/>
    <path d="M224.646 169.929v22.662c0 14.164 20.537 12.275 31.159 22.661 10.623-10.387 31.159-8.498 31.159-22.662v-22.662l-62.318.001z" fill="#41479B"/>
    <g fill="#FFE15A">
      <path d="M255.805 206.753l-8.498-5.665v-2.833l2.833-2.832v-16.997l-8.498-5.665 8.498-11.331h2.832l2.833 2.834 2.833-2.834h2.833l8.498 11.331-8.498 5.665v16.997l2.832 2.832v2.833z"/>
      <path d="M244.474 141.602s-11.33 2.833-11.33 14.164 11.33 16.996 11.33 16.996l5.665-8.498c-16.996-5.666-5.665-22.662-5.665-22.662zm22.662 0s11.33 2.833 11.33 14.164-11.33 16.996-11.33 16.996l-5.665-8.498c16.995-5.666 5.665-22.662 5.665-22.662z"/>
      <path d="M227.478 169.929l5.665 2.832 5.666-2.832-5.666-2.833zm45.323 0l5.665 2.832 5.666-2.832-5.666-2.833zm-16.996-26.911l2.06 2.11 2.947-.036-.034 2.948 2.109 2.06-2.109 2.059.034 2.948-2.947-.035-2.06 2.11-2.059-2.11-2.949.035.036-2.948-2.109-2.059 2.109-2.06-.036-2.948 2.949.036zM236.568 182.3l2.042 2.272 2.84-1.126c1.471-.583 2.851 1.016 2.059 2.386l-1.529 2.645 1.949 2.354c1.009 1.218-.086 3.026-1.633 2.696l-2.988-.638-1.636 2.581c-.847 1.336-2.904.853-3.069-.721l-.318-3.039-2.959-.758c-1.533-.393-1.709-2.498-.264-3.14l2.792-1.24-.193-3.049c-.097-1.582 1.85-2.4 2.907-1.223zm37.729 6.458c.625-3.222 3.283-5.503 6.382-5.847-.636-.342-1.312-.625-2.057-.769a7.318 7.318 0 0 0-2.786 14.368c.746.145 1.479.136 2.195.056-2.745-1.477-4.358-4.586-3.734-7.808zm-29.823-49.989l5.665-28.327-11.33-8.498 2.833-2.833h5.665s2.833-2.833 8.498-2.833c5.665 0 11.33 2.833 11.33 11.33s2.833 31.159 2.833 31.159h-25.494v.002z"/>
    </g>
    <path d="M224.646 127.438c-6.258 0-11.33 5.073-11.33 11.33h22.662c-.001-6.257-5.075-11.33-11.332-11.33z" fill="#FFAA5A"/>
    <path d="M221.813 138.769h-16.996v-18.855a6.64 6.64 0 0 1 6.639-6.639h3.718a6.64 6.64 0 0 1 6.639 6.639v18.855zm73.65 70.817v-73.65h-8.498v56.653c0 8.499 8.498 16.997 8.498 16.997z" fill="#FFBE5A"/>
    <path d="M301.128 223.75v-87.814h-8.498v70.817c0 8.498 8.498 16.997 8.498 16.997z" fill="#FFCD5A"/>
    <path d="M306.794 235.081v-99.144h-8.498v82.148c-.001 8.497 8.498 16.996 8.498 16.996z" fill="#FFE15A"/>
    <path d="M286.965 127.438c6.258 0 11.33 5.073 11.33 11.33h-22.662c.001-6.257 5.074-11.33 11.332-11.33z" fill="#FFAA5A"/>
    <path d="M289.798 138.769h16.996v-18.855a6.64 6.64 0 0 0-6.639-6.639h-3.717a6.64 6.64 0 0 0-6.639 6.639v18.855h-.001z" fill="#FFBE5A"/>
    <path fill="#FFAA5A" d="M282.934 236.176l-3.63-2.21 39.669-65.143 3.629 2.21z"/>
    <path fill="#FFE15A" d="M281.078 226.888l7.075-8.85 6.922 5.532-7.075 8.851z"/>
    <path fill="#FFCD5A" d="M315.273 185.736l-6.05-3.682 8.497-13.961 6.05 3.682z"/>
    <g fill="#73AF00">
      <path d="M231.864 235.445l-39.984-61.85 2.379-1.539 39.985 61.851z"/>
      <path d="M219.413 201.386c-1.016 1.152-1.69 2.899-1.86 4.913-1.397-1.41-3.001-2.308-4.495-2.549-.394 1.461-.234 3.293.479 5.145-1.907-.672-3.775-.775-5.242-.321.413 2.088 2.114 4.354 4.721 5.909 2.606 1.556 5.409 1.976 7.442 1.348l.582-.376c1.407-1.597 2.174-4.324 1.826-7.339-.351-3.015-1.72-5.496-3.453-6.73z"/>
    </g>
    <circle fill="#FF4B55" cx="220.745" cy="215.647" r="2.833"/>
    <path d="M208.648 184.734c-1.016 1.152-1.69 2.899-1.86 4.913-1.397-1.41-3.001-2.308-4.495-2.549-.394 1.461-.234 3.293.479 5.145-1.907-.672-3.775-.775-5.242-.321.413 2.088 2.114 4.354 4.721 5.909 2.606 1.556 5.409 1.976 7.442 1.348l.582-.376c1.407-1.597 2.174-4.324 1.826-7.339-.35-3.016-1.719-5.497-3.453-6.73z" fill="#73AF00"/>
    <circle fill="#FF4B55" cx="209.986" cy="198.996" r="2.833"/>
    <path d="M197.884 168.082c-1.016 1.152-1.69 2.899-1.86 4.913-1.397-1.41-3.001-2.308-4.495-2.549-.394 1.461-.234 3.293.479 5.145-1.907-.672-3.775-.775-5.242-.321.413 2.088 2.114 4.354 4.721 5.909 2.606 1.556 5.409 1.976 7.442 1.348l.582-.376c1.407-1.597 2.174-4.324 1.826-7.339-.352-3.016-1.72-5.497-3.453-6.73z" fill="#73AF00"/>
    <circle fill="#FF4B55" cx="199.217" cy="182.345" r="2.833"/>
    <g fill="#FFE15A">
      <path d="M226.446 232.437l-7.075-8.85 6.921-5.534 7.075 8.851zm12.362-141.822h2.833v19.829h-2.833z"/>
      <path d="M235.972 93.451h8.498v2.833h-8.498z"/>
    </g>
    <path fill="#FF875A" d="M238.809 101.944l8.498 6.374v-9.206h-5.665z"/>
    <path d="M241.642 90.613v2.833h2.833v2.833h-2.833v2.833h5.665s2.833-2.833 8.498-2.833c5.665 0 11.33 2.833 11.33 11.33 0 8.498 2.833 31.159 2.833 31.159h5.665c0-6.258 5.073-11.33 11.33-11.33.984 0 1.922.164 2.833.401v-6.066a8.498 8.498 0 0 1 16.996 0v67.023l3.658-6.009-1.209-.736 8.498-13.962 1.209.736 1.815 1.106 3.025 1.841-8.498 13.962-1.21-.736-7.288 11.974v38.113s-6.764-6.783-8.212-14.287c-1.035-1.33-2.227-3.026-3.276-4.952l-3.242 5.326 3.014 2.409-7.075 8.851-1.879-1.502-3.202 5.261-3.629-2.21 3.485-5.726-1.692-1.353 2.409-3.015-7.433-9.116-2.197 1.79-6.609-8.11c-1.759.707-3.498 1.484-5.171 2.372l13.547 27.095-19.829 14.164-19.829-14.164 13.547-27.095a46.6 46.6 0 0 0-3.055-1.492l-5.891 7.23-2.197-1.79-7.433 9.116 2.409 3.015-2.406 1.923 3.288 5.086-2.379 1.538-3.133-4.846-2.287 1.828-7.075-8.851 3.179-2.541-1.685-2.607-.119.002c-.926 0-1.833-.413-2.372-1.248a2.77 2.77 0 0 1-.409-1.135 9.436 9.436 0 0 1-1.635-.242c-1.053 1.941-2.253 3.65-3.294 4.989-1.447 7.505-8.212 14.287-8.212 14.287V198.95c-.856-.269-1.719-.611-2.568-1.118-2.606-1.556-4.308-3.822-4.721-5.909a6.658 6.658 0 0 1 1.961-.276c1.03 0 2.15.199 3.282.597-.369-.96-.584-1.91-.655-2.81l-2.786-4.31-.119.002c-.926 0-1.833-.413-2.372-1.248a2.787 2.787 0 0 1-.41-1.135c-1.568-.094-3.286-.574-4.943-1.562-2.606-1.556-4.308-3.822-4.721-5.909a6.663 6.663 0 0 1 1.961-.276c1.03 0 2.15.198 3.282.597-.713-1.853-.873-3.684-.479-5.145 1.494.241 3.098 1.139 4.495 2.549.17-2.014.844-3.761 1.859-4.913 1.734 1.234 3.102 3.715 3.45 6.731.222 1.918-.046 3.681-.605 5.15.335.213.638.484.867.84.563.871.543 1.918.113 2.783l2.786 4.31c.108.06.214.132.322.199v-66.321a8.498 8.498 0 0 1 16.996 0v6.066c.91-.236 1.848-.401 2.833-.401 6.258 0 11.33 5.073 11.33 11.33h8.498l5.665-28.327-2.833-2.124-5.665-4.249v6.374h-2.833V96.281h-2.833v-2.833h2.833v-2.833h2.844l-.005-.002zm45.472 128.743l1.046-1.309.557.445 4.566-7.501c-.398-1.387-.653-2.81-.653-4.237v-.498c-2.472-3.252-5.665-8.455-5.665-13.666 0 5.966-3.662 9.074-8.674 11.462l4.36 5.351-2.195 1.788 6.658 8.165zm-62.345-.1l1.514-1.21 1.046 1.309 6.658-8.167-2.195-1.788 3.605-4.424c-6.051-2.527-10.752-5.623-10.752-12.387 0 3.793-1.693 7.578-3.567 10.616.89 1.306 1.561 2.976 1.785 4.91.222 1.918-.046 3.681-.605 5.15.335.213.638.484.867.84.563.871.543 1.917.113 2.783l1.531 2.368zm16.873-130.767h-2.833a2.124 2.124 0 0 0-2.124 2.124v.708h-.708a2.124 2.124 0 0 0-2.124 2.124v2.833c0 1.173.951 2.124 2.124 2.124h.708v12.039c0 1.173.951 2.124 2.124 2.124h2.833a2.124 2.124 0 0 0 2.124-2.124v-2.124l2.266 1.699 1.761 1.321-5.062 25.306h-4.799c-1.022-6.413-6.591-11.33-13.288-11.33-.235 0-.47.008-.708.022v-3.563c0-5.857-4.766-10.623-10.623-10.623-5.857 0-10.623 4.766-10.623 10.623v49.575c-.767-2.115-2.014-3.885-3.577-4.998a2.121 2.121 0 0 0-2.824.325c-.654.743-1.192 1.647-1.593 2.667-.93-.504-1.887-.844-2.831-.996a2.125 2.125 0 0 0-2.388 1.543c-.249.922-.332 1.934-.254 2.989a10.407 10.407 0 0 0-.498-.012c-.92 0-1.791.125-2.588.371a2.126 2.126 0 0 0-1.458 2.442c.55 2.776 2.686 5.514 5.716 7.321a13.39 13.39 0 0 0 4.457 1.685 4.853 4.853 0 0 0 3.243 2.44l1.548 2.395-.154-.001c-.92 0-1.791.125-2.588.371a2.126 2.126 0 0 0-1.458 2.442c.55 2.776 2.686 5.514 5.716 7.321.484.289.988.545 1.532.776v34.648a2.124 2.124 0 0 0 3.629 1.499c.289-.289 6.952-7.042 8.689-14.879a40.301 40.301 0 0 0 1.974-2.834 4.887 4.887 0 0 0 2.643 1.565l.092.141-1.678 1.342a2.124 2.124 0 0 0-.333 2.987l7.075 8.851a2.124 2.124 0 0 0 2.986.333l.452-.361 1.857 2.873a2.124 2.124 0 0 0 2.937.63l1.374-.888-.311.623a2.125 2.125 0 0 0 .665 2.679l19.829 14.164a2.122 2.122 0 0 0 2.47 0l19.829-14.164a2.123 2.123 0 0 0 .665-2.679l-12.597-25.195a53.434 53.434 0 0 1 1.674-.753l5.609 6.883a2.122 2.122 0 0 0 2.99.304l.551-.448 5.006 6.14-1.338 1.674a2.126 2.126 0 0 0 .333 2.987l.232.185-2.514 4.129a2.125 2.125 0 0 0 .71 2.919l3.629 2.21a2.126 2.126 0 0 0 2.921-.711l1.947-3.199a2.125 2.125 0 0 0 2.979-.339l7.075-8.851c.26-.326.409-.705.452-1.09 2.308 6.903 7.838 12.506 8.1 12.769a2.127 2.127 0 0 0 2.316.464 2.125 2.125 0 0 0 1.313-1.963v-37.517l5.937-9.752a2.123 2.123 0 0 0 2.252-.976l8.498-13.962a2.116 2.116 0 0 0 .249-1.607 2.131 2.131 0 0 0-.96-1.313l-3.025-1.841L320.06 167l-1.212-.737a2.12 2.12 0 0 0-2.917.712l-7.007 11.512V121.77c0-5.857-4.766-10.623-10.623-10.623-5.857 0-10.623 4.766-10.623 10.623v3.563a12.008 12.008 0 0 0-.708-.022c-6.697 0-12.266 4.917-13.288 11.33h-1.827c-.67-5.577-2.59-22.173-2.59-29.035 0-9.92-6.951-13.455-13.455-13.455-4.817 0-7.925 1.836-9.258 2.833h-.07c.078-.222.121-.46.121-.708v-2.833a2.124 2.124 0 0 0-2.124-2.124h-.708v-.708a2.131 2.131 0 0 0-2.129-2.122zM223.55 203.202a30.647 30.647 0 0 0 1.426-2.831c1.771 2.377 4.319 4.067 7.031 5.405l-1.86 2.283a2.126 2.126 0 0 0 .304 2.989l.546.446-3.785 4.642a2.126 2.126 0 0 0-1.551-.122 4.82 4.82 0 0 0-.981-3.386c.378-1.519.48-3.138.294-4.756a13.364 13.364 0 0 0-1.424-4.67zm58.029 1.523c1.871-1.091 3.688-2.473 5.066-4.33 1.085 2.477 2.511 4.73 3.861 6.569.017 1.183.179 2.401.491 3.694l-3.225 5.299c-.186.034-.37.094-.543.179l-3.785-4.642.546-.446a2.123 2.123 0 0 0 .304-2.989l-2.715-3.334zm-41.003 13.956c.617 0 1.228-.267 1.649-.782l3.583-4.396-9.697 19.394a1.97 1.97 0 0 0-.086-.145l-2.244-3.473.905-.724a2.124 2.124 0 0 0 .333-2.986l-1.338-1.674 5.006-6.141.551.448c.391.324.866.479 1.338.479zm54.274 1.993l.462-.76c.406.598.836 1.194 1.288 1.788.04.179.082.356.127.534a2.126 2.126 0 0 0-.323-.32l-1.554-1.242z" fill="#FFAA5A"/>
  </g>
</svg>
