<svg width="512" height="336" viewBox="0 0 512 336" xmlns="http://www.w3.org/2000/svg">
  <g fill="none">
    <path d="M0 223.908h512v102.988a8.829 8.829 0 0 1-8.828 8.828H8.828A8.829 8.829 0 0 1 0 326.896V223.908z" fill="#73AF00"/>
    <path d="M8.828.276h494.345a8.829 8.829 0 0 1 8.828 8.828v102.988H0V9.103A8.828 8.828 0 0 1 8.828.276z" fill="#464655"/>
    <path d="M0 112.088h512V223.9H0zm324.584-10.54C310.806 77.961 285.288 62.069 256 62.069c-29.288 0-54.806 15.892-68.584 39.479h137.168zm-64.023-76.996c0 3.961-4.561 28.69-4.561 28.69s-4.561-24.728-4.561-28.69c0-3.961 2.042-7.172 4.561-7.172s4.561 3.21 4.561 7.172zm81.176 37.402c-2.801 2.801-23.511 17.062-23.511 17.062s14.261-20.711 17.062-23.511c2.801-2.801 6.516-3.628 8.297-1.846 1.78 1.779.953 5.495-1.848 8.295zm-165.024-6.449c2.801 2.801 17.062 23.511 17.062 23.511s-20.711-14.261-23.511-17.062c-2.801-2.801-3.628-6.516-1.846-8.297 1.779-1.781 5.494-.954 8.295 1.848zm38.846-23.816c1.516 3.66 6.765 28.252 6.765 28.252s-13.677-21.101-15.192-24.76c-1.515-3.659-.858-7.407 1.469-8.372 2.326-.965 5.441 1.22 6.958 4.88zm89.309 3.491c-1.516 3.66-15.192 24.76-15.192 24.76s5.249-24.591 6.765-28.252c1.516-3.66 4.631-5.845 6.958-4.881 2.327.964 2.986 4.713 1.469 8.373zm-67.594-9.206c.788 3.882 1.233 29.024 1.233 29.024s-9.385-23.328-10.173-27.211c-.788-3.882.576-7.435 3.044-7.936 2.47-.501 5.11 2.24 5.896 6.123zm86.992 20.52c-2.188 3.302-19.651 21.395-19.651 21.395s9.859-23.132 12.047-26.434c2.188-3.302 5.664-4.851 7.764-3.459 2.1 1.392 2.028 5.196-.16 8.498zM161.252 72.975c3.302 2.188 21.395 19.651 21.395 19.651s-23.132-9.859-26.434-12.047c-3.302-2.188-4.851-5.664-3.459-7.764 1.392-2.099 5.197-2.028 8.498.16zm33.337-31.062c2.214 3.285 12.246 26.343 12.246 26.343s-17.598-17.961-19.811-21.246c-2.214-3.285-2.314-7.09-.224-8.497 2.088-1.407 5.576.115 7.789 3.4zM355.328 79.83c-3.285 2.214-26.343 12.246-26.343 12.246s17.961-17.598 21.246-19.811c3.285-2.214 7.09-2.314 8.497-.224 1.408 2.089-.115 5.577-3.4 7.789zm-72.516-52.248c-.758 3.887-9.967 27.286-9.967 27.286s.256-25.144 1.015-29.032c.759-3.887 3.377-6.649 5.849-6.167 2.473.482 3.861 4.025 3.103 7.913zm2.717.676c-1.151 3.79-3.969 28.778-3.969 28.778s11.546-22.337 12.697-26.129c1.151-3.79.129-7.456-2.281-8.188-2.409-.732-5.296 1.749-6.447 5.539zm-88.54 12.212c1.867 3.494 17.543 23.155 17.543 23.155s-7.63-23.96-9.497-27.454c-1.867-3.494-5.181-5.364-7.403-4.177-2.223 1.188-2.51 4.981-.643 8.476zm159.782 41.76c-3.493 1.867-23.155 17.543-23.155 17.543s23.96-7.63 27.454-9.497c3.493-1.867 5.364-5.181 4.177-7.403-1.186-2.222-4.981-2.51-8.476-.643zm-30.253-34.071c-2.514 3.062-14.679 25.068-14.679 25.068s19.217-16.218 21.73-19.281c2.514-3.062 2.973-6.839 1.026-8.438-1.946-1.598-5.563-.411-8.077 2.651zm-163.6 22.564c3.062 2.514 25.068 14.679 25.068 14.679s-16.218-19.217-19.281-21.73c-3.063-2.513-6.839-2.973-8.438-1.026-1.598 1.948-.412 5.564 2.651 8.077zm77.126-45.165c.387 3.943 7.346 28.106 7.346 28.106s2.12-25.056 1.732-28.999c-.387-3.943-2.734-6.938-5.24-6.691-2.507.246-4.225 3.641-3.838 7.584zm23.017-.882c-.394 3.942 1.686 29.001 1.686 29.001s6.996-24.152 7.39-28.094c.394-3.942-1.319-7.34-3.826-7.591-2.506-.25-4.856 2.743-5.25 6.684zm-84.492 29.149c2.509 3.065 21.699 19.314 21.699 19.314s-12.131-22.026-14.639-25.091c-2.509-3.065-6.123-4.257-8.072-2.663-1.95 1.595-1.497 5.374 1.012 8.44zm164.847 9.985c-3.065 2.509-19.314 21.699-19.314 21.699s22.026-12.131 25.091-14.639c3.065-2.508 4.257-6.123 2.663-8.072-1.595-1.949-5.373-1.497-8.44 1.012zM307.13 36.252c-1.873 3.491-9.54 27.438-9.54 27.438s15.706-19.637 17.579-23.127c1.873-3.491 1.59-7.286-.629-8.477-2.22-1.191-5.537.674-7.41 4.166zM151.01 90.111c3.491 1.873 27.438 9.54 27.438 9.54s-19.637-15.706-23.127-17.579c-3.491-1.873-7.286-1.59-8.477.63-1.19 2.219.675 5.536 4.166 7.409zm66.906-59.264c1.144 3.793 12.657 26.148 12.657 26.148s-2.778-24.992-3.924-28.783c-1.144-3.793-4.028-6.276-6.439-5.548-2.411.727-3.439 4.391-2.294 8.183z" fill="#FF4B55"/>
  </g>
</svg>
