<svg width="512" height="336" viewBox="0 0 512 336" xmlns="http://www.w3.org/2000/svg">
  <g fill="none">
    <path d="M503.172.276H8.828A8.828 8.828 0 0 0 0 9.103v317.793a8.829 8.829 0 0 0 8.828 8.828h494.345a8.829 8.829 0 0 0 8.828-8.828V9.103a8.83 8.83 0 0 0-8.829-8.827z" fill="#41479B"/>
    <path d="M353.582 165.845l-25.316-5.626c-3.636-33.916-30.566-60.832-64.481-64.471l-5.629-25.33c-.448-2.017-3.862-2.017-4.31 0l-5.615 25.27c-33.93 3.629-60.855 30.604-64.493 64.531l-25.319 5.626a2.208 2.208 0 0 0-.001 4.31l25.319 5.626c3.637 33.921 30.563 60.865 64.486 64.499l5.622 25.301a2.208 2.208 0 1 0 4.311.001l5.631-25.34c33.912-3.639 60.842-30.547 64.479-64.46l25.318-5.626a2.21 2.21 0 0 0-.002-4.311zm-29.785-6.62l-48.291-10.731-10.726-48.264c30.702 3.961 55.061 28.292 59.017 58.995zm-76.575-59.003l-10.728 48.274-48.276 10.728c3.96-30.702 28.303-55.043 59.004-59.002zm-9.58 52.54L252.879 168h-83.81l68.573-15.238zm-49.422 24.016l48.276 10.728 10.73 48.286c-30.705-3.957-55.048-28.312-59.006-59.014zM256 254.931l-15.238-68.574L256 171.121v83.81zm0-90.052v-83.81l15.238 68.574L256 164.879zm8.788 70.854l10.717-48.228 48.29-10.731c-3.955 30.697-28.311 54.993-59.007 58.959zm9.57-52.495L259.121 168h83.81l-68.573 15.238zm-133.117-13.031H17.655a2.207 2.207 0 1 1 0-4.414h123.586a2.207 2.207 0 1 1 0 4.414zm353.104 0H370.759a2.207 2.207 0 1 1 0-4.414h123.586a2.207 2.207 0 1 1 0 4.414zM256 55.448a2.207 2.207 0 0 1-2.207-2.207v-35.31a2.207 2.207 0 1 1 4.414 0v35.31c0 1.22-.988 2.207-2.207 2.207zm0 264.828a2.207 2.207 0 0 1-2.207-2.207v-35.31a2.207 2.207 0 1 1 4.414 0v35.31a2.207 2.207 0 0 1-2.207 2.207z" fill="#F5F5F5"/>
  </g>
</svg>
