<svg width="512" height="336" viewBox="0 0 512 336" xmlns="http://www.w3.org/2000/svg">
  <g fill="none">
    <path d="M512.001 112.092H0V9.103A8.829 8.829 0 0 1 8.828.275h494.345a8.829 8.829 0 0 1 8.828 8.828v102.989z" fill="#F5F5F5"/>
    <path d="M503.172 335.724H8.828A8.829 8.829 0 0 1 0 326.896V223.908h512v102.988a8.828 8.828 0 0 1-8.828 8.828z" fill="#73AF00"/>
    <g fill="#FF4B55">
      <path d="M0 112.088h512V223.9H0z"/>
      <path d="M132.414 335.724H8.828A8.829 8.829 0 0 1 0 326.896V9.103A8.829 8.829 0 0 1 8.828.275h123.586v335.449z"/>
    </g>
    <path d="M36.056 73.443c-.494.056-.971.116-1.436.178v6.287c.468.119.945.237 1.436.353v-6.818zm21.747 11.983a148.119 148.119 0 0 1-5.729-.6L36.995 98.237c1.953.298 4.294.694 5.271 1.005 3.875-3.39 9.069-8.009 15.537-13.816zm22.688-21.33v-1.291H53.739v1.923h26.752zm-19.806-38.26c0 1.884 2.839 3.475 6.2 3.475s6.2-1.591 6.2-3.475c0-1.884-2.839-3.475-6.2-3.475s-6.2 1.592-6.2 3.475zm-5.798 46.757c-6.039-.03-12.066.192-16.993.658v7.422c5.789 1.242 12.533 2.194 16.993 2.668V72.593zM23.776 109.22c2.387-.051 7.63-.994 11.18-3.767 1.1-.86 2.979-2.442 5.62-4.736-1.791-.367-4.796-.813-6.398-1.033l-10.402 9.536zm34.556-48.252v-3.374c-.452-.674-.919-1.369-1.396-2.076l-4.107 2.987a619.683 619.683 0 0 0 1.439 2.462h4.064v.001zM26.728 76.203c-.013.055-.045.183.161.448.762.977 2.967 1.91 5.895 2.759v-5.516c-3.515.583-5.817 1.353-6.056 2.309zm46.989-2.634v-7.004H60.169v17.108h3.445c5.57 0 10.103-4.534 10.103-10.104zM51.942 48.127C44.688 37.435 36.941 26.197 35.05 23.97c.271.995.925 2.865 2.453 6.366 1.971 4.518 6.755 13.177 10.716 20.149l3.723-2.358zm-2.813 3.957a966.353 966.353 0 0 0 2.774 4.824l4.007-2.914c-.953-1.415-1.934-2.866-2.935-4.344l-3.846 2.434zm9.203 31.556V72.636c-.535-.011-1.07-.022-1.608-.029V83.52c.619.054 1.158.095 1.608.12zm1.839-32.12H73.72v1.923H60.171zm32.376 9.333v.115h.689c.508 0 .918.41.918.918v3.761c0 .508-.41.918-.918.918h-.689v.115a.92.92 0 0 0 .918.918h15.5a.92.92 0 0 0 .918-.918v-5.827a.92.92 0 0 0-.918-.918H93.466a.918.918 0 0 0-.919.918zm17.343 48.316l-10.345-9.485c-1.602.221-4.606.665-6.398 1.033 2.689 2.333 4.567 3.915 5.62 4.738 3.495 2.728 8.631 3.685 11.123 3.714zM88.643 63.436v1.292h3.675v-1.923h-3.675zm2.811 35.808c.977-.313 3.321-.71 5.278-1.007L74.518 78.414a11.96 11.96 0 0 1-2.476 3.606l.585.522c8.047 7.204 14.338 12.782 18.827 16.702zM41.683 66.68v-.115h-.69a.917.917 0 0 1-.918-.918v-3.761c0-.508.41-.918.918-.918h.689v-.115a.92.92 0 0 0-.918-.918h-15.5a.92.92 0 0 0-.918.918v5.827a.92.92 0 0 0 .918.918h15.5a.92.92 0 0 0 .919-.918zm3.904-2.584v-1.291h-3.675v1.923h3.675zm35.308-5.591l-4.107-2.987-1.234 1.835v3.614h3.902c.097-.164.621-1.057 1.439-2.462zM61.398 45.898h11.095l-2.442-2.71H63.84zm-1.227 1.925H73.72v1.866H60.171zm6.715-16.675c-.893 0-1.73-.115-2.526-.285v10.383h5.109V30.852c-.812.178-1.67.296-2.583.296zm-6.717 26.059h13.49a.9.9 0 0 1 .06-.338v-1.585h-13.55v1.923zm17.646-3.213l4.007 2.914a923.07 923.07 0 0 0 2.774-4.824L80.75 49.65a2034.304 2034.304 0 0 0-2.935 4.344zm-17.644 5.052H73.72v1.923H60.171zm25.335-8.561c3.96-6.97 8.744-15.631 10.716-20.149 1.532-3.509 2.185-5.38 2.455-6.372-1.857 2.179-9.623 13.443-16.895 24.163l3.724 2.358z" fill="#F5F5F5"/>
    <path d="M112.449 109.023L100.47 98.038a.9.9 0 0 0-.744-.233l-.64.087c-.017-.017-.023-.04-.042-.055L75.167 76.53c.244-.949.386-1.938.386-2.961v-7.004h5.792c.746.971 1.906 1.608 3.221 1.608a4.054 4.054 0 0 0 3.221-1.608h2.922v.115a2.758 2.758 0 0 0 2.755 2.755h15.5a2.758 2.758 0 0 0 2.755-2.755v-5.827a2.758 2.758 0 0 0-2.755-2.755H93.466a2.758 2.758 0 0 0-2.755 2.755v.115h-2.922c-.746-.971-1.906-1.608-3.221-1.608-.998 0-1.9.374-2.609.97 3.096-5.3 12.823-22.1 15.947-29.259 3.351-7.682 3.081-8.674 2.289-9.311-.836-.669-1.894.1-2.293.393-1.537 1.117-16.44 23.134-22.348 31.91v-7.246c0-.02-.01-.038-.011-.057l-.001-.002a.898.898 0 0 0-.449-.719l-3.787-4.2V30.29c2.19-.94 3.617-2.564 3.617-4.454 0-2.978-3.531-5.312-8.038-5.312s-8.038 2.334-8.038 5.312c0 1.905 1.453 3.538 3.674 4.473v11.596l-3.715 4.121a.909.909 0 0 0-.476.789v7.486c-5.793-8.607-20.959-31.022-22.508-32.149-.401-.29-1.46-1.06-2.294-.393-.793.637-1.063 1.629 2.289 9.311 3.025 6.932 12.238 22.899 15.631 28.719a4.024 4.024 0 0 0-1.786-.43 4.054 4.054 0 0 0-3.221 1.608H43.52v-.115a2.758 2.758 0 0 0-2.755-2.755H25.263a2.758 2.758 0 0 0-2.755 2.755v5.827a2.758 2.758 0 0 0 2.755 2.755h15.5a2.758 2.758 0 0 0 2.755-2.755v-.115h2.922c.746.971 1.906 1.608 3.221 1.608a4.054 4.054 0 0 0 3.221-1.608h5.448v4.23c-8.516-.182-32.093-.21-33.385 4.963-.12.479-.132 1.222.495 2.024 2.485 3.183 15.079 5.506 24.214 6.734l-14.976 13.32c-.019.017-.025.04-.043.057a61.99 61.99 0 0 0-.64-.087.901.901 0 0 0-.744.233l-11.98 10.985a.917.917 0 0 0-.084 1.265c.397.477 1.406.711 2.755.711 3.32 0 8.707-1.416 12.141-4.097 2.83-2.21 10.67-9.084 23.304-20.43l1.069-.96h3.154a11.86 11.86 0 0 0 7.01-2.295l.778.695c14.546 13.02 23.372 20.754 26.237 22.99 3.434 2.684 8.819 4.097 12.139 4.097 1.35 0 2.358-.233 2.756-.711a.914.914 0 0 0-.081-1.265zm-52.28-25.35V66.565h13.549v7.004c0 5.57-4.533 10.104-10.104 10.104h-3.445zM32.785 79.41c-2.926-.85-5.132-1.782-5.895-2.759-.207-.266-.175-.393-.161-.448.239-.956 2.541-1.726 6.056-2.308v5.515zm2.265-55.44c1.89 2.227 9.638 13.463 16.892 24.157l-3.724 2.358c-3.96-6.972-8.744-15.631-10.716-20.149-1.527-3.5-2.182-5.369-2.452-6.366zm21.886 31.548c.476.706.942 1.4 1.396 2.076v3.374h-4.064c-.097-.164-.621-1.057-1.439-2.462l4.107-2.988zm-5.034 1.39a923.07 923.07 0 0 1-2.774-4.824l3.846-2.434c1.002 1.479 1.982 2.93 2.935 4.344l-4.007 2.914zm6.43 15.729v11.004a53.42 53.42 0 0 1-1.608-.12V72.608c.537.007 1.072.017 1.608.029zm-20.438.613c4.928-.466 10.954-.687 16.993-.658V83.34c-4.46-.473-11.204-1.426-16.993-2.668V73.25zm-3.273.371c.465-.062.941-.121 1.436-.178v6.817a70.447 70.447 0 0 1-1.436-.353v-6.286zm17.453 11.204c2.404.294 4.418.495 5.729.6-6.468 5.807-11.662 10.426-15.535 13.816-.978-.312-3.318-.707-5.271-1.005l15.077-13.411zm-11.498 15.891c-2.641 2.294-4.52 3.876-5.62 4.736-3.55 2.774-8.792 3.718-11.18 3.767l10.402-9.537c1.602.222 4.606.667 6.398 1.034zm13.163-35.988v-1.922h26.753v1.922H53.739zm19.347-38.892c0 1.884-2.839 3.475-6.2 3.475s-6.2-1.591-6.2-3.475c0-1.884 2.839-3.475 6.2-3.475s6.2 1.592 6.2 3.475zM60.169 53.447v-1.923h13.549v1.923H60.169zm13.548 1.837v1.585a.9.9 0 0 0-.06.338H60.169v-1.923h13.548zm-13.548-5.598V47.82h13.549v1.866H60.169zm9.882-6.498l2.442 2.709H61.398l2.442-2.709h6.211zm-5.691-1.941V30.864c.796.17 1.633.285 2.526.285.914 0 1.771-.118 2.583-.296v10.394H64.36zm-4.191 17.797h13.549v1.923H60.169v-1.923zm36.053-28.708c-1.971 4.518-6.755 13.177-10.716 20.149l-3.724-2.358c7.272-10.72 15.038-21.984 16.895-24.163-.27.992-.924 2.863-2.455 6.372zm-9.416 33.1v.66a2.241 2.241 0 0 1-2.239 2.239 2.241 2.241 0 0 1-2.239-2.239v-.66a2.241 2.241 0 0 1 2.239-2.239 2.241 2.241 0 0 1 2.239 2.239zm-4.984-6.528l-4.007-2.914a1718.14 1718.14 0 0 1 2.935-4.344l3.846 2.434a1052.106 1052.106 0 0 1-2.774 4.824zm-6.268.445l1.234-1.835 4.107 2.987a777.41 777.41 0 0 1-1.439 2.463h-3.902v-3.615zm-1.036 21.059l22.214 19.823c-1.955.299-4.301.695-5.278 1.007-4.49-3.921-10.78-9.497-18.828-16.703l-.585-.522a11.915 11.915 0 0 0 2.477-3.605zm25.028 21.271l10.345 9.485c-2.493-.029-7.628-.985-11.123-3.714-1.053-.823-2.931-2.406-5.62-4.738 1.792-.367 4.796-.812 6.398-1.033zm10.34-38.83v5.827a.92.92 0 0 1-.918.918H93.466a.92.92 0 0 1-.918-.918v-.115h.689c.508 0 .918-.41.918-.918v-3.761a.917.917 0 0 0-.918-.918h-.689v-.115a.92.92 0 0 1 .918-.918h15.5a.92.92 0 0 1 .92.918zm-17.568 3.875h-3.674v-1.922h3.674v1.922zM24.344 66.68v-5.827a.92.92 0 0 1 .918-.918h15.5a.92.92 0 0 1 .918.918v.115h-.687a.917.917 0 0 0-.918.918v3.761c0 .508.41.918.918.918h.689v.115a.92.92 0 0 1-.918.918h-15.5a.92.92 0 0 1-.92-.918zm17.568-3.875h3.674v1.922h-3.674v-1.922zm9.99 1.291a2.241 2.241 0 0 1-2.239 2.239 2.241 2.241 0 0 1-2.239-2.239v-.66a2.241 2.241 0 0 1 2.239-2.239 2.241 2.241 0 0 1 2.239 2.239v.66z" fill="#D23741"/>
  </g>
</svg>
