<svg width="512" height="336" viewBox="0 0 512 336" xmlns="http://www.w3.org/2000/svg">
  <g fill="none">
    <path d="M503.172 335.724H8.828A8.829 8.829 0 0 1 0 326.896V9.103A8.829 8.829 0 0 1 8.828.275h494.345a8.829 8.829 0 0 1 8.828 8.828v317.793a8.83 8.83 0 0 1-8.829 8.828z" fill="#FF4B55"/>
    <path d="M3.256 2.41C1.311 4.029 0 6.375 0 9.103v317.793a8.829 8.829 0 0 0 8.828 8.828h494.345c2.146 0 4.041-.86 5.571-2.134L3.256 2.41z" fill="#464655"/>
    <path d="M51.499 162.287l-5.052 15.148-15.968.124c-1.532.012-2.166 1.966-.935 2.876l12.845 9.485-4.817 15.224c-.462 1.46 1.201 2.668 2.446 1.778l12.991-9.286L66 206.922c1.246.891 2.908-.318 2.446-1.778l-4.817-15.224 12.845-9.485c1.231-.909.597-2.863-.935-2.876l-15.968-.124-5.052-15.148c-.481-1.452-2.536-1.452-3.02 0zm108.783 0l-5.052 15.148-15.968.124c-1.532.012-2.166 1.966-.935 2.876l12.845 9.485-4.817 15.224c-.462 1.46 1.201 2.668 2.446 1.778l12.991-9.286 12.991 9.286c1.246.891 2.908-.318 2.446-1.778l-4.817-15.224 12.845-9.485c1.231-.909.597-2.863-.935-2.876l-15.968-.124-5.052-15.148c-.48-1.452-2.535-1.452-3.02 0zM105.89 96.351l-5.052 15.148-15.968.124c-1.532.012-2.166 1.966-.935 2.876l12.845 9.485-4.817 15.224c-.462 1.46 1.201 2.668 2.446 1.778L107.4 131.7l12.991 9.286c1.246.89 2.908-.318 2.446-1.778l-4.817-15.224 12.845-9.485c1.231-.909.597-2.863-.935-2.876l-15.968-.124-5.052-15.148c-.481-1.452-2.535-1.452-3.02 0zm0 162.148l-5.052 15.148-15.968.124c-1.532.012-2.166 1.966-.935 2.876l12.845 9.485-4.817 15.224c-.462 1.46 1.201 2.668 2.446 1.778l12.991-9.286 12.991 9.286c1.246.891 2.908-.318 2.446-1.778l-4.817-15.224 12.845-9.485c1.231-.909.597-2.863-.935-2.876l-15.968-.124-5.052-15.148c-.481-1.452-2.535-1.452-3.02 0zm25.339-39.508l-2.687 8.055-8.491.066c-.814.007-1.152 1.045-.497 1.529l6.83 5.044-2.561 8.096c-.246.777.638 1.419 1.301.945l6.909-4.938 6.909 4.938c.662.473 1.546-.169 1.301-.945l-2.561-8.096 6.83-5.044c.655-.483.318-1.523-.497-1.529l-8.491-.066-2.687-8.055c-.258-.772-1.351-.772-1.608 0z" fill="#F5F5F5"/>
    <path d="M437.565 160.345c-1.292-10.004-5.566-19.89-8.671-25.995 1.533.767 3.917 2.148 3.917 2.148l-2.104-7.628c5.26 2.104 9.206 6.182 9.206 6.182-2.631-13.152-6.708-19.332-6.708-19.332l3.288 1.184c-6.182-15.256-15.388-19.596-15.388-19.596l5.26-1.315c-7.759-9.732-18.675-13.02-18.675-13.02l7.102-3.42c-18.807-10.653-36.956.526-36.956.526s6.313-6.575 8.68-9.337c2.367-2.762-3.288-3.682-3.288-3.682s5.524-3.814 5.26-6.05c-.264-2.237-5.26-1.052-5.26-1.052s4.34-4.471 4.34-6.97c0-2.499-4.471-.92-4.471-.92s1.447-3.025 1.842-5.393c.395-2.367-3.946-.395-3.946-.395s4.866-8.68 4.604-10.521c-.263-1.842-12.757 5.918-21.7 14.467-8.943 8.55-7.87 22.286-7.078 25.555.792 3.269 1.288 10.893-2.674 13.566-3.961 2.674-11.029-3.874-14.536-7.907-3.507-4.033-7.891-2.631-12.45-1.052-4.559 1.578-13.152-.526-15.782-.877-2.631-.351 2.98 2.631 7.715 4.384 4.735 1.753 6.839 5.962 13.503 8.417 5.836 2.151 10.51 7.61 5.918 10.126-3.578 1.961-3.551-1.184-19.332-5.26-15.782-4.076-34.72 36.035-34.72 36.035 10.138-1.254 15.32-7.327 15.32-7.327l-2.739 7.857c7.492-1.419 11.156-5.975 11.156-5.975l-1.981 7.923c5.743-1.783 9.705-7.923 9.705-7.923l-1.684 7.823c5.644-2.674 8.616-7.823 8.616-7.823.594 2.872 1.062 8.733 1.062 8.733 8.742-4.673 10.784-11.31 10.784-11.31 9.995 30.249 24.462 35.246 24.462 35.246l.789-7.891c4.471 6.313 10.784 9.469 10.784 9.469l-1.052-6.839c15.519 18.938 33.405 23.673 33.405 23.673l-4.58-10.482 5.632 1.143c-6.05-5.129-8.286-14.072-8.286-14.072l4.735.789c-7.628-6.97-11.442-14.993-11.442-14.993l4.604.789c-1.447-2.236-2.631-10.126-2.631-10.126 8.417 2.631 12.757 5.918 12.757 5.918l.499-2.865c7.221 5.203 19.079 14.889 27.297 27.066.011 3.972-.631 7.983-2.281 12.009-7.538 18.386-27.356 17.185-36.124 13.326 0 0 27.18 21.218 42.086-8.943.945-1.91 1.536-3.956 1.959-6.054 1.859 4.434 3.144 9.058 3.39 13.857 1.578 30.775-30.511 27.882-30.511 27.882s35.509 14.204 37.088-26.829c.348-9.124-3.515-18.246-9.715-26.919zm-32.264-30.719l.155-.888c5.393 1.578 11.048 5.393 11.048 5.393l1.249-3.748c5.335 6.411 9.596 13.31 11.968 20.452-7.202-7.738-15.833-14.924-24.42-21.209z" fill="#FFE15A"/>
  </g>
</svg>
