<svg width="512" height="336" viewBox="0 0 512 336" xmlns="http://www.w3.org/2000/svg">
  <g fill="none">
    <path d="M512.001 112.092H0V9.103A8.829 8.829 0 0 1 8.828.275h494.345a8.829 8.829 0 0 1 8.828 8.828v102.989z" fill="#FF4B55"/>
    <path d="M503.172 335.724H8.828A8.829 8.829 0 0 1 0 326.896V223.908h512v102.988a8.828 8.828 0 0 1-8.828 8.828z" fill="#41479B"/>
    <path fill="#F5F5F5" d="M0 112.088h512V223.9H0z"/>
    <path d="M256 123.862c-24.376 0-44.138 19.761-44.138 44.138s19.762 44.138 44.138 44.138c24.376 0 44.138-19.761 44.138-44.138S280.376 123.862 256 123.862zm0 77.426c-18.383 0-33.288-14.903-33.288-33.288 0-18.385 14.904-33.288 33.288-33.288 18.384 0 33.288 14.904 33.288 33.288 0 18.384-14.905 33.288-33.288 33.288z" fill="#FF4B55"/>
    <circle fill="#41479B" cx="256" cy="168" r="15.31"/>
    <path d="M256.998 156.403l2.467 7.4 7.799.061c1.01.008 1.429 1.297.616 1.897l-6.274 4.633 2.353 7.436c.305.963-.791 1.759-1.613 1.172L256 174.467l-6.346 4.535c-.822.587-1.918-.21-1.613-1.172l2.353-7.436-6.274-4.633c-.812-.6-.394-1.889.616-1.897l7.799-.061 2.467-7.4c.32-.958 1.676-.958 1.996 0z" fill="#FFE15A"/>
    <path d="M284.96 168.356s.875-4.046-3.43.809c0 0 .063-1.382-.059-2.521.947-1.025 2.121-3.267 1.845-8.052 0 0-.675-4.084-2.891 2.013 0 0-.605-1.799-1.248-2.795.534-1.108.947-3.125-.334-6.947 0 0-1.497-3.27-1.963 2.348 0 0-1.229-1.838-2.028-2.29.154-.906.033-2.462-1.775-4.981 0 0-1.804-2.02-.893 2.126 0 0-1.651-1.337-2.179-1.18-.274-.792-1.067-2.131-3.73-3.893 0 0-2.307-1.263.34 2.034 0 0-2.34-.928-2.312-.396.028.532 1.159 1.513 2.088 1.951 0 0-3.432.356-2.023 1.121 0 0 3.481 1.201 5.572.045.168.609.509 1.292 1.015 1.783 0 0-4.084-.793-2.978.433 0 0 3.063 2.251 6.09 1.906-.014.834.238 1.911.681 2.718 0 0-4.87-2.603-3.947-.616 0 0 2.912 3.895 6.786 4.74-.159.866-.156 1.913.054 2.78 0 0-4.622-4.365-4.199-1.878 0 0 1.932 5.122 5.848 7.298-.319.65-.58 1.377-.676 2.056 0 0-2.692-5.761-3.213-3.292 0 0-.089 5.754 2.983 9.195-.654.544-1.295 1.305-1.688 2.052 0 0-.589-6.329-1.913-4.182 0 0-1.83 4.796-.591 8.929-.819.242-1.711.689-2.371 1.224 0 0 1.953-6.051-.11-4.599 0 0-3.674 3.975-3.955 8.447-.974-.02-2.293.331-3.249.902 0 0 2.795-5.709.545-4.567 0 0-4.008 3.274-5.043 7.523-.948.541-2.558 1.46-4.167 2.372a1018.27 1018.27 0 0 1-2.622-1.525l.026-.042-9.111-7.638.181 2.498-4.575-8.182-.565 2.784-1.498-9.045-1.329 1.335.514-8.438-1.732.934 3.146-6.276-1.478.417 3.887-3.726-2.055.175 4.914-2.231-1.796-.276 4.797-2.429-2.067-.1 6.219-2.152-1.139-.996 5.383-1.588-6.45-.492 1.837-2.261-4.921 2.518.706-3.404-4.305 4.433.748-3.104-4.029 4.009.26-3.026-3.983 6.746-.514-3.019-3.31 7.574-.911-3.3-1.478 9.393-1.233-1.398 1.621 9.06-2.056-1.542 3.769 8.138s-2.741-1.199-3.084-1.199c-.343 0 6.553 7.004 6.553 7.004l-3.598-.385 6.952 4.888-2.583.638 5.783 2.248-1.414 1.094 11.972.856s1.154.961 2.724 2.074c-.829.468-1.558.875-2.009 1.122a1.69 1.69 0 0 1-1.468.073 282.982 282.982 0 0 0-3.574-1.466s.077 3.403 3.62 3.488c1.455.033 3.439-.893 5.284-1.988 1.889 1.178 3.974 2.217 5.48 2.181 3.466-.085 3.542-3.488 3.542-3.488-.776.318-2.386.99-3.497 1.466a1.62 1.62 0 0 1-1.436-.073c-.491-.275-1.299-.736-2.225-1.271a47.747 47.747 0 0 0 2.296-1.652c.872.685 3.368 1.889 8.946-.205 0 0 3.7-1.858-2.781-2.163 0 0 1.203-.883 2.015-1.721 1.063.547 3.69 1.195 8.684-1.547 0 0 3.398-2.367-3.06-1.745 0 0 .862-.84 1.54-1.694 1.114.125 3.865-.173 7.513-4.839 0 0 2.19-3.513-3.5-.397 0 0 .736-1.754.909-2.927 1.262-.608 3.179-2.26 4.683-6.812z" fill="#64C86E"/>
  </g>
</svg>
