<svg width="512" height="336" viewBox="0 0 512 336" xmlns="http://www.w3.org/2000/svg">
  <g fill="none">
    <path d="M512.001 112.092H0V9.103A8.829 8.829 0 0 1 8.828.275h494.345a8.829 8.829 0 0 1 8.828 8.828v102.989z" fill="#FFE15A"/>
    <path d="M503.172 335.724H8.828A8.829 8.829 0 0 1 0 326.896V223.908h512v102.988a8.828 8.828 0 0 1-8.828 8.828z" fill="#FF4B55"/>
    <path fill="#41479B" d="M0 112.088h512V223.9H0z"/>
    <path d="M178.14 189.497l2.212 6.633 6.991.054c.905.007 1.281 1.162.553 1.7l-5.624 4.153 2.109 6.667c.273.863-.71 1.577-1.447 1.05l-5.688-4.066-5.688 4.066c-.736.526-1.719-.188-1.447-1.05l2.109-6.667-5.624-4.153c-.728-.537-.353-1.693.553-1.7l6.991-.054 2.212-6.633c.287-.858 1.502-.858 1.788 0zm13.583-21.115l-1.185 6.891 6.136 3.352c.794.434.579 1.63-.317 1.759l-6.92 1.002-1.292 6.871c-.168.889-1.37 1.055-1.771.243l-3.091-6.272-6.935.895c-.898.116-1.427-.978-.778-1.61l5.01-4.878-2.994-6.318c-.387-.818.489-1.659 1.29-1.237l6.187 3.257 5.085-4.8c.658-.621 1.728-.047 1.575.845zm17.19-18.48l-3.282 6.174 4.779 5.103c.619.661.041 1.729-.851 1.571l-6.887-1.213-3.377 6.123c-.437.792-1.632.573-1.758-.323l-.974-6.924-6.867-1.32c-.889-.171-1.049-1.375-.235-1.772l6.284-3.066-.867-6.938c-.113-.898.983-1.422 1.612-.771l4.858 5.028 6.33-2.968c.822-.384 1.659.496 1.235 1.296zm20.685-11.466l-4.824 5.062 3.228 6.202c.418.803-.427 1.676-1.244 1.284l-6.304-3.025-4.903 4.986c-.634.646-1.726.111-1.606-.786l.928-6.931-6.257-3.122c-.81-.404-.64-1.607.25-1.77l6.878-1.259 1.035-6.915c.134-.895 1.331-1.105 1.761-.308l3.322 6.152 6.897-1.152c.895-.147 1.463.927.839 1.582zm23.776-5.313l-6.004 3.584 1.448 6.84c.188.886-.861 1.501-1.542.905l-5.263-4.602-6.059 3.49c-.785.452-1.693-.354-1.336-1.187l2.751-6.429-5.192-4.683c-.672-.606-.185-1.719.716-1.637l6.964.629 2.85-6.385c.369-.826 1.578-.708 1.779.174l1.554 6.817 6.953.737c.897.097 1.159 1.283.381 1.747zm80.486 56.374l-2.212 6.633-6.991.054c-.905.007-1.281 1.162-.553 1.7l5.624 4.153-2.109 6.667c-.273.863.71 1.577 1.447 1.05l5.688-4.066 5.688 4.066c.736.526 1.719-.188 1.447-1.05l-2.109-6.667 5.624-4.153c.728-.537.353-1.693-.553-1.7l-6.991-.054-2.212-6.633c-.287-.858-1.502-.858-1.788 0zm-13.583-21.115l1.185 6.891-6.136 3.352c-.794.434-.579 1.63.317 1.759l6.92 1.002 1.292 6.871c.168.889 1.371 1.055 1.771.243l3.091-6.272 6.935.895c.898.116 1.427-.978.778-1.61l-5.01-4.878 2.994-6.318c.387-.818-.489-1.659-1.29-1.237l-6.187 3.257-5.085-4.8c-.658-.621-1.728-.047-1.575.845zm-17.19-18.48l3.282 6.174-4.779 5.103c-.619.661-.041 1.729.851 1.571l6.887-1.213 3.377 6.123c.437.792 1.632.573 1.758-.323l.974-6.924 6.867-1.32c.889-.171 1.049-1.375.235-1.772l-6.284-3.066.867-6.938c.113-.898-.983-1.422-1.612-.771l-4.858 5.028-6.33-2.968c-.822-.384-1.659.496-1.235 1.296zm-20.685-11.466l4.824 5.062-3.228 6.202c-.418.803.427 1.676 1.244 1.284l6.304-3.025 4.903 4.986c.634.646 1.726.111 1.605-.786l-.928-6.931 6.257-3.122c.81-.404.64-1.607-.25-1.77l-6.878-1.259-1.035-6.915c-.134-.895-1.331-1.105-1.761-.308l-3.322 6.152-6.897-1.152c-.894-.147-1.462.927-.838 1.582zm-23.776-5.313l6.004 3.584-1.448 6.84c-.188.886.861 1.501 1.542.905l5.263-4.602 6.059 3.49c.785.452 1.693-.354 1.336-1.187l-2.751-6.429 5.192-4.683c.672-.606.185-1.719-.716-1.637l-6.964.629-2.85-6.385c-.369-.826-1.578-.708-1.779.174l-1.554 6.817-6.953.737c-.897.097-1.159 1.283-.381 1.747z" fill="#F5F5F5"/>
  </g>
</svg>
