<svg width="512" height="336" viewBox="0 0 512 336" xmlns="http://www.w3.org/2000/svg">
  <g fill="none">
    <path d="M512.001 48.198H0V9.103A8.829 8.829 0 0 1 8.828.275h494.345a8.829 8.829 0 0 1 8.828 8.828v39.095z" fill="#73AF00"/>
    <path fill="#FFE15A" d="M0 48.199h512v47.923H0z"/>
    <path fill="#FF4B55" d="M0 96.121h512v47.923H0z"/>
    <path d="M0 287.802h512v39.094a8.829 8.829 0 0 1-8.828 8.828H8.828A8.829 8.829 0 0 1 0 326.896v-39.094z" fill="#73AF00"/>
    <path fill="#FFE15A" d="M0 239.879h512v47.923H0z"/>
    <path fill="#FF4B55" d="M0 191.956h512v47.923H0z"/>
    <path d="M512 144.04H195.818L14.222.276H8.828c-2.278 0-4.309.92-5.875 2.338v330.773c1.566 1.417 3.597 2.337 5.875 2.337h5.395L195.818 191.96H512v-47.92z" fill="#464655"/>
    <path d="M2.953 333.386L211.862 168 2.953 2.614C1.167 4.23 0 6.506 0 9.103v317.793c0 2.598 1.167 4.874 2.953 6.49z" fill="#F5F5F5"/>
    <path fill="#FF4B55" d="M86.065 103.448l18.603 37.693 41.596 6.045-30.1 29.339 7.106 41.428-37.205-19.56-37.205 19.56 7.106-41.428-30.1-29.339 41.597-6.045z"/>
    <path d="M134.328 172.803l-49.436-38.27c-5.784-13.554-14.005-22.296-20.984-22.296-5.929 0-8.828 5.495-9.658 8.797-4.27 1.977-5.272 5.912-5.314 6.083a.95.95 0 0 0 .92 1.172l.885-.017c3.972-.092 10.59-.266 12.282 12.352 1.056 7.879-.512 21.992-5.497 32.629-3.484 7.432-2.333 13.442-2.282 13.694.095.474.536.786 1.028.756.076-.008.26-.015.494-.023l4 22.614a.947.947 0 0 0 .932.782h59.683a.947.947 0 0 0 .92-.723l6.667-27.384c.002-.008.011-.012.013-.02.004-.015-.001-.03.002-.045l2.118-8.698c1.567.185 2.499.282 2.551.288.452.059.82-.199.975-.59a.95.95 0 0 0-.299-1.101z" fill="#FFE15A"/>
    <g fill="#464655">
      <path d="M134.328 172.803l-49.436-38.27c-5.784-13.554-14.005-22.296-20.984-22.296-5.929 0-8.828 5.495-9.658 8.797-4.27 1.977-5.272 5.912-5.314 6.083a.95.95 0 0 0 .92 1.172l.885-.017c3.972-.092 10.59-.266 12.282 12.352 1.056 7.879-.512 21.992-5.497 32.629-3.484 7.432-2.333 13.442-2.282 13.694.095.474.536.786 1.028.756.076-.008.26-.015.494-.023l4 22.614a.947.947 0 0 0 .932.782h59.683a.947.947 0 0 0 .92-.723l6.667-27.384c.002-.008.011-.012.013-.02.004-.015-.001-.03.002-.045l2.118-8.698c1.567.185 2.499.282 2.551.288.452.059.82-.199.975-.59a.95.95 0 0 0-.299-1.101zm-75.089 1.256c4.512-9.624 6.945-24.106 5.661-33.685-1.832-13.662-9.5-14.091-13.641-14.008a8.027 8.027 0 0 1 4.164-3.778.946.946 0 0 0 .569-.687c.066-.317 1.678-7.768 7.914-7.768 6.159 0 13.93 8.588 19.338 21.368.063.15.164.281.292.38l46.95 36.345c-8.275-1.004-29.898-3.983-42.706-9.03-6.695-2.637-8.221-6.65-9.567-10.191a.949.949 0 0 0-1.771.675c1.338 3.518 3.171 8.338 10.644 11.282 1.523.6 3.167 1.171 4.896 1.713-.301.913-2.217 5.566-10.712 8.618-6.884 2.474-11.783 6.644-12.452 10.411-2.516-.01-4.761-.006-6.647.006v-2.735c0-2.078 2.002-5.087 4.121-8.274 2.953-4.44 6.3-9.473 6.3-14.621a.949.949 0 0 0-1.896 0c0 4.575-3.179 9.355-5.983 13.571-2.382 3.581-4.438 6.674-4.438 9.323v2.751c-1.43.015-2.551.034-3.282.055-.169-1.783-.266-6.363 2.246-11.721zm37.571-6.001c-1.096 3.046-4.34 4.077-6.745 4.407 2.607-2.317 3.487-4.46 3.734-5.244.982.29 1.99.567 3.011.837zm1.826.471c1.043.262 2.095.514 3.158.758-.967 1.967-3.551 2.932-6.375 3.336 1.4-.888 2.586-2.198 3.217-4.094zm26.783 21.01c-9.604-2.959-37.32-3.716-54.69-3.827.588-2.152 3.314-4.978 7.93-7.243.047.008.09.029.139.029 25.93.092 43.979 3.938 48.114 4.907l-1.493 6.134zm-1.223 5.021l-3.788-4.226c1.806.314 3.345.664 4.562 1.053l-.774 3.173zm-49.004.668l1.842 1.734c-.567-.004-1.126-.01-1.706-.013-.05-.556-.092-1.145-.136-1.721zm47.871 3.985l-4.813-5.274a.941.941 0 0 0-1.226-.148l-5.652 3.784-4.253-4.661a.95.95 0 0 0-1.276-.113l-5.109 3.917-4.636-4.577a.948.948 0 0 0-1.276-.051l-4.991 4.198-4.676-4.339a.953.953 0 0 0-1.269-.018l-4.878 4.287-4.011-3.774c-.07-1.126-.132-2.286-.186-3.479l3.591 3.526a.95.95 0 0 0 1.281.042l5.023-4.324 4.589 4.519a.951.951 0 0 0 1.272.053l5.039-4.199 4.835 4.555a.944.944 0 0 0 1.226.062l5.057-3.879 4.231 4.855a.95.95 0 0 0 1.265.148l5.625-4.008 5.592 6.238c.067.074.151.12.233.168l-.607 2.492zm-2.843-.305a146.152 146.152 0 0 0-6.466-.647l3.648-2.442 2.818 3.089zm-11.087-.977c-1.902-.12-4.035-.236-6.417-.345l3.59-2.752 2.827 3.097zm-10.384-.511a584.532 584.532 0 0 0-7.057-.221l3.69-3.104 3.367 3.325zm-10.813-.308a799.533 799.533 0 0 0-6.946-.111l3.507-3.08 3.439 3.191zm-11.741-9.442c1.966.025 4.014.061 6.109.105l-3.198 2.753-2.911-2.858zm10.889.22c2.036.056 4.093.125 6.146.202l-3.218 2.681-2.928-2.883zm10.988.411c2.174.105 4.32.222 6.401.356l-3.319 2.546-3.082-2.902zm10.877.685c2.338.19 4.55.405 6.586.648l-3.715 2.647-2.871-3.295zm-50.268-1.345c2.847-.042 7.95-.065 14.175-.009.355 9.004 1.142 16.237 2.337 21.55H62.492l-3.811-21.541zm61.956 21.542H77.132c-.665-2.849-1.204-6.31-1.617-10.338 31.69.209 43.729 1.782 46.738 2.274a.92.92 0 0 0 .298.202l-1.914 7.862zm6.723-27.618c-4.006-.937-20.542-4.446-44.395-4.904 1.681-.67 3.114-1.395 4.321-2.145.564.071 2.225.254 4.307.254 4.323 0 10.396-.818 12.073-5.064 9.846 2.155 19.938 3.57 25.542 4.27l-1.848 7.589z"/>
      <path d="M66.592 120.606a3.161 3.161 0 0 0-3.158-3.158 3.161 3.161 0 0 0-3.158 3.158 3.161 3.161 0 0 0 3.158 3.158 3.162 3.162 0 0 0 3.158-3.158zm-3.158 1.263a1.264 1.264 0 1 1 .001-2.527 1.264 1.264 0 0 1-.001 2.527zm26.473 57.452a3.108 3.108 0 0 0-3.105 3.105 3.109 3.109 0 0 0 3.105 3.105 3.11 3.11 0 0 0 3.106-3.105 3.11 3.11 0 0 0-3.106-3.105zm0 4.316a1.211 1.211 0 1 1 .002-2.422 1.211 1.211 0 0 1-.002 2.422zm9.283-3.786a3.11 3.11 0 0 0-3.106 3.106 3.11 3.11 0 0 0 3.106 3.105 3.108 3.108 0 0 0 3.105-3.105 3.109 3.109 0 0 0-3.105-3.106zm0 4.316a1.213 1.213 0 0 1-1.212-1.21 1.212 1.212 0 1 1 1.212 1.21z"/>
    </g>
  </g>
</svg>
