<?xml version="1.0" encoding="iso-8859-1"?>
<!-- Generator: Adobe Illustrator 19.0.0, SVG Export Plug-In . SVG Version: 6.00 Build 0)  -->
<svg version="1.1" id="Layer_1" xmlns="http://www.w3.org/2000/svg" xmlns:xlink="http://www.w3.org/1999/xlink" x="0px" y="0px"
	 viewBox="0 0 512 512" style="enable-background:new 0 0 512 512;" xml:space="preserve">
<path style="fill:#F5F5F5;" d="M503.172,423.724H8.828c-4.875,0-8.828-3.953-8.828-8.828V97.103c0-4.875,3.953-8.828,8.828-8.828
	h494.345c4.875,0,8.828,3.953,8.828,8.828v317.793C512,419.772,508.047,423.724,503.172,423.724z"/>
<path style="fill:#FF4B55;" d="M256,256h247.172c4.875,0,8.828-3.953,8.828-8.828V97.103c0-4.875-3.953-8.828-8.828-8.828H264.828
	c-4.875,0-8.828,3.953-8.828,8.828V256z"/>
<g>
	<path style="fill:#4173CD;" d="M8.828,423.724h238.345c4.875,0,8.828-3.953,8.828-8.828V256H8.828C3.953,256,0,259.953,0,264.828
		v150.069C0,419.772,3.953,423.724,8.828,423.724z"/>
	<path style="fill:#4173CD;" d="M131.4,134.487l8.416,25.234l26.6,0.206c3.444,0.026,4.872,4.422,2.101,6.467l-21.398,15.801
		l8.023,25.362c1.038,3.284-2.7,5.999-5.502,3.997L128,196.087l-21.641,15.468c-2.802,2.003-6.54-0.714-5.502-3.997l8.023-25.362
		l-21.398-15.801c-2.771-2.046-1.343-6.441,2.101-6.467l26.6-0.206l8.416-25.234C125.689,131.22,130.311,131.22,131.4,134.487z"/>
</g>
<path style="fill:#FF4B55;" d="M387.4,302.211l8.416,25.234l26.6,0.206c3.444,0.026,4.872,4.422,2.101,6.467l-21.398,15.801
	l8.023,25.362c1.038,3.284-2.7,5.999-5.502,3.997L384,363.811l-21.641,15.468c-2.802,2.003-6.54-0.714-5.502-3.997l8.023-25.362
	l-21.398-15.801c-2.771-2.046-1.343-6.441,2.101-6.467l26.6-0.206l8.416-25.234C381.689,298.944,386.311,298.944,387.4,302.211z"/>
<g>
</g>
<g>
</g>
<g>
</g>
<g>
</g>
<g>
</g>
<g>
</g>
<g>
</g>
<g>
</g>
<g>
</g>
<g>
</g>
<g>
</g>
<g>
</g>
<g>
</g>
<g>
</g>
<g>
</g>
</svg>
