<?xml version="1.0" encoding="iso-8859-1"?>
<!-- Generator: Adobe Illustrator 19.0.0, SVG Export Plug-In . SVG Version: 6.00 Build 0)  -->
<svg version="1.1" id="Layer_1" xmlns="http://www.w3.org/2000/svg" xmlns:xlink="http://www.w3.org/1999/xlink" x="0px" y="0px"
	 viewBox="0 0 512 512" style="enable-background:new 0 0 512 512;" xml:space="preserve">
<path style="fill:#73AF00;" d="M170.667,423.724H8.828c-4.875,0-8.828-3.953-8.828-8.828V97.103c0-4.875,3.953-8.828,8.828-8.828
	h161.839V423.724z"/>
<rect x="170.67" y="88.276" style="fill:#FFE15A;" width="170.67" height="335.448"/>
<path style="fill:#FF4B55;" d="M503.172,423.724H341.333V88.276h161.839c4.875,0,8.828,3.953,8.828,8.828v317.793
	C512,419.772,508.047,423.724,503.172,423.724z"/>
<path style="fill:#73AF00;" d="M258.04,205.78l11.693,35.062l36.959,0.287c2.067,0.017,2.924,2.654,1.261,3.881l-29.732,21.955
	l11.148,35.239c0.623,1.971-1.62,3.601-3.302,2.399L256,283.109l-30.069,21.492c-1.682,1.202-3.925-0.428-3.302-2.399l11.148-35.239
	l-29.732-21.955c-1.663-1.228-0.806-3.865,1.261-3.881l36.959-0.287l11.693-35.062C254.613,203.819,257.387,203.819,258.04,205.78z"
	/>
<g>
</g>
<g>
</g>
<g>
</g>
<g>
</g>
<g>
</g>
<g>
</g>
<g>
</g>
<g>
</g>
<g>
</g>
<g>
</g>
<g>
</g>
<g>
</g>
<g>
</g>
<g>
</g>
<g>
</g>
</svg>
