<?xml version="1.0" encoding="iso-8859-1"?>
<!-- Generator: Adobe Illustrator 19.0.0, SVG Export Plug-In . SVG Version: 6.00 Build 0)  -->
<svg version="1.1" id="Layer_1" xmlns="http://www.w3.org/2000/svg" xmlns:xlink="http://www.w3.org/1999/xlink" x="0px" y="0px"
	 viewBox="0 0 512 512" style="enable-background:new 0 0 512 512;" xml:space="preserve">
<path style="fill:#F5F5F5;" d="M503.172,423.724H8.828c-4.875,0-8.828-3.953-8.828-8.828V97.103c0-4.875,3.953-8.828,8.828-8.828
	h494.345c4.875,0,8.828,3.953,8.828,8.828v317.793C512,419.772,508.047,423.724,503.172,423.724z"/>
<g>
	<path style="fill:#FF4B55;" d="M512,114.08H0V97.103c0-4.875,3.953-8.828,8.828-8.828h494.345c4.875,0,8.828,3.953,8.828,8.828
		V114.08z"/>
	<rect y="191.492" style="fill:#FF4B55;" width="512" height="25.804"/>
	<rect y="139.884" style="fill:#FF4B55;" width="512" height="25.804"/>
	<path style="fill:#FF4B55;" d="M512,268.902H8.828c-4.875,0-8.828-3.953-8.828-8.828v-16.977h512V268.902z"/>
	<rect y="346.317" style="fill:#FF4B55;" width="512" height="25.804"/>
	<path style="fill:#FF4B55;" d="M503.172,423.724H8.828c-4.875,0-8.828-3.953-8.828-8.828V397.92h512v16.977
		C512,419.772,508.047,423.724,503.172,423.724z"/>
	<rect y="294.709" style="fill:#FF4B55;" width="512" height="25.804"/>
</g>
<path style="fill:#41479B;" d="M229.517,88.276H8.828C3.953,88.276,0,92.228,0,97.103v162.97c0,4.875,3.953,8.828,8.828,8.828
	h220.69c4.875,0,8.828-3.953,8.828-8.828V97.103C238.345,92.228,234.392,88.276,229.517,88.276z"/>
<g>
	<path style="fill:#F5F5F5;" d="M24.789,108.537l1.954,5.86l6.177,0.047c0.8,0.007,1.131,1.027,0.488,1.502l-4.969,3.67l1.864,5.889
		c0.242,0.762-0.627,1.394-1.278,0.928L24,122.842l-5.025,3.592c-0.651,0.465-1.518-0.166-1.278-0.928l1.864-5.889l-4.969-3.67
		c-0.643-0.476-0.312-1.495,0.488-1.502l6.177-0.047l1.954-5.86C23.463,107.778,24.535,107.778,24.789,108.537z"/>
	<path style="fill:#F5F5F5;" d="M24.789,139.191l1.954,5.86l6.177,0.047c0.8,0.007,1.131,1.027,0.488,1.502l-4.969,3.67l1.864,5.889
		c0.242,0.762-0.627,1.394-1.278,0.928L24,153.496l-5.025,3.592c-0.651,0.465-1.518-0.166-1.278-0.928l1.864-5.889l-4.969-3.67
		c-0.643-0.476-0.312-1.495,0.488-1.502l6.177-0.047l1.954-5.86C23.463,138.433,24.535,138.433,24.789,139.191z"/>
	<path style="fill:#F5F5F5;" d="M24.789,169.845l1.954,5.86l6.177,0.047c0.8,0.007,1.131,1.027,0.488,1.502l-4.969,3.67l1.864,5.889
		c0.242,0.762-0.627,1.394-1.278,0.928L24,184.15l-5.025,3.592c-0.651,0.465-1.518-0.166-1.278-0.928l1.864-5.889l-4.969-3.67
		c-0.643-0.476-0.312-1.495,0.488-1.502l6.177-0.047l1.954-5.86C23.463,169.087,24.535,169.087,24.789,169.845z"/>
	<path style="fill:#F5F5F5;" d="M24.789,200.5l1.954,5.86l6.177,0.047c0.8,0.007,1.131,1.027,0.488,1.502l-4.969,3.67l1.864,5.889
		c0.242,0.762-0.627,1.394-1.278,0.928L24,214.805l-5.025,3.592c-0.651,0.465-1.518-0.166-1.278-0.928l1.864-5.889l-4.969-3.67
		c-0.643-0.476-0.312-1.495,0.488-1.502l6.177-0.047l1.954-5.86C23.463,199.741,24.535,199.741,24.789,200.5z"/>
	<path style="fill:#F5F5F5;" d="M24.789,231.154l1.954,5.86l6.177,0.047c0.8,0.007,1.131,1.027,0.488,1.502l-4.969,3.67l1.864,5.889
		c0.242,0.762-0.627,1.394-1.278,0.928L24,245.459l-5.025,3.592c-0.651,0.465-1.518-0.166-1.278-0.928l1.864-5.889l-4.969-3.67
		c-0.643-0.476-0.312-1.495,0.488-1.502l6.177-0.047l1.954-5.86C23.463,230.394,24.535,230.394,24.789,231.154z"/>
	<path style="fill:#F5F5F5;" d="M48.582,123.566l1.954,5.86l6.177,0.047c0.8,0.007,1.131,1.027,0.488,1.502l-4.969,3.67l1.864,5.889
		c0.242,0.762-0.627,1.394-1.278,0.928l-5.025-3.592l-5.025,3.592c-0.651,0.465-1.518-0.166-1.278-0.928l1.864-5.889l-4.969-3.67
		c-0.643-0.476-0.312-1.495,0.488-1.502l6.177-0.047l1.954-5.86C47.255,122.808,48.329,122.808,48.582,123.566z"/>
	<path style="fill:#F5F5F5;" d="M48.582,154.221l1.954,5.86l6.177,0.047c0.8,0.007,1.131,1.027,0.488,1.502l-4.969,3.67l1.864,5.889
		c0.242,0.762-0.627,1.394-1.278,0.928l-5.025-3.592l-5.025,3.592c-0.651,0.465-1.518-0.165-1.278-0.928l1.864-5.889l-4.969-3.67
		c-0.643-0.476-0.312-1.495,0.488-1.502l6.177-0.047l1.954-5.86C47.255,153.462,48.329,153.462,48.582,154.221z"/>
	<path style="fill:#F5F5F5;" d="M48.582,184.875l1.954,5.86l6.177,0.047c0.8,0.007,1.131,1.027,0.488,1.502l-4.969,3.67l1.864,5.889
		c0.242,0.762-0.627,1.394-1.278,0.928l-5.025-3.592l-5.025,3.592c-0.651,0.465-1.518-0.166-1.278-0.928l1.864-5.889l-4.969-3.67
		c-0.643-0.476-0.312-1.495,0.488-1.502l6.177-0.047l1.954-5.86C47.255,184.116,48.329,184.116,48.582,184.875z"/>
	<path style="fill:#F5F5F5;" d="M48.582,215.529l1.954,5.86l6.177,0.047c0.8,0.007,1.131,1.027,0.488,1.502l-4.969,3.67l1.864,5.889
		c0.242,0.762-0.627,1.394-1.278,0.928l-5.025-3.592l-5.025,3.592c-0.651,0.465-1.518-0.166-1.278-0.928l1.864-5.889l-4.969-3.67
		c-0.643-0.476-0.312-1.495,0.488-1.502l6.177-0.047l1.954-5.86C47.255,214.771,48.329,214.771,48.582,215.529z"/>
	<path style="fill:#F5F5F5;" d="M72.375,108.537l1.954,5.86l6.177,0.047c0.8,0.007,1.131,1.027,0.488,1.502l-4.969,3.67l1.864,5.889
		c0.242,0.762-0.627,1.394-1.278,0.928l-5.025-3.592l-5.025,3.592c-0.651,0.465-1.518-0.166-1.278-0.928l1.864-5.889l-4.969-3.67
		c-0.643-0.476-0.312-1.495,0.488-1.502l6.177-0.047l1.954-5.86C71.049,107.778,72.122,107.778,72.375,108.537z"/>
	<path style="fill:#F5F5F5;" d="M72.375,139.191l1.954,5.86l6.177,0.047c0.8,0.007,1.131,1.027,0.488,1.502l-4.969,3.67l1.864,5.889
		c0.242,0.762-0.627,1.394-1.278,0.928l-5.025-3.592l-5.025,3.592c-0.651,0.465-1.518-0.166-1.278-0.928l1.864-5.889l-4.969-3.67
		c-0.643-0.476-0.312-1.495,0.488-1.502l6.177-0.047l1.954-5.86C71.049,138.433,72.122,138.433,72.375,139.191z"/>
	<path style="fill:#F5F5F5;" d="M72.375,169.845l1.954,5.86l6.177,0.047c0.8,0.007,1.131,1.027,0.488,1.502l-4.969,3.67l1.864,5.889
		c0.242,0.762-0.627,1.394-1.278,0.928l-5.025-3.592l-5.025,3.592c-0.651,0.465-1.518-0.166-1.278-0.928l1.864-5.889l-4.969-3.67
		c-0.643-0.476-0.312-1.495,0.488-1.502l6.177-0.047l1.954-5.86C71.049,169.087,72.122,169.087,72.375,169.845z"/>
	<path style="fill:#F5F5F5;" d="M72.375,200.5l1.954,5.86l6.177,0.047c0.8,0.007,1.131,1.027,0.488,1.502l-4.969,3.67l1.864,5.889
		c0.242,0.762-0.627,1.394-1.278,0.928l-5.025-3.592l-5.025,3.592c-0.651,0.465-1.518-0.166-1.278-0.928l1.864-5.889l-4.969-3.67
		c-0.643-0.476-0.312-1.495,0.488-1.502l6.177-0.047l1.954-5.86C71.049,199.741,72.122,199.741,72.375,200.5z"/>
	<path style="fill:#F5F5F5;" d="M72.375,231.154l1.954,5.86l6.177,0.047c0.8,0.007,1.131,1.027,0.488,1.502l-4.969,3.67l1.864,5.889
		c0.242,0.762-0.627,1.394-1.278,0.928l-5.025-3.592l-5.025,3.592c-0.651,0.465-1.518-0.166-1.278-0.928l1.864-5.889l-4.969-3.67
		c-0.643-0.476-0.312-1.495,0.488-1.502l6.177-0.047l1.954-5.86C71.049,230.394,72.122,230.394,72.375,231.154z"/>
	<path style="fill:#F5F5F5;" d="M96.169,123.566l1.954,5.86l6.177,0.047c0.8,0.007,1.131,1.027,0.488,1.502l-4.969,3.67l1.864,5.889
		c0.242,0.762-0.627,1.394-1.278,0.928l-5.025-3.592l-5.025,3.592c-0.651,0.465-1.518-0.166-1.278-0.928l1.864-5.889l-4.969-3.67
		c-0.643-0.476-0.312-1.495,0.488-1.502l6.177-0.047l1.954-5.86C94.842,122.808,95.916,122.808,96.169,123.566z"/>
	<path style="fill:#F5F5F5;" d="M96.169,154.221l1.954,5.86l6.177,0.047c0.8,0.007,1.131,1.027,0.488,1.502l-4.969,3.67l1.864,5.889
		c0.242,0.762-0.627,1.394-1.278,0.928l-5.025-3.592l-5.025,3.592c-0.651,0.465-1.518-0.165-1.278-0.928l1.864-5.889l-4.969-3.67
		c-0.643-0.476-0.312-1.495,0.488-1.502l6.177-0.047l1.954-5.86C94.842,153.462,95.916,153.462,96.169,154.221z"/>
	<path style="fill:#F5F5F5;" d="M96.169,184.875l1.954,5.86l6.177,0.047c0.8,0.007,1.131,1.027,0.488,1.502l-4.969,3.67l1.864,5.889
		c0.242,0.762-0.627,1.394-1.278,0.928l-5.025-3.592l-5.025,3.592c-0.651,0.465-1.518-0.166-1.278-0.928l1.864-5.889l-4.969-3.67
		c-0.643-0.476-0.312-1.495,0.488-1.502l6.177-0.047l1.954-5.86C94.842,184.116,95.916,184.116,96.169,184.875z"/>
	<path style="fill:#F5F5F5;" d="M96.169,215.529l1.954,5.86l6.177,0.047c0.8,0.007,1.131,1.027,0.488,1.502l-4.969,3.67l1.864,5.889
		c0.242,0.762-0.627,1.394-1.278,0.928l-5.025-3.592l-5.025,3.592c-0.651,0.465-1.518-0.166-1.278-0.928l1.864-5.889l-4.969-3.67
		c-0.643-0.476-0.312-1.495,0.488-1.502l6.177-0.047l1.954-5.86C94.842,214.771,95.916,214.771,96.169,215.529z"/>
	<path style="fill:#F5F5F5;" d="M119.962,108.537l1.954,5.86l6.177,0.047c0.8,0.007,1.131,1.027,0.488,1.502l-4.969,3.67
		l1.864,5.889c0.242,0.762-0.627,1.394-1.278,0.928l-5.026-3.592l-5.025,3.592c-0.651,0.465-1.518-0.166-1.278-0.928l1.864-5.889
		l-4.969-3.67c-0.643-0.476-0.312-1.495,0.488-1.502l6.177-0.047l1.954-5.86C118.636,107.778,119.709,107.778,119.962,108.537z"/>
	<path style="fill:#F5F5F5;" d="M119.962,139.191l1.954,5.86l6.177,0.047c0.8,0.007,1.131,1.027,0.488,1.502l-4.969,3.67
		l1.864,5.889c0.242,0.762-0.627,1.394-1.278,0.928l-5.026-3.592l-5.025,3.592c-0.651,0.465-1.518-0.166-1.278-0.928l1.864-5.889
		l-4.969-3.67c-0.643-0.476-0.312-1.495,0.488-1.502l6.177-0.047l1.954-5.86C118.636,138.433,119.709,138.433,119.962,139.191z"/>
	<path style="fill:#F5F5F5;" d="M119.962,169.845l1.954,5.86l6.177,0.047c0.8,0.007,1.131,1.027,0.488,1.502l-4.969,3.67
		l1.864,5.889c0.242,0.762-0.627,1.394-1.278,0.928l-5.026-3.592l-5.025,3.592c-0.651,0.465-1.518-0.166-1.278-0.928l1.864-5.889
		l-4.969-3.67c-0.643-0.476-0.312-1.495,0.488-1.502l6.177-0.047l1.954-5.86C118.636,169.087,119.709,169.087,119.962,169.845z"/>
	<path style="fill:#F5F5F5;" d="M119.962,200.5l1.954,5.86l6.177,0.047c0.8,0.007,1.131,1.027,0.488,1.502l-4.969,3.67l1.864,5.889
		c0.242,0.762-0.627,1.394-1.278,0.928l-5.026-3.592l-5.025,3.592c-0.651,0.465-1.518-0.166-1.278-0.928l1.864-5.889l-4.969-3.67
		c-0.643-0.476-0.312-1.495,0.488-1.502l6.177-0.047l1.954-5.86C118.636,199.741,119.709,199.741,119.962,200.5z"/>
	<path style="fill:#F5F5F5;" d="M119.962,231.154l1.954,5.86l6.177,0.047c0.8,0.007,1.131,1.027,0.488,1.502l-4.969,3.67
		l1.864,5.889c0.242,0.762-0.627,1.394-1.278,0.928l-5.026-3.592l-5.025,3.592c-0.651,0.465-1.518-0.166-1.278-0.928l1.864-5.889
		l-4.969-3.67c-0.643-0.476-0.312-1.495,0.488-1.502l6.177-0.047l1.954-5.86C118.636,230.394,119.709,230.394,119.962,231.154z"/>
	<path style="fill:#F5F5F5;" d="M143.755,123.566l1.954,5.86l6.177,0.047c0.8,0.007,1.131,1.027,0.488,1.502l-4.969,3.67
		l1.864,5.889c0.242,0.762-0.627,1.394-1.278,0.928l-5.025-3.592l-5.025,3.592c-0.651,0.465-1.518-0.166-1.278-0.928l1.864-5.889
		l-4.969-3.67c-0.643-0.476-0.312-1.495,0.488-1.502l6.177-0.047l1.954-5.86C142.43,122.808,143.502,122.808,143.755,123.566z"/>
	<path style="fill:#F5F5F5;" d="M143.755,154.221l1.954,5.86l6.177,0.047c0.8,0.007,1.131,1.027,0.488,1.502l-4.969,3.67
		l1.864,5.889c0.242,0.762-0.627,1.394-1.278,0.928l-5.025-3.592l-5.025,3.592c-0.651,0.465-1.518-0.165-1.278-0.928l1.864-5.889
		l-4.969-3.67c-0.643-0.476-0.312-1.495,0.488-1.502l6.177-0.047l1.954-5.86C142.43,153.462,143.502,153.462,143.755,154.221z"/>
	<path style="fill:#F5F5F5;" d="M143.755,184.875l1.954,5.86l6.177,0.047c0.8,0.007,1.131,1.027,0.488,1.502l-4.969,3.67
		l1.864,5.889c0.242,0.762-0.627,1.394-1.278,0.928l-5.025-3.592l-5.025,3.592c-0.651,0.465-1.518-0.166-1.278-0.928l1.864-5.889
		l-4.969-3.67c-0.643-0.476-0.312-1.495,0.488-1.502l6.177-0.047l1.954-5.86C142.43,184.116,143.502,184.116,143.755,184.875z"/>
	<path style="fill:#F5F5F5;" d="M143.755,215.529l1.954,5.86l6.177,0.047c0.8,0.007,1.131,1.027,0.488,1.502l-4.969,3.67
		l1.864,5.889c0.242,0.762-0.627,1.394-1.278,0.928l-5.025-3.592l-5.025,3.592c-0.651,0.465-1.518-0.166-1.278-0.928l1.864-5.889
		l-4.969-3.67c-0.643-0.476-0.312-1.495,0.488-1.502l6.177-0.047l1.954-5.86C142.43,214.771,143.502,214.771,143.755,215.529z"/>
	<path style="fill:#F5F5F5;" d="M167.549,108.537l1.954,5.86l6.177,0.047c0.8,0.007,1.131,1.027,0.488,1.502l-4.969,3.67
		l1.864,5.889c0.242,0.762-0.627,1.394-1.278,0.928l-5.025-3.592l-5.025,3.592c-0.651,0.465-1.518-0.166-1.278-0.928l1.864-5.889
		l-4.969-3.67c-0.643-0.476-0.312-1.495,0.488-1.502l6.177-0.047l1.954-5.86C166.222,107.778,167.296,107.778,167.549,108.537z"/>
	<path style="fill:#F5F5F5;" d="M167.549,139.191l1.954,5.86l6.177,0.047c0.8,0.007,1.131,1.027,0.488,1.502l-4.969,3.67
		l1.864,5.889c0.242,0.762-0.627,1.394-1.278,0.928l-5.025-3.592l-5.025,3.592c-0.651,0.465-1.518-0.166-1.278-0.928l1.864-5.889
		l-4.969-3.67c-0.643-0.476-0.312-1.495,0.488-1.502l6.177-0.047l1.954-5.86C166.222,138.433,167.296,138.433,167.549,139.191z"/>
	<path style="fill:#F5F5F5;" d="M167.549,169.845l1.954,5.86l6.177,0.047c0.8,0.007,1.131,1.027,0.488,1.502l-4.969,3.67
		l1.864,5.889c0.242,0.762-0.627,1.394-1.278,0.928l-5.025-3.592l-5.025,3.592c-0.651,0.465-1.518-0.166-1.278-0.928l1.864-5.889
		l-4.969-3.67c-0.643-0.476-0.312-1.495,0.488-1.502l6.177-0.047l1.954-5.86C166.222,169.087,167.296,169.087,167.549,169.845z"/>
	<path style="fill:#F5F5F5;" d="M167.549,200.5l1.954,5.86l6.177,0.047c0.8,0.007,1.131,1.027,0.488,1.502l-4.969,3.67l1.864,5.889
		c0.242,0.762-0.627,1.394-1.278,0.928l-5.025-3.592l-5.025,3.592c-0.651,0.465-1.518-0.166-1.278-0.928l1.864-5.889l-4.969-3.67
		c-0.643-0.476-0.312-1.495,0.488-1.502l6.177-0.047l1.954-5.86C166.222,199.741,167.296,199.741,167.549,200.5z"/>
	<path style="fill:#F5F5F5;" d="M167.549,231.154l1.954,5.86l6.177,0.047c0.8,0.007,1.131,1.027,0.488,1.502l-4.969,3.67
		l1.864,5.889c0.242,0.762-0.627,1.394-1.278,0.928l-5.025-3.592l-5.025,3.592c-0.651,0.465-1.518-0.166-1.278-0.928l1.864-5.889
		l-4.969-3.67c-0.643-0.476-0.312-1.495,0.488-1.502l6.177-0.047l1.954-5.86C166.222,230.394,167.296,230.394,167.549,231.154z"/>
	<path style="fill:#F5F5F5;" d="M191.342,123.566l1.954,5.86l6.177,0.047c0.8,0.007,1.131,1.027,0.488,1.502l-4.969,3.67
		l1.864,5.889c0.242,0.762-0.627,1.394-1.278,0.928l-5.025-3.592l-5.025,3.592c-0.651,0.465-1.518-0.166-1.278-0.928l1.864-5.889
		l-4.969-3.67c-0.643-0.476-0.312-1.495,0.488-1.502l6.177-0.047l1.954-5.86C190.016,122.808,191.09,122.808,191.342,123.566z"/>
	<path style="fill:#F5F5F5;" d="M191.342,154.221l1.954,5.86l6.177,0.047c0.8,0.007,1.131,1.027,0.488,1.502l-4.969,3.67
		l1.864,5.889c0.242,0.762-0.627,1.394-1.278,0.928l-5.025-3.592l-5.025,3.592c-0.651,0.465-1.518-0.165-1.278-0.928l1.864-5.889
		l-4.969-3.67c-0.643-0.476-0.312-1.495,0.488-1.502l6.177-0.047l1.954-5.86C190.016,153.462,191.09,153.462,191.342,154.221z"/>
	<path style="fill:#F5F5F5;" d="M191.342,184.875l1.954,5.86l6.177,0.047c0.8,0.007,1.131,1.027,0.488,1.502l-4.969,3.67
		l1.864,5.889c0.242,0.762-0.627,1.394-1.278,0.928l-5.025-3.592l-5.025,3.592c-0.651,0.465-1.518-0.166-1.278-0.928l1.864-5.889
		l-4.969-3.67c-0.643-0.476-0.312-1.495,0.488-1.502l6.177-0.047l1.954-5.86C190.016,184.116,191.09,184.116,191.342,184.875z"/>
	<path style="fill:#F5F5F5;" d="M191.342,215.529l1.954,5.86l6.177,0.047c0.8,0.007,1.131,1.027,0.488,1.502l-4.969,3.67
		l1.864,5.889c0.242,0.762-0.627,1.394-1.278,0.928l-5.025-3.592l-5.025,3.592c-0.651,0.465-1.518-0.166-1.278-0.928l1.864-5.889
		l-4.969-3.67c-0.643-0.476-0.312-1.495,0.488-1.502l6.177-0.047l1.954-5.86C190.016,214.771,191.09,214.771,191.342,215.529z"/>
	<path style="fill:#F5F5F5;" d="M215.136,108.537l1.954,5.86l6.177,0.047c0.8,0.007,1.131,1.027,0.488,1.502l-4.969,3.67
		l1.864,5.889c0.242,0.762-0.627,1.394-1.278,0.928l-5.025-3.592l-5.025,3.592c-0.651,0.465-1.518-0.166-1.278-0.928l1.864-5.889
		l-4.969-3.67c-0.643-0.476-0.312-1.495,0.488-1.502l6.177-0.047l1.954-5.86C213.81,107.778,214.882,107.778,215.136,108.537z"/>
	<path style="fill:#F5F5F5;" d="M215.136,139.191l1.954,5.86l6.177,0.047c0.8,0.007,1.131,1.027,0.488,1.502l-4.969,3.67
		l1.864,5.889c0.242,0.762-0.627,1.394-1.278,0.928l-5.025-3.592l-5.025,3.592c-0.651,0.465-1.518-0.166-1.278-0.928l1.864-5.889
		l-4.969-3.67c-0.643-0.476-0.312-1.495,0.488-1.502l6.177-0.047l1.954-5.86C213.81,138.433,214.882,138.433,215.136,139.191z"/>
	<path style="fill:#F5F5F5;" d="M215.136,169.845l1.954,5.86l6.177,0.047c0.8,0.007,1.131,1.027,0.488,1.502l-4.969,3.67
		l1.864,5.889c0.242,0.762-0.627,1.394-1.278,0.928l-5.025-3.592l-5.025,3.592c-0.651,0.465-1.518-0.166-1.278-0.928l1.864-5.889
		l-4.969-3.67c-0.643-0.476-0.312-1.495,0.488-1.502l6.177-0.047l1.954-5.86C213.81,169.087,214.882,169.087,215.136,169.845z"/>
	<path style="fill:#F5F5F5;" d="M215.136,200.5l1.954,5.86l6.177,0.047c0.8,0.007,1.131,1.027,0.488,1.502l-4.969,3.67l1.864,5.889
		c0.242,0.762-0.627,1.394-1.278,0.928l-5.025-3.592l-5.025,3.592c-0.651,0.465-1.518-0.166-1.278-0.928l1.864-5.889l-4.969-3.67
		c-0.643-0.476-0.312-1.495,0.488-1.502l6.177-0.047l1.954-5.86C213.81,199.741,214.882,199.741,215.136,200.5z"/>
	<path style="fill:#F5F5F5;" d="M215.136,231.154l1.954,5.86l6.177,0.047c0.8,0.007,1.131,1.027,0.488,1.502l-4.969,3.67
		l1.864,5.889c0.242,0.762-0.627,1.394-1.278,0.928l-5.025-3.592l-5.025,3.592c-0.651,0.465-1.518-0.166-1.278-0.928l1.864-5.889
		l-4.969-3.67c-0.643-0.476-0.312-1.495,0.488-1.502l6.177-0.047l1.954-5.86C213.81,230.394,214.882,230.394,215.136,231.154z"/>
</g>
<g>
</g>
<g>
</g>
<g>
</g>
<g>
</g>
<g>
</g>
<g>
</g>
<g>
</g>
<g>
</g>
<g>
</g>
<g>
</g>
<g>
</g>
<g>
</g>
<g>
</g>
<g>
</g>
<g>
</g>
</svg>
